M48
; DRILL file {KiCad 7.0.7-7.0.7~ubuntu22.04.1} date Wed 20 Sep 2023 10:03:59 AM MDT
; FORMAT={-:-/ absolute / inch / decimal}
; #@! TF.CreationDate,2023-09-20T10:03:59-06:00
; #@! TF.GenerationSoftware,Kicad,Pcbnew,7.0.7-7.0.7~ubuntu22.04.1
; #@! TF.FileFunction,Plated,1,2,PTH
FMAT,2
INCH
; #@! TA.AperFunction,Plated,PTH,ComponentDrill
T1C0.0276
; #@! TA.AperFunction,Plated,PTH,ComponentDrill
T2C0.0354
; #@! TA.AperFunction,Plated,PTH,ComponentDrill
T3C0.0394
; #@! TA.AperFunction,Plated,PTH,ComponentDrill
T4C0.0433
; #@! TA.AperFunction,Plated,PTH,ComponentDrill
T5C0.0520
; #@! TA.AperFunction,Plated,PTH,ComponentDrill
T6C0.0984
%
G90
G05
T1
X5.4244Y-4.8457
X5.5244Y-4.8457
T2
X6.327Y-5.0984
X6.427Y-5.0984
T3
X4.0748Y-2.6248
X4.0748Y-2.7248
X4.0748Y-2.8248
X4.0748Y-2.9248
X4.0748Y-3.0248
X4.0748Y-3.1248
X4.0749Y-3.3614
X4.0749Y-3.4614
X4.0749Y-3.5614
X4.0749Y-3.6614
X4.7461Y-2.8429
X4.7461Y-2.9429
X4.7461Y-3.0429
X4.7461Y-3.1429
X4.7461Y-3.2429
X4.7461Y-3.3429
X4.7461Y-3.4429
X4.7461Y-3.5429
X4.7461Y-3.6429
X4.7461Y-3.7429
X4.7461Y-3.8429
X4.7461Y-3.9429
X4.7461Y-4.0429
X4.7461Y-4.1429
X4.7461Y-4.2429
X5.3461Y-2.8429
X5.3461Y-2.9429
X5.3461Y-3.0429
X5.3461Y-3.1429
X5.3461Y-3.2429
X5.3461Y-3.3429
X5.3461Y-3.4429
X5.3461Y-3.5429
X5.3461Y-3.6429
X5.3461Y-3.7429
X5.3461Y-3.8429
X5.3461Y-3.9429
X5.3461Y-4.0429
X5.3461Y-4.1429
X5.3461Y-4.2429
X5.8268Y-4.2205
X5.8268Y-4.5197
T4
X5.1384Y-4.9984
X5.1384Y-5.0984
X5.1384Y-5.1984
T5
X6.2992Y-4.4488
X6.4961Y-4.4488
T6
X4.5376Y-2.6988
X4.5376Y-3.9193
X7.4903Y-2.6988
X7.4903Y-3.9193
T0
M30
