%TF.GenerationSoftware,KiCad,Pcbnew,7.0.7-7.0.7~ubuntu22.04.1*%
%TF.CreationDate,2023-09-20T10:04:04-06:00*%
%TF.ProjectId,ph_meter,70685f6d-6574-4657-922e-6b696361645f,1.1 - E*%
%TF.SameCoordinates,Original*%
%TF.FileFunction,Copper,L2,Bot*%
%TF.FilePolarity,Positive*%
%FSLAX46Y46*%
G04 Gerber Fmt 4.6, Leading zero omitted, Abs format (unit mm)*
G04 Created by KiCad (PCBNEW 7.0.7-7.0.7~ubuntu22.04.1) date 2023-09-20 10:04:04*
%MOMM*%
%LPD*%
G01*
G04 APERTURE LIST*
%TA.AperFunction,ComponentPad*%
%ADD10C,1.400000*%
%TD*%
%TA.AperFunction,ComponentPad*%
%ADD11O,1.400000X1.400000*%
%TD*%
%TA.AperFunction,ComponentPad*%
%ADD12R,1.700000X1.700000*%
%TD*%
%TA.AperFunction,ComponentPad*%
%ADD13O,1.700000X1.700000*%
%TD*%
%TA.AperFunction,ComponentPad*%
%ADD14R,1.600000X1.600000*%
%TD*%
%TA.AperFunction,ComponentPad*%
%ADD15O,1.600000X1.600000*%
%TD*%
%TA.AperFunction,ComponentPad*%
%ADD16R,1.800000X1.800000*%
%TD*%
%TA.AperFunction,ComponentPad*%
%ADD17O,1.800000X1.800000*%
%TD*%
%TA.AperFunction,ComponentPad*%
%ADD18R,2.000000X2.000000*%
%TD*%
%TA.AperFunction,ComponentPad*%
%ADD19C,2.000000*%
%TD*%
%TA.AperFunction,ComponentPad*%
%ADD20R,1.980000X3.960000*%
%TD*%
%TA.AperFunction,ComponentPad*%
%ADD21O,1.980000X3.960000*%
%TD*%
%TA.AperFunction,ComponentPad*%
%ADD22C,3.000000*%
%TD*%
%TA.AperFunction,ComponentPad*%
%ADD23R,2.000000X1.905000*%
%TD*%
%TA.AperFunction,ComponentPad*%
%ADD24O,2.000000X1.905000*%
%TD*%
%TA.AperFunction,Conductor*%
%ADD25C,0.304800*%
%TD*%
%TA.AperFunction,Conductor*%
%ADD26C,0.406400*%
%TD*%
G04 APERTURE END LIST*
D10*
%TO.P,R1,1*%
%TO.N,Net-(Q1-B)*%
X137780000Y-123080000D03*
D11*
%TO.P,R1,2*%
%TO.N,Net-(A1-D12)*%
X140320000Y-123080000D03*
%TD*%
D12*
%TO.P,J4,1,Pin_1*%
%TO.N,unconnected-(J4-Pin_1-Pad1)*%
X103500000Y-66670000D03*
D13*
%TO.P,J4,2,Pin_2*%
%TO.N,unconnected-(J4-Pin_2-Pad2)*%
X103500000Y-69210000D03*
%TO.P,J4,3,Pin_3*%
%TO.N,Net-(A1-A2)*%
X103500000Y-71750000D03*
%TO.P,J4,4,Pin_4*%
%TO.N,unconnected-(J4-Pin_4-Pad4)*%
X103500000Y-74290000D03*
%TO.P,J4,5,Pin_5*%
%TO.N,GND*%
X103500000Y-76830000D03*
%TO.P,J4,6,Pin_6*%
%TO.N,+5V*%
X103500000Y-79370000D03*
%TD*%
D14*
%TO.P,A1,1,D1/TX*%
%TO.N,unconnected-(A1-D1{slash}TX-Pad1)*%
X135791360Y-72210000D03*
D15*
%TO.P,A1,2,D0/RX*%
%TO.N,unconnected-(A1-D0{slash}RX-Pad2)*%
X135791360Y-74750000D03*
%TO.P,A1,3,~{RESET}*%
%TO.N,unconnected-(A1-~{RESET}-Pad3)*%
X135791360Y-77290000D03*
%TO.P,A1,4,GND*%
%TO.N,GND*%
X135791360Y-79830000D03*
%TO.P,A1,5,D2*%
%TO.N,unconnected-(A1-D2-Pad5)*%
X135791360Y-82370000D03*
%TO.P,A1,6,D3*%
%TO.N,unconnected-(A1-D3-Pad6)*%
X135791360Y-84910000D03*
%TO.P,A1,7,D4*%
%TO.N,unconnected-(A1-D4-Pad7)*%
X135791360Y-87450000D03*
%TO.P,A1,8,D5*%
%TO.N,unconnected-(A1-D5-Pad8)*%
X135791360Y-89990000D03*
%TO.P,A1,9,D6*%
%TO.N,unconnected-(A1-D6-Pad9)*%
X135791360Y-92530000D03*
%TO.P,A1,10,D7*%
%TO.N,unconnected-(A1-D7-Pad10)*%
X135791360Y-95070000D03*
%TO.P,A1,11,D8*%
%TO.N,unconnected-(A1-D8-Pad11)*%
X135791360Y-97610000D03*
%TO.P,A1,12,D9*%
%TO.N,unconnected-(A1-D9-Pad12)*%
X135791360Y-100150000D03*
%TO.P,A1,13,D10*%
%TO.N,unconnected-(A1-D10-Pad13)*%
X135791360Y-102690000D03*
%TO.P,A1,14,D11*%
%TO.N,Net-(A1-D11)*%
X135791360Y-105230000D03*
%TO.P,A1,15,D12*%
%TO.N,Net-(A1-D12)*%
X135791360Y-107770000D03*
%TO.P,A1,16,D13*%
%TO.N,unconnected-(A1-D13-Pad16)*%
X120551360Y-107770000D03*
%TO.P,A1,17,3V3*%
%TO.N,unconnected-(A1-3V3-Pad17)*%
X120551360Y-105230000D03*
%TO.P,A1,18,AREF*%
%TO.N,unconnected-(A1-AREF-Pad18)*%
X120551360Y-102690000D03*
%TO.P,A1,19,A0*%
%TO.N,unconnected-(A1-A0-Pad19)*%
X120551360Y-100150000D03*
%TO.P,A1,20,A1*%
%TO.N,unconnected-(A1-A1-Pad20)*%
X120551360Y-97610000D03*
%TO.P,A1,21,A2*%
%TO.N,Net-(A1-A2)*%
X120551360Y-95070000D03*
%TO.P,A1,22,A3*%
%TO.N,unconnected-(A1-A3-Pad22)*%
X120551360Y-92530000D03*
%TO.P,A1,23,A4*%
%TO.N,Net-(A1-A4)*%
X120551360Y-89990000D03*
%TO.P,A1,24,A5*%
%TO.N,Net-(A1-A5)*%
X120551360Y-87450000D03*
%TO.P,A1,25,A6*%
%TO.N,unconnected-(A1-A6-Pad25)*%
X120551360Y-84910000D03*
%TO.P,A1,26,A7*%
%TO.N,unconnected-(A1-A7-Pad26)*%
X120551360Y-82370000D03*
%TO.P,A1,27,+5V*%
%TO.N,+5V*%
X120551360Y-79830000D03*
%TO.P,A1,28,~{RESET}*%
%TO.N,unconnected-(A1-~{RESET}-Pad28)*%
X120551360Y-77290000D03*
%TO.P,A1,29,GND*%
%TO.N,GND*%
X120551360Y-74750000D03*
%TO.P,A1,30,VIN*%
%TO.N,+12V*%
X120551360Y-72210000D03*
%TD*%
D16*
%TO.P,D1,1,K*%
%TO.N,+12V*%
X160705000Y-129500000D03*
D17*
%TO.P,D1,2,A*%
%TO.N,Net-(D1-A)*%
X163245000Y-129500000D03*
%TD*%
D12*
%TO.P,J2,1,Pin_1*%
%TO.N,GND*%
X103501360Y-93000000D03*
D13*
%TO.P,J2,2,Pin_2*%
%TO.N,+5V*%
X103501360Y-90460000D03*
%TO.P,J2,3,Pin_3*%
%TO.N,Net-(A1-A4)*%
X103501360Y-87920000D03*
%TO.P,J2,4,Pin_4*%
%TO.N,Net-(A1-A5)*%
X103501360Y-85380000D03*
%TD*%
D18*
%TO.P,BZ1,1,-*%
%TO.N,Net-(A1-D11)*%
X148000000Y-107200000D03*
D19*
%TO.P,BZ1,2,+*%
%TO.N,GND*%
X148000000Y-114800000D03*
%TD*%
D20*
%TO.P,J3,1,Pin_1*%
%TO.N,+12V*%
X160000000Y-113000000D03*
D21*
%TO.P,J3,2,Pin_2*%
%TO.N,Net-(D1-A)*%
X165000000Y-113000000D03*
%TD*%
D22*
%TO.P,REF\u002A\u002A,*%
%TO.N,*%
X115255660Y-68550100D03*
X115255660Y-99550800D03*
X190254240Y-68550100D03*
X190254760Y-99550800D03*
%TD*%
D23*
%TO.P,Q1,1,B*%
%TO.N,Net-(Q1-B)*%
X130515000Y-126960000D03*
D24*
%TO.P,Q1,2,C*%
%TO.N,Net-(D1-A)*%
X130515000Y-129500000D03*
%TO.P,Q1,3,E*%
%TO.N,GND*%
X130515000Y-132040000D03*
%TD*%
D25*
%TO.N,Net-(Q1-B)*%
X130515000Y-126960000D02*
X133900000Y-126960000D01*
X133900000Y-126960000D02*
X137780000Y-123080000D01*
D26*
%TO.N,Net-(A1-D12)*%
X140320000Y-123080000D02*
X140320000Y-110570000D01*
D25*
%TO.N,Net-(D1-A)*%
X140500000Y-134250000D02*
X135750000Y-129500000D01*
%TO.N,Net-(A1-D12)*%
X137520000Y-107770000D02*
X140320000Y-110570000D01*
X135791360Y-107770000D02*
X137520000Y-107770000D01*
%TO.N,Net-(A1-A4)*%
X110000000Y-89000000D02*
X108920000Y-87920000D01*
X117750000Y-90000000D02*
X116751360Y-89001360D01*
X116751360Y-89000000D02*
X110000000Y-89000000D01*
X120551360Y-89990000D02*
X117760000Y-89990000D01*
X117760000Y-89990000D02*
X117750000Y-90000000D01*
X116751360Y-89001360D02*
X116751360Y-89000000D01*
X108920000Y-87920000D02*
X103501360Y-87920000D01*
%TO.N,Net-(A1-A5)*%
X111130000Y-85380000D02*
X103501360Y-85380000D01*
X118001360Y-87000000D02*
X112750000Y-87000000D01*
X112750000Y-87000000D02*
X111130000Y-85380000D01*
X120551360Y-87450000D02*
X118451360Y-87450000D01*
X118451360Y-87450000D02*
X118001360Y-87000000D01*
%TO.N,+5V*%
X110501360Y-79830000D02*
X120551360Y-79830000D01*
X103500000Y-79370000D02*
X110041360Y-79370000D01*
X110041360Y-79370000D02*
X110501360Y-79830000D01*
%TO.N,+12V*%
X160705000Y-129500000D02*
X160705000Y-121205000D01*
X110250000Y-70750000D02*
X111710000Y-72210000D01*
X160000000Y-113000000D02*
X160000000Y-86500000D01*
X111710000Y-72210000D02*
X120551360Y-72210000D01*
X137250000Y-63750000D02*
X112250000Y-63750000D01*
X160705000Y-121205000D02*
X160000000Y-120500000D01*
X112250000Y-63750000D02*
X110250000Y-65750000D01*
X110250000Y-65750000D02*
X110250000Y-70750000D01*
X160000000Y-86500000D02*
X137250000Y-63750000D01*
X160000000Y-120500000D02*
X160000000Y-113000000D01*
%TO.N,Net-(D1-A)*%
X163245000Y-129500000D02*
X163245000Y-131505000D01*
X135750000Y-129500000D02*
X130515000Y-129500000D01*
X165000000Y-127745000D02*
X165000000Y-113000000D01*
X163245000Y-131505000D02*
X160500000Y-134250000D01*
X160500000Y-134250000D02*
X140500000Y-134250000D01*
X163245000Y-129500000D02*
X165000000Y-127745000D01*
%TO.N,Net-(A1-D11)*%
X144730000Y-105230000D02*
X146700000Y-107200000D01*
X135791360Y-105230000D02*
X144730000Y-105230000D01*
X146700000Y-107200000D02*
X148000000Y-107200000D01*
%TO.N,Net-(A1-A2)*%
X120551360Y-95070000D02*
X110430000Y-95070000D01*
X99000000Y-96500000D02*
X99000000Y-73750000D01*
X99000000Y-73750000D02*
X101000000Y-71750000D01*
X107000000Y-98500000D02*
X101000000Y-98500000D01*
X110430000Y-95070000D02*
X107000000Y-98500000D01*
X101000000Y-71750000D02*
X103500000Y-71750000D01*
X101000000Y-98500000D02*
X99000000Y-96500000D01*
%TD*%
%TA.AperFunction,Conductor*%
%TO.N,GND*%
G36*
X102240256Y-72557585D02*
G01*
X102277026Y-72594079D01*
X102323711Y-72665537D01*
X102323714Y-72665540D01*
X102475019Y-72829901D01*
X102490452Y-72846665D01*
X102490456Y-72846668D01*
X102587431Y-72922147D01*
X102628244Y-72978857D01*
X102631919Y-73048630D01*
X102597287Y-73109313D01*
X102587431Y-73117853D01*
X102490456Y-73193331D01*
X102490452Y-73193334D01*
X102323715Y-73374458D01*
X102323712Y-73374462D01*
X102189064Y-73580555D01*
X102090172Y-73806007D01*
X102029738Y-74044660D01*
X102009408Y-74289994D01*
X102009408Y-74290005D01*
X102029738Y-74535339D01*
X102090172Y-74773992D01*
X102189063Y-74999442D01*
X102242216Y-75080798D01*
X102323714Y-75205540D01*
X102490450Y-75386663D01*
X102553278Y-75435564D01*
X102684721Y-75537871D01*
X102689016Y-75540677D01*
X102687837Y-75542480D01*
X102730956Y-75585268D01*
X102746070Y-75653483D01*
X102721905Y-75719041D01*
X102693477Y-75746688D01*
X102628922Y-75791890D01*
X102628920Y-75791891D01*
X102461891Y-75958920D01*
X102461886Y-75958926D01*
X102326400Y-76152420D01*
X102326399Y-76152422D01*
X102226570Y-76366507D01*
X102226567Y-76366513D01*
X102169364Y-76579999D01*
X102169364Y-76580000D01*
X102886653Y-76580000D01*
X102953692Y-76599685D01*
X102999447Y-76652489D01*
X103009391Y-76721647D01*
X103005631Y-76738933D01*
X103000000Y-76758111D01*
X103000000Y-76901888D01*
X103005631Y-76921067D01*
X103005630Y-76990936D01*
X102967855Y-77049714D01*
X102904299Y-77078738D01*
X102886653Y-77080000D01*
X102169364Y-77080000D01*
X102226567Y-77293486D01*
X102226570Y-77293492D01*
X102326399Y-77507578D01*
X102461894Y-77701082D01*
X102628917Y-77868105D01*
X102693477Y-77913311D01*
X102737102Y-77967888D01*
X102744294Y-78037387D01*
X102712772Y-78099741D01*
X102688475Y-78118476D01*
X102689025Y-78119317D01*
X102684720Y-78122129D01*
X102490456Y-78273331D01*
X102490452Y-78273334D01*
X102323715Y-78454458D01*
X102323712Y-78454462D01*
X102189064Y-78660555D01*
X102090172Y-78886007D01*
X102029738Y-79124660D01*
X102009408Y-79369994D01*
X102009408Y-79370005D01*
X102029738Y-79615339D01*
X102090172Y-79853992D01*
X102189064Y-80079444D01*
X102242216Y-80160798D01*
X102323714Y-80285540D01*
X102475020Y-80449902D01*
X102490452Y-80466665D01*
X102490456Y-80466668D01*
X102684720Y-80617870D01*
X102684724Y-80617873D01*
X102684726Y-80617874D01*
X102684729Y-80617876D01*
X102778866Y-80668820D01*
X102901236Y-80735043D01*
X103134082Y-80814979D01*
X103376908Y-80855500D01*
X103376909Y-80855500D01*
X103623091Y-80855500D01*
X103623092Y-80855500D01*
X103865918Y-80814979D01*
X104098764Y-80735043D01*
X104315276Y-80617873D01*
X104509550Y-80466663D01*
X104676286Y-80285540D01*
X104722973Y-80214079D01*
X104776121Y-80168722D01*
X104826783Y-80157900D01*
X109663640Y-80157900D01*
X109730679Y-80177585D01*
X109751321Y-80194219D01*
X109881458Y-80324356D01*
X110007004Y-80449902D01*
X110007006Y-80449903D01*
X110041753Y-80471737D01*
X110047427Y-80475762D01*
X110079520Y-80501355D01*
X110116494Y-80519161D01*
X110122585Y-80522527D01*
X110157336Y-80544363D01*
X110157338Y-80544364D01*
X110157340Y-80544365D01*
X110196089Y-80557923D01*
X110202502Y-80560580D01*
X110239486Y-80578391D01*
X110279513Y-80587526D01*
X110286161Y-80589441D01*
X110324926Y-80603006D01*
X110365723Y-80607602D01*
X110372569Y-80608766D01*
X110412585Y-80617899D01*
X110455388Y-80617899D01*
X110455424Y-80617900D01*
X110457116Y-80617900D01*
X119284302Y-80617900D01*
X119351341Y-80637585D01*
X119388111Y-80674079D01*
X119414663Y-80714721D01*
X119414666Y-80714724D01*
X119575790Y-80889751D01*
X119720197Y-81002147D01*
X119761009Y-81058857D01*
X119764684Y-81128630D01*
X119730053Y-81189313D01*
X119720203Y-81197847D01*
X119610931Y-81282897D01*
X119575791Y-81310248D01*
X119414667Y-81485274D01*
X119414664Y-81485278D01*
X119284548Y-81684434D01*
X119188985Y-81902297D01*
X119130585Y-82132911D01*
X119130583Y-82132922D01*
X119110940Y-82369993D01*
X119110940Y-82370006D01*
X119130583Y-82607077D01*
X119130585Y-82607088D01*
X119188985Y-82837702D01*
X119284548Y-83055565D01*
X119414664Y-83254721D01*
X119414666Y-83254724D01*
X119575790Y-83429751D01*
X119720197Y-83542147D01*
X119761009Y-83598857D01*
X119764684Y-83668630D01*
X119730053Y-83729313D01*
X119720203Y-83737847D01*
X119610931Y-83822897D01*
X119575791Y-83850248D01*
X119414667Y-84025274D01*
X119414664Y-84025278D01*
X119284548Y-84224434D01*
X119188985Y-84442297D01*
X119130585Y-84672911D01*
X119130583Y-84672922D01*
X119110940Y-84909993D01*
X119110940Y-84910006D01*
X119130583Y-85147077D01*
X119130585Y-85147088D01*
X119188985Y-85377702D01*
X119284548Y-85595565D01*
X119414664Y-85794721D01*
X119414666Y-85794724D01*
X119575790Y-85969751D01*
X119720198Y-86082148D01*
X119761009Y-86138855D01*
X119764684Y-86208628D01*
X119730053Y-86269312D01*
X119720197Y-86277852D01*
X119575792Y-86390247D01*
X119414663Y-86565278D01*
X119388111Y-86605921D01*
X119334964Y-86651278D01*
X119284302Y-86662100D01*
X118829081Y-86662100D01*
X118762042Y-86642415D01*
X118741400Y-86625781D01*
X118525968Y-86410348D01*
X118525929Y-86410311D01*
X118495716Y-86380098D01*
X118495715Y-86380097D01*
X118495714Y-86380096D01*
X118495712Y-86380094D01*
X118460961Y-86358260D01*
X118455291Y-86354236D01*
X118423200Y-86328645D01*
X118423198Y-86328644D01*
X118423197Y-86328643D01*
X118386224Y-86310837D01*
X118380134Y-86307472D01*
X118345378Y-86285633D01*
X118306631Y-86272075D01*
X118300204Y-86269412D01*
X118263234Y-86251609D01*
X118223229Y-86242478D01*
X118216545Y-86240552D01*
X118183991Y-86229162D01*
X118177794Y-86226994D01*
X118136994Y-86222396D01*
X118130147Y-86221232D01*
X118090136Y-86212101D01*
X118090134Y-86212101D01*
X118047332Y-86212101D01*
X118047296Y-86212100D01*
X118045604Y-86212100D01*
X113127721Y-86212100D01*
X113060682Y-86192415D01*
X113040040Y-86175781D01*
X111654608Y-84790348D01*
X111654569Y-84790311D01*
X111624356Y-84760098D01*
X111624355Y-84760097D01*
X111624354Y-84760096D01*
X111624352Y-84760094D01*
X111589601Y-84738260D01*
X111583931Y-84734236D01*
X111551840Y-84708645D01*
X111551838Y-84708644D01*
X111551837Y-84708643D01*
X111514864Y-84690837D01*
X111508774Y-84687472D01*
X111474018Y-84665633D01*
X111435271Y-84652075D01*
X111428844Y-84649412D01*
X111391874Y-84631609D01*
X111351869Y-84622478D01*
X111345185Y-84620552D01*
X111312631Y-84609162D01*
X111306434Y-84606994D01*
X111265634Y-84602396D01*
X111258787Y-84601232D01*
X111218776Y-84592101D01*
X111218774Y-84592101D01*
X111175972Y-84592101D01*
X111175936Y-84592100D01*
X111174244Y-84592100D01*
X104828143Y-84592100D01*
X104761104Y-84572415D01*
X104724334Y-84535921D01*
X104677648Y-84464462D01*
X104510907Y-84283334D01*
X104510903Y-84283331D01*
X104316639Y-84132129D01*
X104316630Y-84132123D01*
X104100130Y-84014960D01*
X104100127Y-84014958D01*
X104100124Y-84014957D01*
X104100121Y-84014956D01*
X104100119Y-84014955D01*
X103867280Y-83935021D01*
X103705394Y-83908007D01*
X103624452Y-83894500D01*
X103378268Y-83894500D01*
X103317561Y-83904630D01*
X103135439Y-83935021D01*
X102902600Y-84014955D01*
X102902589Y-84014960D01*
X102686089Y-84132123D01*
X102686080Y-84132129D01*
X102491816Y-84283331D01*
X102491812Y-84283334D01*
X102325075Y-84464458D01*
X102325072Y-84464462D01*
X102190424Y-84670555D01*
X102091532Y-84896007D01*
X102031098Y-85134660D01*
X102010768Y-85379994D01*
X102010768Y-85380005D01*
X102031098Y-85625339D01*
X102091532Y-85863992D01*
X102190424Y-86089444D01*
X102325072Y-86295537D01*
X102325075Y-86295541D01*
X102491812Y-86476665D01*
X102491816Y-86476668D01*
X102588791Y-86552147D01*
X102629604Y-86608857D01*
X102633279Y-86678630D01*
X102598647Y-86739313D01*
X102588791Y-86747853D01*
X102491816Y-86823331D01*
X102491812Y-86823334D01*
X102325075Y-87004458D01*
X102325072Y-87004462D01*
X102190424Y-87210555D01*
X102091532Y-87436007D01*
X102031098Y-87674660D01*
X102010768Y-87919994D01*
X102010768Y-87920005D01*
X102031098Y-88165339D01*
X102091532Y-88403992D01*
X102190424Y-88629444D01*
X102325072Y-88835537D01*
X102325075Y-88835541D01*
X102491812Y-89016665D01*
X102491816Y-89016668D01*
X102588791Y-89092147D01*
X102629604Y-89148857D01*
X102633279Y-89218630D01*
X102598647Y-89279313D01*
X102588791Y-89287853D01*
X102491816Y-89363331D01*
X102491812Y-89363334D01*
X102325075Y-89544458D01*
X102325072Y-89544462D01*
X102190424Y-89750555D01*
X102091532Y-89976007D01*
X102031098Y-90214660D01*
X102010768Y-90459994D01*
X102010768Y-90460005D01*
X102031098Y-90705339D01*
X102091532Y-90943992D01*
X102190424Y-91169444D01*
X102230882Y-91231369D01*
X102325074Y-91375540D01*
X102412258Y-91470247D01*
X102448598Y-91509722D01*
X102479520Y-91572376D01*
X102471660Y-91641803D01*
X102427513Y-91695958D01*
X102416801Y-91702534D01*
X102409270Y-91706646D01*
X102294172Y-91792809D01*
X102294169Y-91792812D01*
X102208009Y-91907906D01*
X102208005Y-91907913D01*
X102157763Y-92042620D01*
X102157761Y-92042627D01*
X102151360Y-92102155D01*
X102151360Y-92102172D01*
X102151359Y-92749999D01*
X102151360Y-92750000D01*
X102888013Y-92750000D01*
X102955052Y-92769685D01*
X103000807Y-92822489D01*
X103010751Y-92891647D01*
X103006991Y-92908933D01*
X103001360Y-92928111D01*
X103001360Y-93071888D01*
X103006991Y-93091067D01*
X103006990Y-93160936D01*
X102969215Y-93219714D01*
X102905659Y-93248738D01*
X102888013Y-93250000D01*
X102151360Y-93250000D01*
X102151360Y-93897844D01*
X102157761Y-93957372D01*
X102157763Y-93957379D01*
X102208005Y-94092086D01*
X102208009Y-94092093D01*
X102294169Y-94207187D01*
X102294172Y-94207190D01*
X102409266Y-94293350D01*
X102409273Y-94293354D01*
X102543980Y-94343596D01*
X102543987Y-94343598D01*
X102603515Y-94349999D01*
X102603532Y-94350000D01*
X103251359Y-94350000D01*
X103251359Y-93612301D01*
X103271043Y-93545262D01*
X103323847Y-93499507D01*
X103393006Y-93489563D01*
X103399740Y-93490531D01*
X103465597Y-93500000D01*
X103465598Y-93500000D01*
X103537122Y-93500000D01*
X103537123Y-93500000D01*
X103609712Y-93489563D01*
X103678870Y-93499507D01*
X103731674Y-93545261D01*
X103751359Y-93612301D01*
X103751359Y-94349999D01*
X103751360Y-94350000D01*
X104399188Y-94350000D01*
X104399204Y-94349999D01*
X104458732Y-94343598D01*
X104458739Y-94343596D01*
X104593446Y-94293354D01*
X104593453Y-94293350D01*
X104708547Y-94207190D01*
X104708550Y-94207187D01*
X104794710Y-94092093D01*
X104794714Y-94092086D01*
X104844956Y-93957379D01*
X104844958Y-93957372D01*
X104851359Y-93897844D01*
X104851360Y-93897827D01*
X104851360Y-93250000D01*
X104114707Y-93250000D01*
X104047668Y-93230315D01*
X104001913Y-93177511D01*
X103991969Y-93108353D01*
X103995729Y-93091067D01*
X104001360Y-93071888D01*
X104001360Y-92928111D01*
X103995729Y-92908933D01*
X103995730Y-92839064D01*
X104033505Y-92780286D01*
X104097061Y-92751262D01*
X104114707Y-92750000D01*
X104851360Y-92750000D01*
X104851360Y-92102172D01*
X104851359Y-92102155D01*
X104844958Y-92042627D01*
X104844956Y-92042620D01*
X104794714Y-91907913D01*
X104794710Y-91907906D01*
X104708550Y-91792812D01*
X104708547Y-91792809D01*
X104593448Y-91706645D01*
X104585921Y-91702535D01*
X104536517Y-91653128D01*
X104521667Y-91584855D01*
X104546086Y-91519391D01*
X104554122Y-91509722D01*
X104677641Y-91375546D01*
X104677642Y-91375543D01*
X104677646Y-91375540D01*
X104812296Y-91169443D01*
X104911187Y-90943994D01*
X104971621Y-90705343D01*
X104981310Y-90588415D01*
X104991951Y-90460005D01*
X104991951Y-90459994D01*
X104971621Y-90214660D01*
X104971621Y-90214657D01*
X104911187Y-89976006D01*
X104812296Y-89750557D01*
X104810880Y-89748390D01*
X104677647Y-89544462D01*
X104677646Y-89544460D01*
X104510910Y-89363337D01*
X104477644Y-89337445D01*
X104413928Y-89287852D01*
X104373115Y-89231141D01*
X104369442Y-89161368D01*
X104404073Y-89100685D01*
X104413911Y-89092160D01*
X104510910Y-89016663D01*
X104677646Y-88835540D01*
X104694781Y-88809313D01*
X104724334Y-88764079D01*
X104777481Y-88718722D01*
X104828143Y-88707900D01*
X108542279Y-88707900D01*
X108609318Y-88727585D01*
X108629960Y-88744219D01*
X109475689Y-89589949D01*
X109475719Y-89589977D01*
X109505644Y-89619902D01*
X109540393Y-89641736D01*
X109546068Y-89645763D01*
X109578160Y-89671356D01*
X109615148Y-89689168D01*
X109621227Y-89692528D01*
X109655975Y-89714362D01*
X109655980Y-89714365D01*
X109694721Y-89727921D01*
X109701139Y-89730579D01*
X109738127Y-89748391D01*
X109778134Y-89757522D01*
X109784808Y-89759443D01*
X109823566Y-89773006D01*
X109864356Y-89777601D01*
X109871204Y-89778764D01*
X109911226Y-89787900D01*
X109955756Y-89787900D01*
X116372279Y-89787900D01*
X116439318Y-89807585D01*
X116459960Y-89824219D01*
X117159122Y-90523381D01*
X117163758Y-90528568D01*
X117189346Y-90560654D01*
X117222832Y-90587359D01*
X117222844Y-90587369D01*
X117328159Y-90671355D01*
X117488125Y-90748391D01*
X117661218Y-90787898D01*
X117661223Y-90787898D01*
X117661225Y-90787899D01*
X117661226Y-90787899D01*
X117661227Y-90787899D01*
X117838772Y-90787899D01*
X117838774Y-90787899D01*
X117868961Y-90781008D01*
X117896554Y-90777900D01*
X119284302Y-90777900D01*
X119351341Y-90797585D01*
X119388111Y-90834079D01*
X119414663Y-90874721D01*
X119414666Y-90874724D01*
X119575790Y-91049751D01*
X119720197Y-91162147D01*
X119761009Y-91218857D01*
X119764684Y-91288630D01*
X119730053Y-91349313D01*
X119720203Y-91357847D01*
X119610931Y-91442897D01*
X119575791Y-91470248D01*
X119414667Y-91645274D01*
X119414664Y-91645278D01*
X119284548Y-91844434D01*
X119188985Y-92062297D01*
X119130585Y-92292911D01*
X119130583Y-92292922D01*
X119110940Y-92529993D01*
X119110940Y-92530006D01*
X119130583Y-92767077D01*
X119130585Y-92767088D01*
X119188985Y-92997702D01*
X119284548Y-93215565D01*
X119359834Y-93330798D01*
X119414666Y-93414724D01*
X119575790Y-93589751D01*
X119668462Y-93661880D01*
X119720196Y-93702147D01*
X119761008Y-93758857D01*
X119764683Y-93828630D01*
X119730051Y-93889313D01*
X119720196Y-93897853D01*
X119575792Y-94010247D01*
X119414663Y-94185278D01*
X119388111Y-94225921D01*
X119334964Y-94271278D01*
X119284302Y-94282100D01*
X110341222Y-94282100D01*
X110301203Y-94291234D01*
X110294353Y-94292397D01*
X110274604Y-94294623D01*
X110253562Y-94296994D01*
X110214829Y-94310548D01*
X110208144Y-94312474D01*
X110168134Y-94321605D01*
X110168123Y-94321609D01*
X110131146Y-94339415D01*
X110124722Y-94342076D01*
X110085981Y-94355634D01*
X110085978Y-94355636D01*
X110051230Y-94377468D01*
X110045145Y-94380831D01*
X110008160Y-94398642D01*
X109976064Y-94424237D01*
X109970394Y-94428261D01*
X109935647Y-94450096D01*
X109935644Y-94450098D01*
X109906590Y-94479150D01*
X109906586Y-94479154D01*
X109904160Y-94481581D01*
X109904156Y-94481585D01*
X108263462Y-96122279D01*
X106709960Y-97675781D01*
X106648637Y-97709266D01*
X106622279Y-97712100D01*
X101377721Y-97712100D01*
X101310682Y-97692415D01*
X101290040Y-97675781D01*
X99824219Y-96209960D01*
X99790734Y-96148637D01*
X99787900Y-96122279D01*
X99787900Y-74127721D01*
X99807585Y-74060682D01*
X99824219Y-74040040D01*
X101290040Y-72574219D01*
X101351363Y-72540734D01*
X101377721Y-72537900D01*
X102173217Y-72537900D01*
X102240256Y-72557585D01*
G37*
%TD.AperFunction*%
%TA.AperFunction,Conductor*%
G36*
X194692591Y-60770185D02*
G01*
X194738346Y-60822989D01*
X194749552Y-60874448D01*
X194750000Y-61946011D01*
X194750000Y-88179071D01*
X194749501Y-102209116D01*
X194729814Y-102276155D01*
X194725360Y-102282625D01*
X168836914Y-137449013D01*
X168781317Y-137491331D01*
X168737055Y-137499500D01*
X124911960Y-137499500D01*
X124844921Y-137479815D01*
X124813038Y-137450269D01*
X122916174Y-134940673D01*
X112431611Y-121069344D01*
X96166945Y-99550799D01*
X113115170Y-99550799D01*
X113135106Y-99842257D01*
X113194544Y-100128296D01*
X113194546Y-100128301D01*
X113292374Y-100403565D01*
X113292375Y-100403567D01*
X113292376Y-100403570D01*
X113292378Y-100403574D01*
X113426784Y-100662964D01*
X113595258Y-100901637D01*
X113794662Y-101115147D01*
X114021282Y-101299516D01*
X114021284Y-101299517D01*
X114021285Y-101299518D01*
X114270896Y-101451310D01*
X114424097Y-101517854D01*
X114538854Y-101567700D01*
X114820164Y-101646520D01*
X115074614Y-101681492D01*
X115109587Y-101686300D01*
X115109588Y-101686300D01*
X115401733Y-101686300D01*
X115432935Y-101682011D01*
X115691156Y-101646520D01*
X115972466Y-101567700D01*
X116240425Y-101451309D01*
X116490038Y-101299516D01*
X116716658Y-101115147D01*
X116916062Y-100901637D01*
X117084536Y-100662964D01*
X117218942Y-100403574D01*
X117316775Y-100128297D01*
X117376213Y-99842263D01*
X117396150Y-99550800D01*
X117376213Y-99259337D01*
X117316775Y-98973303D01*
X117218942Y-98698026D01*
X117084536Y-98438636D01*
X116916062Y-98199963D01*
X116716658Y-97986453D01*
X116716651Y-97986448D01*
X116716650Y-97986446D01*
X116490034Y-97802081D01*
X116240423Y-97650289D01*
X115972469Y-97533901D01*
X115972467Y-97533900D01*
X115972466Y-97533900D01*
X115892434Y-97511476D01*
X115691161Y-97455081D01*
X115691157Y-97455080D01*
X115691156Y-97455080D01*
X115546443Y-97435190D01*
X115401733Y-97415300D01*
X115401732Y-97415300D01*
X115109588Y-97415300D01*
X115109587Y-97415300D01*
X114820164Y-97455080D01*
X114820158Y-97455081D01*
X114538850Y-97533901D01*
X114270896Y-97650289D01*
X114021285Y-97802081D01*
X113794669Y-97986446D01*
X113595259Y-98199962D01*
X113426784Y-98438635D01*
X113292375Y-98698032D01*
X113292374Y-98698034D01*
X113194546Y-98973298D01*
X113194544Y-98973303D01*
X113135106Y-99259342D01*
X113115170Y-99550799D01*
X96166945Y-99550799D01*
X95775579Y-99033013D01*
X95750859Y-98967663D01*
X95750501Y-98958255D01*
X95750595Y-96546149D01*
X98212100Y-96546149D01*
X98212101Y-96546181D01*
X98212101Y-96588776D01*
X98221232Y-96628787D01*
X98222396Y-96635634D01*
X98226994Y-96676434D01*
X98226995Y-96676436D01*
X98240552Y-96715185D01*
X98242478Y-96721869D01*
X98251609Y-96761874D01*
X98269412Y-96798844D01*
X98272075Y-96805271D01*
X98285633Y-96844018D01*
X98307472Y-96878774D01*
X98310837Y-96884864D01*
X98328643Y-96921837D01*
X98328644Y-96921838D01*
X98328645Y-96921840D01*
X98330715Y-96924436D01*
X98354233Y-96953926D01*
X98358260Y-96959601D01*
X98380094Y-96994352D01*
X98380096Y-96994354D01*
X98380097Y-96994355D01*
X98380098Y-96994356D01*
X98410311Y-97024569D01*
X98410348Y-97024608D01*
X100475689Y-99089949D01*
X100475719Y-99089977D01*
X100505644Y-99119902D01*
X100540398Y-99141739D01*
X100546070Y-99145764D01*
X100578160Y-99171355D01*
X100615134Y-99189161D01*
X100621225Y-99192527D01*
X100655976Y-99214363D01*
X100655978Y-99214364D01*
X100655980Y-99214365D01*
X100694729Y-99227923D01*
X100701142Y-99230580D01*
X100738126Y-99248391D01*
X100778153Y-99257526D01*
X100784801Y-99259441D01*
X100823566Y-99273006D01*
X100864363Y-99277602D01*
X100871209Y-99278766D01*
X100911225Y-99287899D01*
X100954028Y-99287899D01*
X100954064Y-99287900D01*
X100955756Y-99287900D01*
X107045936Y-99287900D01*
X107045972Y-99287899D01*
X107088774Y-99287899D01*
X107128782Y-99278767D01*
X107135639Y-99277602D01*
X107176434Y-99273006D01*
X107205139Y-99262960D01*
X107215176Y-99259449D01*
X107221865Y-99257522D01*
X107233146Y-99254946D01*
X107261873Y-99248391D01*
X107298859Y-99230578D01*
X107305267Y-99227924D01*
X107344020Y-99214365D01*
X107378783Y-99192520D01*
X107384860Y-99189162D01*
X107421840Y-99171355D01*
X107453937Y-99145757D01*
X107459596Y-99141741D01*
X107494356Y-99119902D01*
X107520457Y-99093799D01*
X107520472Y-99093787D01*
X110720040Y-95894219D01*
X110781363Y-95860734D01*
X110807721Y-95857900D01*
X119284302Y-95857900D01*
X119351341Y-95877585D01*
X119388111Y-95914079D01*
X119414663Y-95954721D01*
X119414666Y-95954724D01*
X119575790Y-96129751D01*
X119720198Y-96242148D01*
X119761009Y-96298855D01*
X119764684Y-96368628D01*
X119730053Y-96429312D01*
X119720197Y-96437852D01*
X119575792Y-96550247D01*
X119414667Y-96725274D01*
X119414664Y-96725278D01*
X119284548Y-96924434D01*
X119188985Y-97142297D01*
X119130585Y-97372911D01*
X119130583Y-97372922D01*
X119110940Y-97609993D01*
X119110940Y-97610006D01*
X119130583Y-97847077D01*
X119130585Y-97847088D01*
X119188985Y-98077702D01*
X119284548Y-98295565D01*
X119378021Y-98438635D01*
X119414666Y-98494724D01*
X119575790Y-98669751D01*
X119720197Y-98782147D01*
X119761009Y-98838857D01*
X119764684Y-98908630D01*
X119730053Y-98969313D01*
X119720203Y-98977847D01*
X119649327Y-99033013D01*
X119575791Y-99090248D01*
X119414667Y-99265274D01*
X119414664Y-99265278D01*
X119284548Y-99464434D01*
X119188985Y-99682297D01*
X119130585Y-99912911D01*
X119130583Y-99912922D01*
X119110940Y-100149993D01*
X119110940Y-100150006D01*
X119130583Y-100387077D01*
X119130585Y-100387088D01*
X119188985Y-100617702D01*
X119284548Y-100835565D01*
X119414664Y-101034721D01*
X119414666Y-101034724D01*
X119575790Y-101209751D01*
X119720197Y-101322147D01*
X119761009Y-101378857D01*
X119764684Y-101448630D01*
X119730053Y-101509313D01*
X119720203Y-101517847D01*
X119656156Y-101567698D01*
X119575791Y-101630248D01*
X119414667Y-101805274D01*
X119414664Y-101805278D01*
X119284548Y-102004434D01*
X119188985Y-102222297D01*
X119130585Y-102452911D01*
X119130583Y-102452922D01*
X119110940Y-102689993D01*
X119110940Y-102690006D01*
X119130583Y-102927077D01*
X119130585Y-102927088D01*
X119188985Y-103157702D01*
X119284548Y-103375565D01*
X119414664Y-103574721D01*
X119414666Y-103574724D01*
X119575790Y-103749751D01*
X119720197Y-103862147D01*
X119761009Y-103918857D01*
X119764684Y-103988630D01*
X119730053Y-104049313D01*
X119720203Y-104057847D01*
X119610931Y-104142897D01*
X119575791Y-104170248D01*
X119414667Y-104345274D01*
X119414664Y-104345278D01*
X119284548Y-104544434D01*
X119188985Y-104762297D01*
X119130585Y-104992911D01*
X119130583Y-104992922D01*
X119110940Y-105229993D01*
X119110940Y-105230006D01*
X119130583Y-105467077D01*
X119130585Y-105467088D01*
X119188985Y-105697702D01*
X119284548Y-105915565D01*
X119358478Y-106028722D01*
X119414666Y-106114724D01*
X119575790Y-106289751D01*
X119668462Y-106361880D01*
X119720196Y-106402147D01*
X119761008Y-106458857D01*
X119764683Y-106528630D01*
X119730051Y-106589313D01*
X119720196Y-106597853D01*
X119575792Y-106710247D01*
X119414667Y-106885274D01*
X119414664Y-106885278D01*
X119284548Y-107084434D01*
X119188985Y-107302297D01*
X119130585Y-107532911D01*
X119130583Y-107532922D01*
X119110940Y-107769993D01*
X119110940Y-107770006D01*
X119130583Y-108007077D01*
X119130585Y-108007088D01*
X119188985Y-108237702D01*
X119284548Y-108455565D01*
X119414664Y-108654721D01*
X119414667Y-108654725D01*
X119575792Y-108829753D01*
X119575796Y-108829756D01*
X119763516Y-108975865D01*
X119763522Y-108975869D01*
X119763525Y-108975871D01*
X119972750Y-109089098D01*
X120197758Y-109166344D01*
X120432411Y-109205500D01*
X120670309Y-109205500D01*
X120904962Y-109166344D01*
X121129970Y-109089098D01*
X121339195Y-108975871D01*
X121526930Y-108829751D01*
X121688054Y-108654724D01*
X121818172Y-108455564D01*
X121913734Y-108237704D01*
X121972135Y-108007085D01*
X121972136Y-108007077D01*
X121991780Y-107770006D01*
X121991780Y-107769993D01*
X121972136Y-107532922D01*
X121972134Y-107532911D01*
X121913734Y-107302297D01*
X121860783Y-107181581D01*
X121818172Y-107084436D01*
X121814833Y-107079326D01*
X121751312Y-106982100D01*
X121688054Y-106885276D01*
X121526930Y-106710249D01*
X121382522Y-106597852D01*
X121341711Y-106541143D01*
X121338036Y-106471370D01*
X121372667Y-106410687D01*
X121382516Y-106402152D01*
X121526930Y-106289751D01*
X121688054Y-106114724D01*
X121818172Y-105915564D01*
X121913734Y-105697704D01*
X121972135Y-105467085D01*
X121991780Y-105230000D01*
X121991780Y-105229993D01*
X121972136Y-104992922D01*
X121972134Y-104992911D01*
X121913734Y-104762297D01*
X121860783Y-104641581D01*
X121818172Y-104544436D01*
X121814833Y-104539326D01*
X121751312Y-104442100D01*
X121688054Y-104345276D01*
X121526930Y-104170249D01*
X121382522Y-104057852D01*
X121341711Y-104001143D01*
X121338036Y-103931370D01*
X121372667Y-103870687D01*
X121382516Y-103862152D01*
X121526930Y-103749751D01*
X121688054Y-103574724D01*
X121818172Y-103375564D01*
X121913734Y-103157704D01*
X121972135Y-102927085D01*
X121991780Y-102690000D01*
X121991780Y-102689993D01*
X121972136Y-102452922D01*
X121972134Y-102452911D01*
X121920853Y-102250409D01*
X121913734Y-102222296D01*
X121818172Y-102004436D01*
X121688054Y-101805276D01*
X121526930Y-101630249D01*
X121382522Y-101517852D01*
X121341711Y-101461143D01*
X121338036Y-101391370D01*
X121372667Y-101330687D01*
X121382516Y-101322152D01*
X121526930Y-101209751D01*
X121688054Y-101034724D01*
X121818172Y-100835564D01*
X121913734Y-100617704D01*
X121972135Y-100387085D01*
X121991780Y-100150000D01*
X121991780Y-100149993D01*
X121972136Y-99912922D01*
X121972134Y-99912911D01*
X121913734Y-99682297D01*
X121856054Y-99550800D01*
X121818172Y-99464436D01*
X121688054Y-99265276D01*
X121526930Y-99090249D01*
X121382522Y-98977852D01*
X121341711Y-98921143D01*
X121338036Y-98851370D01*
X121372667Y-98790687D01*
X121382516Y-98782152D01*
X121526930Y-98669751D01*
X121688054Y-98494724D01*
X121818172Y-98295564D01*
X121913734Y-98077704D01*
X121972135Y-97847085D01*
X121984951Y-97692415D01*
X121991780Y-97610006D01*
X121991780Y-97609993D01*
X121972136Y-97372922D01*
X121972134Y-97372911D01*
X121913734Y-97142297D01*
X121862653Y-97025844D01*
X121818172Y-96924436D01*
X121788339Y-96878774D01*
X121688055Y-96725278D01*
X121688054Y-96725276D01*
X121526930Y-96550249D01*
X121382522Y-96437852D01*
X121341711Y-96381143D01*
X121338036Y-96311370D01*
X121372667Y-96250687D01*
X121382516Y-96242152D01*
X121526930Y-96129751D01*
X121688054Y-95954724D01*
X121818172Y-95755564D01*
X121913734Y-95537704D01*
X121972135Y-95307085D01*
X121991780Y-95070000D01*
X121991780Y-95069993D01*
X121972136Y-94832922D01*
X121972134Y-94832911D01*
X121913734Y-94602297D01*
X121860783Y-94481581D01*
X121818172Y-94384436D01*
X121799355Y-94355635D01*
X121688055Y-94185278D01*
X121688054Y-94185276D01*
X121526930Y-94010249D01*
X121382522Y-93897852D01*
X121341711Y-93841143D01*
X121338036Y-93771370D01*
X121372667Y-93710687D01*
X121382516Y-93702152D01*
X121526930Y-93589751D01*
X121688054Y-93414724D01*
X121818172Y-93215564D01*
X121913734Y-92997704D01*
X121972135Y-92767085D01*
X121980246Y-92669202D01*
X121991780Y-92530006D01*
X121991780Y-92529993D01*
X121972136Y-92292922D01*
X121972134Y-92292911D01*
X121913734Y-92062297D01*
X121862502Y-91945500D01*
X121818172Y-91844436D01*
X121688054Y-91645276D01*
X121526930Y-91470249D01*
X121405256Y-91375546D01*
X121382523Y-91357852D01*
X121341710Y-91301142D01*
X121338036Y-91231369D01*
X121372668Y-91170686D01*
X121382504Y-91162161D01*
X121526930Y-91049751D01*
X121688054Y-90874724D01*
X121818172Y-90675564D01*
X121913734Y-90457704D01*
X121972135Y-90227085D01*
X121991780Y-89990000D01*
X121991780Y-89989993D01*
X121972136Y-89752922D01*
X121972134Y-89752911D01*
X121919347Y-89544462D01*
X121913734Y-89522296D01*
X121818172Y-89304436D01*
X121801758Y-89279313D01*
X121743407Y-89190000D01*
X121688054Y-89105276D01*
X121526930Y-88930249D01*
X121382522Y-88817852D01*
X121341711Y-88761143D01*
X121338036Y-88691370D01*
X121372667Y-88630687D01*
X121382516Y-88622152D01*
X121526930Y-88509751D01*
X121688054Y-88334724D01*
X121818172Y-88135564D01*
X121913734Y-87917704D01*
X121972135Y-87687085D01*
X121973165Y-87674657D01*
X121991780Y-87450006D01*
X121991780Y-87449993D01*
X121972136Y-87212922D01*
X121972134Y-87212911D01*
X121961675Y-87171609D01*
X121913734Y-86982296D01*
X121818172Y-86764436D01*
X121801758Y-86739313D01*
X121743407Y-86650000D01*
X121688054Y-86565276D01*
X121526930Y-86390249D01*
X121382522Y-86277852D01*
X121341711Y-86221143D01*
X121338036Y-86151370D01*
X121372667Y-86090687D01*
X121382516Y-86082152D01*
X121526930Y-85969751D01*
X121688054Y-85794724D01*
X121818172Y-85595564D01*
X121913734Y-85377704D01*
X121972135Y-85147085D01*
X121991780Y-84910000D01*
X121991780Y-84909993D01*
X121972136Y-84672922D01*
X121972134Y-84672911D01*
X121961675Y-84631609D01*
X121913734Y-84442296D01*
X121818172Y-84224436D01*
X121688054Y-84025276D01*
X121526930Y-83850249D01*
X121382522Y-83737852D01*
X121341711Y-83681143D01*
X121338036Y-83611370D01*
X121372667Y-83550687D01*
X121382516Y-83542152D01*
X121526930Y-83429751D01*
X121688054Y-83254724D01*
X121818172Y-83055564D01*
X121913734Y-82837704D01*
X121972135Y-82607085D01*
X121991780Y-82370000D01*
X121991780Y-82369993D01*
X121972136Y-82132922D01*
X121972134Y-82132911D01*
X121913734Y-81902297D01*
X121818171Y-81684434D01*
X121688055Y-81485278D01*
X121688054Y-81485276D01*
X121526930Y-81310249D01*
X121382522Y-81197852D01*
X121341711Y-81141143D01*
X121338036Y-81071370D01*
X121372667Y-81010687D01*
X121382516Y-81002152D01*
X121526930Y-80889751D01*
X121688054Y-80714724D01*
X121818172Y-80515564D01*
X121913734Y-80297704D01*
X121972135Y-80067085D01*
X121972696Y-80060315D01*
X121991780Y-79830006D01*
X121991780Y-79829993D01*
X121972136Y-79592922D01*
X121972134Y-79592911D01*
X121968864Y-79579999D01*
X121913734Y-79362296D01*
X121818172Y-79144436D01*
X121688054Y-78945276D01*
X121526930Y-78770249D01*
X121382522Y-78657852D01*
X121341711Y-78601143D01*
X121338036Y-78531370D01*
X121372667Y-78470687D01*
X121382516Y-78462152D01*
X121526930Y-78349751D01*
X121688054Y-78174724D01*
X121818172Y-77975564D01*
X121913734Y-77757704D01*
X121972135Y-77527085D01*
X121972136Y-77527077D01*
X121991780Y-77290006D01*
X121991780Y-77289993D01*
X121972136Y-77052922D01*
X121972134Y-77052911D01*
X121933890Y-76901889D01*
X121913734Y-76822296D01*
X121818172Y-76604436D01*
X121802206Y-76579999D01*
X121688055Y-76405278D01*
X121688054Y-76405276D01*
X121526930Y-76230249D01*
X121526929Y-76230248D01*
X121526927Y-76230246D01*
X121526923Y-76230243D01*
X121339203Y-76084134D01*
X121339197Y-76084130D01*
X121323776Y-76075784D01*
X121275020Y-76049399D01*
X121225431Y-76000180D01*
X121210323Y-75931964D01*
X121234493Y-75866408D01*
X121262915Y-75838770D01*
X121390180Y-75749657D01*
X121551017Y-75588820D01*
X121681494Y-75402482D01*
X121777625Y-75196326D01*
X121777629Y-75196317D01*
X121830232Y-75000000D01*
X121164707Y-75000000D01*
X121097668Y-74980315D01*
X121051913Y-74927511D01*
X121041969Y-74858353D01*
X121045729Y-74841067D01*
X121051360Y-74821888D01*
X121051360Y-74678111D01*
X121045729Y-74658933D01*
X121045730Y-74589064D01*
X121083505Y-74530286D01*
X121147061Y-74501262D01*
X121164707Y-74500000D01*
X121830232Y-74500000D01*
X121830232Y-74499999D01*
X121777629Y-74303682D01*
X121777625Y-74303673D01*
X121681494Y-74097517D01*
X121551017Y-73911179D01*
X121390176Y-73750338D01*
X121262915Y-73661228D01*
X121219290Y-73606651D01*
X121212098Y-73537153D01*
X121243620Y-73474798D01*
X121275023Y-73450599D01*
X121279804Y-73448012D01*
X121339195Y-73415871D01*
X121526930Y-73269751D01*
X121688054Y-73094724D01*
X121818172Y-72895564D01*
X121913734Y-72677704D01*
X121972135Y-72447085D01*
X121991780Y-72210000D01*
X121991780Y-72209993D01*
X121972136Y-71972922D01*
X121972134Y-71972911D01*
X121913734Y-71742297D01*
X121818171Y-71524434D01*
X121744242Y-71411278D01*
X121688054Y-71325276D01*
X121526930Y-71150249D01*
X121526929Y-71150248D01*
X121526927Y-71150246D01*
X121526923Y-71150243D01*
X121339203Y-71004134D01*
X121339197Y-71004130D01*
X121129971Y-70890902D01*
X121129962Y-70890899D01*
X120904964Y-70813656D01*
X120670309Y-70774500D01*
X120432411Y-70774500D01*
X120197755Y-70813656D01*
X119972757Y-70890899D01*
X119972748Y-70890902D01*
X119763522Y-71004130D01*
X119763516Y-71004134D01*
X119575796Y-71150243D01*
X119575792Y-71150246D01*
X119414663Y-71325278D01*
X119388111Y-71365921D01*
X119334964Y-71411278D01*
X119284302Y-71422100D01*
X112087721Y-71422100D01*
X112020682Y-71402415D01*
X112000040Y-71385781D01*
X111074219Y-70459960D01*
X111040734Y-70398637D01*
X111037900Y-70372279D01*
X111037900Y-68550099D01*
X113115170Y-68550099D01*
X113135106Y-68841557D01*
X113194544Y-69127596D01*
X113194546Y-69127601D01*
X113292374Y-69402865D01*
X113292375Y-69402867D01*
X113292376Y-69402870D01*
X113292378Y-69402874D01*
X113426784Y-69662264D01*
X113595258Y-69900937D01*
X113794662Y-70114447D01*
X114021282Y-70298816D01*
X114021284Y-70298817D01*
X114021285Y-70298818D01*
X114270896Y-70450610D01*
X114453902Y-70530100D01*
X114538854Y-70567000D01*
X114820164Y-70645820D01*
X115074614Y-70680792D01*
X115109587Y-70685600D01*
X115109588Y-70685600D01*
X115401733Y-70685600D01*
X115432935Y-70681311D01*
X115691156Y-70645820D01*
X115972466Y-70567000D01*
X116240425Y-70450609D01*
X116490038Y-70298816D01*
X116716658Y-70114447D01*
X116916062Y-69900937D01*
X117084536Y-69662264D01*
X117218942Y-69402874D01*
X117316775Y-69127597D01*
X117376213Y-68841563D01*
X117396150Y-68550100D01*
X117376213Y-68258637D01*
X117316775Y-67972603D01*
X117259334Y-67810979D01*
X117218945Y-67697334D01*
X117218944Y-67697332D01*
X117218942Y-67697326D01*
X117084536Y-67437936D01*
X116916062Y-67199263D01*
X116716658Y-66985753D01*
X116716651Y-66985748D01*
X116716650Y-66985746D01*
X116490034Y-66801381D01*
X116240423Y-66649589D01*
X115972469Y-66533201D01*
X115972467Y-66533200D01*
X115972466Y-66533200D01*
X115892434Y-66510776D01*
X115691161Y-66454381D01*
X115691157Y-66454380D01*
X115691156Y-66454380D01*
X115546444Y-66434490D01*
X115401733Y-66414600D01*
X115401732Y-66414600D01*
X115109588Y-66414600D01*
X115109587Y-66414600D01*
X114820164Y-66454380D01*
X114820158Y-66454381D01*
X114538850Y-66533201D01*
X114270896Y-66649589D01*
X114021285Y-66801381D01*
X113794669Y-66985746D01*
X113595259Y-67199262D01*
X113426784Y-67437935D01*
X113292375Y-67697332D01*
X113292374Y-67697334D01*
X113194546Y-67972598D01*
X113194544Y-67972603D01*
X113135106Y-68258642D01*
X113115170Y-68550099D01*
X111037900Y-68550099D01*
X111037900Y-66127720D01*
X111057585Y-66060681D01*
X111074214Y-66040044D01*
X112540040Y-64574218D01*
X112601363Y-64540734D01*
X112627721Y-64537900D01*
X136872279Y-64537900D01*
X136939318Y-64557585D01*
X136959960Y-64574219D01*
X159175781Y-86790039D01*
X159209266Y-86851362D01*
X159212100Y-86877720D01*
X159212100Y-110260500D01*
X159192415Y-110327539D01*
X159139611Y-110373294D01*
X159088101Y-110384500D01*
X158945820Y-110384501D01*
X158945819Y-110384501D01*
X158909794Y-110387335D01*
X158755611Y-110432129D01*
X158755606Y-110432131D01*
X158617404Y-110513863D01*
X158617396Y-110513869D01*
X158503869Y-110627396D01*
X158503863Y-110627404D01*
X158422131Y-110765606D01*
X158422129Y-110765611D01*
X158377335Y-110919791D01*
X158377334Y-110919797D01*
X158374500Y-110955817D01*
X158374501Y-115044180D01*
X158377335Y-115080204D01*
X158422129Y-115234388D01*
X158422131Y-115234393D01*
X158503863Y-115372595D01*
X158503869Y-115372603D01*
X158617396Y-115486130D01*
X158617400Y-115486133D01*
X158617402Y-115486135D01*
X158755607Y-115567869D01*
X158796268Y-115579682D01*
X158909791Y-115612664D01*
X158909794Y-115612664D01*
X158909796Y-115612665D01*
X158945819Y-115615500D01*
X159088100Y-115615499D01*
X159155139Y-115635183D01*
X159200894Y-115687987D01*
X159212100Y-115739499D01*
X159212100Y-120546149D01*
X159212101Y-120546181D01*
X159212101Y-120588776D01*
X159221232Y-120628787D01*
X159222396Y-120635634D01*
X159226994Y-120676434D01*
X159227948Y-120679160D01*
X159240552Y-120715185D01*
X159242478Y-120721869D01*
X159251609Y-120761874D01*
X159269412Y-120798844D01*
X159272075Y-120805271D01*
X159285633Y-120844018D01*
X159307472Y-120878774D01*
X159310837Y-120884864D01*
X159328643Y-120921837D01*
X159328644Y-120921838D01*
X159328645Y-120921840D01*
X159345621Y-120943128D01*
X159354233Y-120953926D01*
X159358260Y-120959601D01*
X159380094Y-120994352D01*
X159380096Y-120994354D01*
X159380097Y-120994355D01*
X159380098Y-120994356D01*
X159410311Y-121024569D01*
X159410348Y-121024608D01*
X159880781Y-121495040D01*
X159914266Y-121556363D01*
X159917100Y-121582721D01*
X159917100Y-127840500D01*
X159897415Y-127907539D01*
X159844611Y-127953294D01*
X159793102Y-127964500D01*
X159740820Y-127964501D01*
X159740819Y-127964501D01*
X159704794Y-127967335D01*
X159550611Y-128012129D01*
X159550606Y-128012131D01*
X159412404Y-128093863D01*
X159412396Y-128093869D01*
X159298869Y-128207396D01*
X159298863Y-128207404D01*
X159217131Y-128345606D01*
X159217129Y-128345611D01*
X159172335Y-128499791D01*
X159172334Y-128499797D01*
X159169500Y-128535817D01*
X159169500Y-128535819D01*
X159169501Y-129500000D01*
X159169501Y-130464180D01*
X159172335Y-130500204D01*
X159217129Y-130654388D01*
X159217131Y-130654393D01*
X159298863Y-130792595D01*
X159298869Y-130792603D01*
X159412396Y-130906130D01*
X159412400Y-130906133D01*
X159412402Y-130906135D01*
X159550607Y-130987869D01*
X159591268Y-130999682D01*
X159704791Y-131032664D01*
X159704794Y-131032664D01*
X159704796Y-131032665D01*
X159716803Y-131033609D01*
X159740817Y-131035500D01*
X159740818Y-131035499D01*
X159740819Y-131035500D01*
X161669180Y-131035499D01*
X161705204Y-131032665D01*
X161859393Y-130987869D01*
X161997598Y-130906135D01*
X162111135Y-130792598D01*
X162131011Y-130758988D01*
X162182078Y-130711306D01*
X162250819Y-130698800D01*
X162315409Y-130725445D01*
X162318274Y-130727818D01*
X162339663Y-130746086D01*
X162339665Y-130746087D01*
X162397890Y-130781767D01*
X162444765Y-130833577D01*
X162457100Y-130887494D01*
X162457100Y-131127278D01*
X162437415Y-131194317D01*
X162420781Y-131214959D01*
X160209960Y-133425781D01*
X160148637Y-133459266D01*
X160122279Y-133462100D01*
X140877720Y-133462100D01*
X140810681Y-133442415D01*
X140790039Y-133425781D01*
X138542899Y-131178641D01*
X136275844Y-128911585D01*
X136275843Y-128911584D01*
X136274598Y-128910339D01*
X136274579Y-128910321D01*
X136244356Y-128880098D01*
X136244355Y-128880097D01*
X136244354Y-128880096D01*
X136244352Y-128880094D01*
X136209601Y-128858260D01*
X136203931Y-128854236D01*
X136171840Y-128828645D01*
X136171838Y-128828644D01*
X136171837Y-128828643D01*
X136134864Y-128810837D01*
X136128774Y-128807472D01*
X136094018Y-128785633D01*
X136055271Y-128772075D01*
X136048844Y-128769412D01*
X136011874Y-128751609D01*
X135971869Y-128742478D01*
X135965185Y-128740552D01*
X135932631Y-128729162D01*
X135926434Y-128726994D01*
X135885634Y-128722396D01*
X135878787Y-128721232D01*
X135838776Y-128712101D01*
X135838774Y-128712101D01*
X135795972Y-128712101D01*
X135795936Y-128712100D01*
X135794244Y-128712100D01*
X132011567Y-128712100D01*
X131944528Y-128692415D01*
X131905841Y-128652892D01*
X131866755Y-128589109D01*
X131848512Y-128521666D01*
X131869629Y-128455063D01*
X131902178Y-128424373D01*
X131901435Y-128423415D01*
X131907591Y-128418638D01*
X131907598Y-128418635D01*
X132021135Y-128305098D01*
X132102869Y-128166893D01*
X132147665Y-128012704D01*
X132150500Y-127976681D01*
X132150500Y-127871900D01*
X132170185Y-127804861D01*
X132222989Y-127759106D01*
X132274500Y-127747900D01*
X133945936Y-127747900D01*
X133945972Y-127747899D01*
X133988774Y-127747899D01*
X134028782Y-127738767D01*
X134035639Y-127737602D01*
X134076434Y-127733006D01*
X134105139Y-127722960D01*
X134115176Y-127719449D01*
X134121865Y-127717522D01*
X134133146Y-127714946D01*
X134161873Y-127708391D01*
X134198859Y-127690578D01*
X134205267Y-127687924D01*
X134244020Y-127674365D01*
X134278783Y-127652520D01*
X134284860Y-127649162D01*
X134321840Y-127631355D01*
X134353937Y-127605757D01*
X134359596Y-127601741D01*
X134394356Y-127579902D01*
X134420457Y-127553799D01*
X134420472Y-127553787D01*
X134606981Y-127367278D01*
X137530982Y-124443275D01*
X137592303Y-124409792D01*
X137629464Y-124407430D01*
X137780000Y-124420601D01*
X137780001Y-124420601D01*
X137818798Y-124417206D01*
X138012793Y-124400234D01*
X138238513Y-124339753D01*
X138450301Y-124240995D01*
X138641722Y-124106960D01*
X138806960Y-123941722D01*
X138940995Y-123750301D01*
X138940999Y-123750290D01*
X138942610Y-123747503D01*
X138943644Y-123746516D01*
X138944100Y-123745866D01*
X138944230Y-123745957D01*
X138993174Y-123699285D01*
X139061781Y-123686059D01*
X139126647Y-123712024D01*
X139157390Y-123747503D01*
X139159004Y-123750299D01*
X139159005Y-123750301D01*
X139293040Y-123941722D01*
X139458278Y-124106960D01*
X139649699Y-124240995D01*
X139861487Y-124339753D01*
X140087207Y-124400234D01*
X140273441Y-124416527D01*
X140319999Y-124420601D01*
X140320000Y-124420601D01*
X140320001Y-124420601D01*
X140358798Y-124417206D01*
X140552793Y-124400234D01*
X140778513Y-124339753D01*
X140990301Y-124240995D01*
X141181722Y-124106960D01*
X141346960Y-123941722D01*
X141480995Y-123750301D01*
X141579753Y-123538513D01*
X141640234Y-123312793D01*
X141660601Y-123080000D01*
X141640234Y-122847207D01*
X141579753Y-122621487D01*
X141480995Y-122409700D01*
X141480993Y-122409697D01*
X141480992Y-122409695D01*
X141346963Y-122218282D01*
X141346962Y-122218281D01*
X141346960Y-122218278D01*
X141195017Y-122066335D01*
X141161534Y-122005013D01*
X141158700Y-121978655D01*
X141158700Y-114800005D01*
X146494859Y-114800005D01*
X146515385Y-115047729D01*
X146515387Y-115047738D01*
X146576412Y-115288717D01*
X146676266Y-115516364D01*
X146776564Y-115669882D01*
X147391050Y-115055395D01*
X147452373Y-115021910D01*
X147522064Y-115026894D01*
X147577998Y-115068765D01*
X147583039Y-115076025D01*
X147585727Y-115080208D01*
X147618239Y-115130798D01*
X147733602Y-115230759D01*
X147731293Y-115233422D01*
X147766006Y-115273499D01*
X147775935Y-115342660D01*
X147746898Y-115406210D01*
X147740882Y-115412669D01*
X147129942Y-116023609D01*
X147176768Y-116060055D01*
X147176770Y-116060056D01*
X147395385Y-116178364D01*
X147395396Y-116178369D01*
X147630506Y-116259083D01*
X147875707Y-116300000D01*
X148124293Y-116300000D01*
X148369493Y-116259083D01*
X148604603Y-116178369D01*
X148604614Y-116178364D01*
X148823228Y-116060057D01*
X148823231Y-116060055D01*
X148870056Y-116023609D01*
X148259116Y-115412669D01*
X148225631Y-115351346D01*
X148230615Y-115281654D01*
X148267641Y-115232193D01*
X148266398Y-115230759D01*
X148273100Y-115224952D01*
X148381761Y-115130798D01*
X148416954Y-115076037D01*
X148469755Y-115030283D01*
X148538914Y-115020339D01*
X148602470Y-115049363D01*
X148608949Y-115055396D01*
X149223434Y-115669882D01*
X149323731Y-115516369D01*
X149423587Y-115288717D01*
X149484612Y-115047738D01*
X149484614Y-115047729D01*
X149505141Y-114800005D01*
X149505141Y-114799994D01*
X149484614Y-114552270D01*
X149484612Y-114552261D01*
X149423587Y-114311282D01*
X149323731Y-114083630D01*
X149223434Y-113930116D01*
X148608949Y-114544602D01*
X148547626Y-114578087D01*
X148477934Y-114573103D01*
X148422001Y-114531231D01*
X148416953Y-114523961D01*
X148381761Y-114469202D01*
X148266398Y-114369241D01*
X148268698Y-114366585D01*
X148233960Y-114326428D01*
X148224074Y-114257261D01*
X148253152Y-114193729D01*
X148259116Y-114187329D01*
X148870056Y-113576389D01*
X148823229Y-113539943D01*
X148604614Y-113421635D01*
X148604603Y-113421630D01*
X148369493Y-113340916D01*
X148124293Y-113300000D01*
X147875707Y-113300000D01*
X147630506Y-113340916D01*
X147395396Y-113421630D01*
X147395390Y-113421632D01*
X147176761Y-113539949D01*
X147129942Y-113576388D01*
X147129942Y-113576390D01*
X147740883Y-114187330D01*
X147774368Y-114248653D01*
X147769384Y-114318344D01*
X147732358Y-114367805D01*
X147733602Y-114369241D01*
X147618238Y-114469202D01*
X147583046Y-114523962D01*
X147530242Y-114569717D01*
X147461083Y-114579660D01*
X147397528Y-114550634D01*
X147391050Y-114544603D01*
X146776564Y-113930116D01*
X146676267Y-114083632D01*
X146576412Y-114311282D01*
X146515387Y-114552261D01*
X146515385Y-114552270D01*
X146494859Y-114799994D01*
X146494859Y-114800005D01*
X141158700Y-114800005D01*
X141158700Y-110524537D01*
X141158700Y-110524532D01*
X141143921Y-110388641D01*
X141085671Y-110215763D01*
X140991620Y-110059448D01*
X140866164Y-109927006D01*
X140715170Y-109824629D01*
X140715169Y-109824628D01*
X140715167Y-109824627D01*
X140695203Y-109816673D01*
X140653421Y-109789162D01*
X138044608Y-107180348D01*
X138044569Y-107180311D01*
X138014356Y-107150098D01*
X138014355Y-107150097D01*
X138014354Y-107150096D01*
X138014352Y-107150094D01*
X137979601Y-107128260D01*
X137973931Y-107124236D01*
X137941840Y-107098645D01*
X137941838Y-107098644D01*
X137941837Y-107098643D01*
X137904864Y-107080837D01*
X137898774Y-107077472D01*
X137864018Y-107055633D01*
X137825271Y-107042075D01*
X137818844Y-107039412D01*
X137781874Y-107021609D01*
X137741869Y-107012478D01*
X137735185Y-107010552D01*
X137702631Y-106999162D01*
X137696434Y-106996994D01*
X137655634Y-106992396D01*
X137648787Y-106991232D01*
X137608776Y-106982101D01*
X137608774Y-106982101D01*
X137565972Y-106982101D01*
X137565936Y-106982100D01*
X137564244Y-106982100D01*
X137058418Y-106982100D01*
X136991379Y-106962415D01*
X136954609Y-106925921D01*
X136928056Y-106885278D01*
X136907384Y-106862822D01*
X136766930Y-106710249D01*
X136622522Y-106597852D01*
X136581711Y-106541143D01*
X136578036Y-106471370D01*
X136612667Y-106410687D01*
X136622516Y-106402152D01*
X136766930Y-106289751D01*
X136928054Y-106114724D01*
X136954608Y-106074079D01*
X137007756Y-106028722D01*
X137058418Y-106017900D01*
X144352279Y-106017900D01*
X144419318Y-106037585D01*
X144439960Y-106054219D01*
X146175689Y-107789949D01*
X146175719Y-107789977D01*
X146205644Y-107819902D01*
X146240393Y-107841736D01*
X146246068Y-107845763D01*
X146278160Y-107871356D01*
X146294299Y-107879128D01*
X146346159Y-107925948D01*
X146364500Y-107990849D01*
X146364501Y-108264181D01*
X146367335Y-108300205D01*
X146412129Y-108454388D01*
X146412131Y-108454393D01*
X146493863Y-108592595D01*
X146493869Y-108592603D01*
X146607396Y-108706130D01*
X146607400Y-108706133D01*
X146607402Y-108706135D01*
X146745607Y-108787869D01*
X146786268Y-108799682D01*
X146899791Y-108832664D01*
X146899794Y-108832664D01*
X146899796Y-108832665D01*
X146911803Y-108833609D01*
X146935817Y-108835500D01*
X146935818Y-108835499D01*
X146935819Y-108835500D01*
X149064180Y-108835499D01*
X149100204Y-108832665D01*
X149254393Y-108787869D01*
X149392598Y-108706135D01*
X149506135Y-108592598D01*
X149587869Y-108454393D01*
X149632665Y-108300204D01*
X149635500Y-108264181D01*
X149635499Y-106135820D01*
X149632665Y-106099796D01*
X149587869Y-105945607D01*
X149506135Y-105807402D01*
X149506133Y-105807400D01*
X149506130Y-105807396D01*
X149392603Y-105693869D01*
X149392595Y-105693863D01*
X149254393Y-105612131D01*
X149254388Y-105612129D01*
X149100208Y-105567335D01*
X149100202Y-105567334D01*
X149064183Y-105564500D01*
X149064181Y-105564500D01*
X146931712Y-105564501D01*
X146935820Y-105564501D01*
X146899795Y-105567335D01*
X146745611Y-105612129D01*
X146745606Y-105612131D01*
X146607404Y-105693863D01*
X146607400Y-105693866D01*
X146545443Y-105755823D01*
X146484119Y-105789307D01*
X146414428Y-105784322D01*
X146370081Y-105755822D01*
X145254608Y-104640348D01*
X145254569Y-104640311D01*
X145224356Y-104610098D01*
X145224355Y-104610097D01*
X145224354Y-104610096D01*
X145224352Y-104610094D01*
X145189601Y-104588260D01*
X145183931Y-104584236D01*
X145151840Y-104558645D01*
X145151838Y-104558644D01*
X145151837Y-104558643D01*
X145114864Y-104540837D01*
X145108774Y-104537472D01*
X145074018Y-104515633D01*
X145035271Y-104502075D01*
X145028844Y-104499412D01*
X144991874Y-104481609D01*
X144951869Y-104472478D01*
X144945185Y-104470552D01*
X144912631Y-104459162D01*
X144906434Y-104456994D01*
X144865634Y-104452396D01*
X144858787Y-104451232D01*
X144818776Y-104442101D01*
X144818774Y-104442101D01*
X144775972Y-104442101D01*
X144775936Y-104442100D01*
X144774244Y-104442100D01*
X137058418Y-104442100D01*
X136991379Y-104422415D01*
X136954609Y-104385921D01*
X136928056Y-104345278D01*
X136907384Y-104322822D01*
X136766930Y-104170249D01*
X136622522Y-104057852D01*
X136581711Y-104001143D01*
X136578036Y-103931370D01*
X136612667Y-103870687D01*
X136622516Y-103862152D01*
X136766930Y-103749751D01*
X136928054Y-103574724D01*
X137058172Y-103375564D01*
X137153734Y-103157704D01*
X137212135Y-102927085D01*
X137231780Y-102690000D01*
X137231780Y-102689993D01*
X137212136Y-102452922D01*
X137212134Y-102452911D01*
X137160853Y-102250409D01*
X137153734Y-102222296D01*
X137058172Y-102004436D01*
X136928054Y-101805276D01*
X136766930Y-101630249D01*
X136622522Y-101517852D01*
X136581711Y-101461143D01*
X136578036Y-101391370D01*
X136612667Y-101330687D01*
X136622516Y-101322152D01*
X136766930Y-101209751D01*
X136928054Y-101034724D01*
X137058172Y-100835564D01*
X137153734Y-100617704D01*
X137212135Y-100387085D01*
X137231780Y-100150000D01*
X137231780Y-100149993D01*
X137212136Y-99912922D01*
X137212134Y-99912911D01*
X137153734Y-99682297D01*
X137096054Y-99550800D01*
X137058172Y-99464436D01*
X136928054Y-99265276D01*
X136766930Y-99090249D01*
X136622522Y-98977852D01*
X136581711Y-98921143D01*
X136578036Y-98851370D01*
X136612667Y-98790687D01*
X136622516Y-98782152D01*
X136766930Y-98669751D01*
X136928054Y-98494724D01*
X137058172Y-98295564D01*
X137153734Y-98077704D01*
X137212135Y-97847085D01*
X137224951Y-97692415D01*
X137231780Y-97610006D01*
X137231780Y-97609993D01*
X137212136Y-97372922D01*
X137212134Y-97372911D01*
X137153734Y-97142297D01*
X137102653Y-97025844D01*
X137058172Y-96924436D01*
X137028339Y-96878774D01*
X136928055Y-96725278D01*
X136928054Y-96725276D01*
X136766930Y-96550249D01*
X136622522Y-96437852D01*
X136581711Y-96381143D01*
X136578036Y-96311370D01*
X136612667Y-96250687D01*
X136622516Y-96242152D01*
X136766930Y-96129751D01*
X136928054Y-95954724D01*
X137058172Y-95755564D01*
X137153734Y-95537704D01*
X137212135Y-95307085D01*
X137231780Y-95070000D01*
X137231780Y-95069993D01*
X137212136Y-94832922D01*
X137212134Y-94832911D01*
X137153734Y-94602297D01*
X137100783Y-94481581D01*
X137058172Y-94384436D01*
X137039355Y-94355635D01*
X136928055Y-94185278D01*
X136928054Y-94185276D01*
X136766930Y-94010249D01*
X136622522Y-93897852D01*
X136581711Y-93841143D01*
X136578036Y-93771370D01*
X136612667Y-93710687D01*
X136622516Y-93702152D01*
X136766930Y-93589751D01*
X136928054Y-93414724D01*
X137058172Y-93215564D01*
X137153734Y-92997704D01*
X137212135Y-92767085D01*
X137220246Y-92669202D01*
X137231780Y-92530006D01*
X137231780Y-92529993D01*
X137212136Y-92292922D01*
X137212134Y-92292911D01*
X137153734Y-92062297D01*
X137102502Y-91945500D01*
X137058172Y-91844436D01*
X136928054Y-91645276D01*
X136766930Y-91470249D01*
X136645256Y-91375546D01*
X136622523Y-91357852D01*
X136581710Y-91301142D01*
X136578036Y-91231369D01*
X136612668Y-91170686D01*
X136622504Y-91162161D01*
X136766930Y-91049751D01*
X136928054Y-90874724D01*
X137058172Y-90675564D01*
X137153734Y-90457704D01*
X137212135Y-90227085D01*
X137231780Y-89990000D01*
X137231780Y-89989993D01*
X137212136Y-89752922D01*
X137212134Y-89752911D01*
X137159347Y-89544462D01*
X137153734Y-89522296D01*
X137058172Y-89304436D01*
X137041758Y-89279313D01*
X136983407Y-89190000D01*
X136928054Y-89105276D01*
X136766930Y-88930249D01*
X136622522Y-88817852D01*
X136581711Y-88761143D01*
X136578036Y-88691370D01*
X136612667Y-88630687D01*
X136622516Y-88622152D01*
X136766930Y-88509751D01*
X136928054Y-88334724D01*
X137058172Y-88135564D01*
X137153734Y-87917704D01*
X137212135Y-87687085D01*
X137213165Y-87674657D01*
X137231780Y-87450006D01*
X137231780Y-87449993D01*
X137212136Y-87212922D01*
X137212134Y-87212911D01*
X137201675Y-87171609D01*
X137153734Y-86982296D01*
X137058172Y-86764436D01*
X137041758Y-86739313D01*
X136983407Y-86650000D01*
X136928054Y-86565276D01*
X136766930Y-86390249D01*
X136622522Y-86277852D01*
X136581711Y-86221143D01*
X136578036Y-86151370D01*
X136612667Y-86090687D01*
X136622516Y-86082152D01*
X136766930Y-85969751D01*
X136928054Y-85794724D01*
X137058172Y-85595564D01*
X137153734Y-85377704D01*
X137212135Y-85147085D01*
X137231780Y-84910000D01*
X137231780Y-84909993D01*
X137212136Y-84672922D01*
X137212134Y-84672911D01*
X137201675Y-84631609D01*
X137153734Y-84442296D01*
X137058172Y-84224436D01*
X136928054Y-84025276D01*
X136766930Y-83850249D01*
X136622522Y-83737852D01*
X136581711Y-83681143D01*
X136578036Y-83611370D01*
X136612667Y-83550687D01*
X136622516Y-83542152D01*
X136766930Y-83429751D01*
X136928054Y-83254724D01*
X137058172Y-83055564D01*
X137153734Y-82837704D01*
X137212135Y-82607085D01*
X137231780Y-82370000D01*
X137231780Y-82369993D01*
X137212136Y-82132922D01*
X137212134Y-82132911D01*
X137153734Y-81902297D01*
X137058171Y-81684434D01*
X136928055Y-81485278D01*
X136928054Y-81485276D01*
X136766930Y-81310249D01*
X136766929Y-81310248D01*
X136766927Y-81310246D01*
X136766923Y-81310243D01*
X136579203Y-81164134D01*
X136579197Y-81164130D01*
X136563776Y-81155784D01*
X136515020Y-81129399D01*
X136465431Y-81080180D01*
X136450323Y-81011964D01*
X136474493Y-80946408D01*
X136502915Y-80918770D01*
X136630180Y-80829657D01*
X136791017Y-80668820D01*
X136921494Y-80482482D01*
X137017625Y-80276326D01*
X137017629Y-80276317D01*
X137070232Y-80080000D01*
X136404707Y-80080000D01*
X136337668Y-80060315D01*
X136291913Y-80007511D01*
X136281969Y-79938353D01*
X136285729Y-79921067D01*
X136291360Y-79901888D01*
X136291360Y-79758111D01*
X136285729Y-79738933D01*
X136285730Y-79669064D01*
X136323505Y-79610286D01*
X136387061Y-79581262D01*
X136404707Y-79580000D01*
X137070232Y-79580000D01*
X137070232Y-79579999D01*
X137017629Y-79383682D01*
X137017625Y-79383673D01*
X136921494Y-79177517D01*
X136791017Y-78991179D01*
X136630176Y-78830338D01*
X136502915Y-78741228D01*
X136459290Y-78686651D01*
X136452098Y-78617153D01*
X136483620Y-78554798D01*
X136515023Y-78530599D01*
X136523668Y-78525921D01*
X136579195Y-78495871D01*
X136611552Y-78470687D01*
X136642238Y-78446802D01*
X136766930Y-78349751D01*
X136928054Y-78174724D01*
X137058172Y-77975564D01*
X137153734Y-77757704D01*
X137212135Y-77527085D01*
X137212136Y-77527077D01*
X137231780Y-77290006D01*
X137231780Y-77289993D01*
X137212136Y-77052922D01*
X137212134Y-77052911D01*
X137173890Y-76901889D01*
X137153734Y-76822296D01*
X137058172Y-76604436D01*
X137042206Y-76579999D01*
X136928055Y-76405278D01*
X136928054Y-76405276D01*
X136766930Y-76230249D01*
X136622522Y-76117852D01*
X136581711Y-76061143D01*
X136578036Y-75991370D01*
X136612667Y-75930687D01*
X136622516Y-75922152D01*
X136766930Y-75809751D01*
X136928054Y-75634724D01*
X137058172Y-75435564D01*
X137153734Y-75217704D01*
X137212135Y-74987085D01*
X137212696Y-74980315D01*
X137231780Y-74750006D01*
X137231780Y-74749993D01*
X137212136Y-74512922D01*
X137212134Y-74512911D01*
X137208864Y-74499999D01*
X137153734Y-74282296D01*
X137058172Y-74064436D01*
X137055719Y-74060682D01*
X136928055Y-73865278D01*
X136928054Y-73865276D01*
X136843420Y-73773339D01*
X136812498Y-73710684D01*
X136820358Y-73641258D01*
X136864505Y-73587103D01*
X136871496Y-73582644D01*
X136983958Y-73516135D01*
X137097495Y-73402598D01*
X137179229Y-73264393D01*
X137224025Y-73110204D01*
X137226860Y-73074181D01*
X137226859Y-71345820D01*
X137224025Y-71309796D01*
X137179229Y-71155607D01*
X137097495Y-71017402D01*
X137097493Y-71017400D01*
X137097490Y-71017396D01*
X136983963Y-70903869D01*
X136983955Y-70903863D01*
X136845753Y-70822131D01*
X136845748Y-70822129D01*
X136691568Y-70777335D01*
X136691562Y-70777334D01*
X136655543Y-70774500D01*
X136655541Y-70774500D01*
X134922240Y-70774501D01*
X134927180Y-70774501D01*
X134891155Y-70777335D01*
X134736971Y-70822129D01*
X134736966Y-70822131D01*
X134598764Y-70903863D01*
X134598756Y-70903869D01*
X134485229Y-71017396D01*
X134485223Y-71017404D01*
X134403491Y-71155606D01*
X134403489Y-71155611D01*
X134358695Y-71309791D01*
X134358694Y-71309797D01*
X134355860Y-71345817D01*
X134355861Y-73074180D01*
X134358695Y-73110204D01*
X134403489Y-73264388D01*
X134403491Y-73264393D01*
X134485223Y-73402595D01*
X134485229Y-73402603D01*
X134598756Y-73516130D01*
X134598760Y-73516133D01*
X134598762Y-73516135D01*
X134598765Y-73516136D01*
X134598768Y-73516139D01*
X134711189Y-73582624D01*
X134758873Y-73633693D01*
X134771377Y-73702434D01*
X134744732Y-73767024D01*
X134739299Y-73773338D01*
X134654672Y-73865267D01*
X134654664Y-73865278D01*
X134524548Y-74064434D01*
X134428985Y-74282297D01*
X134370585Y-74512911D01*
X134370583Y-74512922D01*
X134350940Y-74749993D01*
X134350940Y-74750006D01*
X134370583Y-74987077D01*
X134370585Y-74987088D01*
X134428985Y-75217702D01*
X134524548Y-75435565D01*
X134594400Y-75542480D01*
X134654666Y-75634724D01*
X134815790Y-75809751D01*
X134960198Y-75922148D01*
X135001009Y-75978855D01*
X135004684Y-76048628D01*
X134970053Y-76109312D01*
X134960197Y-76117852D01*
X134815792Y-76230247D01*
X134654667Y-76405274D01*
X134654664Y-76405278D01*
X134524548Y-76604434D01*
X134428985Y-76822297D01*
X134370585Y-77052911D01*
X134370583Y-77052922D01*
X134350940Y-77289993D01*
X134350940Y-77290006D01*
X134370583Y-77527077D01*
X134370585Y-77527088D01*
X134428985Y-77757702D01*
X134524548Y-77975565D01*
X134654664Y-78174721D01*
X134654667Y-78174725D01*
X134815792Y-78349753D01*
X134815796Y-78349756D01*
X135003516Y-78495865D01*
X135003523Y-78495869D01*
X135003525Y-78495871D01*
X135059052Y-78525921D01*
X135067697Y-78530599D01*
X135117288Y-78579818D01*
X135132396Y-78648035D01*
X135108226Y-78713590D01*
X135079804Y-78741228D01*
X134952543Y-78830338D01*
X134791702Y-78991179D01*
X134661225Y-79177517D01*
X134565094Y-79383673D01*
X134565090Y-79383682D01*
X134512487Y-79579999D01*
X134512488Y-79580000D01*
X135178013Y-79580000D01*
X135245052Y-79599685D01*
X135290807Y-79652489D01*
X135300751Y-79721647D01*
X135296991Y-79738933D01*
X135291360Y-79758111D01*
X135291360Y-79901888D01*
X135296991Y-79921067D01*
X135296990Y-79990936D01*
X135259215Y-80049714D01*
X135195659Y-80078738D01*
X135178013Y-80080000D01*
X134512488Y-80080000D01*
X134565090Y-80276317D01*
X134565094Y-80276326D01*
X134661225Y-80482482D01*
X134791702Y-80668820D01*
X134952539Y-80829657D01*
X135079804Y-80918770D01*
X135123429Y-80973348D01*
X135130621Y-81042846D01*
X135099099Y-81105201D01*
X135067698Y-81129399D01*
X135003531Y-81164124D01*
X135003516Y-81164134D01*
X134815796Y-81310243D01*
X134815792Y-81310246D01*
X134654667Y-81485274D01*
X134654664Y-81485278D01*
X134524548Y-81684434D01*
X134428985Y-81902297D01*
X134370585Y-82132911D01*
X134370583Y-82132922D01*
X134350940Y-82369993D01*
X134350940Y-82370006D01*
X134370583Y-82607077D01*
X134370585Y-82607088D01*
X134428985Y-82837702D01*
X134524548Y-83055565D01*
X134654664Y-83254721D01*
X134654666Y-83254724D01*
X134815790Y-83429751D01*
X134960197Y-83542147D01*
X135001009Y-83598857D01*
X135004684Y-83668630D01*
X134970053Y-83729313D01*
X134960203Y-83737847D01*
X134850931Y-83822897D01*
X134815791Y-83850248D01*
X134654667Y-84025274D01*
X134654664Y-84025278D01*
X134524548Y-84224434D01*
X134428985Y-84442297D01*
X134370585Y-84672911D01*
X134370583Y-84672922D01*
X134350940Y-84909993D01*
X134350940Y-84910006D01*
X134370583Y-85147077D01*
X134370585Y-85147088D01*
X134428985Y-85377702D01*
X134524548Y-85595565D01*
X134654664Y-85794721D01*
X134654666Y-85794724D01*
X134815790Y-85969751D01*
X134960198Y-86082148D01*
X135001009Y-86138855D01*
X135004684Y-86208628D01*
X134970053Y-86269312D01*
X134960197Y-86277852D01*
X134815792Y-86390247D01*
X134815790Y-86390248D01*
X134815790Y-86390249D01*
X134796149Y-86411585D01*
X134654667Y-86565274D01*
X134654664Y-86565278D01*
X134524548Y-86764434D01*
X134428985Y-86982297D01*
X134370585Y-87212911D01*
X134370583Y-87212922D01*
X134350940Y-87449993D01*
X134350940Y-87450006D01*
X134370583Y-87687077D01*
X134370585Y-87687088D01*
X134428985Y-87917702D01*
X134524548Y-88135565D01*
X134601254Y-88252971D01*
X134654666Y-88334724D01*
X134815790Y-88509751D01*
X134960197Y-88622147D01*
X135001009Y-88678857D01*
X135004684Y-88748630D01*
X134970053Y-88809313D01*
X134960203Y-88817847D01*
X134850931Y-88902897D01*
X134815791Y-88930248D01*
X134654667Y-89105274D01*
X134654664Y-89105278D01*
X134524548Y-89304434D01*
X134428985Y-89522297D01*
X134370585Y-89752911D01*
X134370583Y-89752922D01*
X134350940Y-89989993D01*
X134350940Y-89990006D01*
X134370583Y-90227077D01*
X134370585Y-90227088D01*
X134428985Y-90457702D01*
X134524548Y-90675565D01*
X134597940Y-90787899D01*
X134654666Y-90874724D01*
X134815790Y-91049751D01*
X134960197Y-91162147D01*
X135001009Y-91218857D01*
X135004684Y-91288630D01*
X134970053Y-91349313D01*
X134960203Y-91357847D01*
X134850931Y-91442897D01*
X134815791Y-91470248D01*
X134654667Y-91645274D01*
X134654664Y-91645278D01*
X134524548Y-91844434D01*
X134428985Y-92062297D01*
X134370585Y-92292911D01*
X134370583Y-92292922D01*
X134350940Y-92529993D01*
X134350940Y-92530006D01*
X134370583Y-92767077D01*
X134370585Y-92767088D01*
X134428985Y-92997702D01*
X134524548Y-93215565D01*
X134599834Y-93330798D01*
X134654666Y-93414724D01*
X134815790Y-93589751D01*
X134960197Y-93702147D01*
X135001009Y-93758857D01*
X135004684Y-93828630D01*
X134970053Y-93889313D01*
X134960208Y-93897844D01*
X134850931Y-93982897D01*
X134815791Y-94010248D01*
X134654667Y-94185274D01*
X134654664Y-94185278D01*
X134524548Y-94384434D01*
X134428985Y-94602297D01*
X134370585Y-94832911D01*
X134370583Y-94832922D01*
X134350940Y-95069993D01*
X134350940Y-95070006D01*
X134370583Y-95307077D01*
X134370585Y-95307088D01*
X134428985Y-95537702D01*
X134524548Y-95755565D01*
X134593259Y-95860734D01*
X134654666Y-95954724D01*
X134815790Y-96129751D01*
X134960198Y-96242148D01*
X135001009Y-96298855D01*
X135004684Y-96368628D01*
X134970053Y-96429312D01*
X134960197Y-96437852D01*
X134815792Y-96550247D01*
X134654667Y-96725274D01*
X134654664Y-96725278D01*
X134524548Y-96924434D01*
X134428985Y-97142297D01*
X134370585Y-97372911D01*
X134370583Y-97372922D01*
X134350940Y-97609993D01*
X134350940Y-97610006D01*
X134370583Y-97847077D01*
X134370585Y-97847088D01*
X134428985Y-98077702D01*
X134524548Y-98295565D01*
X134618021Y-98438635D01*
X134654666Y-98494724D01*
X134815790Y-98669751D01*
X134960197Y-98782147D01*
X135001009Y-98838857D01*
X135004684Y-98908630D01*
X134970053Y-98969313D01*
X134960203Y-98977847D01*
X134889327Y-99033013D01*
X134815791Y-99090248D01*
X134654667Y-99265274D01*
X134654664Y-99265278D01*
X134524548Y-99464434D01*
X134428985Y-99682297D01*
X134370585Y-99912911D01*
X134370583Y-99912922D01*
X134350940Y-100149993D01*
X134350940Y-100150006D01*
X134370583Y-100387077D01*
X134370585Y-100387088D01*
X134428985Y-100617702D01*
X134524548Y-100835565D01*
X134654664Y-101034721D01*
X134654666Y-101034724D01*
X134815790Y-101209751D01*
X134960197Y-101322147D01*
X135001009Y-101378857D01*
X135004684Y-101448630D01*
X134970053Y-101509313D01*
X134960203Y-101517847D01*
X134896156Y-101567698D01*
X134815791Y-101630248D01*
X134654667Y-101805274D01*
X134654664Y-101805278D01*
X134524548Y-102004434D01*
X134428985Y-102222297D01*
X134370585Y-102452911D01*
X134370583Y-102452922D01*
X134350940Y-102689993D01*
X134350940Y-102690006D01*
X134370583Y-102927077D01*
X134370585Y-102927088D01*
X134428985Y-103157702D01*
X134524548Y-103375565D01*
X134654664Y-103574721D01*
X134654666Y-103574724D01*
X134815790Y-103749751D01*
X134908462Y-103821880D01*
X134960196Y-103862147D01*
X135001008Y-103918857D01*
X135004683Y-103988630D01*
X134970051Y-104049313D01*
X134960196Y-104057853D01*
X134815792Y-104170247D01*
X134654667Y-104345274D01*
X134654664Y-104345278D01*
X134524548Y-104544434D01*
X134428985Y-104762297D01*
X134370585Y-104992911D01*
X134370583Y-104992922D01*
X134350940Y-105229993D01*
X134350940Y-105230006D01*
X134370583Y-105467077D01*
X134370585Y-105467088D01*
X134428985Y-105697702D01*
X134524548Y-105915565D01*
X134598478Y-106028722D01*
X134654666Y-106114724D01*
X134815790Y-106289751D01*
X134908462Y-106361880D01*
X134960196Y-106402147D01*
X135001008Y-106458857D01*
X135004683Y-106528630D01*
X134970051Y-106589313D01*
X134960196Y-106597853D01*
X134815792Y-106710247D01*
X134654667Y-106885274D01*
X134654664Y-106885278D01*
X134524548Y-107084434D01*
X134428985Y-107302297D01*
X134370585Y-107532911D01*
X134370583Y-107532922D01*
X134350940Y-107769993D01*
X134350940Y-107770006D01*
X134370583Y-108007077D01*
X134370585Y-108007088D01*
X134428985Y-108237702D01*
X134524548Y-108455565D01*
X134654664Y-108654721D01*
X134654667Y-108654725D01*
X134815792Y-108829753D01*
X134815796Y-108829756D01*
X135003516Y-108975865D01*
X135003522Y-108975869D01*
X135003525Y-108975871D01*
X135212750Y-109089098D01*
X135437758Y-109166344D01*
X135672411Y-109205500D01*
X135910309Y-109205500D01*
X136144962Y-109166344D01*
X136369970Y-109089098D01*
X136579195Y-108975871D01*
X136766930Y-108829751D01*
X136928054Y-108654724D01*
X136954608Y-108614079D01*
X137007756Y-108568722D01*
X137058418Y-108557900D01*
X137142279Y-108557900D01*
X137209318Y-108577585D01*
X137229960Y-108594219D01*
X139444981Y-110809240D01*
X139478466Y-110870563D01*
X139481300Y-110896921D01*
X139481300Y-121978655D01*
X139461615Y-122045694D01*
X139444982Y-122066336D01*
X139293036Y-122218282D01*
X139159008Y-122409694D01*
X139157387Y-122412503D01*
X139156349Y-122413492D01*
X139155900Y-122414134D01*
X139155771Y-122414043D01*
X139106819Y-122460718D01*
X139038212Y-122473940D01*
X138973348Y-122447972D01*
X138942613Y-122412503D01*
X138940997Y-122409704D01*
X138940995Y-122409700D01*
X138940991Y-122409695D01*
X138940991Y-122409694D01*
X138806963Y-122218282D01*
X138806958Y-122218276D01*
X138641726Y-122053044D01*
X138641726Y-122053043D01*
X138641722Y-122053040D01*
X138450301Y-121919005D01*
X138450302Y-121919005D01*
X138450300Y-121919004D01*
X138344407Y-121869626D01*
X138238513Y-121820247D01*
X138238509Y-121820246D01*
X138238505Y-121820244D01*
X138012798Y-121759767D01*
X138012788Y-121759765D01*
X137780001Y-121739399D01*
X137779999Y-121739399D01*
X137547211Y-121759765D01*
X137547201Y-121759767D01*
X137321494Y-121820244D01*
X137321485Y-121820248D01*
X137109699Y-121919005D01*
X137109695Y-121919007D01*
X136918282Y-122053036D01*
X136918276Y-122053041D01*
X136753041Y-122218276D01*
X136753036Y-122218282D01*
X136619007Y-122409695D01*
X136619005Y-122409699D01*
X136520248Y-122621485D01*
X136520244Y-122621494D01*
X136459767Y-122847201D01*
X136459765Y-122847211D01*
X136439399Y-123079999D01*
X136439399Y-123080002D01*
X136452568Y-123230530D01*
X136438801Y-123299030D01*
X136416721Y-123329018D01*
X133609960Y-126135781D01*
X133548637Y-126169266D01*
X133522279Y-126172100D01*
X132274499Y-126172100D01*
X132207460Y-126152415D01*
X132161705Y-126099611D01*
X132150499Y-126048100D01*
X132150499Y-125943320D01*
X132150499Y-125943317D01*
X132147665Y-125907296D01*
X132102869Y-125753107D01*
X132021135Y-125614902D01*
X132021133Y-125614900D01*
X132021130Y-125614896D01*
X131907603Y-125501369D01*
X131907595Y-125501363D01*
X131769393Y-125419631D01*
X131769388Y-125419629D01*
X131615208Y-125374835D01*
X131615202Y-125374834D01*
X131579183Y-125372000D01*
X131579181Y-125372000D01*
X129466368Y-125372001D01*
X129450820Y-125372001D01*
X129414795Y-125374835D01*
X129260611Y-125419629D01*
X129260606Y-125419631D01*
X129122404Y-125501363D01*
X129122396Y-125501369D01*
X129008869Y-125614896D01*
X129008863Y-125614904D01*
X128927131Y-125753106D01*
X128927129Y-125753111D01*
X128882335Y-125907291D01*
X128882334Y-125907297D01*
X128879500Y-125943317D01*
X128879501Y-127976680D01*
X128882335Y-128012704D01*
X128927129Y-128166888D01*
X128927131Y-128166893D01*
X129008863Y-128305095D01*
X129008869Y-128305103D01*
X129122396Y-128418630D01*
X129128565Y-128423415D01*
X129127433Y-128424874D01*
X129168313Y-128468645D01*
X129180825Y-128537386D01*
X129163243Y-128589112D01*
X129048203Y-128776840D01*
X128952554Y-129007759D01*
X128894200Y-129250818D01*
X128874590Y-129499999D01*
X128894200Y-129749181D01*
X128952554Y-129992240D01*
X129048204Y-130223162D01*
X129048206Y-130223165D01*
X129178805Y-130436283D01*
X129178806Y-130436285D01*
X129178807Y-130436286D01*
X129178809Y-130436289D01*
X129341143Y-130626357D01*
X129503196Y-130764764D01*
X129541388Y-130823269D01*
X129541887Y-130893136D01*
X129506647Y-130950281D01*
X129395197Y-131052879D01*
X129395193Y-131052883D01*
X129247350Y-131242831D01*
X129247344Y-131242840D01*
X129132784Y-131454531D01*
X129132778Y-131454545D01*
X129054619Y-131682208D01*
X129036633Y-131789999D01*
X129036634Y-131790000D01*
X129848044Y-131790000D01*
X129915083Y-131809685D01*
X129960838Y-131862489D01*
X129971755Y-131922463D01*
X129971441Y-131927045D01*
X129971441Y-131927047D01*
X129961123Y-132077886D01*
X129974191Y-132140772D01*
X129968557Y-132210414D01*
X129926166Y-132265955D01*
X129860477Y-132289761D01*
X129852784Y-132290000D01*
X129036633Y-132290000D01*
X129054619Y-132397791D01*
X129132778Y-132625454D01*
X129132784Y-132625468D01*
X129247344Y-132837159D01*
X129247350Y-132837168D01*
X129395193Y-133027116D01*
X129395202Y-133027126D01*
X129572289Y-133190148D01*
X129572300Y-133190156D01*
X129773815Y-133321813D01*
X129994260Y-133418508D01*
X129994259Y-133418508D01*
X130227604Y-133477599D01*
X130265000Y-133480697D01*
X130265000Y-132704652D01*
X130284685Y-132637613D01*
X130337489Y-132591858D01*
X130406647Y-132581914D01*
X130422447Y-132585248D01*
X130439404Y-132590000D01*
X130439406Y-132590000D01*
X130552622Y-132590000D01*
X130624116Y-132580173D01*
X130693210Y-132590545D01*
X130745729Y-132636627D01*
X130765000Y-132703018D01*
X130765000Y-133480696D01*
X130802394Y-133477599D01*
X130802395Y-133477599D01*
X131035740Y-133418508D01*
X131256184Y-133321813D01*
X131457699Y-133190156D01*
X131457710Y-133190148D01*
X131634797Y-133027126D01*
X131634806Y-133027116D01*
X131782649Y-132837168D01*
X131782655Y-132837159D01*
X131897215Y-132625468D01*
X131897221Y-132625454D01*
X131975380Y-132397791D01*
X131993367Y-132290000D01*
X131181956Y-132290000D01*
X131114917Y-132270315D01*
X131069162Y-132217511D01*
X131058245Y-132157537D01*
X131059392Y-132140772D01*
X131068877Y-132002114D01*
X131055809Y-131939227D01*
X131061443Y-131869586D01*
X131103834Y-131814045D01*
X131169523Y-131790239D01*
X131177216Y-131790000D01*
X131993366Y-131790000D01*
X131993366Y-131789999D01*
X131975380Y-131682208D01*
X131897221Y-131454545D01*
X131897215Y-131454531D01*
X131782655Y-131242840D01*
X131782649Y-131242831D01*
X131634806Y-131052883D01*
X131634803Y-131052879D01*
X131523354Y-130950283D01*
X131487363Y-130890395D01*
X131489464Y-130820557D01*
X131526805Y-130764763D01*
X131533564Y-130758990D01*
X131688857Y-130626357D01*
X131851191Y-130436289D01*
X131905839Y-130347110D01*
X131957651Y-130300235D01*
X132011567Y-130287900D01*
X135372279Y-130287900D01*
X135439318Y-130307585D01*
X135459960Y-130324219D01*
X139880098Y-134744356D01*
X140005644Y-134869902D01*
X140005646Y-134869903D01*
X140040393Y-134891737D01*
X140046067Y-134895762D01*
X140078160Y-134921355D01*
X140115134Y-134939161D01*
X140121225Y-134942527D01*
X140155976Y-134964363D01*
X140155978Y-134964364D01*
X140155980Y-134964365D01*
X140194729Y-134977923D01*
X140201142Y-134980580D01*
X140238126Y-134998391D01*
X140278153Y-135007526D01*
X140284801Y-135009441D01*
X140323566Y-135023006D01*
X140364363Y-135027602D01*
X140371209Y-135028766D01*
X140411225Y-135037899D01*
X140454028Y-135037899D01*
X140454064Y-135037900D01*
X140455756Y-135037900D01*
X160545936Y-135037900D01*
X160545972Y-135037899D01*
X160588774Y-135037899D01*
X160628782Y-135028767D01*
X160635639Y-135027602D01*
X160676434Y-135023006D01*
X160705139Y-135012960D01*
X160715176Y-135009449D01*
X160721865Y-135007522D01*
X160733146Y-135004946D01*
X160761873Y-134998391D01*
X160798859Y-134980578D01*
X160805267Y-134977924D01*
X160844020Y-134964365D01*
X160878783Y-134942520D01*
X160884860Y-134939162D01*
X160921840Y-134921355D01*
X160953937Y-134895757D01*
X160959596Y-134891741D01*
X160994356Y-134869902D01*
X161020457Y-134843799D01*
X161020472Y-134843787D01*
X163838787Y-132025472D01*
X163838801Y-132025456D01*
X163864901Y-131999357D01*
X163864902Y-131999356D01*
X163886749Y-131964584D01*
X163890757Y-131958937D01*
X163916355Y-131926840D01*
X163934167Y-131889852D01*
X163937528Y-131883772D01*
X163946442Y-131869586D01*
X163959365Y-131849020D01*
X163972920Y-131810276D01*
X163975582Y-131803853D01*
X163984861Y-131784585D01*
X163993391Y-131766874D01*
X164002522Y-131726861D01*
X164004445Y-131720186D01*
X164018006Y-131681434D01*
X164022602Y-131640635D01*
X164023767Y-131633784D01*
X164032899Y-131593775D01*
X164032899Y-131551181D01*
X164032900Y-131551149D01*
X164032900Y-130887494D01*
X164052585Y-130820455D01*
X164092109Y-130781767D01*
X164150335Y-130746087D01*
X164334120Y-130589120D01*
X164491087Y-130405335D01*
X164617371Y-130199258D01*
X164709863Y-129975963D01*
X164766285Y-129740948D01*
X164785248Y-129500000D01*
X164766285Y-129259052D01*
X164750343Y-129192649D01*
X164753834Y-129122868D01*
X164783236Y-129076022D01*
X165166844Y-128692415D01*
X165588415Y-128270844D01*
X165588415Y-128270843D01*
X165593787Y-128265472D01*
X165593801Y-128265456D01*
X165619902Y-128239356D01*
X165641735Y-128204606D01*
X165645750Y-128198947D01*
X165671356Y-128166840D01*
X165689166Y-128129854D01*
X165692530Y-128123769D01*
X165711318Y-128093869D01*
X165714365Y-128089020D01*
X165727924Y-128050269D01*
X165730585Y-128043847D01*
X165748391Y-128006873D01*
X165757527Y-127966840D01*
X165759445Y-127960186D01*
X165773006Y-127921434D01*
X165777600Y-127880647D01*
X165778767Y-127873786D01*
X165779587Y-127870189D01*
X165787900Y-127833774D01*
X165787900Y-127656225D01*
X165787900Y-127656224D01*
X165787900Y-115483047D01*
X165807585Y-115416008D01*
X165847108Y-115377321D01*
X165958399Y-115309123D01*
X166152956Y-115142956D01*
X166319123Y-114948399D01*
X166452809Y-114730243D01*
X166550722Y-114493860D01*
X166610452Y-114245070D01*
X166625500Y-114053863D01*
X166625500Y-111946137D01*
X166610452Y-111754930D01*
X166550722Y-111506140D01*
X166550720Y-111506135D01*
X166452811Y-111269760D01*
X166452809Y-111269757D01*
X166319124Y-111051603D01*
X166319121Y-111051598D01*
X166237318Y-110955820D01*
X166152956Y-110857044D01*
X166045896Y-110765606D01*
X165958401Y-110690878D01*
X165958396Y-110690875D01*
X165740242Y-110557190D01*
X165740239Y-110557188D01*
X165503864Y-110459279D01*
X165503860Y-110459278D01*
X165255070Y-110399548D01*
X165255067Y-110399547D01*
X165255064Y-110399547D01*
X165000000Y-110379474D01*
X164744935Y-110399547D01*
X164744931Y-110399547D01*
X164744930Y-110399548D01*
X164620535Y-110429413D01*
X164496135Y-110459279D01*
X164259760Y-110557188D01*
X164259757Y-110557190D01*
X164041603Y-110690875D01*
X164041598Y-110690878D01*
X163847044Y-110857044D01*
X163680878Y-111051598D01*
X163680875Y-111051603D01*
X163547190Y-111269757D01*
X163547188Y-111269760D01*
X163449279Y-111506135D01*
X163389547Y-111754934D01*
X163374500Y-111946135D01*
X163374500Y-114053865D01*
X163389547Y-114245065D01*
X163389547Y-114245068D01*
X163389548Y-114245070D01*
X163419359Y-114369241D01*
X163449279Y-114493864D01*
X163547188Y-114730239D01*
X163547190Y-114730242D01*
X163680875Y-114948396D01*
X163680878Y-114948401D01*
X163733356Y-115009844D01*
X163847044Y-115142956D01*
X163954103Y-115234393D01*
X164041598Y-115309121D01*
X164041599Y-115309122D01*
X164041601Y-115309123D01*
X164152890Y-115377320D01*
X164199765Y-115429130D01*
X164212100Y-115483047D01*
X164212100Y-127367278D01*
X164192415Y-127434317D01*
X164175781Y-127454959D01*
X163668976Y-127961763D01*
X163607653Y-127995248D01*
X163552349Y-127994656D01*
X163485946Y-127978714D01*
X163245000Y-127959752D01*
X163004054Y-127978714D01*
X162769041Y-128035135D01*
X162545741Y-128127628D01*
X162339673Y-128253907D01*
X162339659Y-128253917D01*
X162318270Y-128272184D01*
X162254508Y-128300752D01*
X162185422Y-128290311D01*
X162132948Y-128244178D01*
X162131029Y-128241042D01*
X162111135Y-128207402D01*
X162111132Y-128207399D01*
X162111130Y-128207396D01*
X161997603Y-128093869D01*
X161997595Y-128093863D01*
X161859393Y-128012131D01*
X161859388Y-128012129D01*
X161705208Y-127967335D01*
X161705202Y-127967334D01*
X161669183Y-127964500D01*
X161669181Y-127964500D01*
X161616900Y-127964500D01*
X161549861Y-127944815D01*
X161504106Y-127892011D01*
X161492900Y-127840500D01*
X161492900Y-121116226D01*
X161492899Y-121116223D01*
X161483766Y-121076206D01*
X161482600Y-121069344D01*
X161478006Y-121028566D01*
X161464448Y-120989823D01*
X161462526Y-120983147D01*
X161453392Y-120943128D01*
X161435582Y-120906144D01*
X161432919Y-120899715D01*
X161419364Y-120860978D01*
X161397531Y-120826231D01*
X161394166Y-120820142D01*
X161376358Y-120783164D01*
X161376357Y-120783163D01*
X161376356Y-120783160D01*
X161350763Y-120751068D01*
X161346736Y-120745393D01*
X161324901Y-120710643D01*
X161294850Y-120680592D01*
X161294837Y-120680578D01*
X160824219Y-120209959D01*
X160790734Y-120148636D01*
X160787900Y-120122278D01*
X160787900Y-115739499D01*
X160807585Y-115672460D01*
X160860389Y-115626705D01*
X160911900Y-115615499D01*
X161054180Y-115615499D01*
X161090204Y-115612665D01*
X161244393Y-115567869D01*
X161382598Y-115486135D01*
X161496135Y-115372598D01*
X161577869Y-115234393D01*
X161622665Y-115080204D01*
X161624617Y-115055396D01*
X161625500Y-115044183D01*
X161625499Y-110955820D01*
X161625499Y-110955817D01*
X161622665Y-110919796D01*
X161577869Y-110765607D01*
X161496135Y-110627402D01*
X161496133Y-110627400D01*
X161496130Y-110627396D01*
X161382603Y-110513869D01*
X161382595Y-110513863D01*
X161244393Y-110432131D01*
X161244388Y-110432129D01*
X161090208Y-110387335D01*
X161090202Y-110387334D01*
X161054183Y-110384500D01*
X161054181Y-110384500D01*
X160911900Y-110384500D01*
X160844861Y-110364815D01*
X160799106Y-110312011D01*
X160787900Y-110260500D01*
X160787900Y-99550799D01*
X188114270Y-99550799D01*
X188134206Y-99842257D01*
X188193644Y-100128296D01*
X188193646Y-100128301D01*
X188291474Y-100403565D01*
X188291475Y-100403567D01*
X188291476Y-100403570D01*
X188291478Y-100403574D01*
X188425884Y-100662964D01*
X188594358Y-100901637D01*
X188793762Y-101115147D01*
X189020382Y-101299516D01*
X189020384Y-101299517D01*
X189020385Y-101299518D01*
X189269996Y-101451310D01*
X189423197Y-101517854D01*
X189537954Y-101567700D01*
X189819264Y-101646520D01*
X190073714Y-101681492D01*
X190108687Y-101686300D01*
X190108688Y-101686300D01*
X190400833Y-101686300D01*
X190432035Y-101682011D01*
X190690256Y-101646520D01*
X190971566Y-101567700D01*
X191239525Y-101451309D01*
X191489138Y-101299516D01*
X191715758Y-101115147D01*
X191915162Y-100901637D01*
X192083636Y-100662964D01*
X192218042Y-100403574D01*
X192315875Y-100128297D01*
X192375313Y-99842263D01*
X192395250Y-99550800D01*
X192375313Y-99259337D01*
X192315875Y-98973303D01*
X192218042Y-98698026D01*
X192083636Y-98438636D01*
X191915162Y-98199963D01*
X191715758Y-97986453D01*
X191715751Y-97986448D01*
X191715750Y-97986446D01*
X191489134Y-97802081D01*
X191239523Y-97650289D01*
X190971569Y-97533901D01*
X190971567Y-97533900D01*
X190971566Y-97533900D01*
X190891534Y-97511476D01*
X190690261Y-97455081D01*
X190690257Y-97455080D01*
X190690256Y-97455080D01*
X190545543Y-97435189D01*
X190400833Y-97415300D01*
X190400832Y-97415300D01*
X190108688Y-97415300D01*
X190108687Y-97415300D01*
X189819264Y-97455080D01*
X189819258Y-97455081D01*
X189537950Y-97533901D01*
X189269996Y-97650289D01*
X189020385Y-97802081D01*
X188793769Y-97986446D01*
X188594359Y-98199962D01*
X188425884Y-98438635D01*
X188291475Y-98698032D01*
X188291474Y-98698034D01*
X188193646Y-98973298D01*
X188193644Y-98973303D01*
X188134206Y-99259342D01*
X188114270Y-99550799D01*
X160787900Y-99550799D01*
X160787900Y-86411226D01*
X160787899Y-86411223D01*
X160787699Y-86410348D01*
X160778766Y-86371206D01*
X160777600Y-86364344D01*
X160773006Y-86323566D01*
X160759448Y-86284823D01*
X160757526Y-86278147D01*
X160748392Y-86238128D01*
X160743030Y-86226994D01*
X160730581Y-86201142D01*
X160727919Y-86194715D01*
X160714364Y-86155978D01*
X160692531Y-86121231D01*
X160689166Y-86115142D01*
X160671358Y-86078164D01*
X160671357Y-86078163D01*
X160671356Y-86078160D01*
X160645763Y-86046068D01*
X160641736Y-86040393D01*
X160619901Y-86005643D01*
X160589977Y-85975719D01*
X160589949Y-85975689D01*
X149614258Y-74999998D01*
X160749457Y-74999998D01*
X160749458Y-75000001D01*
X160749576Y-75000286D01*
X160749615Y-75000381D01*
X160760879Y-75011587D01*
X169881416Y-84132123D01*
X178982197Y-93232904D01*
X178982488Y-93233339D01*
X178999616Y-93250381D01*
X178999617Y-93250383D01*
X178999717Y-93250424D01*
X179000000Y-93250542D01*
X179024585Y-93250553D01*
X179024856Y-93250500D01*
X186475240Y-93250500D01*
X186475383Y-93250528D01*
X186475384Y-93250524D01*
X186499997Y-93250539D01*
X186500000Y-93250541D01*
X186500383Y-93250383D01*
X186500500Y-93250099D01*
X186500541Y-93250000D01*
X186500540Y-93249997D01*
X186500583Y-93225889D01*
X186500500Y-93225467D01*
X186500500Y-75024759D01*
X186500528Y-75024616D01*
X186500524Y-75024616D01*
X186500541Y-74999998D01*
X186500383Y-74999616D01*
X186500001Y-74999458D01*
X186475384Y-74999476D01*
X186475383Y-74999471D01*
X186475240Y-74999500D01*
X160774856Y-74999500D01*
X160774680Y-74999464D01*
X160750000Y-74999457D01*
X160749615Y-74999617D01*
X160749457Y-74999998D01*
X149614258Y-74999998D01*
X143164359Y-68550099D01*
X188113750Y-68550099D01*
X188133686Y-68841557D01*
X188193124Y-69127596D01*
X188193126Y-69127601D01*
X188290954Y-69402865D01*
X188290955Y-69402867D01*
X188290956Y-69402870D01*
X188290958Y-69402874D01*
X188425364Y-69662264D01*
X188593838Y-69900937D01*
X188793242Y-70114447D01*
X189019862Y-70298816D01*
X189019864Y-70298817D01*
X189019865Y-70298818D01*
X189269476Y-70450610D01*
X189452482Y-70530100D01*
X189537434Y-70567000D01*
X189818744Y-70645820D01*
X190073194Y-70680792D01*
X190108167Y-70685600D01*
X190108168Y-70685600D01*
X190400313Y-70685600D01*
X190431515Y-70681311D01*
X190689736Y-70645820D01*
X190971046Y-70567000D01*
X191239005Y-70450609D01*
X191488618Y-70298816D01*
X191715238Y-70114447D01*
X191914642Y-69900937D01*
X192083116Y-69662264D01*
X192217522Y-69402874D01*
X192315355Y-69127597D01*
X192374793Y-68841563D01*
X192394730Y-68550100D01*
X192374793Y-68258637D01*
X192315355Y-67972603D01*
X192257914Y-67810979D01*
X192217525Y-67697334D01*
X192217524Y-67697332D01*
X192217522Y-67697326D01*
X192083116Y-67437936D01*
X191914642Y-67199263D01*
X191715238Y-66985753D01*
X191715231Y-66985748D01*
X191715230Y-66985746D01*
X191488614Y-66801381D01*
X191239003Y-66649589D01*
X190971049Y-66533201D01*
X190971047Y-66533200D01*
X190971046Y-66533200D01*
X190891014Y-66510775D01*
X190689741Y-66454381D01*
X190689737Y-66454380D01*
X190689736Y-66454380D01*
X190545024Y-66434489D01*
X190400313Y-66414600D01*
X190400312Y-66414600D01*
X190108168Y-66414600D01*
X190108167Y-66414600D01*
X189818744Y-66454380D01*
X189818738Y-66454381D01*
X189537430Y-66533201D01*
X189269476Y-66649589D01*
X189019865Y-66801381D01*
X188793249Y-66985746D01*
X188593839Y-67199262D01*
X188425364Y-67437935D01*
X188290955Y-67697332D01*
X188290954Y-67697334D01*
X188193126Y-67972598D01*
X188193124Y-67972603D01*
X188133686Y-68258642D01*
X188113750Y-68550099D01*
X143164359Y-68550099D01*
X137774608Y-63160348D01*
X137774569Y-63160311D01*
X137744356Y-63130098D01*
X137744355Y-63130097D01*
X137744354Y-63130096D01*
X137744352Y-63130094D01*
X137709601Y-63108260D01*
X137703931Y-63104236D01*
X137671840Y-63078645D01*
X137671838Y-63078644D01*
X137671837Y-63078643D01*
X137634864Y-63060837D01*
X137628774Y-63057472D01*
X137594018Y-63035633D01*
X137555271Y-63022075D01*
X137548844Y-63019412D01*
X137511874Y-63001609D01*
X137471869Y-62992478D01*
X137465185Y-62990552D01*
X137432631Y-62979162D01*
X137426434Y-62976994D01*
X137385634Y-62972396D01*
X137378787Y-62971232D01*
X137338776Y-62962101D01*
X137338774Y-62962101D01*
X137295972Y-62962101D01*
X137295936Y-62962100D01*
X137294244Y-62962100D01*
X112205756Y-62962100D01*
X112204064Y-62962100D01*
X112204028Y-62962101D01*
X112161223Y-62962101D01*
X112121211Y-62971232D01*
X112114356Y-62972396D01*
X112073563Y-62976994D01*
X112034824Y-62990549D01*
X112028141Y-62992474D01*
X111988124Y-63001609D01*
X111951150Y-63019415D01*
X111944724Y-63022076D01*
X111905986Y-63035632D01*
X111905978Y-63035636D01*
X111871225Y-63057472D01*
X111865138Y-63060836D01*
X111828162Y-63078643D01*
X111796065Y-63104237D01*
X111790396Y-63108259D01*
X111755647Y-63130095D01*
X111755644Y-63130098D01*
X111726590Y-63159150D01*
X111726586Y-63159154D01*
X111724160Y-63161581D01*
X111724156Y-63161585D01*
X109661585Y-65224156D01*
X109661581Y-65224160D01*
X109659154Y-65226586D01*
X109659150Y-65226590D01*
X109630098Y-65255644D01*
X109630095Y-65255648D01*
X109608260Y-65290396D01*
X109604236Y-65296067D01*
X109578648Y-65328155D01*
X109578645Y-65328159D01*
X109560840Y-65365130D01*
X109557476Y-65371215D01*
X109535636Y-65405977D01*
X109522079Y-65444719D01*
X109519417Y-65451145D01*
X109501609Y-65488127D01*
X109492476Y-65528134D01*
X109490551Y-65534816D01*
X109476995Y-65573560D01*
X109476994Y-65573568D01*
X109472396Y-65614356D01*
X109471232Y-65621210D01*
X109462101Y-65661226D01*
X109462101Y-65703936D01*
X109462100Y-65703973D01*
X109462100Y-70796149D01*
X109462101Y-70796181D01*
X109462101Y-70838776D01*
X109471232Y-70878787D01*
X109472396Y-70885634D01*
X109476994Y-70926434D01*
X109476995Y-70926436D01*
X109490552Y-70965185D01*
X109492478Y-70971869D01*
X109501609Y-71011874D01*
X109519412Y-71048844D01*
X109522075Y-71055271D01*
X109535633Y-71094018D01*
X109557472Y-71128774D01*
X109560837Y-71134864D01*
X109578643Y-71171837D01*
X109604233Y-71203926D01*
X109608260Y-71209601D01*
X109630094Y-71244352D01*
X109630096Y-71244354D01*
X109630097Y-71244355D01*
X109630098Y-71244356D01*
X109660311Y-71274569D01*
X109660348Y-71274608D01*
X111185689Y-72799949D01*
X111185719Y-72799977D01*
X111215644Y-72829902D01*
X111242327Y-72846668D01*
X111250393Y-72851736D01*
X111256068Y-72855763D01*
X111288160Y-72881356D01*
X111325148Y-72899168D01*
X111331227Y-72902528D01*
X111365975Y-72924362D01*
X111365980Y-72924365D01*
X111404721Y-72937921D01*
X111411139Y-72940579D01*
X111448127Y-72958391D01*
X111488134Y-72967522D01*
X111494808Y-72969443D01*
X111533566Y-72983006D01*
X111574356Y-72987601D01*
X111581204Y-72988764D01*
X111621226Y-72997900D01*
X111665756Y-72997900D01*
X119284302Y-72997900D01*
X119351341Y-73017585D01*
X119388111Y-73054079D01*
X119414663Y-73094721D01*
X119428916Y-73110204D01*
X119533820Y-73224160D01*
X119575792Y-73269753D01*
X119575796Y-73269756D01*
X119763516Y-73415865D01*
X119763523Y-73415869D01*
X119763525Y-73415871D01*
X119822916Y-73448012D01*
X119827697Y-73450599D01*
X119877288Y-73499818D01*
X119892396Y-73568035D01*
X119868226Y-73633590D01*
X119839804Y-73661228D01*
X119712543Y-73750338D01*
X119551702Y-73911179D01*
X119421225Y-74097517D01*
X119325094Y-74303673D01*
X119325090Y-74303682D01*
X119272487Y-74499999D01*
X119272488Y-74500000D01*
X119938013Y-74500000D01*
X120005052Y-74519685D01*
X120050807Y-74572489D01*
X120060751Y-74641647D01*
X120056991Y-74658933D01*
X120051360Y-74678111D01*
X120051360Y-74821888D01*
X120056991Y-74841067D01*
X120056990Y-74910936D01*
X120019215Y-74969714D01*
X119955659Y-74998738D01*
X119938013Y-75000000D01*
X119272488Y-75000000D01*
X119325090Y-75196317D01*
X119325094Y-75196326D01*
X119421225Y-75402482D01*
X119551702Y-75588820D01*
X119712539Y-75749657D01*
X119839804Y-75838770D01*
X119883429Y-75893348D01*
X119890621Y-75962846D01*
X119859099Y-76025201D01*
X119827698Y-76049399D01*
X119763531Y-76084124D01*
X119763516Y-76084134D01*
X119575796Y-76230243D01*
X119575792Y-76230246D01*
X119414667Y-76405274D01*
X119414664Y-76405278D01*
X119284548Y-76604434D01*
X119188985Y-76822297D01*
X119130585Y-77052911D01*
X119130583Y-77052922D01*
X119110940Y-77289993D01*
X119110940Y-77290006D01*
X119130583Y-77527077D01*
X119130585Y-77527088D01*
X119188985Y-77757702D01*
X119284548Y-77975565D01*
X119380304Y-78122129D01*
X119414666Y-78174724D01*
X119575790Y-78349751D01*
X119668462Y-78421880D01*
X119720196Y-78462147D01*
X119761008Y-78518857D01*
X119764683Y-78588630D01*
X119730051Y-78649313D01*
X119720196Y-78657853D01*
X119575792Y-78770247D01*
X119575790Y-78770248D01*
X119575790Y-78770249D01*
X119556366Y-78791348D01*
X119414663Y-78945278D01*
X119388111Y-78985921D01*
X119334964Y-79031278D01*
X119284302Y-79042100D01*
X110879081Y-79042100D01*
X110812042Y-79022415D01*
X110791400Y-79005781D01*
X110565968Y-78780348D01*
X110565929Y-78780311D01*
X110535716Y-78750098D01*
X110535715Y-78750097D01*
X110535714Y-78750096D01*
X110535712Y-78750094D01*
X110500961Y-78728260D01*
X110495291Y-78724236D01*
X110463200Y-78698645D01*
X110463198Y-78698644D01*
X110463197Y-78698643D01*
X110426224Y-78680837D01*
X110420134Y-78677472D01*
X110385378Y-78655633D01*
X110346631Y-78642075D01*
X110340204Y-78639412D01*
X110303234Y-78621609D01*
X110263229Y-78612478D01*
X110256545Y-78610552D01*
X110223991Y-78599162D01*
X110217794Y-78596994D01*
X110176994Y-78592396D01*
X110170147Y-78591232D01*
X110130136Y-78582101D01*
X110130134Y-78582101D01*
X110087332Y-78582101D01*
X110087296Y-78582100D01*
X110085604Y-78582100D01*
X104826783Y-78582100D01*
X104759744Y-78562415D01*
X104722974Y-78525921D01*
X104676288Y-78454462D01*
X104509547Y-78273334D01*
X104509543Y-78273331D01*
X104315279Y-78122129D01*
X104310975Y-78119317D01*
X104312150Y-78117518D01*
X104269025Y-78074698D01*
X104253931Y-78006478D01*
X104278116Y-77940928D01*
X104306523Y-77913311D01*
X104371080Y-77868107D01*
X104538105Y-77701082D01*
X104673600Y-77507578D01*
X104773429Y-77293492D01*
X104773432Y-77293486D01*
X104830636Y-77080000D01*
X104113347Y-77080000D01*
X104046308Y-77060315D01*
X104000553Y-77007511D01*
X103990609Y-76938353D01*
X103994369Y-76921067D01*
X104000000Y-76901888D01*
X104000000Y-76758111D01*
X103994369Y-76738933D01*
X103994370Y-76669064D01*
X104032145Y-76610286D01*
X104095701Y-76581262D01*
X104113347Y-76580000D01*
X104830636Y-76580000D01*
X104830635Y-76579999D01*
X104773432Y-76366513D01*
X104773429Y-76366507D01*
X104673600Y-76152422D01*
X104673599Y-76152420D01*
X104538113Y-75958926D01*
X104538108Y-75958920D01*
X104371078Y-75791890D01*
X104306522Y-75746687D01*
X104262897Y-75692110D01*
X104255705Y-75622612D01*
X104287228Y-75560257D01*
X104311540Y-75541529D01*
X104310984Y-75540677D01*
X104315269Y-75537876D01*
X104315276Y-75537873D01*
X104509550Y-75386663D01*
X104676286Y-75205540D01*
X104802875Y-75011781D01*
X104810937Y-74999442D01*
X104849759Y-74910936D01*
X104909827Y-74773994D01*
X104970261Y-74535343D01*
X104987687Y-74325048D01*
X104990591Y-74290005D01*
X104990591Y-74289994D01*
X104970261Y-74044660D01*
X104970261Y-74044657D01*
X104909827Y-73806006D01*
X104810936Y-73580557D01*
X104778906Y-73531532D01*
X104724340Y-73448012D01*
X104676286Y-73374460D01*
X104509550Y-73193337D01*
X104509549Y-73193336D01*
X104509547Y-73193334D01*
X104509543Y-73193331D01*
X104412569Y-73117853D01*
X104371756Y-73061143D01*
X104368081Y-72991370D01*
X104402713Y-72930687D01*
X104412569Y-72922147D01*
X104497858Y-72855763D01*
X104509550Y-72846663D01*
X104676286Y-72665540D01*
X104810936Y-72459443D01*
X104909827Y-72233994D01*
X104970261Y-71995343D01*
X104990591Y-71750000D01*
X104970261Y-71504657D01*
X104909827Y-71266006D01*
X104810936Y-71040557D01*
X104807720Y-71035635D01*
X104721633Y-70903869D01*
X104676286Y-70834460D01*
X104509550Y-70653337D01*
X104509549Y-70653336D01*
X104509547Y-70653334D01*
X104509543Y-70653331D01*
X104412569Y-70577853D01*
X104371756Y-70521143D01*
X104368081Y-70451370D01*
X104402713Y-70390687D01*
X104412569Y-70382147D01*
X104459476Y-70345636D01*
X104509550Y-70306663D01*
X104676286Y-70125540D01*
X104810936Y-69919443D01*
X104909827Y-69693994D01*
X104970261Y-69455343D01*
X104990591Y-69210000D01*
X104970261Y-68964657D01*
X104909827Y-68726006D01*
X104810936Y-68500557D01*
X104676286Y-68294460D01*
X104676283Y-68294457D01*
X104676279Y-68294451D01*
X104643493Y-68258837D01*
X104612570Y-68196183D01*
X104620430Y-68126757D01*
X104664577Y-68072601D01*
X104671602Y-68068122D01*
X104742592Y-68026139D01*
X104742593Y-68026137D01*
X104742598Y-68026135D01*
X104856135Y-67912598D01*
X104937869Y-67774393D01*
X104982665Y-67620204D01*
X104985500Y-67584181D01*
X104985499Y-65755820D01*
X104982665Y-65719796D01*
X104937869Y-65565607D01*
X104856135Y-65427402D01*
X104856133Y-65427400D01*
X104856130Y-65427396D01*
X104742603Y-65313869D01*
X104742595Y-65313863D01*
X104604393Y-65232131D01*
X104604388Y-65232129D01*
X104450208Y-65187335D01*
X104450202Y-65187334D01*
X104414183Y-65184500D01*
X104414181Y-65184500D01*
X102580224Y-65184501D01*
X102585820Y-65184501D01*
X102549795Y-65187335D01*
X102395611Y-65232129D01*
X102395606Y-65232131D01*
X102257404Y-65313863D01*
X102257396Y-65313869D01*
X102143869Y-65427396D01*
X102143863Y-65427404D01*
X102062131Y-65565606D01*
X102062129Y-65565611D01*
X102017335Y-65719791D01*
X102017334Y-65719797D01*
X102014500Y-65755817D01*
X102014501Y-67584180D01*
X102017335Y-67620204D01*
X102062129Y-67774388D01*
X102062131Y-67774393D01*
X102143863Y-67912595D01*
X102143869Y-67912603D01*
X102257396Y-68026130D01*
X102257405Y-68026137D01*
X102328398Y-68068122D01*
X102376081Y-68119191D01*
X102388585Y-68187933D01*
X102361940Y-68252522D01*
X102356508Y-68258835D01*
X102323714Y-68294459D01*
X102189062Y-68500560D01*
X102090172Y-68726007D01*
X102029738Y-68964660D01*
X102009408Y-69209994D01*
X102009408Y-69210005D01*
X102029738Y-69455339D01*
X102090172Y-69693992D01*
X102189064Y-69919444D01*
X102323712Y-70125537D01*
X102323715Y-70125541D01*
X102490452Y-70306665D01*
X102490456Y-70306668D01*
X102587431Y-70382147D01*
X102628244Y-70438857D01*
X102631919Y-70508630D01*
X102597287Y-70569313D01*
X102587431Y-70577853D01*
X102490456Y-70653331D01*
X102490452Y-70653334D01*
X102323711Y-70834462D01*
X102277026Y-70905921D01*
X102223879Y-70951278D01*
X102173217Y-70962100D01*
X100954064Y-70962100D01*
X100954028Y-70962101D01*
X100911223Y-70962101D01*
X100871211Y-70971232D01*
X100864356Y-70972396D01*
X100823563Y-70976994D01*
X100784824Y-70990549D01*
X100778141Y-70992474D01*
X100738124Y-71001609D01*
X100701150Y-71019415D01*
X100694724Y-71022076D01*
X100655986Y-71035632D01*
X100655978Y-71035636D01*
X100621225Y-71057472D01*
X100615138Y-71060836D01*
X100578162Y-71078643D01*
X100546065Y-71104237D01*
X100540396Y-71108259D01*
X100505647Y-71130095D01*
X100505644Y-71130098D01*
X100476590Y-71159150D01*
X100476586Y-71159154D01*
X100474160Y-71161581D01*
X100474156Y-71161585D01*
X98411585Y-73224156D01*
X98411581Y-73224160D01*
X98409154Y-73226586D01*
X98409150Y-73226590D01*
X98380098Y-73255644D01*
X98380095Y-73255648D01*
X98358260Y-73290396D01*
X98354236Y-73296067D01*
X98328648Y-73328155D01*
X98328645Y-73328159D01*
X98310840Y-73365130D01*
X98307476Y-73371215D01*
X98285636Y-73405977D01*
X98272079Y-73444719D01*
X98269417Y-73451145D01*
X98251609Y-73488127D01*
X98242476Y-73528134D01*
X98240551Y-73534816D01*
X98226995Y-73573560D01*
X98226994Y-73573568D01*
X98222396Y-73614356D01*
X98221232Y-73621210D01*
X98212101Y-73661226D01*
X98212101Y-73703936D01*
X98212100Y-73703973D01*
X98212100Y-96546149D01*
X95750595Y-96546149D01*
X95751860Y-63999901D01*
X95751859Y-63999900D01*
X95751860Y-63975323D01*
X95751848Y-63975264D01*
X95750551Y-60874552D01*
X95770209Y-60807504D01*
X95822993Y-60761727D01*
X95874552Y-60750500D01*
X194625552Y-60750500D01*
X194692591Y-60770185D01*
G37*
%TD.AperFunction*%
%TD*%
M02*
