%TF.GenerationSoftware,KiCad,Pcbnew,7.0.7-7.0.7~ubuntu22.04.1*%
%TF.CreationDate,2023-09-20T10:04:04-06:00*%
%TF.ProjectId,ph_meter,70685f6d-6574-4657-922e-6b696361645f,1.1 - E*%
%TF.SameCoordinates,Original*%
%TF.FileFunction,Legend,Bot*%
%TF.FilePolarity,Positive*%
%FSLAX46Y46*%
G04 Gerber Fmt 4.6, Leading zero omitted, Abs format (unit mm)*
G04 Created by KiCad (PCBNEW 7.0.7-7.0.7~ubuntu22.04.1) date 2023-09-20 10:04:04*
%MOMM*%
%LPD*%
G01*
G04 APERTURE LIST*
%ADD10C,0.150000*%
%ADD11C,0.100000*%
%ADD12C,0.120000*%
G04 APERTURE END LIST*
D10*
X139216666Y-125454819D02*
X139549999Y-124978628D01*
X139788094Y-125454819D02*
X139788094Y-124454819D01*
X139788094Y-124454819D02*
X139407142Y-124454819D01*
X139407142Y-124454819D02*
X139311904Y-124502438D01*
X139311904Y-124502438D02*
X139264285Y-124550057D01*
X139264285Y-124550057D02*
X139216666Y-124645295D01*
X139216666Y-124645295D02*
X139216666Y-124788152D01*
X139216666Y-124788152D02*
X139264285Y-124883390D01*
X139264285Y-124883390D02*
X139311904Y-124931009D01*
X139311904Y-124931009D02*
X139407142Y-124978628D01*
X139407142Y-124978628D02*
X139788094Y-124978628D01*
X138264285Y-125454819D02*
X138835713Y-125454819D01*
X138549999Y-125454819D02*
X138549999Y-124454819D01*
X138549999Y-124454819D02*
X138645237Y-124597676D01*
X138645237Y-124597676D02*
X138740475Y-124692914D01*
X138740475Y-124692914D02*
X138835713Y-124740533D01*
X103833333Y-63354819D02*
X103833333Y-64069104D01*
X103833333Y-64069104D02*
X103880952Y-64211961D01*
X103880952Y-64211961D02*
X103976190Y-64307200D01*
X103976190Y-64307200D02*
X104119047Y-64354819D01*
X104119047Y-64354819D02*
X104214285Y-64354819D01*
X102928571Y-63688152D02*
X102928571Y-64354819D01*
X103166666Y-63307200D02*
X103404761Y-64021485D01*
X103404761Y-64021485D02*
X102785714Y-64021485D01*
X128885645Y-67299104D02*
X128409455Y-67299104D01*
X128980883Y-67584819D02*
X128647550Y-66584819D01*
X128647550Y-66584819D02*
X128314217Y-67584819D01*
X127457074Y-67584819D02*
X128028502Y-67584819D01*
X127742788Y-67584819D02*
X127742788Y-66584819D01*
X127742788Y-66584819D02*
X127838026Y-66727676D01*
X127838026Y-66727676D02*
X127933264Y-66822914D01*
X127933264Y-66822914D02*
X128028502Y-66870533D01*
X129433264Y-107224819D02*
X129433264Y-108034342D01*
X129433264Y-108034342D02*
X129385645Y-108129580D01*
X129385645Y-108129580D02*
X129338026Y-108177200D01*
X129338026Y-108177200D02*
X129242788Y-108224819D01*
X129242788Y-108224819D02*
X129052312Y-108224819D01*
X129052312Y-108224819D02*
X128957074Y-108177200D01*
X128957074Y-108177200D02*
X128909455Y-108129580D01*
X128909455Y-108129580D02*
X128861836Y-108034342D01*
X128861836Y-108034342D02*
X128861836Y-107224819D01*
X128433264Y-108177200D02*
X128290407Y-108224819D01*
X128290407Y-108224819D02*
X128052312Y-108224819D01*
X128052312Y-108224819D02*
X127957074Y-108177200D01*
X127957074Y-108177200D02*
X127909455Y-108129580D01*
X127909455Y-108129580D02*
X127861836Y-108034342D01*
X127861836Y-108034342D02*
X127861836Y-107939104D01*
X127861836Y-107939104D02*
X127909455Y-107843866D01*
X127909455Y-107843866D02*
X127957074Y-107796247D01*
X127957074Y-107796247D02*
X128052312Y-107748628D01*
X128052312Y-107748628D02*
X128242788Y-107701009D01*
X128242788Y-107701009D02*
X128338026Y-107653390D01*
X128338026Y-107653390D02*
X128385645Y-107605771D01*
X128385645Y-107605771D02*
X128433264Y-107510533D01*
X128433264Y-107510533D02*
X128433264Y-107415295D01*
X128433264Y-107415295D02*
X128385645Y-107320057D01*
X128385645Y-107320057D02*
X128338026Y-107272438D01*
X128338026Y-107272438D02*
X128242788Y-107224819D01*
X128242788Y-107224819D02*
X128004693Y-107224819D01*
X128004693Y-107224819D02*
X127861836Y-107272438D01*
X127099931Y-107701009D02*
X126957074Y-107748628D01*
X126957074Y-107748628D02*
X126909455Y-107796247D01*
X126909455Y-107796247D02*
X126861836Y-107891485D01*
X126861836Y-107891485D02*
X126861836Y-108034342D01*
X126861836Y-108034342D02*
X126909455Y-108129580D01*
X126909455Y-108129580D02*
X126957074Y-108177200D01*
X126957074Y-108177200D02*
X127052312Y-108224819D01*
X127052312Y-108224819D02*
X127433264Y-108224819D01*
X127433264Y-108224819D02*
X127433264Y-107224819D01*
X127433264Y-107224819D02*
X127099931Y-107224819D01*
X127099931Y-107224819D02*
X127004693Y-107272438D01*
X127004693Y-107272438D02*
X126957074Y-107320057D01*
X126957074Y-107320057D02*
X126909455Y-107415295D01*
X126909455Y-107415295D02*
X126909455Y-107510533D01*
X126909455Y-107510533D02*
X126957074Y-107605771D01*
X126957074Y-107605771D02*
X127004693Y-107653390D01*
X127004693Y-107653390D02*
X127099931Y-107701009D01*
X127099931Y-107701009D02*
X127433264Y-107701009D01*
X162713094Y-132424819D02*
X162713094Y-131424819D01*
X162713094Y-131424819D02*
X162474999Y-131424819D01*
X162474999Y-131424819D02*
X162332142Y-131472438D01*
X162332142Y-131472438D02*
X162236904Y-131567676D01*
X162236904Y-131567676D02*
X162189285Y-131662914D01*
X162189285Y-131662914D02*
X162141666Y-131853390D01*
X162141666Y-131853390D02*
X162141666Y-131996247D01*
X162141666Y-131996247D02*
X162189285Y-132186723D01*
X162189285Y-132186723D02*
X162236904Y-132281961D01*
X162236904Y-132281961D02*
X162332142Y-132377200D01*
X162332142Y-132377200D02*
X162474999Y-132424819D01*
X162474999Y-132424819D02*
X162713094Y-132424819D01*
X161189285Y-132424819D02*
X161760713Y-132424819D01*
X161474999Y-132424819D02*
X161474999Y-131424819D01*
X161474999Y-131424819D02*
X161570237Y-131567676D01*
X161570237Y-131567676D02*
X161665475Y-131662914D01*
X161665475Y-131662914D02*
X161760713Y-131710533D01*
X165383094Y-129669104D02*
X164906904Y-129669104D01*
X165478332Y-129954819D02*
X165144999Y-128954819D01*
X165144999Y-128954819D02*
X164811666Y-129954819D01*
X103834693Y-95224819D02*
X103834693Y-95939104D01*
X103834693Y-95939104D02*
X103882312Y-96081961D01*
X103882312Y-96081961D02*
X103977550Y-96177200D01*
X103977550Y-96177200D02*
X104120407Y-96224819D01*
X104120407Y-96224819D02*
X104215645Y-96224819D01*
X103406121Y-95320057D02*
X103358502Y-95272438D01*
X103358502Y-95272438D02*
X103263264Y-95224819D01*
X103263264Y-95224819D02*
X103025169Y-95224819D01*
X103025169Y-95224819D02*
X102929931Y-95272438D01*
X102929931Y-95272438D02*
X102882312Y-95320057D01*
X102882312Y-95320057D02*
X102834693Y-95415295D01*
X102834693Y-95415295D02*
X102834693Y-95510533D01*
X102834693Y-95510533D02*
X102882312Y-95653390D01*
X102882312Y-95653390D02*
X103453740Y-96224819D01*
X103453740Y-96224819D02*
X102834693Y-96224819D01*
X140731009Y-110119047D02*
X140778628Y-110261904D01*
X140778628Y-110261904D02*
X140826247Y-110309523D01*
X140826247Y-110309523D02*
X140921485Y-110357142D01*
X140921485Y-110357142D02*
X141064342Y-110357142D01*
X141064342Y-110357142D02*
X141159580Y-110309523D01*
X141159580Y-110309523D02*
X141207200Y-110261904D01*
X141207200Y-110261904D02*
X141254819Y-110166666D01*
X141254819Y-110166666D02*
X141254819Y-109785714D01*
X141254819Y-109785714D02*
X140254819Y-109785714D01*
X140254819Y-109785714D02*
X140254819Y-110119047D01*
X140254819Y-110119047D02*
X140302438Y-110214285D01*
X140302438Y-110214285D02*
X140350057Y-110261904D01*
X140350057Y-110261904D02*
X140445295Y-110309523D01*
X140445295Y-110309523D02*
X140540533Y-110309523D01*
X140540533Y-110309523D02*
X140635771Y-110261904D01*
X140635771Y-110261904D02*
X140683390Y-110214285D01*
X140683390Y-110214285D02*
X140731009Y-110119047D01*
X140731009Y-110119047D02*
X140731009Y-109785714D01*
X140254819Y-110690476D02*
X140254819Y-111357142D01*
X140254819Y-111357142D02*
X141254819Y-110690476D01*
X141254819Y-110690476D02*
X141254819Y-111357142D01*
X141254819Y-112261904D02*
X141254819Y-111690476D01*
X141254819Y-111976190D02*
X140254819Y-111976190D01*
X140254819Y-111976190D02*
X140397676Y-111880952D01*
X140397676Y-111880952D02*
X140492914Y-111785714D01*
X140492914Y-111785714D02*
X140540533Y-111690476D01*
X145533866Y-106809048D02*
X145533866Y-107570953D01*
X145914819Y-107190000D02*
X145152914Y-107190000D01*
X158413333Y-119444819D02*
X158413333Y-120159104D01*
X158413333Y-120159104D02*
X158460952Y-120301961D01*
X158460952Y-120301961D02*
X158556190Y-120397200D01*
X158556190Y-120397200D02*
X158699047Y-120444819D01*
X158699047Y-120444819D02*
X158794285Y-120444819D01*
X158032380Y-119444819D02*
X157413333Y-119444819D01*
X157413333Y-119444819D02*
X157746666Y-119825771D01*
X157746666Y-119825771D02*
X157603809Y-119825771D01*
X157603809Y-119825771D02*
X157508571Y-119873390D01*
X157508571Y-119873390D02*
X157460952Y-119921009D01*
X157460952Y-119921009D02*
X157413333Y-120016247D01*
X157413333Y-120016247D02*
X157413333Y-120254342D01*
X157413333Y-120254342D02*
X157460952Y-120349580D01*
X157460952Y-120349580D02*
X157508571Y-120397200D01*
X157508571Y-120397200D02*
X157603809Y-120444819D01*
X157603809Y-120444819D02*
X157889523Y-120444819D01*
X157889523Y-120444819D02*
X157984761Y-120397200D01*
X157984761Y-120397200D02*
X158032380Y-120349580D01*
D11*
X119418026Y-99542580D02*
X119084693Y-100018771D01*
X118846598Y-99542580D02*
X118846598Y-100542580D01*
X118846598Y-100542580D02*
X119227550Y-100542580D01*
X119227550Y-100542580D02*
X119322788Y-100494961D01*
X119322788Y-100494961D02*
X119370407Y-100447342D01*
X119370407Y-100447342D02*
X119418026Y-100352104D01*
X119418026Y-100352104D02*
X119418026Y-100209247D01*
X119418026Y-100209247D02*
X119370407Y-100114009D01*
X119370407Y-100114009D02*
X119322788Y-100066390D01*
X119322788Y-100066390D02*
X119227550Y-100018771D01*
X119227550Y-100018771D02*
X118846598Y-100018771D01*
X119846598Y-100066390D02*
X120179931Y-100066390D01*
X120322788Y-99542580D02*
X119846598Y-99542580D01*
X119846598Y-99542580D02*
X119846598Y-100542580D01*
X119846598Y-100542580D02*
X120322788Y-100542580D01*
X121084693Y-100066390D02*
X120751360Y-100066390D01*
X120751360Y-99542580D02*
X120751360Y-100542580D01*
X120751360Y-100542580D02*
X121227550Y-100542580D01*
X121751360Y-100542580D02*
X121751360Y-100304485D01*
X121513265Y-100399723D02*
X121751360Y-100304485D01*
X121751360Y-100304485D02*
X121989455Y-100399723D01*
X121608503Y-100114009D02*
X121751360Y-100304485D01*
X121751360Y-100304485D02*
X121894217Y-100114009D01*
X122513265Y-100542580D02*
X122513265Y-100304485D01*
X122275170Y-100399723D02*
X122513265Y-100304485D01*
X122513265Y-100304485D02*
X122751360Y-100399723D01*
X122370408Y-100114009D02*
X122513265Y-100304485D01*
X122513265Y-100304485D02*
X122656122Y-100114009D01*
X100056140Y-84779712D02*
X100103760Y-84732093D01*
X100103760Y-84732093D02*
X100151379Y-84589236D01*
X100151379Y-84589236D02*
X100151379Y-84493998D01*
X100151379Y-84493998D02*
X100103760Y-84351141D01*
X100103760Y-84351141D02*
X100008521Y-84255903D01*
X100008521Y-84255903D02*
X99913283Y-84208284D01*
X99913283Y-84208284D02*
X99722807Y-84160665D01*
X99722807Y-84160665D02*
X99579950Y-84160665D01*
X99579950Y-84160665D02*
X99389474Y-84208284D01*
X99389474Y-84208284D02*
X99294236Y-84255903D01*
X99294236Y-84255903D02*
X99198998Y-84351141D01*
X99198998Y-84351141D02*
X99151379Y-84493998D01*
X99151379Y-84493998D02*
X99151379Y-84589236D01*
X99151379Y-84589236D02*
X99198998Y-84732093D01*
X99198998Y-84732093D02*
X99246617Y-84779712D01*
X99151379Y-85398760D02*
X99151379Y-85589236D01*
X99151379Y-85589236D02*
X99198998Y-85684474D01*
X99198998Y-85684474D02*
X99294236Y-85779712D01*
X99294236Y-85779712D02*
X99484712Y-85827331D01*
X99484712Y-85827331D02*
X99818045Y-85827331D01*
X99818045Y-85827331D02*
X100008521Y-85779712D01*
X100008521Y-85779712D02*
X100103760Y-85684474D01*
X100103760Y-85684474D02*
X100151379Y-85589236D01*
X100151379Y-85589236D02*
X100151379Y-85398760D01*
X100151379Y-85398760D02*
X100103760Y-85303522D01*
X100103760Y-85303522D02*
X100008521Y-85208284D01*
X100008521Y-85208284D02*
X99818045Y-85160665D01*
X99818045Y-85160665D02*
X99484712Y-85160665D01*
X99484712Y-85160665D02*
X99294236Y-85208284D01*
X99294236Y-85208284D02*
X99198998Y-85303522D01*
X99198998Y-85303522D02*
X99151379Y-85398760D01*
X100151379Y-86255903D02*
X99151379Y-86255903D01*
X99151379Y-86255903D02*
X100151379Y-86827331D01*
X100151379Y-86827331D02*
X99151379Y-86827331D01*
X100151379Y-87303522D02*
X99151379Y-87303522D01*
X99151379Y-87303522D02*
X100151379Y-87874950D01*
X100151379Y-87874950D02*
X99151379Y-87874950D01*
X99627569Y-88351141D02*
X99627569Y-88684474D01*
X100151379Y-88827331D02*
X100151379Y-88351141D01*
X100151379Y-88351141D02*
X99151379Y-88351141D01*
X99151379Y-88351141D02*
X99151379Y-88827331D01*
X100056140Y-89827331D02*
X100103760Y-89779712D01*
X100103760Y-89779712D02*
X100151379Y-89636855D01*
X100151379Y-89636855D02*
X100151379Y-89541617D01*
X100151379Y-89541617D02*
X100103760Y-89398760D01*
X100103760Y-89398760D02*
X100008521Y-89303522D01*
X100008521Y-89303522D02*
X99913283Y-89255903D01*
X99913283Y-89255903D02*
X99722807Y-89208284D01*
X99722807Y-89208284D02*
X99579950Y-89208284D01*
X99579950Y-89208284D02*
X99389474Y-89255903D01*
X99389474Y-89255903D02*
X99294236Y-89303522D01*
X99294236Y-89303522D02*
X99198998Y-89398760D01*
X99198998Y-89398760D02*
X99151379Y-89541617D01*
X99151379Y-89541617D02*
X99151379Y-89636855D01*
X99151379Y-89636855D02*
X99198998Y-89779712D01*
X99198998Y-89779712D02*
X99246617Y-89827331D01*
X99151379Y-90113046D02*
X99151379Y-90684474D01*
X100151379Y-90398760D02*
X99151379Y-90398760D01*
X99151379Y-91208284D02*
X99151379Y-91398760D01*
X99151379Y-91398760D02*
X99198998Y-91493998D01*
X99198998Y-91493998D02*
X99294236Y-91589236D01*
X99294236Y-91589236D02*
X99484712Y-91636855D01*
X99484712Y-91636855D02*
X99818045Y-91636855D01*
X99818045Y-91636855D02*
X100008521Y-91589236D01*
X100008521Y-91589236D02*
X100103760Y-91493998D01*
X100103760Y-91493998D02*
X100151379Y-91398760D01*
X100151379Y-91398760D02*
X100151379Y-91208284D01*
X100151379Y-91208284D02*
X100103760Y-91113046D01*
X100103760Y-91113046D02*
X100008521Y-91017808D01*
X100008521Y-91017808D02*
X99818045Y-90970189D01*
X99818045Y-90970189D02*
X99484712Y-90970189D01*
X99484712Y-90970189D02*
X99294236Y-91017808D01*
X99294236Y-91017808D02*
X99198998Y-91113046D01*
X99198998Y-91113046D02*
X99151379Y-91208284D01*
X100151379Y-92636855D02*
X99675188Y-92303522D01*
X100151379Y-92065427D02*
X99151379Y-92065427D01*
X99151379Y-92065427D02*
X99151379Y-92446379D01*
X99151379Y-92446379D02*
X99198998Y-92541617D01*
X99198998Y-92541617D02*
X99246617Y-92589236D01*
X99246617Y-92589236D02*
X99341855Y-92636855D01*
X99341855Y-92636855D02*
X99484712Y-92636855D01*
X99484712Y-92636855D02*
X99579950Y-92589236D01*
X99579950Y-92589236D02*
X99627569Y-92541617D01*
X99627569Y-92541617D02*
X99675188Y-92446379D01*
X99675188Y-92446379D02*
X99675188Y-92065427D01*
X100103760Y-93779713D02*
X100151379Y-93922570D01*
X100151379Y-93922570D02*
X100151379Y-94160665D01*
X100151379Y-94160665D02*
X100103760Y-94255903D01*
X100103760Y-94255903D02*
X100056140Y-94303522D01*
X100056140Y-94303522D02*
X99960902Y-94351141D01*
X99960902Y-94351141D02*
X99865664Y-94351141D01*
X99865664Y-94351141D02*
X99770426Y-94303522D01*
X99770426Y-94303522D02*
X99722807Y-94255903D01*
X99722807Y-94255903D02*
X99675188Y-94160665D01*
X99675188Y-94160665D02*
X99627569Y-93970189D01*
X99627569Y-93970189D02*
X99579950Y-93874951D01*
X99579950Y-93874951D02*
X99532331Y-93827332D01*
X99532331Y-93827332D02*
X99437093Y-93779713D01*
X99437093Y-93779713D02*
X99341855Y-93779713D01*
X99341855Y-93779713D02*
X99246617Y-93827332D01*
X99246617Y-93827332D02*
X99198998Y-93874951D01*
X99198998Y-93874951D02*
X99151379Y-93970189D01*
X99151379Y-93970189D02*
X99151379Y-94208284D01*
X99151379Y-94208284D02*
X99198998Y-94351141D01*
X100151379Y-94779713D02*
X99151379Y-94779713D01*
X99151379Y-94779713D02*
X99151379Y-95160665D01*
X99151379Y-95160665D02*
X99198998Y-95255903D01*
X99198998Y-95255903D02*
X99246617Y-95303522D01*
X99246617Y-95303522D02*
X99341855Y-95351141D01*
X99341855Y-95351141D02*
X99484712Y-95351141D01*
X99484712Y-95351141D02*
X99579950Y-95303522D01*
X99579950Y-95303522D02*
X99627569Y-95255903D01*
X99627569Y-95255903D02*
X99675188Y-95160665D01*
X99675188Y-95160665D02*
X99675188Y-94779713D01*
X99865664Y-95732094D02*
X99865664Y-96208284D01*
X100151379Y-95636856D02*
X99151379Y-95970189D01*
X99151379Y-95970189D02*
X100151379Y-96303522D01*
X100056140Y-97208284D02*
X100103760Y-97160665D01*
X100103760Y-97160665D02*
X100151379Y-97017808D01*
X100151379Y-97017808D02*
X100151379Y-96922570D01*
X100151379Y-96922570D02*
X100103760Y-96779713D01*
X100103760Y-96779713D02*
X100008521Y-96684475D01*
X100008521Y-96684475D02*
X99913283Y-96636856D01*
X99913283Y-96636856D02*
X99722807Y-96589237D01*
X99722807Y-96589237D02*
X99579950Y-96589237D01*
X99579950Y-96589237D02*
X99389474Y-96636856D01*
X99389474Y-96636856D02*
X99294236Y-96684475D01*
X99294236Y-96684475D02*
X99198998Y-96779713D01*
X99198998Y-96779713D02*
X99151379Y-96922570D01*
X99151379Y-96922570D02*
X99151379Y-97017808D01*
X99151379Y-97017808D02*
X99198998Y-97160665D01*
X99198998Y-97160665D02*
X99246617Y-97208284D01*
X99627569Y-97636856D02*
X99627569Y-97970189D01*
X100151379Y-98113046D02*
X100151379Y-97636856D01*
X100151379Y-97636856D02*
X99151379Y-97636856D01*
X99151379Y-97636856D02*
X99151379Y-98113046D01*
X130021444Y-89213580D02*
X130021444Y-90213580D01*
X130450015Y-90118342D02*
X130497634Y-90165961D01*
X130497634Y-90165961D02*
X130592872Y-90213580D01*
X130592872Y-90213580D02*
X130830967Y-90213580D01*
X130830967Y-90213580D02*
X130926205Y-90165961D01*
X130926205Y-90165961D02*
X130973824Y-90118342D01*
X130973824Y-90118342D02*
X131021443Y-90023104D01*
X131021443Y-90023104D02*
X131021443Y-89927866D01*
X131021443Y-89927866D02*
X130973824Y-89785009D01*
X130973824Y-89785009D02*
X130402396Y-89213580D01*
X130402396Y-89213580D02*
X131021443Y-89213580D01*
X132021443Y-89308819D02*
X131973824Y-89261200D01*
X131973824Y-89261200D02*
X131830967Y-89213580D01*
X131830967Y-89213580D02*
X131735729Y-89213580D01*
X131735729Y-89213580D02*
X131592872Y-89261200D01*
X131592872Y-89261200D02*
X131497634Y-89356438D01*
X131497634Y-89356438D02*
X131450015Y-89451676D01*
X131450015Y-89451676D02*
X131402396Y-89642152D01*
X131402396Y-89642152D02*
X131402396Y-89785009D01*
X131402396Y-89785009D02*
X131450015Y-89975485D01*
X131450015Y-89975485D02*
X131497634Y-90070723D01*
X131497634Y-90070723D02*
X131592872Y-90165961D01*
X131592872Y-90165961D02*
X131735729Y-90213580D01*
X131735729Y-90213580D02*
X131830967Y-90213580D01*
X131830967Y-90213580D02*
X131973824Y-90165961D01*
X131973824Y-90165961D02*
X132021443Y-90118342D01*
X133783348Y-89308819D02*
X133735729Y-89261200D01*
X133735729Y-89261200D02*
X133592872Y-89213580D01*
X133592872Y-89213580D02*
X133497634Y-89213580D01*
X133497634Y-89213580D02*
X133354777Y-89261200D01*
X133354777Y-89261200D02*
X133259539Y-89356438D01*
X133259539Y-89356438D02*
X133211920Y-89451676D01*
X133211920Y-89451676D02*
X133164301Y-89642152D01*
X133164301Y-89642152D02*
X133164301Y-89785009D01*
X133164301Y-89785009D02*
X133211920Y-89975485D01*
X133211920Y-89975485D02*
X133259539Y-90070723D01*
X133259539Y-90070723D02*
X133354777Y-90165961D01*
X133354777Y-90165961D02*
X133497634Y-90213580D01*
X133497634Y-90213580D02*
X133592872Y-90213580D01*
X133592872Y-90213580D02*
X133735729Y-90165961D01*
X133735729Y-90165961D02*
X133783348Y-90118342D01*
X134402396Y-90213580D02*
X134592872Y-90213580D01*
X134592872Y-90213580D02*
X134688110Y-90165961D01*
X134688110Y-90165961D02*
X134783348Y-90070723D01*
X134783348Y-90070723D02*
X134830967Y-89880247D01*
X134830967Y-89880247D02*
X134830967Y-89546914D01*
X134830967Y-89546914D02*
X134783348Y-89356438D01*
X134783348Y-89356438D02*
X134688110Y-89261200D01*
X134688110Y-89261200D02*
X134592872Y-89213580D01*
X134592872Y-89213580D02*
X134402396Y-89213580D01*
X134402396Y-89213580D02*
X134307158Y-89261200D01*
X134307158Y-89261200D02*
X134211920Y-89356438D01*
X134211920Y-89356438D02*
X134164301Y-89546914D01*
X134164301Y-89546914D02*
X134164301Y-89880247D01*
X134164301Y-89880247D02*
X134211920Y-90070723D01*
X134211920Y-90070723D02*
X134307158Y-90165961D01*
X134307158Y-90165961D02*
X134402396Y-90213580D01*
X135259539Y-89213580D02*
X135259539Y-90213580D01*
X135259539Y-90213580D02*
X135830967Y-89213580D01*
X135830967Y-89213580D02*
X135830967Y-90213580D01*
X136307158Y-89213580D02*
X136307158Y-90213580D01*
X136307158Y-90213580D02*
X136878586Y-89213580D01*
X136878586Y-89213580D02*
X136878586Y-90213580D01*
X137354777Y-89737390D02*
X137688110Y-89737390D01*
X137830967Y-89213580D02*
X137354777Y-89213580D01*
X137354777Y-89213580D02*
X137354777Y-90213580D01*
X137354777Y-90213580D02*
X137830967Y-90213580D01*
X138830967Y-89308819D02*
X138783348Y-89261200D01*
X138783348Y-89261200D02*
X138640491Y-89213580D01*
X138640491Y-89213580D02*
X138545253Y-89213580D01*
X138545253Y-89213580D02*
X138402396Y-89261200D01*
X138402396Y-89261200D02*
X138307158Y-89356438D01*
X138307158Y-89356438D02*
X138259539Y-89451676D01*
X138259539Y-89451676D02*
X138211920Y-89642152D01*
X138211920Y-89642152D02*
X138211920Y-89785009D01*
X138211920Y-89785009D02*
X138259539Y-89975485D01*
X138259539Y-89975485D02*
X138307158Y-90070723D01*
X138307158Y-90070723D02*
X138402396Y-90165961D01*
X138402396Y-90165961D02*
X138545253Y-90213580D01*
X138545253Y-90213580D02*
X138640491Y-90213580D01*
X138640491Y-90213580D02*
X138783348Y-90165961D01*
X138783348Y-90165961D02*
X138830967Y-90118342D01*
X139116682Y-90213580D02*
X139688110Y-90213580D01*
X139402396Y-89213580D02*
X139402396Y-90213580D01*
X140211920Y-90213580D02*
X140402396Y-90213580D01*
X140402396Y-90213580D02*
X140497634Y-90165961D01*
X140497634Y-90165961D02*
X140592872Y-90070723D01*
X140592872Y-90070723D02*
X140640491Y-89880247D01*
X140640491Y-89880247D02*
X140640491Y-89546914D01*
X140640491Y-89546914D02*
X140592872Y-89356438D01*
X140592872Y-89356438D02*
X140497634Y-89261200D01*
X140497634Y-89261200D02*
X140402396Y-89213580D01*
X140402396Y-89213580D02*
X140211920Y-89213580D01*
X140211920Y-89213580D02*
X140116682Y-89261200D01*
X140116682Y-89261200D02*
X140021444Y-89356438D01*
X140021444Y-89356438D02*
X139973825Y-89546914D01*
X139973825Y-89546914D02*
X139973825Y-89880247D01*
X139973825Y-89880247D02*
X140021444Y-90070723D01*
X140021444Y-90070723D02*
X140116682Y-90165961D01*
X140116682Y-90165961D02*
X140211920Y-90213580D01*
X141640491Y-89213580D02*
X141307158Y-89689771D01*
X141069063Y-89213580D02*
X141069063Y-90213580D01*
X141069063Y-90213580D02*
X141450015Y-90213580D01*
X141450015Y-90213580D02*
X141545253Y-90165961D01*
X141545253Y-90165961D02*
X141592872Y-90118342D01*
X141592872Y-90118342D02*
X141640491Y-90023104D01*
X141640491Y-90023104D02*
X141640491Y-89880247D01*
X141640491Y-89880247D02*
X141592872Y-89785009D01*
X141592872Y-89785009D02*
X141545253Y-89737390D01*
X141545253Y-89737390D02*
X141450015Y-89689771D01*
X141450015Y-89689771D02*
X141069063Y-89689771D01*
X143116682Y-88832628D02*
X143069063Y-88880247D01*
X143069063Y-88880247D02*
X142973825Y-89023104D01*
X142973825Y-89023104D02*
X142926206Y-89118342D01*
X142926206Y-89118342D02*
X142878587Y-89261200D01*
X142878587Y-89261200D02*
X142830968Y-89499295D01*
X142830968Y-89499295D02*
X142830968Y-89689771D01*
X142830968Y-89689771D02*
X142878587Y-89927866D01*
X142878587Y-89927866D02*
X142926206Y-90070723D01*
X142926206Y-90070723D02*
X142973825Y-90165961D01*
X142973825Y-90165961D02*
X143069063Y-90308819D01*
X143069063Y-90308819D02*
X143116682Y-90356438D01*
X143830968Y-89737390D02*
X143973825Y-89689771D01*
X143973825Y-89689771D02*
X144021444Y-89642152D01*
X144021444Y-89642152D02*
X144069063Y-89546914D01*
X144069063Y-89546914D02*
X144069063Y-89404057D01*
X144069063Y-89404057D02*
X144021444Y-89308819D01*
X144021444Y-89308819D02*
X143973825Y-89261200D01*
X143973825Y-89261200D02*
X143878587Y-89213580D01*
X143878587Y-89213580D02*
X143497635Y-89213580D01*
X143497635Y-89213580D02*
X143497635Y-90213580D01*
X143497635Y-90213580D02*
X143830968Y-90213580D01*
X143830968Y-90213580D02*
X143926206Y-90165961D01*
X143926206Y-90165961D02*
X143973825Y-90118342D01*
X143973825Y-90118342D02*
X144021444Y-90023104D01*
X144021444Y-90023104D02*
X144021444Y-89927866D01*
X144021444Y-89927866D02*
X143973825Y-89832628D01*
X143973825Y-89832628D02*
X143926206Y-89785009D01*
X143926206Y-89785009D02*
X143830968Y-89737390D01*
X143830968Y-89737390D02*
X143497635Y-89737390D01*
X144497635Y-89737390D02*
X144830968Y-89737390D01*
X144973825Y-89213580D02*
X144497635Y-89213580D01*
X144497635Y-89213580D02*
X144497635Y-90213580D01*
X144497635Y-90213580D02*
X144973825Y-90213580D01*
X145402397Y-89213580D02*
X145402397Y-90213580D01*
X145402397Y-90213580D02*
X145973825Y-89213580D01*
X145973825Y-89213580D02*
X145973825Y-90213580D01*
X146450016Y-89737390D02*
X146783349Y-89737390D01*
X146926206Y-89213580D02*
X146450016Y-89213580D01*
X146450016Y-89213580D02*
X146450016Y-90213580D01*
X146450016Y-90213580D02*
X146926206Y-90213580D01*
X147307159Y-89499295D02*
X147783349Y-89499295D01*
X147211921Y-89213580D02*
X147545254Y-90213580D01*
X147545254Y-90213580D02*
X147878587Y-89213580D01*
X148069064Y-90213580D02*
X148640492Y-90213580D01*
X148354778Y-89213580D02*
X148354778Y-90213580D01*
X148973826Y-89213580D02*
X148973826Y-90213580D01*
X148973826Y-89737390D02*
X149545254Y-89737390D01*
X149545254Y-89213580D02*
X149545254Y-90213580D01*
X149926207Y-88832628D02*
X149973826Y-88880247D01*
X149973826Y-88880247D02*
X150069064Y-89023104D01*
X150069064Y-89023104D02*
X150116683Y-89118342D01*
X150116683Y-89118342D02*
X150164302Y-89261200D01*
X150164302Y-89261200D02*
X150211921Y-89499295D01*
X150211921Y-89499295D02*
X150211921Y-89689771D01*
X150211921Y-89689771D02*
X150164302Y-89927866D01*
X150164302Y-89927866D02*
X150116683Y-90070723D01*
X150116683Y-90070723D02*
X150069064Y-90165961D01*
X150069064Y-90165961D02*
X149973826Y-90308819D01*
X149973826Y-90308819D02*
X149926207Y-90356438D01*
D10*
X126795057Y-129404761D02*
X126747438Y-129309523D01*
X126747438Y-129309523D02*
X126652200Y-129214285D01*
X126652200Y-129214285D02*
X126509342Y-129071428D01*
X126509342Y-129071428D02*
X126461723Y-128976190D01*
X126461723Y-128976190D02*
X126461723Y-128880952D01*
X126699819Y-128928571D02*
X126652200Y-128833333D01*
X126652200Y-128833333D02*
X126556961Y-128738095D01*
X126556961Y-128738095D02*
X126366485Y-128690476D01*
X126366485Y-128690476D02*
X126033152Y-128690476D01*
X126033152Y-128690476D02*
X125842676Y-128738095D01*
X125842676Y-128738095D02*
X125747438Y-128833333D01*
X125747438Y-128833333D02*
X125699819Y-128928571D01*
X125699819Y-128928571D02*
X125699819Y-129119047D01*
X125699819Y-129119047D02*
X125747438Y-129214285D01*
X125747438Y-129214285D02*
X125842676Y-129309523D01*
X125842676Y-129309523D02*
X126033152Y-129357142D01*
X126033152Y-129357142D02*
X126366485Y-129357142D01*
X126366485Y-129357142D02*
X126556961Y-129309523D01*
X126556961Y-129309523D02*
X126652200Y-129214285D01*
X126652200Y-129214285D02*
X126699819Y-129119047D01*
X126699819Y-129119047D02*
X126699819Y-128928571D01*
X126699819Y-130309523D02*
X126699819Y-129738095D01*
X126699819Y-130023809D02*
X125699819Y-130023809D01*
X125699819Y-130023809D02*
X125842676Y-129928571D01*
X125842676Y-129928571D02*
X125937914Y-129833333D01*
X125937914Y-129833333D02*
X125985533Y-129738095D01*
D12*
%TO.C,R1*%
X138700000Y-123080000D02*
X139320000Y-123080000D01*
X138700000Y-123080000D02*
G75*
G03*
X138700000Y-123080000I-920000J0D01*
G01*
%TO.C,J4*%
X104830000Y-80700000D02*
X102170000Y-80700000D01*
X104830000Y-67940000D02*
X104830000Y-80700000D01*
X104830000Y-67940000D02*
X102170000Y-67940000D01*
X103500000Y-65340000D02*
X102170000Y-65340000D01*
X102170000Y-67940000D02*
X102170000Y-80700000D01*
X102170000Y-65340000D02*
X102170000Y-66670000D01*
%TO.C,A1*%
X137191360Y-111710000D02*
X132111360Y-111710000D01*
X137191360Y-73480000D02*
X137191360Y-111710000D01*
X137191360Y-68270000D02*
X137191360Y-70940000D01*
X134521360Y-109040000D02*
X137191360Y-109040000D01*
X134521360Y-73480000D02*
X137191360Y-73480000D01*
X134521360Y-73480000D02*
X134521360Y-109040000D01*
X134521360Y-73480000D02*
X134521360Y-70940000D01*
X134521360Y-70940000D02*
X137191360Y-70940000D01*
X132111360Y-114250000D02*
X132111360Y-103830000D01*
X132111360Y-103830000D02*
X124231360Y-103830000D01*
X124231360Y-114250000D02*
X132111360Y-114250000D01*
X124231360Y-103830000D02*
X124231360Y-114250000D01*
X121821360Y-109040000D02*
X119151360Y-109040000D01*
X121821360Y-70940000D02*
X121821360Y-109040000D01*
X121821360Y-70940000D02*
X119151360Y-70940000D01*
X119151360Y-111710000D02*
X124231360Y-111710000D01*
X119151360Y-111710000D02*
X119151360Y-68270000D01*
X119151360Y-68270000D02*
X137191360Y-68270000D01*
%TO.C,D1*%
X161758850Y-128531134D02*
G75*
G03*
X161818239Y-130400000I-1053850J-968866D01*
G01*
%TO.C,J2*%
X102171360Y-84050000D02*
X104831360Y-84050000D01*
X102171360Y-91730000D02*
X102171360Y-84050000D01*
X102171360Y-91730000D02*
X104831360Y-91730000D01*
X103501360Y-94330000D02*
X104831360Y-94330000D01*
X104831360Y-91730000D02*
X104831360Y-84050000D01*
X104831360Y-94330000D02*
X104831360Y-93000000D01*
%TO.C,BZ1*%
X154100000Y-111000000D02*
G75*
G03*
X154100000Y-111000000I-6100000J0D01*
G01*
%TO.C,J3*%
X157350000Y-106700000D02*
X167700000Y-106700000D01*
X157350000Y-119300000D02*
X157350000Y-106700000D01*
X167700000Y-106700000D02*
X167700000Y-107650000D01*
X167700000Y-107650000D02*
X168200000Y-107400000D01*
X167700000Y-109100000D02*
X167700000Y-114500000D01*
X167700000Y-114500000D02*
X168200000Y-114200000D01*
X168200000Y-107400000D02*
X168200000Y-109300000D01*
X168200000Y-109300000D02*
X168200000Y-109350000D01*
X168200000Y-109350000D02*
X167700000Y-109100000D01*
X168200000Y-114200000D02*
X168200000Y-119300000D01*
X168200000Y-119300000D02*
X157350000Y-119300000D01*
D11*
%TO.C,REF\u002A\u002A*%
X101625160Y-85860200D02*
X105638360Y-85860200D01*
X101625160Y-94191400D02*
X101625160Y-85860200D01*
X105638360Y-85860200D02*
X105638360Y-94191400D01*
X105638360Y-94191400D02*
X101625160Y-94191400D01*
D12*
X112614760Y-65910800D02*
X192894760Y-65910800D01*
X112614760Y-102190800D02*
X112614760Y-65910800D01*
D11*
X112614760Y-102190800D02*
X112623360Y-81186600D01*
X112614760Y-102190800D02*
X112623360Y-94191400D01*
X112623360Y-81186600D02*
X166623760Y-81186600D01*
X112624760Y-102190800D02*
X112623360Y-96172600D01*
D12*
X112624760Y-102190800D02*
X113414760Y-102190800D01*
D11*
X115754760Y-71550800D02*
X115747560Y-81161200D01*
D12*
X119254760Y-102550800D02*
X122254760Y-102550800D01*
D11*
X120455040Y-77051480D02*
X120446560Y-81186600D01*
X166623760Y-81186600D02*
X166623760Y-91524400D01*
X166623760Y-91524400D02*
X166623760Y-96553600D01*
X166623760Y-91524400D02*
X184454760Y-91550800D01*
X166623760Y-96553600D02*
X166623760Y-102141600D01*
D12*
X184455420Y-76550800D02*
X120954760Y-76550800D01*
X184954760Y-91050800D02*
X184954760Y-77050800D01*
X188754760Y-71550800D02*
X115754760Y-71550800D01*
D11*
X188754760Y-96550800D02*
X166623760Y-96553600D01*
D12*
X188754760Y-96550800D02*
X188754760Y-71550800D01*
X192894760Y-65910800D02*
X192894760Y-102190800D01*
X192894760Y-102190800D02*
X113414760Y-102190800D01*
X120955420Y-76551100D02*
G75*
G03*
X120455040Y-77051480I0J-500380D01*
G01*
X184955760Y-77051480D02*
G75*
G03*
X184455420Y-76551100I-500400J-20D01*
G01*
X184454760Y-91550800D02*
G75*
G03*
X184954760Y-91050800I0J500000D01*
G01*
%TO.C,Q1*%
X131886000Y-124380000D02*
X131886000Y-134620000D01*
X128755000Y-124380000D02*
X128755000Y-134620000D01*
X127245000Y-124380000D02*
X131886000Y-124380000D01*
X127245000Y-124380000D02*
X127245000Y-134620000D01*
X127245000Y-127650000D02*
X128755000Y-127650000D01*
X127245000Y-131351000D02*
X128755000Y-131351000D01*
X127245000Y-134620000D02*
X131886000Y-134620000D01*
%TD*%
M02*
