%TF.GenerationSoftware,KiCad,Pcbnew,7.0.10-7.0.10~ubuntu22.04.1*%
%TF.CreationDate,2024-01-26T16:23:07-07:00*%
%TF.ProjectId,ph_meter,70685f6d-6574-4657-922e-6b696361645f,1.3*%
%TF.SameCoordinates,Original*%
%TF.FileFunction,Legend,Bot*%
%TF.FilePolarity,Positive*%
%FSLAX46Y46*%
G04 Gerber Fmt 4.6, Leading zero omitted, Abs format (unit mm)*
G04 Created by KiCad (PCBNEW 7.0.10-7.0.10~ubuntu22.04.1) date 2024-01-26 16:23:07*
%MOMM*%
%LPD*%
G01*
G04 APERTURE LIST*
%ADD10C,0.150000*%
%ADD11C,0.120000*%
G04 APERTURE END LIST*
D10*
X90094819Y-90966666D02*
X90809104Y-90966666D01*
X90809104Y-90966666D02*
X90951961Y-90919047D01*
X90951961Y-90919047D02*
X91047200Y-90823809D01*
X91047200Y-90823809D02*
X91094819Y-90680952D01*
X91094819Y-90680952D02*
X91094819Y-90585714D01*
X90094819Y-91347619D02*
X90094819Y-91966666D01*
X90094819Y-91966666D02*
X90475771Y-91633333D01*
X90475771Y-91633333D02*
X90475771Y-91776190D01*
X90475771Y-91776190D02*
X90523390Y-91871428D01*
X90523390Y-91871428D02*
X90571009Y-91919047D01*
X90571009Y-91919047D02*
X90666247Y-91966666D01*
X90666247Y-91966666D02*
X90904342Y-91966666D01*
X90904342Y-91966666D02*
X90999580Y-91919047D01*
X90999580Y-91919047D02*
X91047200Y-91871428D01*
X91047200Y-91871428D02*
X91094819Y-91776190D01*
X91094819Y-91776190D02*
X91094819Y-91490476D01*
X91094819Y-91490476D02*
X91047200Y-91395238D01*
X91047200Y-91395238D02*
X90999580Y-91347619D01*
X88625057Y-98584761D02*
X88577438Y-98489523D01*
X88577438Y-98489523D02*
X88482200Y-98394285D01*
X88482200Y-98394285D02*
X88339342Y-98251428D01*
X88339342Y-98251428D02*
X88291723Y-98156190D01*
X88291723Y-98156190D02*
X88291723Y-98060952D01*
X88529819Y-98108571D02*
X88482200Y-98013333D01*
X88482200Y-98013333D02*
X88386961Y-97918095D01*
X88386961Y-97918095D02*
X88196485Y-97870476D01*
X88196485Y-97870476D02*
X87863152Y-97870476D01*
X87863152Y-97870476D02*
X87672676Y-97918095D01*
X87672676Y-97918095D02*
X87577438Y-98013333D01*
X87577438Y-98013333D02*
X87529819Y-98108571D01*
X87529819Y-98108571D02*
X87529819Y-98299047D01*
X87529819Y-98299047D02*
X87577438Y-98394285D01*
X87577438Y-98394285D02*
X87672676Y-98489523D01*
X87672676Y-98489523D02*
X87863152Y-98537142D01*
X87863152Y-98537142D02*
X88196485Y-98537142D01*
X88196485Y-98537142D02*
X88386961Y-98489523D01*
X88386961Y-98489523D02*
X88482200Y-98394285D01*
X88482200Y-98394285D02*
X88529819Y-98299047D01*
X88529819Y-98299047D02*
X88529819Y-98108571D01*
X88529819Y-99489523D02*
X88529819Y-98918095D01*
X88529819Y-99203809D02*
X87529819Y-99203809D01*
X87529819Y-99203809D02*
X87672676Y-99108571D01*
X87672676Y-99108571D02*
X87767914Y-99013333D01*
X87767914Y-99013333D02*
X87815533Y-98918095D01*
X99674819Y-83591905D02*
X98674819Y-83591905D01*
X98674819Y-83591905D02*
X98674819Y-83830000D01*
X98674819Y-83830000D02*
X98722438Y-83972857D01*
X98722438Y-83972857D02*
X98817676Y-84068095D01*
X98817676Y-84068095D02*
X98912914Y-84115714D01*
X98912914Y-84115714D02*
X99103390Y-84163333D01*
X99103390Y-84163333D02*
X99246247Y-84163333D01*
X99246247Y-84163333D02*
X99436723Y-84115714D01*
X99436723Y-84115714D02*
X99531961Y-84068095D01*
X99531961Y-84068095D02*
X99627200Y-83972857D01*
X99627200Y-83972857D02*
X99674819Y-83830000D01*
X99674819Y-83830000D02*
X99674819Y-83591905D01*
X99674819Y-85115714D02*
X99674819Y-84544286D01*
X99674819Y-84830000D02*
X98674819Y-84830000D01*
X98674819Y-84830000D02*
X98817676Y-84734762D01*
X98817676Y-84734762D02*
X98912914Y-84639524D01*
X98912914Y-84639524D02*
X98960533Y-84544286D01*
X99104819Y-89148095D02*
X98104819Y-89148095D01*
X99104819Y-89719523D02*
X98533390Y-89290952D01*
X98104819Y-89719523D02*
X98676247Y-89148095D01*
X92684819Y-108113333D02*
X92208628Y-107780000D01*
X92684819Y-107541905D02*
X91684819Y-107541905D01*
X91684819Y-107541905D02*
X91684819Y-107922857D01*
X91684819Y-107922857D02*
X91732438Y-108018095D01*
X91732438Y-108018095D02*
X91780057Y-108065714D01*
X91780057Y-108065714D02*
X91875295Y-108113333D01*
X91875295Y-108113333D02*
X92018152Y-108113333D01*
X92018152Y-108113333D02*
X92113390Y-108065714D01*
X92113390Y-108065714D02*
X92161009Y-108018095D01*
X92161009Y-108018095D02*
X92208628Y-107922857D01*
X92208628Y-107922857D02*
X92208628Y-107541905D01*
X92684819Y-109065714D02*
X92684819Y-108494286D01*
X92684819Y-108780000D02*
X91684819Y-108780000D01*
X91684819Y-108780000D02*
X91827676Y-108684762D01*
X91827676Y-108684762D02*
X91922914Y-108589524D01*
X91922914Y-108589524D02*
X91970533Y-108494286D01*
X91872369Y-110606547D02*
X91919988Y-110749404D01*
X91919988Y-110749404D02*
X91967607Y-110797023D01*
X91967607Y-110797023D02*
X92062845Y-110844642D01*
X92062845Y-110844642D02*
X92205702Y-110844642D01*
X92205702Y-110844642D02*
X92300940Y-110797023D01*
X92300940Y-110797023D02*
X92348560Y-110749404D01*
X92348560Y-110749404D02*
X92396179Y-110654166D01*
X92396179Y-110654166D02*
X92396179Y-110273214D01*
X92396179Y-110273214D02*
X91396179Y-110273214D01*
X91396179Y-110273214D02*
X91396179Y-110606547D01*
X91396179Y-110606547D02*
X91443798Y-110701785D01*
X91443798Y-110701785D02*
X91491417Y-110749404D01*
X91491417Y-110749404D02*
X91586655Y-110797023D01*
X91586655Y-110797023D02*
X91681893Y-110797023D01*
X91681893Y-110797023D02*
X91777131Y-110749404D01*
X91777131Y-110749404D02*
X91824750Y-110701785D01*
X91824750Y-110701785D02*
X91872369Y-110606547D01*
X91872369Y-110606547D02*
X91872369Y-110273214D01*
X91396179Y-111177976D02*
X91396179Y-111844642D01*
X91396179Y-111844642D02*
X92396179Y-111177976D01*
X92396179Y-111177976D02*
X92396179Y-111844642D01*
X92396179Y-112749404D02*
X92396179Y-112177976D01*
X92396179Y-112463690D02*
X91396179Y-112463690D01*
X91396179Y-112463690D02*
X91539036Y-112368452D01*
X91539036Y-112368452D02*
X91634274Y-112273214D01*
X91634274Y-112273214D02*
X91681893Y-112177976D01*
X87355226Y-114916548D02*
X87355226Y-115678453D01*
X87736179Y-115297500D02*
X86974274Y-115297500D01*
X175383333Y-112254819D02*
X175383333Y-112969104D01*
X175383333Y-112969104D02*
X175430952Y-113111961D01*
X175430952Y-113111961D02*
X175526190Y-113207200D01*
X175526190Y-113207200D02*
X175669047Y-113254819D01*
X175669047Y-113254819D02*
X175764285Y-113254819D01*
X174478571Y-112588152D02*
X174478571Y-113254819D01*
X174716666Y-112207200D02*
X174954761Y-112921485D01*
X174954761Y-112921485D02*
X174335714Y-112921485D01*
X165833333Y-122434819D02*
X165833333Y-123149104D01*
X165833333Y-123149104D02*
X165880952Y-123291961D01*
X165880952Y-123291961D02*
X165976190Y-123387200D01*
X165976190Y-123387200D02*
X166119047Y-123434819D01*
X166119047Y-123434819D02*
X166214285Y-123434819D01*
X165404761Y-122530057D02*
X165357142Y-122482438D01*
X165357142Y-122482438D02*
X165261904Y-122434819D01*
X165261904Y-122434819D02*
X165023809Y-122434819D01*
X165023809Y-122434819D02*
X164928571Y-122482438D01*
X164928571Y-122482438D02*
X164880952Y-122530057D01*
X164880952Y-122530057D02*
X164833333Y-122625295D01*
X164833333Y-122625295D02*
X164833333Y-122720533D01*
X164833333Y-122720533D02*
X164880952Y-122863390D01*
X164880952Y-122863390D02*
X165452380Y-123434819D01*
X165452380Y-123434819D02*
X164833333Y-123434819D01*
D11*
%TO.C,J3*%
X77350000Y-92030000D02*
X77350000Y-81680000D01*
X89950000Y-92030000D02*
X77350000Y-92030000D01*
X77350000Y-81680000D02*
X78300000Y-81680000D01*
X78300000Y-81680000D02*
X78050000Y-81180000D01*
X79750000Y-81680000D02*
X85150000Y-81680000D01*
X85150000Y-81680000D02*
X84850000Y-81180000D01*
X78050000Y-81180000D02*
X79950000Y-81180000D01*
X79950000Y-81180000D02*
X80000000Y-81180000D01*
X80000000Y-81180000D02*
X79750000Y-81680000D01*
X84850000Y-81180000D02*
X89950000Y-81180000D01*
X89950000Y-81180000D02*
X89950000Y-92030000D01*
%TO.C,Q1*%
X87075000Y-93560000D02*
X82434000Y-93560000D01*
X87075000Y-96829000D02*
X85565000Y-96829000D01*
X87075000Y-100530000D02*
X85565000Y-100530000D01*
X87075000Y-103800000D02*
X87075000Y-93560000D01*
X87075000Y-103800000D02*
X82434000Y-103800000D01*
X85565000Y-103800000D02*
X85565000Y-93560000D01*
X82434000Y-103800000D02*
X82434000Y-93560000D01*
%TO.C,D1*%
X98220000Y-86150000D02*
X95280000Y-86150000D01*
X98220000Y-86030000D02*
X95280000Y-86030000D01*
X96750000Y-88270000D02*
X96750000Y-87050000D01*
X98220000Y-87050000D02*
X95280000Y-87050000D01*
X95280000Y-81610000D02*
X98220000Y-81610000D01*
X96750000Y-80390000D02*
X96750000Y-81610000D01*
X95280000Y-87050000D02*
X95280000Y-81610000D01*
X98220000Y-86270000D02*
X95280000Y-86270000D01*
X98220000Y-81610000D02*
X98220000Y-87050000D01*
%TO.C,R1*%
X94600000Y-112320000D02*
X94600000Y-111550000D01*
X94600000Y-104240000D02*
X94600000Y-105010000D01*
X93230000Y-105010000D02*
X95970000Y-105010000D01*
X95970000Y-111550000D02*
X93230000Y-111550000D01*
X95970000Y-105010000D02*
X95970000Y-111550000D01*
X93230000Y-111550000D02*
X93230000Y-105010000D01*
%TO.C,BZ1*%
X90841360Y-111487500D02*
G75*
G03*
X78641360Y-111487500I-6100000J0D01*
G01*
X78641360Y-111487500D02*
G75*
G03*
X90841360Y-111487500I6100000J0D01*
G01*
%TO.C,J4*%
X176380000Y-129600000D02*
X173720000Y-129600000D01*
X176380000Y-116840000D02*
X176380000Y-129600000D01*
X176380000Y-116840000D02*
X173720000Y-116840000D01*
X175050000Y-114240000D02*
X173720000Y-114240000D01*
X173720000Y-116840000D02*
X173720000Y-129600000D01*
X173720000Y-114240000D02*
X173720000Y-115570000D01*
%TO.C,J2*%
X166830000Y-134700000D02*
X164170000Y-134700000D01*
X166830000Y-127020000D02*
X166830000Y-134700000D01*
X166830000Y-127020000D02*
X164170000Y-127020000D01*
X165500000Y-124420000D02*
X164170000Y-124420000D01*
X164170000Y-127020000D02*
X164170000Y-134700000D01*
X164170000Y-124420000D02*
X164170000Y-125750000D01*
%TD*%
M02*
