%TF.GenerationSoftware,KiCad,Pcbnew,7.0.9-7.0.9~ubuntu22.04.1*%
%TF.CreationDate,2023-12-08T18:50:30-07:00*%
%TF.ProjectId,ph_meter,70685f6d-6574-4657-922e-6b696361645f,1.3*%
%TF.SameCoordinates,Original*%
%TF.FileFunction,Copper,L2,Bot*%
%TF.FilePolarity,Positive*%
%FSLAX46Y46*%
G04 Gerber Fmt 4.6, Leading zero omitted, Abs format (unit mm)*
G04 Created by KiCad (PCBNEW 7.0.9-7.0.9~ubuntu22.04.1) date 2023-12-08 18:50:30*
%MOMM*%
%LPD*%
G01*
G04 APERTURE LIST*
%TA.AperFunction,ComponentPad*%
%ADD10R,1.600000X1.600000*%
%TD*%
%TA.AperFunction,ComponentPad*%
%ADD11O,1.600000X1.600000*%
%TD*%
%TA.AperFunction,ComponentPad*%
%ADD12C,1.400000*%
%TD*%
%TA.AperFunction,ComponentPad*%
%ADD13O,1.400000X1.400000*%
%TD*%
%TA.AperFunction,ComponentPad*%
%ADD14R,1.700000X1.700000*%
%TD*%
%TA.AperFunction,ComponentPad*%
%ADD15O,1.700000X1.700000*%
%TD*%
%TA.AperFunction,ComponentPad*%
%ADD16R,1.800000X1.800000*%
%TD*%
%TA.AperFunction,ComponentPad*%
%ADD17O,1.800000X1.800000*%
%TD*%
%TA.AperFunction,ComponentPad*%
%ADD18R,2.000000X2.000000*%
%TD*%
%TA.AperFunction,ComponentPad*%
%ADD19C,2.000000*%
%TD*%
%TA.AperFunction,ComponentPad*%
%ADD20R,3.960000X1.980000*%
%TD*%
%TA.AperFunction,ComponentPad*%
%ADD21O,3.960000X1.980000*%
%TD*%
%TA.AperFunction,ComponentPad*%
%ADD22R,2.000000X1.905000*%
%TD*%
%TA.AperFunction,ComponentPad*%
%ADD23O,2.000000X1.905000*%
%TD*%
%TA.AperFunction,Conductor*%
%ADD24C,0.304800*%
%TD*%
G04 APERTURE END LIST*
D10*
%TO.P,A2,1,NC*%
%TO.N,unconnected-(A2-NC-Pad1)*%
X154580000Y-97775000D03*
D11*
%TO.P,A2,2,IOREF*%
%TO.N,unconnected-(A2-IOREF-Pad2)*%
X154580000Y-100315000D03*
%TO.P,A2,3,~{RESET}*%
%TO.N,unconnected-(A2-~{RESET}-Pad3)*%
X154580000Y-102855000D03*
%TO.P,A2,4,3V3*%
%TO.N,unconnected-(A2-3V3-Pad4)*%
X154580000Y-105395000D03*
%TO.P,A2,5,+5V*%
%TO.N,+5V*%
X154580000Y-107935000D03*
%TO.P,A2,6,GND*%
%TO.N,unconnected-(A2-GND-Pad6)*%
X154580000Y-110475000D03*
%TO.P,A2,7,GND*%
%TO.N,unconnected-(A2-GND-Pad7)*%
X154580000Y-113015000D03*
%TO.P,A2,8,VIN*%
%TO.N,+12V*%
X154580000Y-115555000D03*
%TO.P,A2,9,A0*%
%TO.N,unconnected-(A2-A0-Pad9)*%
X154580000Y-120635000D03*
%TO.P,A2,10,A1*%
%TO.N,unconnected-(A2-A1-Pad10)*%
X154580000Y-123175000D03*
%TO.P,A2,11,A2*%
%TO.N,Net-(A2-A2)*%
X154580000Y-125715000D03*
%TO.P,A2,12,A3*%
%TO.N,unconnected-(A2-A3-Pad12)*%
X154580000Y-128255000D03*
%TO.P,A2,13,SDA/A4*%
%TO.N,Net-(J2-Pin_3)*%
X154580000Y-130795000D03*
%TO.P,A2,14,SCL/A5*%
%TO.N,Net-(J2-Pin_4)*%
X154580000Y-133335000D03*
%TO.P,A2,15,D0/RX*%
%TO.N,unconnected-(A2-D0{slash}RX-Pad15)*%
X106320000Y-133335000D03*
%TO.P,A2,16,D1/TX*%
%TO.N,unconnected-(A2-D1{slash}TX-Pad16)*%
X106320000Y-130795000D03*
%TO.P,A2,17,D2*%
%TO.N,unconnected-(A2-D2-Pad17)*%
X106320000Y-128255000D03*
%TO.P,A2,18,D3*%
%TO.N,unconnected-(A2-D3-Pad18)*%
X106320000Y-125715000D03*
%TO.P,A2,19,D4*%
%TO.N,unconnected-(A2-D4-Pad19)*%
X106320000Y-123175000D03*
%TO.P,A2,20,D5*%
%TO.N,unconnected-(A2-D5-Pad20)*%
X106320000Y-120635000D03*
%TO.P,A2,21,D6*%
%TO.N,unconnected-(A2-D6-Pad21)*%
X106320000Y-118095000D03*
%TO.P,A2,22,D7*%
%TO.N,unconnected-(A2-D7-Pad22)*%
X106320000Y-115555000D03*
%TO.P,A2,23,D8*%
%TO.N,unconnected-(A2-D8-Pad23)*%
X106320000Y-111495000D03*
%TO.P,A2,24,D9*%
%TO.N,unconnected-(A2-D9-Pad24)*%
X106320000Y-108955000D03*
%TO.P,A2,25,D10*%
%TO.N,unconnected-(A2-D10-Pad25)*%
X106320000Y-106415000D03*
%TO.P,A2,26,D11*%
%TO.N,Net-(A2-D11)*%
X106320000Y-103875000D03*
%TO.P,A2,27,D12*%
%TO.N,Net-(A2-D12)*%
X106320000Y-101335000D03*
%TO.P,A2,28,D13*%
%TO.N,unconnected-(A2-D13-Pad28)*%
X106320000Y-98795000D03*
%TO.P,A2,29,GND*%
%TO.N,unconnected-(A2-GND-Pad29)*%
X106320000Y-96255000D03*
%TO.P,A2,30,AREF*%
%TO.N,unconnected-(A2-AREF-Pad30)*%
X106320000Y-93715000D03*
%TO.P,A2,31,SDA/A4*%
%TO.N,unconnected-(A2-SDA{slash}A4-Pad31)*%
X106320000Y-91175000D03*
%TO.P,A2,32,SCL/A5*%
%TO.N,unconnected-(A2-SCL{slash}A5-Pad32)*%
X106320000Y-88635000D03*
%TD*%
D12*
%TO.P,R1,1*%
%TO.N,Net-(Q1-B)*%
X95770000Y-91287500D03*
D13*
%TO.P,R1,2*%
%TO.N,Net-(A2-D12)*%
X95770000Y-93827500D03*
%TD*%
D14*
%TO.P,J4,1,Pin_1*%
%TO.N,unconnected-(J4-Pin_1-Pad1)*%
X175050000Y-115570000D03*
D15*
%TO.P,J4,2,Pin_2*%
%TO.N,unconnected-(J4-Pin_2-Pad2)*%
X175050000Y-118110000D03*
%TO.P,J4,3,Pin_3*%
%TO.N,Net-(A2-A2)*%
X175050000Y-120650000D03*
%TO.P,J4,4,Pin_4*%
%TO.N,unconnected-(J4-Pin_4-Pad4)*%
X175050000Y-123190000D03*
%TO.P,J4,5,Pin_5*%
%TO.N,GND*%
X175050000Y-125730000D03*
%TO.P,J4,6,Pin_6*%
%TO.N,+5V*%
X175050000Y-128270000D03*
%TD*%
D16*
%TO.P,D1,1,K*%
%TO.N,+12V*%
X96780000Y-73898640D03*
D17*
%TO.P,D1,2,A*%
%TO.N,Net-(D1-A)*%
X96780000Y-71358640D03*
%TD*%
D14*
%TO.P,J2,1,Pin_1*%
%TO.N,GND*%
X165500000Y-125750000D03*
D15*
%TO.P,J2,2,Pin_2*%
%TO.N,+5V*%
X165500000Y-128290000D03*
%TO.P,J2,3,Pin_3*%
%TO.N,Net-(J2-Pin_3)*%
X165500000Y-130830000D03*
%TO.P,J2,4,Pin_4*%
%TO.N,Net-(J2-Pin_4)*%
X165500000Y-133370000D03*
%TD*%
D18*
%TO.P,BZ1,1,-*%
%TO.N,Net-(A2-D11)*%
X87241360Y-100457500D03*
D19*
%TO.P,BZ1,2,+*%
%TO.N,GND*%
X87241360Y-92857500D03*
%TD*%
D20*
%TO.P,J3,1,Pin_1*%
%TO.N,+12V*%
X86150000Y-74550000D03*
D21*
%TO.P,J3,2,Pin_2*%
%TO.N,Net-(D1-A)*%
X86150000Y-69550000D03*
%TD*%
D22*
%TO.P,Q1,1,B*%
%TO.N,Net-(Q1-B)*%
X86305000Y-86390000D03*
D23*
%TO.P,Q1,2,C*%
%TO.N,Net-(D1-A)*%
X86305000Y-83850000D03*
%TO.P,Q1,3,E*%
%TO.N,GND*%
X86305000Y-81310000D03*
%TD*%
D24*
%TO.N,+5V*%
X165500000Y-128290000D02*
X163140000Y-128290000D01*
X159400000Y-109850000D02*
X157485000Y-107935000D01*
X165500000Y-128290000D02*
X175030000Y-128290000D01*
X157485000Y-107935000D02*
X154580000Y-107935000D01*
X159400000Y-124550000D02*
X159400000Y-109850000D01*
X175030000Y-128290000D02*
X175050000Y-128270000D01*
X163140000Y-128290000D02*
X159400000Y-124550000D01*
%TO.N,+12V*%
X96780000Y-73898640D02*
X104548640Y-73898640D01*
X86150000Y-74550000D02*
X93288640Y-74550000D01*
X146205000Y-115555000D02*
X154580000Y-115555000D01*
X93940000Y-73898640D02*
X96780000Y-73898640D01*
X104548640Y-73898640D02*
X146205000Y-115555000D01*
X93288640Y-74550000D02*
X93940000Y-73898640D01*
%TO.N,Net-(D1-A)*%
X77450000Y-67400000D02*
X79650000Y-65200000D01*
X96780000Y-68030000D02*
X96780000Y-71358640D01*
X93471360Y-69550000D02*
X86150000Y-69550000D01*
X79350000Y-78700000D02*
X77450000Y-76800000D01*
X86305000Y-83850000D02*
X84500000Y-83850000D01*
X93950000Y-65200000D02*
X96780000Y-68030000D01*
X96780000Y-71358640D02*
X95280000Y-71358640D01*
X77450000Y-76800000D02*
X77450000Y-67400000D01*
X79650000Y-65200000D02*
X93950000Y-65200000D01*
X84500000Y-83850000D02*
X79350000Y-78700000D01*
X95280000Y-71358640D02*
X93471360Y-69550000D01*
%TO.N,Net-(Q1-B)*%
X95770000Y-91287500D02*
X95770000Y-89620000D01*
X95770000Y-89620000D02*
X92540000Y-86390000D01*
X92540000Y-86390000D02*
X86305000Y-86390000D01*
%TO.N,Net-(A2-D11)*%
X87241360Y-100457500D02*
X88541360Y-100457500D01*
X100327500Y-102427500D02*
X101775000Y-103875000D01*
X88541360Y-100457500D02*
X90511360Y-102427500D01*
X101775000Y-103875000D02*
X106320000Y-103875000D01*
X90511360Y-102427500D02*
X100327500Y-102427500D01*
%TO.N,Net-(A2-D12)*%
X95770000Y-93827500D02*
X95800000Y-93857500D01*
X101800000Y-99500000D02*
X103635000Y-101335000D01*
X99891360Y-93857500D02*
X101800000Y-95766140D01*
X101800000Y-95766140D02*
X101800000Y-99500000D01*
X103635000Y-101335000D02*
X106320000Y-101335000D01*
X95800000Y-93857500D02*
X99891360Y-93857500D01*
%TO.N,Net-(J2-Pin_3)*%
X165500000Y-130830000D02*
X154615000Y-130830000D01*
X154615000Y-130830000D02*
X154580000Y-130795000D01*
%TO.N,Net-(J2-Pin_4)*%
X154615000Y-133370000D02*
X154580000Y-133335000D01*
X165500000Y-133370000D02*
X154615000Y-133370000D01*
%TO.N,Net-(A2-A2)*%
X152000000Y-127300000D02*
X152000000Y-135350000D01*
X178250000Y-129350000D02*
X178250000Y-121550000D01*
X153585000Y-125715000D02*
X152000000Y-127300000D01*
X178250000Y-121550000D02*
X177350000Y-120650000D01*
X152000000Y-135350000D02*
X154550000Y-137900000D01*
X169700000Y-137900000D02*
X178250000Y-129350000D01*
X154550000Y-137900000D02*
X169700000Y-137900000D01*
X177350000Y-120650000D02*
X175050000Y-120650000D01*
X154580000Y-125715000D02*
X153585000Y-125715000D01*
%TD*%
%TA.AperFunction,Conductor*%
%TO.N,GND*%
G36*
X177039318Y-121457585D02*
G01*
X177059960Y-121474219D01*
X177425781Y-121840040D01*
X177459266Y-121901363D01*
X177462100Y-121927721D01*
X177462100Y-128972279D01*
X177442415Y-129039318D01*
X177425781Y-129059960D01*
X169409960Y-137075781D01*
X169348637Y-137109266D01*
X169322279Y-137112100D01*
X154927721Y-137112100D01*
X154860682Y-137092415D01*
X154840040Y-137075781D01*
X152824219Y-135059960D01*
X152790734Y-134998637D01*
X152787900Y-134972279D01*
X152787900Y-127677720D01*
X152807585Y-127610681D01*
X152824215Y-127590043D01*
X153546726Y-126867531D01*
X153608047Y-126834048D01*
X153677738Y-126839032D01*
X153710562Y-126857357D01*
X153748837Y-126887148D01*
X153789649Y-126943854D01*
X153793324Y-127013627D01*
X153758694Y-127074311D01*
X153748837Y-127082852D01*
X153604432Y-127195247D01*
X153443307Y-127370274D01*
X153443304Y-127370278D01*
X153313188Y-127569434D01*
X153217625Y-127787297D01*
X153159225Y-128017911D01*
X153159223Y-128017922D01*
X153139580Y-128254993D01*
X153139580Y-128255006D01*
X153159223Y-128492077D01*
X153159225Y-128492088D01*
X153217625Y-128722702D01*
X153313188Y-128940565D01*
X153415775Y-129097585D01*
X153443306Y-129139724D01*
X153604430Y-129314751D01*
X153748837Y-129427147D01*
X153789649Y-129483857D01*
X153793324Y-129553630D01*
X153758693Y-129614313D01*
X153748843Y-129622847D01*
X153657401Y-129694020D01*
X153604431Y-129735248D01*
X153443307Y-129910274D01*
X153443304Y-129910278D01*
X153313188Y-130109434D01*
X153217625Y-130327297D01*
X153159225Y-130557911D01*
X153159223Y-130557922D01*
X153139580Y-130794993D01*
X153139580Y-130795006D01*
X153159223Y-131032077D01*
X153159225Y-131032088D01*
X153217625Y-131262702D01*
X153313188Y-131480565D01*
X153351656Y-131539444D01*
X153443306Y-131679724D01*
X153604430Y-131854751D01*
X153748837Y-131967147D01*
X153789649Y-132023857D01*
X153793324Y-132093630D01*
X153758693Y-132154313D01*
X153748843Y-132162847D01*
X153639571Y-132247897D01*
X153604431Y-132275248D01*
X153443307Y-132450274D01*
X153443304Y-132450278D01*
X153313188Y-132649434D01*
X153217625Y-132867297D01*
X153159225Y-133097911D01*
X153159223Y-133097922D01*
X153139580Y-133334993D01*
X153139580Y-133335006D01*
X153159223Y-133572077D01*
X153159225Y-133572088D01*
X153217625Y-133802702D01*
X153313188Y-134020565D01*
X153443304Y-134219721D01*
X153443307Y-134219725D01*
X153604432Y-134394753D01*
X153604436Y-134394756D01*
X153792156Y-134540865D01*
X153792162Y-134540869D01*
X153792165Y-134540871D01*
X154001390Y-134654098D01*
X154226398Y-134731344D01*
X154461051Y-134770500D01*
X154698949Y-134770500D01*
X154933602Y-134731344D01*
X155158610Y-134654098D01*
X155367835Y-134540871D01*
X155555570Y-134394751D01*
X155716694Y-134219724D01*
X155720385Y-134214075D01*
X155773533Y-134168720D01*
X155824191Y-134157900D01*
X164173217Y-134157900D01*
X164240256Y-134177585D01*
X164277026Y-134214079D01*
X164323711Y-134285537D01*
X164490452Y-134466665D01*
X164490456Y-134466668D01*
X164585792Y-134540871D01*
X164684724Y-134617873D01*
X164684726Y-134617874D01*
X164684729Y-134617876D01*
X164751660Y-134654097D01*
X164901236Y-134735043D01*
X165134082Y-134814979D01*
X165376908Y-134855500D01*
X165376909Y-134855500D01*
X165623091Y-134855500D01*
X165623092Y-134855500D01*
X165865918Y-134814979D01*
X166098764Y-134735043D01*
X166315276Y-134617873D01*
X166509550Y-134466663D01*
X166676286Y-134285540D01*
X166810936Y-134079443D01*
X166909827Y-133853994D01*
X166970261Y-133615343D01*
X166990591Y-133370000D01*
X166987691Y-133335006D01*
X166970261Y-133124660D01*
X166970261Y-133124657D01*
X166909827Y-132886006D01*
X166810936Y-132660557D01*
X166803670Y-132649436D01*
X166676287Y-132454462D01*
X166676286Y-132454460D01*
X166509550Y-132273337D01*
X166509549Y-132273336D01*
X166509547Y-132273334D01*
X166509543Y-132273331D01*
X166412569Y-132197853D01*
X166371756Y-132141143D01*
X166368081Y-132071370D01*
X166402713Y-132010687D01*
X166412569Y-132002147D01*
X166459476Y-131965636D01*
X166509550Y-131926663D01*
X166676286Y-131745540D01*
X166810936Y-131539443D01*
X166909827Y-131313994D01*
X166970261Y-131075343D01*
X166990591Y-130830000D01*
X166987691Y-130795006D01*
X166970261Y-130584660D01*
X166970261Y-130584657D01*
X166909827Y-130346006D01*
X166810936Y-130120557D01*
X166803670Y-130109436D01*
X166676287Y-129914462D01*
X166676286Y-129914460D01*
X166509550Y-129733337D01*
X166509549Y-129733336D01*
X166509547Y-129733334D01*
X166509543Y-129733331D01*
X166412569Y-129657853D01*
X166371756Y-129601143D01*
X166368081Y-129531370D01*
X166402713Y-129470687D01*
X166412569Y-129462147D01*
X166497362Y-129396149D01*
X166509550Y-129386663D01*
X166676286Y-129205540D01*
X166722974Y-129134079D01*
X166776121Y-129088722D01*
X166826783Y-129077900D01*
X173736284Y-129077900D01*
X173803323Y-129097585D01*
X173840092Y-129134078D01*
X173873714Y-129185540D01*
X173992661Y-129314751D01*
X174040452Y-129366665D01*
X174040456Y-129366668D01*
X174188864Y-129482179D01*
X174234724Y-129517873D01*
X174234726Y-129517874D01*
X174234729Y-129517876D01*
X174323919Y-129566143D01*
X174451236Y-129635043D01*
X174684082Y-129714979D01*
X174926908Y-129755500D01*
X174926909Y-129755500D01*
X175173091Y-129755500D01*
X175173092Y-129755500D01*
X175415918Y-129714979D01*
X175648764Y-129635043D01*
X175865276Y-129517873D01*
X176059550Y-129366663D01*
X176226286Y-129185540D01*
X176360936Y-128979443D01*
X176459827Y-128753994D01*
X176520261Y-128515343D01*
X176540591Y-128270000D01*
X176539347Y-128254993D01*
X176520261Y-128024660D01*
X176520261Y-128024657D01*
X176459827Y-127786006D01*
X176360936Y-127560557D01*
X176226286Y-127354460D01*
X176059550Y-127173337D01*
X176059549Y-127173336D01*
X176059547Y-127173334D01*
X176059543Y-127173331D01*
X175865279Y-127022129D01*
X175860975Y-127019317D01*
X175862150Y-127017518D01*
X175819025Y-126974698D01*
X175803931Y-126906478D01*
X175828116Y-126840928D01*
X175856523Y-126813311D01*
X175921080Y-126768107D01*
X176088105Y-126601082D01*
X176223600Y-126407578D01*
X176323429Y-126193492D01*
X176323432Y-126193486D01*
X176380636Y-125980000D01*
X175483686Y-125980000D01*
X175509493Y-125939844D01*
X175550000Y-125801889D01*
X175550000Y-125658111D01*
X175509493Y-125520156D01*
X175483686Y-125480000D01*
X176380636Y-125480000D01*
X176380635Y-125479999D01*
X176323432Y-125266513D01*
X176323429Y-125266507D01*
X176223600Y-125052422D01*
X176223599Y-125052420D01*
X176088113Y-124858926D01*
X176088108Y-124858920D01*
X175921078Y-124691890D01*
X175856522Y-124646687D01*
X175812897Y-124592110D01*
X175805705Y-124522612D01*
X175837228Y-124460257D01*
X175861540Y-124441529D01*
X175860984Y-124440677D01*
X175865269Y-124437876D01*
X175865276Y-124437873D01*
X176059550Y-124286663D01*
X176226286Y-124105540D01*
X176360936Y-123899443D01*
X176459827Y-123673994D01*
X176520261Y-123435343D01*
X176540591Y-123190000D01*
X176539347Y-123174993D01*
X176520261Y-122944660D01*
X176520261Y-122944657D01*
X176459827Y-122706006D01*
X176360936Y-122480557D01*
X176226286Y-122274460D01*
X176059550Y-122093337D01*
X176059549Y-122093336D01*
X176059547Y-122093334D01*
X176059543Y-122093331D01*
X175962569Y-122017853D01*
X175921756Y-121961143D01*
X175918081Y-121891370D01*
X175952713Y-121830687D01*
X175962569Y-121822147D01*
X176009476Y-121785636D01*
X176059550Y-121746663D01*
X176226286Y-121565540D01*
X176226288Y-121565537D01*
X176272974Y-121494079D01*
X176326121Y-121448722D01*
X176376783Y-121437900D01*
X176972279Y-121437900D01*
X177039318Y-121457585D01*
G37*
%TD.AperFunction*%
%TA.AperFunction,Conductor*%
G36*
X160465469Y-59120185D02*
G01*
X160486111Y-59136819D01*
X182263181Y-80913888D01*
X182296666Y-80975211D01*
X182299500Y-81001569D01*
X182299500Y-142475500D01*
X182279815Y-142542539D01*
X182227011Y-142588294D01*
X182175500Y-142599500D01*
X102851569Y-142599500D01*
X102784530Y-142579815D01*
X102763888Y-142563181D01*
X93535713Y-133335006D01*
X104879580Y-133335006D01*
X104899223Y-133572077D01*
X104899225Y-133572088D01*
X104957625Y-133802702D01*
X105053188Y-134020565D01*
X105183304Y-134219721D01*
X105183307Y-134219725D01*
X105344432Y-134394753D01*
X105344436Y-134394756D01*
X105532156Y-134540865D01*
X105532162Y-134540869D01*
X105532165Y-134540871D01*
X105741390Y-134654098D01*
X105966398Y-134731344D01*
X106201051Y-134770500D01*
X106438949Y-134770500D01*
X106673602Y-134731344D01*
X106898610Y-134654098D01*
X107107835Y-134540871D01*
X107295570Y-134394751D01*
X107456694Y-134219724D01*
X107586812Y-134020564D01*
X107682374Y-133802704D01*
X107740775Y-133572085D01*
X107740776Y-133572077D01*
X107760420Y-133335006D01*
X107760420Y-133334993D01*
X107740776Y-133097922D01*
X107740774Y-133097911D01*
X107682374Y-132867297D01*
X107586811Y-132649434D01*
X107459429Y-132454462D01*
X107456694Y-132450276D01*
X107295570Y-132275249D01*
X107151162Y-132162852D01*
X107110351Y-132106143D01*
X107106676Y-132036370D01*
X107141307Y-131975687D01*
X107151156Y-131967152D01*
X107295570Y-131854751D01*
X107456694Y-131679724D01*
X107586812Y-131480564D01*
X107682374Y-131262704D01*
X107740775Y-131032085D01*
X107740776Y-131032077D01*
X107760420Y-130795006D01*
X107760420Y-130794993D01*
X107740776Y-130557922D01*
X107740774Y-130557911D01*
X107682374Y-130327297D01*
X107586811Y-130109434D01*
X107459429Y-129914462D01*
X107456694Y-129910276D01*
X107295570Y-129735249D01*
X107151162Y-129622852D01*
X107110351Y-129566143D01*
X107106676Y-129496370D01*
X107141307Y-129435687D01*
X107151156Y-129427152D01*
X107295570Y-129314751D01*
X107456694Y-129139724D01*
X107586812Y-128940564D01*
X107682374Y-128722704D01*
X107740775Y-128492085D01*
X107759177Y-128270005D01*
X107760420Y-128255006D01*
X107760420Y-128254993D01*
X107740776Y-128017922D01*
X107740774Y-128017911D01*
X107682374Y-127787297D01*
X107681808Y-127786007D01*
X107586812Y-127569436D01*
X107456694Y-127370276D01*
X107295570Y-127195249D01*
X107151162Y-127082852D01*
X107110351Y-127026143D01*
X107106676Y-126956370D01*
X107141307Y-126895687D01*
X107151156Y-126887152D01*
X107295570Y-126774751D01*
X107456694Y-126599724D01*
X107586812Y-126400564D01*
X107682374Y-126182704D01*
X107740775Y-125952085D01*
X107740776Y-125952077D01*
X107760420Y-125715006D01*
X107760420Y-125714993D01*
X107740776Y-125477922D01*
X107740774Y-125477911D01*
X107720842Y-125399202D01*
X107682374Y-125247296D01*
X107586812Y-125029436D01*
X107570145Y-125003926D01*
X107470988Y-124852155D01*
X107456694Y-124830276D01*
X107295570Y-124655249D01*
X107151162Y-124542852D01*
X107110351Y-124486143D01*
X107106676Y-124416370D01*
X107141307Y-124355687D01*
X107151156Y-124347152D01*
X107295570Y-124234751D01*
X107456694Y-124059724D01*
X107586812Y-123860564D01*
X107682374Y-123642704D01*
X107740775Y-123412085D01*
X107759177Y-123190005D01*
X107760420Y-123175006D01*
X107760420Y-123174993D01*
X107740776Y-122937922D01*
X107740774Y-122937911D01*
X107682374Y-122707297D01*
X107681808Y-122706007D01*
X107586812Y-122489436D01*
X107456694Y-122290276D01*
X107295570Y-122115249D01*
X107151162Y-122002852D01*
X107110351Y-121946143D01*
X107106676Y-121876370D01*
X107141307Y-121815687D01*
X107151156Y-121807152D01*
X107295570Y-121694751D01*
X107456694Y-121519724D01*
X107586812Y-121320564D01*
X107682374Y-121102704D01*
X107740775Y-120872085D01*
X107759177Y-120650005D01*
X107760420Y-120635006D01*
X107760420Y-120634993D01*
X107740776Y-120397922D01*
X107740774Y-120397911D01*
X107682374Y-120167297D01*
X107681808Y-120166007D01*
X107586812Y-119949436D01*
X107577795Y-119935635D01*
X107456695Y-119750278D01*
X107456694Y-119750276D01*
X107295570Y-119575249D01*
X107151162Y-119462852D01*
X107110351Y-119406143D01*
X107106676Y-119336370D01*
X107141307Y-119275687D01*
X107151156Y-119267152D01*
X107295570Y-119154751D01*
X107456694Y-118979724D01*
X107586812Y-118780564D01*
X107682374Y-118562704D01*
X107740775Y-118332085D01*
X107759177Y-118110005D01*
X107760420Y-118095006D01*
X107760420Y-118094993D01*
X107740776Y-117857922D01*
X107740774Y-117857911D01*
X107682374Y-117627297D01*
X107681808Y-117626007D01*
X107586812Y-117409436D01*
X107456694Y-117210276D01*
X107295570Y-117035249D01*
X107151162Y-116922852D01*
X107110351Y-116866143D01*
X107106676Y-116796370D01*
X107141307Y-116735687D01*
X107151156Y-116727152D01*
X107295570Y-116614751D01*
X107456694Y-116439724D01*
X107586812Y-116240564D01*
X107682374Y-116022704D01*
X107740775Y-115792085D01*
X107760420Y-115555000D01*
X107760420Y-115554993D01*
X107740776Y-115317922D01*
X107740774Y-115317911D01*
X107682374Y-115087297D01*
X107586811Y-114869434D01*
X107512882Y-114756278D01*
X107456694Y-114670276D01*
X107295570Y-114495249D01*
X107295569Y-114495248D01*
X107295567Y-114495246D01*
X107295563Y-114495243D01*
X107107843Y-114349134D01*
X107107837Y-114349130D01*
X106898611Y-114235902D01*
X106898602Y-114235899D01*
X106673604Y-114158656D01*
X106438949Y-114119500D01*
X106201051Y-114119500D01*
X105966395Y-114158656D01*
X105741397Y-114235899D01*
X105741388Y-114235902D01*
X105532162Y-114349130D01*
X105532156Y-114349134D01*
X105344436Y-114495243D01*
X105344432Y-114495246D01*
X105183307Y-114670274D01*
X105183304Y-114670278D01*
X105053188Y-114869434D01*
X104957625Y-115087297D01*
X104899225Y-115317911D01*
X104899223Y-115317922D01*
X104879580Y-115554993D01*
X104879580Y-115555006D01*
X104899223Y-115792077D01*
X104899225Y-115792088D01*
X104957625Y-116022702D01*
X105053188Y-116240565D01*
X105132908Y-116362585D01*
X105183306Y-116439724D01*
X105344430Y-116614751D01*
X105488837Y-116727147D01*
X105529649Y-116783857D01*
X105533324Y-116853630D01*
X105498693Y-116914313D01*
X105488843Y-116922847D01*
X105401924Y-116990500D01*
X105344431Y-117035248D01*
X105183307Y-117210274D01*
X105183304Y-117210278D01*
X105053188Y-117409434D01*
X104957625Y-117627297D01*
X104899225Y-117857911D01*
X104899223Y-117857922D01*
X104879580Y-118094993D01*
X104879580Y-118095006D01*
X104899223Y-118332077D01*
X104899225Y-118332088D01*
X104957625Y-118562702D01*
X105053188Y-118780565D01*
X105183304Y-118979721D01*
X105183306Y-118979724D01*
X105344430Y-119154751D01*
X105488837Y-119267147D01*
X105529649Y-119323857D01*
X105533324Y-119393630D01*
X105498693Y-119454313D01*
X105488843Y-119462847D01*
X105379571Y-119547897D01*
X105344431Y-119575248D01*
X105183307Y-119750274D01*
X105183304Y-119750278D01*
X105053188Y-119949434D01*
X104957625Y-120167297D01*
X104899225Y-120397911D01*
X104899223Y-120397922D01*
X104879580Y-120634993D01*
X104879580Y-120635006D01*
X104899223Y-120872077D01*
X104899225Y-120872088D01*
X104957625Y-121102702D01*
X105053188Y-121320565D01*
X105145087Y-121461226D01*
X105183306Y-121519724D01*
X105344430Y-121694751D01*
X105488837Y-121807147D01*
X105529649Y-121863857D01*
X105533324Y-121933630D01*
X105498693Y-121994313D01*
X105488843Y-122002847D01*
X105379571Y-122087897D01*
X105344431Y-122115248D01*
X105183307Y-122290274D01*
X105183304Y-122290278D01*
X105053188Y-122489434D01*
X104957625Y-122707297D01*
X104899225Y-122937911D01*
X104899223Y-122937922D01*
X104879580Y-123174993D01*
X104879580Y-123175006D01*
X104899223Y-123412077D01*
X104899225Y-123412088D01*
X104957625Y-123642702D01*
X105053188Y-123860565D01*
X105183304Y-124059721D01*
X105183306Y-124059724D01*
X105344430Y-124234751D01*
X105488837Y-124347147D01*
X105529649Y-124403857D01*
X105533324Y-124473630D01*
X105498693Y-124534313D01*
X105488843Y-124542847D01*
X105422799Y-124594252D01*
X105344431Y-124655248D01*
X105183307Y-124830274D01*
X105183304Y-124830278D01*
X105053188Y-125029434D01*
X104957625Y-125247297D01*
X104899225Y-125477911D01*
X104899223Y-125477922D01*
X104879580Y-125714993D01*
X104879580Y-125715006D01*
X104899223Y-125952077D01*
X104899225Y-125952088D01*
X104957625Y-126182702D01*
X105053188Y-126400565D01*
X105057770Y-126407578D01*
X105183306Y-126599724D01*
X105344430Y-126774751D01*
X105488837Y-126887147D01*
X105529649Y-126943857D01*
X105533324Y-127013630D01*
X105498693Y-127074313D01*
X105488843Y-127082847D01*
X105436526Y-127123568D01*
X105344431Y-127195248D01*
X105183307Y-127370274D01*
X105183304Y-127370278D01*
X105053188Y-127569434D01*
X104957625Y-127787297D01*
X104899225Y-128017911D01*
X104899223Y-128017922D01*
X104879580Y-128254993D01*
X104879580Y-128255006D01*
X104899223Y-128492077D01*
X104899225Y-128492088D01*
X104957625Y-128722702D01*
X105053188Y-128940565D01*
X105155775Y-129097585D01*
X105183306Y-129139724D01*
X105344430Y-129314751D01*
X105488837Y-129427147D01*
X105529649Y-129483857D01*
X105533324Y-129553630D01*
X105498693Y-129614313D01*
X105488843Y-129622847D01*
X105397401Y-129694020D01*
X105344431Y-129735248D01*
X105183307Y-129910274D01*
X105183304Y-129910278D01*
X105053188Y-130109434D01*
X104957625Y-130327297D01*
X104899225Y-130557911D01*
X104899223Y-130557922D01*
X104879580Y-130794993D01*
X104879580Y-130795006D01*
X104899223Y-131032077D01*
X104899225Y-131032088D01*
X104957625Y-131262702D01*
X105053188Y-131480565D01*
X105091656Y-131539444D01*
X105183306Y-131679724D01*
X105344430Y-131854751D01*
X105488837Y-131967147D01*
X105529649Y-132023857D01*
X105533324Y-132093630D01*
X105498693Y-132154313D01*
X105488843Y-132162847D01*
X105379571Y-132247897D01*
X105344431Y-132275248D01*
X105183307Y-132450274D01*
X105183304Y-132450278D01*
X105053188Y-132649434D01*
X104957625Y-132867297D01*
X104899225Y-133097911D01*
X104899223Y-133097922D01*
X104879580Y-133334993D01*
X104879580Y-133335006D01*
X93535713Y-133335006D01*
X67236819Y-107036111D01*
X67203334Y-106974788D01*
X67200500Y-106948430D01*
X67200500Y-92500000D01*
X71194551Y-92500000D01*
X71196653Y-92526702D01*
X71202275Y-92598142D01*
X71202466Y-92603008D01*
X71202466Y-92625734D01*
X71206019Y-92648167D01*
X71206592Y-92653002D01*
X71210603Y-92703959D01*
X71214317Y-92751148D01*
X71214317Y-92751151D01*
X71214318Y-92751153D01*
X71237296Y-92846867D01*
X71238246Y-92851642D01*
X71241801Y-92874090D01*
X71248824Y-92895705D01*
X71250146Y-92900390D01*
X71273127Y-92996114D01*
X71310797Y-93087057D01*
X71312482Y-93091623D01*
X71316904Y-93105229D01*
X71319507Y-93113240D01*
X71319508Y-93113243D01*
X71319509Y-93113244D01*
X71329821Y-93133484D01*
X71331858Y-93137904D01*
X71369532Y-93228857D01*
X71420973Y-93312803D01*
X71423351Y-93317048D01*
X71430514Y-93331104D01*
X71433666Y-93337290D01*
X71433667Y-93337292D01*
X71447017Y-93355667D01*
X71449722Y-93359714D01*
X71499021Y-93440163D01*
X71501164Y-93443659D01*
X71530427Y-93477922D01*
X71565094Y-93518511D01*
X71568107Y-93522332D01*
X71581469Y-93540724D01*
X71597547Y-93556802D01*
X71600832Y-93560355D01*
X71664776Y-93635224D01*
X71739639Y-93699163D01*
X71743202Y-93702457D01*
X71759276Y-93718531D01*
X71777654Y-93731883D01*
X71777665Y-93731891D01*
X71781471Y-93734891D01*
X71856341Y-93798836D01*
X71856343Y-93798837D01*
X71856344Y-93798838D01*
X71856345Y-93798839D01*
X71940277Y-93850272D01*
X71944325Y-93852977D01*
X71944335Y-93852984D01*
X71962710Y-93866334D01*
X71982961Y-93876652D01*
X71987179Y-93879014D01*
X72071141Y-93930466D01*
X72071143Y-93930466D01*
X72071145Y-93930468D01*
X72112908Y-93947766D01*
X72162101Y-93968142D01*
X72166515Y-93970178D01*
X72174608Y-93974301D01*
X72186760Y-93980493D01*
X72208380Y-93987517D01*
X72212923Y-93989194D01*
X72303889Y-94026873D01*
X72399627Y-94049857D01*
X72404289Y-94051172D01*
X72425910Y-94058198D01*
X72425911Y-94058198D01*
X72425914Y-94058199D01*
X72434646Y-94059581D01*
X72448367Y-94061754D01*
X72453107Y-94062696D01*
X72548852Y-94085683D01*
X72647024Y-94093409D01*
X72651795Y-94093974D01*
X72674271Y-94097534D01*
X72674275Y-94097534D01*
X72696992Y-94097534D01*
X72701858Y-94097725D01*
X72800000Y-94105449D01*
X72898142Y-94097725D01*
X72903008Y-94097534D01*
X72925725Y-94097534D01*
X72925729Y-94097534D01*
X72948204Y-94093974D01*
X72952975Y-94093409D01*
X73051148Y-94085683D01*
X73146897Y-94062695D01*
X73151627Y-94061755D01*
X73174090Y-94058198D01*
X73195737Y-94051164D01*
X73200351Y-94049862D01*
X73296111Y-94026873D01*
X73387090Y-93989188D01*
X73391599Y-93987524D01*
X73413240Y-93980493D01*
X73433508Y-93970165D01*
X73437863Y-93968157D01*
X73528859Y-93930466D01*
X73612833Y-93879006D01*
X73617018Y-93876662D01*
X73637290Y-93866334D01*
X73655684Y-93852969D01*
X73659707Y-93850281D01*
X73743659Y-93798836D01*
X73818547Y-93734875D01*
X73822314Y-93731906D01*
X73840724Y-93718531D01*
X73856819Y-93702435D01*
X73860347Y-93699174D01*
X73935224Y-93635224D01*
X73999174Y-93560347D01*
X74002435Y-93556819D01*
X74018531Y-93540724D01*
X74031906Y-93522314D01*
X74034875Y-93518547D01*
X74098836Y-93443659D01*
X74150281Y-93359707D01*
X74152969Y-93355684D01*
X74166334Y-93337290D01*
X74176662Y-93317018D01*
X74179006Y-93312833D01*
X74230466Y-93228859D01*
X74268157Y-93137863D01*
X74270165Y-93133508D01*
X74280493Y-93113240D01*
X74287524Y-93091599D01*
X74289188Y-93087090D01*
X74326873Y-92996111D01*
X74349862Y-92900351D01*
X74351164Y-92895737D01*
X74358198Y-92874090D01*
X74360824Y-92857505D01*
X85736219Y-92857505D01*
X85756745Y-93105229D01*
X85756747Y-93105238D01*
X85817772Y-93346217D01*
X85917626Y-93573864D01*
X86017924Y-93727382D01*
X86758283Y-92987023D01*
X86781867Y-93067344D01*
X86859599Y-93188298D01*
X86968260Y-93282452D01*
X87099045Y-93342180D01*
X87108826Y-93343586D01*
X86371302Y-94081109D01*
X86418128Y-94117555D01*
X86418130Y-94117556D01*
X86636745Y-94235864D01*
X86636756Y-94235869D01*
X86871866Y-94316583D01*
X87117067Y-94357500D01*
X87365653Y-94357500D01*
X87610853Y-94316583D01*
X87845963Y-94235869D01*
X87845974Y-94235864D01*
X88064588Y-94117557D01*
X88064591Y-94117555D01*
X88111416Y-94081109D01*
X87373893Y-93343586D01*
X87383675Y-93342180D01*
X87514460Y-93282452D01*
X87623121Y-93188298D01*
X87700853Y-93067344D01*
X87724436Y-92987024D01*
X88464794Y-93727382D01*
X88565091Y-93573869D01*
X88664947Y-93346217D01*
X88725972Y-93105238D01*
X88725974Y-93105229D01*
X88746501Y-92857505D01*
X88746501Y-92857494D01*
X88725974Y-92609770D01*
X88725972Y-92609761D01*
X88664947Y-92368782D01*
X88565091Y-92141130D01*
X88464794Y-91987616D01*
X87724436Y-92727975D01*
X87700853Y-92647656D01*
X87623121Y-92526702D01*
X87514460Y-92432548D01*
X87383675Y-92372820D01*
X87373894Y-92371413D01*
X88111417Y-91633890D01*
X88111416Y-91633889D01*
X88064589Y-91597443D01*
X87845974Y-91479135D01*
X87845963Y-91479130D01*
X87610853Y-91398416D01*
X87365653Y-91357500D01*
X87117067Y-91357500D01*
X86871866Y-91398416D01*
X86636756Y-91479130D01*
X86636750Y-91479132D01*
X86418121Y-91597449D01*
X86371302Y-91633888D01*
X86371302Y-91633890D01*
X87108826Y-92371413D01*
X87099045Y-92372820D01*
X86968260Y-92432548D01*
X86859599Y-92526702D01*
X86781867Y-92647656D01*
X86758283Y-92727975D01*
X86017924Y-91987616D01*
X85917627Y-92141132D01*
X85817772Y-92368782D01*
X85756747Y-92609761D01*
X85756745Y-92609770D01*
X85736219Y-92857494D01*
X85736219Y-92857505D01*
X74360824Y-92857505D01*
X74361755Y-92851627D01*
X74362695Y-92846897D01*
X74385683Y-92751148D01*
X74393409Y-92652978D01*
X74393974Y-92648201D01*
X74397534Y-92625729D01*
X74398155Y-92594043D01*
X74398334Y-92590401D01*
X74400117Y-92567747D01*
X74405449Y-92500000D01*
X74398333Y-92409593D01*
X74398155Y-92405946D01*
X74397979Y-92396990D01*
X74397534Y-92374271D01*
X74393974Y-92351798D01*
X74393409Y-92347021D01*
X74385683Y-92248852D01*
X74362696Y-92153107D01*
X74361753Y-92148357D01*
X74358198Y-92125913D01*
X74358198Y-92125911D01*
X74358195Y-92125903D01*
X74351172Y-92104289D01*
X74349857Y-92099627D01*
X74326873Y-92003889D01*
X74289194Y-91912923D01*
X74287517Y-91908380D01*
X74280493Y-91886760D01*
X74270178Y-91866515D01*
X74268139Y-91862093D01*
X74230468Y-91771145D01*
X74230466Y-91771141D01*
X74179014Y-91687179D01*
X74176649Y-91682955D01*
X74166337Y-91662716D01*
X74166334Y-91662710D01*
X74158039Y-91651293D01*
X74152977Y-91644325D01*
X74150272Y-91640277D01*
X74146357Y-91633889D01*
X74124027Y-91597449D01*
X74098839Y-91556345D01*
X74098838Y-91556344D01*
X74098837Y-91556343D01*
X74098836Y-91556341D01*
X74034891Y-91481471D01*
X74031891Y-91477665D01*
X74018531Y-91459276D01*
X74002453Y-91443198D01*
X73999163Y-91439639D01*
X73935224Y-91364776D01*
X73860355Y-91300832D01*
X73856799Y-91297544D01*
X73840724Y-91281469D01*
X73822332Y-91268107D01*
X73818511Y-91265094D01*
X73743667Y-91201171D01*
X73743659Y-91201164D01*
X73743654Y-91201161D01*
X73743653Y-91201160D01*
X73659714Y-91149722D01*
X73655667Y-91147017D01*
X73637292Y-91133667D01*
X73637290Y-91133666D01*
X73631104Y-91130514D01*
X73617048Y-91123351D01*
X73612803Y-91120973D01*
X73528857Y-91069532D01*
X73437904Y-91031858D01*
X73433484Y-91029821D01*
X73413244Y-91019509D01*
X73413243Y-91019508D01*
X73413240Y-91019507D01*
X73409126Y-91018170D01*
X73391623Y-91012482D01*
X73387057Y-91010797D01*
X73296114Y-90973127D01*
X73200390Y-90950146D01*
X73195705Y-90948824D01*
X73174090Y-90941801D01*
X73151642Y-90938246D01*
X73146867Y-90937296D01*
X73051152Y-90914318D01*
X73051153Y-90914318D01*
X73051151Y-90914317D01*
X73051148Y-90914317D01*
X73003959Y-90910603D01*
X72953002Y-90906592D01*
X72948167Y-90906019D01*
X72925734Y-90902466D01*
X72925729Y-90902466D01*
X72903008Y-90902466D01*
X72898142Y-90902275D01*
X72800000Y-90894551D01*
X72701858Y-90902275D01*
X72696992Y-90902466D01*
X72674271Y-90902466D01*
X72651833Y-90906019D01*
X72646998Y-90906592D01*
X72548851Y-90914317D01*
X72548844Y-90914318D01*
X72453132Y-90937296D01*
X72448357Y-90938246D01*
X72425913Y-90941801D01*
X72425903Y-90941803D01*
X72404299Y-90948823D01*
X72399612Y-90950145D01*
X72303891Y-90973125D01*
X72212938Y-91010799D01*
X72208373Y-91012483D01*
X72186757Y-91019507D01*
X72166515Y-91029820D01*
X72162098Y-91031856D01*
X72071141Y-91069534D01*
X71987201Y-91120970D01*
X71982958Y-91123347D01*
X71962716Y-91133662D01*
X71962708Y-91133667D01*
X71944330Y-91147018D01*
X71940286Y-91149720D01*
X71856339Y-91201165D01*
X71781482Y-91265098D01*
X71777660Y-91268111D01*
X71759276Y-91281469D01*
X71743198Y-91297544D01*
X71739626Y-91300846D01*
X71664775Y-91364775D01*
X71600846Y-91439626D01*
X71597544Y-91443198D01*
X71581469Y-91459276D01*
X71568111Y-91477660D01*
X71565098Y-91481482D01*
X71501165Y-91556339D01*
X71449720Y-91640286D01*
X71447018Y-91644330D01*
X71433667Y-91662708D01*
X71433662Y-91662716D01*
X71423347Y-91682958D01*
X71420970Y-91687201D01*
X71369534Y-91771141D01*
X71331856Y-91862098D01*
X71329820Y-91866515D01*
X71319507Y-91886757D01*
X71312483Y-91908373D01*
X71310799Y-91912938D01*
X71273125Y-92003891D01*
X71250145Y-92099612D01*
X71248823Y-92104299D01*
X71241803Y-92125903D01*
X71241801Y-92125913D01*
X71238246Y-92148357D01*
X71237296Y-92153132D01*
X71214318Y-92248844D01*
X71214317Y-92248851D01*
X71206592Y-92346998D01*
X71206019Y-92351833D01*
X71202466Y-92374270D01*
X71202466Y-92396990D01*
X71202275Y-92401856D01*
X71194551Y-92499999D01*
X71194551Y-92500000D01*
X67200500Y-92500000D01*
X67200500Y-87499999D01*
X71194551Y-87499999D01*
X71202275Y-87598142D01*
X71202466Y-87603008D01*
X71202466Y-87625734D01*
X71206019Y-87648167D01*
X71206592Y-87653002D01*
X71210603Y-87703959D01*
X71214317Y-87751148D01*
X71214317Y-87751151D01*
X71214318Y-87751153D01*
X71237296Y-87846867D01*
X71238246Y-87851642D01*
X71241801Y-87874090D01*
X71248824Y-87895705D01*
X71250146Y-87900390D01*
X71273127Y-87996114D01*
X71310797Y-88087057D01*
X71312482Y-88091623D01*
X71318170Y-88109126D01*
X71319507Y-88113240D01*
X71319508Y-88113243D01*
X71319509Y-88113244D01*
X71329821Y-88133484D01*
X71331858Y-88137904D01*
X71369532Y-88228857D01*
X71420973Y-88312803D01*
X71423351Y-88317048D01*
X71430514Y-88331104D01*
X71433666Y-88337290D01*
X71433667Y-88337292D01*
X71447017Y-88355667D01*
X71449722Y-88359714D01*
X71499021Y-88440163D01*
X71501164Y-88443659D01*
X71501171Y-88443667D01*
X71565094Y-88518511D01*
X71568107Y-88522332D01*
X71581469Y-88540724D01*
X71597547Y-88556802D01*
X71600832Y-88560355D01*
X71664776Y-88635224D01*
X71739639Y-88699163D01*
X71743202Y-88702457D01*
X71759276Y-88718531D01*
X71777654Y-88731883D01*
X71777665Y-88731891D01*
X71781471Y-88734891D01*
X71856341Y-88798836D01*
X71856343Y-88798837D01*
X71856344Y-88798838D01*
X71856345Y-88798839D01*
X71940277Y-88850272D01*
X71944325Y-88852977D01*
X71944335Y-88852984D01*
X71962710Y-88866334D01*
X71982961Y-88876652D01*
X71987179Y-88879014D01*
X72071141Y-88930466D01*
X72071143Y-88930466D01*
X72071145Y-88930468D01*
X72112908Y-88947766D01*
X72162101Y-88968142D01*
X72166515Y-88970178D01*
X72174608Y-88974301D01*
X72186760Y-88980493D01*
X72208380Y-88987517D01*
X72212923Y-88989194D01*
X72303889Y-89026873D01*
X72399627Y-89049857D01*
X72404289Y-89051172D01*
X72425910Y-89058198D01*
X72425911Y-89058198D01*
X72425914Y-89058199D01*
X72434646Y-89059581D01*
X72448367Y-89061754D01*
X72453107Y-89062696D01*
X72548852Y-89085683D01*
X72647024Y-89093409D01*
X72651795Y-89093974D01*
X72674271Y-89097534D01*
X72674275Y-89097534D01*
X72696992Y-89097534D01*
X72701858Y-89097725D01*
X72800000Y-89105449D01*
X72898142Y-89097725D01*
X72903008Y-89097534D01*
X72925725Y-89097534D01*
X72925729Y-89097534D01*
X72948204Y-89093974D01*
X72952975Y-89093409D01*
X73051148Y-89085683D01*
X73146897Y-89062695D01*
X73151627Y-89061755D01*
X73174090Y-89058198D01*
X73195737Y-89051164D01*
X73200351Y-89049862D01*
X73296111Y-89026873D01*
X73387090Y-88989188D01*
X73391599Y-88987524D01*
X73413240Y-88980493D01*
X73433508Y-88970165D01*
X73437863Y-88968157D01*
X73528859Y-88930466D01*
X73612833Y-88879006D01*
X73617018Y-88876662D01*
X73637290Y-88866334D01*
X73655684Y-88852969D01*
X73659707Y-88850281D01*
X73743659Y-88798836D01*
X73818547Y-88734875D01*
X73822314Y-88731906D01*
X73840724Y-88718531D01*
X73856819Y-88702435D01*
X73860347Y-88699174D01*
X73935224Y-88635224D01*
X73999174Y-88560347D01*
X74002435Y-88556819D01*
X74018531Y-88540724D01*
X74031906Y-88522314D01*
X74034875Y-88518547D01*
X74098836Y-88443659D01*
X74150281Y-88359707D01*
X74152969Y-88355684D01*
X74166334Y-88337290D01*
X74176662Y-88317018D01*
X74179006Y-88312833D01*
X74230466Y-88228859D01*
X74268157Y-88137863D01*
X74270165Y-88133508D01*
X74280493Y-88113240D01*
X74287524Y-88091599D01*
X74289188Y-88087090D01*
X74326873Y-87996111D01*
X74349862Y-87900351D01*
X74351164Y-87895737D01*
X74358198Y-87874090D01*
X74361755Y-87851627D01*
X74362695Y-87846897D01*
X74385683Y-87751148D01*
X74393409Y-87652978D01*
X74393974Y-87648201D01*
X74397534Y-87625729D01*
X74398155Y-87594043D01*
X74398334Y-87590401D01*
X74405449Y-87500000D01*
X74398333Y-87409593D01*
X74398155Y-87405946D01*
X74397979Y-87396990D01*
X74397534Y-87374271D01*
X74393974Y-87351798D01*
X74393409Y-87347021D01*
X74385683Y-87248852D01*
X74362696Y-87153107D01*
X74361753Y-87148357D01*
X74358198Y-87125913D01*
X74358198Y-87125911D01*
X74358195Y-87125903D01*
X74351172Y-87104289D01*
X74349857Y-87099627D01*
X74326873Y-87003889D01*
X74289194Y-86912923D01*
X74287517Y-86908380D01*
X74280493Y-86886760D01*
X74270178Y-86866515D01*
X74268139Y-86862093D01*
X74230468Y-86771145D01*
X74230466Y-86771141D01*
X74179014Y-86687179D01*
X74176649Y-86682955D01*
X74166337Y-86662716D01*
X74166334Y-86662710D01*
X74158039Y-86651293D01*
X74152977Y-86644325D01*
X74150272Y-86640277D01*
X74098839Y-86556345D01*
X74098838Y-86556344D01*
X74098837Y-86556343D01*
X74098836Y-86556341D01*
X74034891Y-86481471D01*
X74031891Y-86477665D01*
X74018531Y-86459276D01*
X74002453Y-86443198D01*
X73999163Y-86439639D01*
X73935224Y-86364776D01*
X73860355Y-86300832D01*
X73856799Y-86297544D01*
X73840724Y-86281469D01*
X73822332Y-86268107D01*
X73818511Y-86265094D01*
X73743667Y-86201171D01*
X73743659Y-86201164D01*
X73743654Y-86201161D01*
X73743653Y-86201160D01*
X73659714Y-86149722D01*
X73655667Y-86147017D01*
X73637292Y-86133667D01*
X73637290Y-86133666D01*
X73631104Y-86130514D01*
X73617048Y-86123351D01*
X73612803Y-86120973D01*
X73528857Y-86069532D01*
X73437904Y-86031858D01*
X73433484Y-86029821D01*
X73413244Y-86019509D01*
X73413243Y-86019508D01*
X73413240Y-86019507D01*
X73409126Y-86018170D01*
X73391623Y-86012482D01*
X73387057Y-86010797D01*
X73296114Y-85973127D01*
X73200390Y-85950146D01*
X73195705Y-85948824D01*
X73174090Y-85941801D01*
X73151642Y-85938246D01*
X73146867Y-85937296D01*
X73051152Y-85914318D01*
X73051153Y-85914318D01*
X73051151Y-85914317D01*
X73051148Y-85914317D01*
X73003959Y-85910603D01*
X72953002Y-85906592D01*
X72948167Y-85906019D01*
X72925734Y-85902466D01*
X72925729Y-85902466D01*
X72903008Y-85902466D01*
X72898142Y-85902275D01*
X72800000Y-85894551D01*
X72701858Y-85902275D01*
X72696992Y-85902466D01*
X72674271Y-85902466D01*
X72651833Y-85906019D01*
X72646998Y-85906592D01*
X72548851Y-85914317D01*
X72548844Y-85914318D01*
X72453132Y-85937296D01*
X72448357Y-85938246D01*
X72425913Y-85941801D01*
X72425903Y-85941803D01*
X72404299Y-85948823D01*
X72399612Y-85950145D01*
X72303891Y-85973125D01*
X72212938Y-86010799D01*
X72208373Y-86012483D01*
X72186757Y-86019507D01*
X72166515Y-86029820D01*
X72162098Y-86031856D01*
X72071141Y-86069534D01*
X71987201Y-86120970D01*
X71982958Y-86123347D01*
X71962716Y-86133662D01*
X71962708Y-86133667D01*
X71944330Y-86147018D01*
X71940286Y-86149720D01*
X71856339Y-86201165D01*
X71781482Y-86265098D01*
X71777660Y-86268111D01*
X71759276Y-86281469D01*
X71743198Y-86297544D01*
X71739626Y-86300846D01*
X71664775Y-86364775D01*
X71600846Y-86439626D01*
X71597544Y-86443198D01*
X71581469Y-86459276D01*
X71568111Y-86477660D01*
X71565098Y-86481482D01*
X71501165Y-86556339D01*
X71449720Y-86640286D01*
X71447018Y-86644330D01*
X71433667Y-86662708D01*
X71433662Y-86662716D01*
X71423347Y-86682958D01*
X71420970Y-86687201D01*
X71369534Y-86771141D01*
X71331856Y-86862098D01*
X71329820Y-86866515D01*
X71319507Y-86886757D01*
X71312483Y-86908373D01*
X71310799Y-86912938D01*
X71273125Y-87003891D01*
X71250145Y-87099612D01*
X71248823Y-87104299D01*
X71241803Y-87125903D01*
X71241801Y-87125913D01*
X71238246Y-87148357D01*
X71237296Y-87153132D01*
X71214318Y-87248844D01*
X71214317Y-87248851D01*
X71206592Y-87346998D01*
X71206019Y-87351833D01*
X71202466Y-87374270D01*
X71202466Y-87396990D01*
X71202275Y-87401856D01*
X71194551Y-87499999D01*
X67200500Y-87499999D01*
X67200500Y-76846149D01*
X76662100Y-76846149D01*
X76662101Y-76846181D01*
X76662101Y-76888776D01*
X76671232Y-76928787D01*
X76672396Y-76935634D01*
X76676994Y-76976434D01*
X76676995Y-76976436D01*
X76690552Y-77015185D01*
X76692478Y-77021869D01*
X76701609Y-77061874D01*
X76719412Y-77098844D01*
X76722075Y-77105271D01*
X76735633Y-77144018D01*
X76757472Y-77178774D01*
X76760837Y-77184864D01*
X76778643Y-77221837D01*
X76804233Y-77253926D01*
X76808260Y-77259601D01*
X76830094Y-77294352D01*
X76830096Y-77294354D01*
X76830097Y-77294355D01*
X76830098Y-77294356D01*
X76860311Y-77324569D01*
X76860348Y-77324608D01*
X78761585Y-79225844D01*
X83975689Y-84439949D01*
X83975719Y-84439977D01*
X84005644Y-84469902D01*
X84040393Y-84491736D01*
X84046068Y-84495763D01*
X84078160Y-84521356D01*
X84115148Y-84539168D01*
X84121225Y-84542527D01*
X84155980Y-84564365D01*
X84179516Y-84572600D01*
X84194720Y-84577921D01*
X84201139Y-84580579D01*
X84238127Y-84598391D01*
X84275152Y-84606841D01*
X84278136Y-84607522D01*
X84284819Y-84609447D01*
X84323566Y-84623006D01*
X84364362Y-84627602D01*
X84371214Y-84628766D01*
X84411226Y-84637899D01*
X84454028Y-84637899D01*
X84454064Y-84637900D01*
X84455756Y-84637900D01*
X84808433Y-84637900D01*
X84875472Y-84657585D01*
X84914161Y-84697111D01*
X84953243Y-84760888D01*
X84971487Y-84828334D01*
X84950370Y-84894936D01*
X84917823Y-84925633D01*
X84918563Y-84926586D01*
X84912399Y-84931367D01*
X84798869Y-85044896D01*
X84798863Y-85044904D01*
X84717131Y-85183106D01*
X84717129Y-85183111D01*
X84672335Y-85337291D01*
X84672334Y-85337297D01*
X84669500Y-85373317D01*
X84669501Y-87406680D01*
X84672335Y-87442704D01*
X84717129Y-87596888D01*
X84717131Y-87596893D01*
X84798863Y-87735095D01*
X84798869Y-87735103D01*
X84912396Y-87848630D01*
X84912400Y-87848633D01*
X84912402Y-87848635D01*
X85050607Y-87930369D01*
X85091268Y-87942182D01*
X85204791Y-87975164D01*
X85204794Y-87975164D01*
X85204796Y-87975165D01*
X85216803Y-87976110D01*
X85240817Y-87978000D01*
X85240818Y-87977999D01*
X85240819Y-87978000D01*
X87369180Y-87977999D01*
X87405204Y-87975165D01*
X87559393Y-87930369D01*
X87697598Y-87848635D01*
X87811135Y-87735098D01*
X87892869Y-87596893D01*
X87937665Y-87442704D01*
X87939082Y-87424692D01*
X87940500Y-87406683D01*
X87940500Y-87301900D01*
X87960185Y-87234861D01*
X88012989Y-87189106D01*
X88064500Y-87177900D01*
X92162279Y-87177900D01*
X92229318Y-87197585D01*
X92249960Y-87214219D01*
X94945781Y-89910040D01*
X94979266Y-89971363D01*
X94982100Y-89997721D01*
X94982100Y-90144298D01*
X94962415Y-90211337D01*
X94929226Y-90245871D01*
X94908283Y-90260536D01*
X94908274Y-90260543D01*
X94743041Y-90425776D01*
X94743036Y-90425782D01*
X94609007Y-90617195D01*
X94609005Y-90617199D01*
X94510248Y-90828985D01*
X94510244Y-90828994D01*
X94449767Y-91054701D01*
X94449765Y-91054711D01*
X94429399Y-91287499D01*
X94429399Y-91287500D01*
X94449765Y-91520288D01*
X94449767Y-91520298D01*
X94510244Y-91746005D01*
X94510246Y-91746009D01*
X94510247Y-91746013D01*
X94523224Y-91773842D01*
X94609004Y-91957800D01*
X94609005Y-91957801D01*
X94743040Y-92149222D01*
X94908278Y-92314460D01*
X95099699Y-92448495D01*
X95099704Y-92448497D01*
X95102497Y-92450110D01*
X95103483Y-92451144D01*
X95104134Y-92451600D01*
X95104042Y-92451730D01*
X95150715Y-92500674D01*
X95163941Y-92569281D01*
X95137976Y-92634147D01*
X95102503Y-92664887D01*
X95099694Y-92666508D01*
X94908282Y-92800536D01*
X94908276Y-92800541D01*
X94743041Y-92965776D01*
X94743036Y-92965782D01*
X94609007Y-93157195D01*
X94609005Y-93157199D01*
X94557409Y-93267848D01*
X94515604Y-93357500D01*
X94510248Y-93368985D01*
X94510244Y-93368994D01*
X94449767Y-93594701D01*
X94449765Y-93594711D01*
X94429399Y-93827499D01*
X94429399Y-93827500D01*
X94449765Y-94060288D01*
X94449767Y-94060298D01*
X94510244Y-94286005D01*
X94510246Y-94286009D01*
X94510247Y-94286013D01*
X94524502Y-94316583D01*
X94609004Y-94497800D01*
X94609005Y-94497801D01*
X94743040Y-94689222D01*
X94908278Y-94854460D01*
X95099699Y-94988495D01*
X95311487Y-95087253D01*
X95537207Y-95147734D01*
X95723441Y-95164027D01*
X95769999Y-95168101D01*
X95770000Y-95168101D01*
X95770001Y-95168101D01*
X95808798Y-95164706D01*
X96002793Y-95147734D01*
X96228513Y-95087253D01*
X96440301Y-94988495D01*
X96631722Y-94854460D01*
X96796960Y-94689222D01*
X96796960Y-94689221D01*
X96800788Y-94685394D01*
X96801681Y-94686287D01*
X96854741Y-94650990D01*
X96891553Y-94645400D01*
X99513639Y-94645400D01*
X99580678Y-94665085D01*
X99601320Y-94681719D01*
X100975781Y-96056180D01*
X101009266Y-96117503D01*
X101012100Y-96143861D01*
X101012100Y-99546149D01*
X101012101Y-99546181D01*
X101012101Y-99588776D01*
X101021232Y-99628787D01*
X101022396Y-99635634D01*
X101026994Y-99676434D01*
X101026995Y-99676436D01*
X101040552Y-99715185D01*
X101042478Y-99721869D01*
X101051609Y-99761874D01*
X101069412Y-99798844D01*
X101072075Y-99805271D01*
X101085633Y-99844018D01*
X101107472Y-99878774D01*
X101110837Y-99884864D01*
X101128643Y-99921837D01*
X101154233Y-99953926D01*
X101158260Y-99959601D01*
X101180094Y-99994352D01*
X101180096Y-99994354D01*
X101180097Y-99994355D01*
X101180098Y-99994356D01*
X101210311Y-100024569D01*
X101210348Y-100024608D01*
X103110689Y-101924949D01*
X103110719Y-101924977D01*
X103140644Y-101954902D01*
X103165109Y-101970274D01*
X103175393Y-101976736D01*
X103181068Y-101980763D01*
X103213160Y-102006356D01*
X103250148Y-102024168D01*
X103256225Y-102027527D01*
X103290980Y-102049365D01*
X103314516Y-102057600D01*
X103329720Y-102062921D01*
X103336139Y-102065579D01*
X103373127Y-102083391D01*
X103402809Y-102090165D01*
X103413136Y-102092522D01*
X103419819Y-102094447D01*
X103458566Y-102108006D01*
X103499362Y-102112602D01*
X103506214Y-102113766D01*
X103546226Y-102122899D01*
X103589028Y-102122899D01*
X103589064Y-102122900D01*
X103590756Y-102122900D01*
X105052942Y-102122900D01*
X105119981Y-102142585D01*
X105156751Y-102179079D01*
X105183303Y-102219721D01*
X105183306Y-102219724D01*
X105344430Y-102394751D01*
X105488837Y-102507147D01*
X105529649Y-102563857D01*
X105533324Y-102633630D01*
X105498693Y-102694313D01*
X105488843Y-102702847D01*
X105379571Y-102787897D01*
X105344431Y-102815248D01*
X105183303Y-102990278D01*
X105156751Y-103030921D01*
X105103604Y-103076278D01*
X105052942Y-103087100D01*
X102152721Y-103087100D01*
X102085682Y-103067415D01*
X102065040Y-103050781D01*
X100852108Y-101837848D01*
X100852069Y-101837811D01*
X100821856Y-101807598D01*
X100821855Y-101807597D01*
X100821854Y-101807596D01*
X100821852Y-101807594D01*
X100787101Y-101785760D01*
X100781431Y-101781736D01*
X100749340Y-101756145D01*
X100749338Y-101756144D01*
X100749337Y-101756143D01*
X100712364Y-101738337D01*
X100706274Y-101734972D01*
X100671518Y-101713133D01*
X100632771Y-101699575D01*
X100626344Y-101696912D01*
X100589374Y-101679109D01*
X100549369Y-101669978D01*
X100542685Y-101668052D01*
X100510131Y-101656662D01*
X100503934Y-101654494D01*
X100463134Y-101649896D01*
X100456287Y-101648732D01*
X100416276Y-101639601D01*
X100416274Y-101639601D01*
X100373472Y-101639601D01*
X100373436Y-101639600D01*
X100371744Y-101639600D01*
X90889081Y-101639600D01*
X90822042Y-101619915D01*
X90801400Y-101603281D01*
X89065968Y-99867848D01*
X89065929Y-99867811D01*
X89035716Y-99837598D01*
X89035715Y-99837597D01*
X89035714Y-99837596D01*
X89035712Y-99837594D01*
X89006076Y-99818973D01*
X89000957Y-99815757D01*
X88995291Y-99811736D01*
X88963200Y-99786145D01*
X88963198Y-99786144D01*
X88963197Y-99786143D01*
X88947055Y-99778369D01*
X88895196Y-99731546D01*
X88876859Y-99666650D01*
X88876859Y-99393320D01*
X88876859Y-99393317D01*
X88874025Y-99357296D01*
X88829229Y-99203107D01*
X88747495Y-99064902D01*
X88747493Y-99064900D01*
X88747490Y-99064896D01*
X88633963Y-98951369D01*
X88633955Y-98951363D01*
X88495753Y-98869631D01*
X88495748Y-98869629D01*
X88341568Y-98824835D01*
X88341562Y-98824834D01*
X88305543Y-98822000D01*
X88305541Y-98822000D01*
X86177180Y-98822001D01*
X86141155Y-98824835D01*
X85986971Y-98869629D01*
X85986966Y-98869631D01*
X85848764Y-98951363D01*
X85848756Y-98951369D01*
X85735229Y-99064896D01*
X85735223Y-99064904D01*
X85653491Y-99203106D01*
X85653489Y-99203111D01*
X85608695Y-99357291D01*
X85608694Y-99357297D01*
X85605860Y-99393317D01*
X85605861Y-101521680D01*
X85608695Y-101557704D01*
X85653489Y-101711888D01*
X85653491Y-101711893D01*
X85735223Y-101850095D01*
X85735229Y-101850103D01*
X85848756Y-101963630D01*
X85848760Y-101963633D01*
X85848762Y-101963635D01*
X85986967Y-102045369D01*
X86027628Y-102057182D01*
X86141151Y-102090164D01*
X86141154Y-102090164D01*
X86141156Y-102090165D01*
X86153163Y-102091110D01*
X86177177Y-102093000D01*
X86177178Y-102092999D01*
X86177179Y-102093000D01*
X88305540Y-102092999D01*
X88341564Y-102090165D01*
X88495753Y-102045369D01*
X88633958Y-101963635D01*
X88695917Y-101901675D01*
X88757238Y-101868192D01*
X88826930Y-101873176D01*
X88871278Y-101901677D01*
X89987049Y-103017449D01*
X89987079Y-103017477D01*
X90017004Y-103047402D01*
X90022382Y-103050781D01*
X90051753Y-103069236D01*
X90057428Y-103073263D01*
X90089520Y-103098856D01*
X90126508Y-103116668D01*
X90132587Y-103120028D01*
X90167335Y-103141862D01*
X90167340Y-103141865D01*
X90206081Y-103155421D01*
X90212499Y-103158079D01*
X90249487Y-103175891D01*
X90289494Y-103185022D01*
X90296168Y-103186943D01*
X90334926Y-103200506D01*
X90375716Y-103205101D01*
X90382564Y-103206264D01*
X90422586Y-103215400D01*
X90467116Y-103215400D01*
X99949779Y-103215400D01*
X100016818Y-103235085D01*
X100037460Y-103251719D01*
X101250689Y-104464949D01*
X101250719Y-104464977D01*
X101280644Y-104494902D01*
X101315399Y-104516740D01*
X101321070Y-104520764D01*
X101353160Y-104546355D01*
X101390134Y-104564161D01*
X101396225Y-104567527D01*
X101430976Y-104589363D01*
X101430978Y-104589364D01*
X101430980Y-104589365D01*
X101469729Y-104602923D01*
X101476142Y-104605580D01*
X101513126Y-104623391D01*
X101553153Y-104632526D01*
X101559801Y-104634441D01*
X101598566Y-104648006D01*
X101639363Y-104652602D01*
X101646209Y-104653766D01*
X101686225Y-104662899D01*
X101729028Y-104662899D01*
X101729064Y-104662900D01*
X101730756Y-104662900D01*
X105052942Y-104662900D01*
X105119981Y-104682585D01*
X105156751Y-104719079D01*
X105183303Y-104759721D01*
X105183306Y-104759724D01*
X105344430Y-104934751D01*
X105488837Y-105047147D01*
X105529649Y-105103857D01*
X105533324Y-105173630D01*
X105498693Y-105234313D01*
X105488843Y-105242847D01*
X105379571Y-105327897D01*
X105344431Y-105355248D01*
X105183307Y-105530274D01*
X105183304Y-105530278D01*
X105053188Y-105729434D01*
X104957625Y-105947297D01*
X104899225Y-106177911D01*
X104899223Y-106177922D01*
X104879580Y-106414993D01*
X104879580Y-106415006D01*
X104899223Y-106652077D01*
X104899225Y-106652088D01*
X104957625Y-106882702D01*
X105053188Y-107100565D01*
X105148100Y-107245837D01*
X105183306Y-107299724D01*
X105344430Y-107474751D01*
X105488837Y-107587147D01*
X105529649Y-107643857D01*
X105533324Y-107713630D01*
X105498693Y-107774313D01*
X105488843Y-107782847D01*
X105379571Y-107867897D01*
X105344431Y-107895248D01*
X105183307Y-108070274D01*
X105183304Y-108070278D01*
X105053188Y-108269434D01*
X104957625Y-108487297D01*
X104899225Y-108717911D01*
X104899223Y-108717922D01*
X104879580Y-108954993D01*
X104879580Y-108955006D01*
X104899223Y-109192077D01*
X104899225Y-109192088D01*
X104957625Y-109422702D01*
X105053188Y-109640565D01*
X105183304Y-109839721D01*
X105183306Y-109839724D01*
X105344430Y-110014751D01*
X105488837Y-110127147D01*
X105529649Y-110183857D01*
X105533324Y-110253630D01*
X105498693Y-110314313D01*
X105488843Y-110322847D01*
X105379571Y-110407897D01*
X105344431Y-110435248D01*
X105183307Y-110610274D01*
X105183304Y-110610278D01*
X105053188Y-110809434D01*
X104957625Y-111027297D01*
X104899225Y-111257911D01*
X104899223Y-111257922D01*
X104879580Y-111494993D01*
X104879580Y-111495006D01*
X104899223Y-111732077D01*
X104899225Y-111732088D01*
X104957625Y-111962702D01*
X105053188Y-112180565D01*
X105183304Y-112379721D01*
X105183307Y-112379725D01*
X105344432Y-112554753D01*
X105344436Y-112554756D01*
X105532156Y-112700865D01*
X105532162Y-112700869D01*
X105532165Y-112700871D01*
X105741390Y-112814098D01*
X105966398Y-112891344D01*
X106201051Y-112930500D01*
X106438949Y-112930500D01*
X106673602Y-112891344D01*
X106898610Y-112814098D01*
X107107835Y-112700871D01*
X107295570Y-112554751D01*
X107456694Y-112379724D01*
X107586812Y-112180564D01*
X107682374Y-111962704D01*
X107740775Y-111732085D01*
X107740776Y-111732077D01*
X107760420Y-111495006D01*
X107760420Y-111494993D01*
X107740776Y-111257922D01*
X107740774Y-111257911D01*
X107682374Y-111027297D01*
X107645268Y-110942704D01*
X107586812Y-110809436D01*
X107456694Y-110610276D01*
X107295570Y-110435249D01*
X107151162Y-110322852D01*
X107110351Y-110266143D01*
X107106676Y-110196370D01*
X107141307Y-110135687D01*
X107151156Y-110127152D01*
X107295570Y-110014751D01*
X107456694Y-109839724D01*
X107586812Y-109640564D01*
X107682374Y-109422704D01*
X107740775Y-109192085D01*
X107740776Y-109192077D01*
X107760420Y-108955006D01*
X107760420Y-108954993D01*
X107740776Y-108717922D01*
X107740774Y-108717911D01*
X107682374Y-108487297D01*
X107645268Y-108402704D01*
X107586812Y-108269436D01*
X107456694Y-108070276D01*
X107295570Y-107895249D01*
X107151162Y-107782852D01*
X107110351Y-107726143D01*
X107106676Y-107656370D01*
X107141307Y-107595687D01*
X107151156Y-107587152D01*
X107295570Y-107474751D01*
X107456694Y-107299724D01*
X107586812Y-107100564D01*
X107682374Y-106882704D01*
X107740775Y-106652085D01*
X107740776Y-106652077D01*
X107760420Y-106415006D01*
X107760420Y-106414993D01*
X107740776Y-106177922D01*
X107740774Y-106177911D01*
X107682374Y-105947297D01*
X107645268Y-105862704D01*
X107586812Y-105729436D01*
X107456694Y-105530276D01*
X107295570Y-105355249D01*
X107151162Y-105242852D01*
X107110351Y-105186143D01*
X107106676Y-105116370D01*
X107141307Y-105055687D01*
X107151156Y-105047152D01*
X107295570Y-104934751D01*
X107456694Y-104759724D01*
X107586812Y-104560564D01*
X107682374Y-104342704D01*
X107740775Y-104112085D01*
X107740776Y-104112077D01*
X107760420Y-103875006D01*
X107760420Y-103874993D01*
X107740776Y-103637922D01*
X107740774Y-103637911D01*
X107682374Y-103407297D01*
X107645268Y-103322704D01*
X107586812Y-103189436D01*
X107456694Y-102990276D01*
X107295570Y-102815249D01*
X107151162Y-102702852D01*
X107110351Y-102646143D01*
X107106676Y-102576370D01*
X107141307Y-102515687D01*
X107151156Y-102507152D01*
X107295570Y-102394751D01*
X107456694Y-102219724D01*
X107586812Y-102020564D01*
X107682374Y-101802704D01*
X107740775Y-101572085D01*
X107741967Y-101557704D01*
X107760420Y-101335006D01*
X107760420Y-101334993D01*
X107740776Y-101097922D01*
X107740774Y-101097911D01*
X107682374Y-100867297D01*
X107645268Y-100782704D01*
X107586812Y-100649436D01*
X107456694Y-100450276D01*
X107295570Y-100275249D01*
X107151162Y-100162852D01*
X107110351Y-100106143D01*
X107106676Y-100036370D01*
X107141307Y-99975687D01*
X107151156Y-99967152D01*
X107295570Y-99854751D01*
X107456694Y-99679724D01*
X107586812Y-99480564D01*
X107682374Y-99262704D01*
X107740775Y-99032085D01*
X107746118Y-98967603D01*
X107760420Y-98795006D01*
X107760420Y-98794993D01*
X107740776Y-98557922D01*
X107740774Y-98557911D01*
X107682374Y-98327297D01*
X107586811Y-98109434D01*
X107456695Y-97910278D01*
X107456694Y-97910276D01*
X107295570Y-97735249D01*
X107151162Y-97622852D01*
X107110351Y-97566143D01*
X107106676Y-97496370D01*
X107141307Y-97435687D01*
X107151156Y-97427152D01*
X107295570Y-97314751D01*
X107456694Y-97139724D01*
X107586812Y-96940564D01*
X107682374Y-96722704D01*
X107740775Y-96492085D01*
X107742699Y-96468865D01*
X107760420Y-96255006D01*
X107760420Y-96254993D01*
X107740776Y-96017922D01*
X107740774Y-96017911D01*
X107682374Y-95787297D01*
X107586811Y-95569434D01*
X107490564Y-95422118D01*
X107456694Y-95370276D01*
X107295570Y-95195249D01*
X107151162Y-95082852D01*
X107110351Y-95026143D01*
X107106676Y-94956370D01*
X107141307Y-94895687D01*
X107151156Y-94887152D01*
X107295570Y-94774751D01*
X107456694Y-94599724D01*
X107586812Y-94400564D01*
X107682374Y-94182704D01*
X107740775Y-93952085D01*
X107740776Y-93952077D01*
X107760420Y-93715006D01*
X107760420Y-93714993D01*
X107740776Y-93477922D01*
X107740774Y-93477911D01*
X107713192Y-93368994D01*
X107682374Y-93247296D01*
X107586812Y-93029436D01*
X107456694Y-92830276D01*
X107295570Y-92655249D01*
X107151162Y-92542852D01*
X107110351Y-92486143D01*
X107106676Y-92416370D01*
X107141307Y-92355687D01*
X107151156Y-92347152D01*
X107295570Y-92234751D01*
X107456694Y-92059724D01*
X107586812Y-91860564D01*
X107682374Y-91642704D01*
X107740775Y-91412085D01*
X107741908Y-91398416D01*
X107760420Y-91175006D01*
X107760420Y-91174993D01*
X107740776Y-90937922D01*
X107740774Y-90937911D01*
X107713192Y-90828994D01*
X107682374Y-90707296D01*
X107586812Y-90489436D01*
X107456694Y-90290276D01*
X107295570Y-90115249D01*
X107151162Y-90002852D01*
X107110351Y-89946143D01*
X107106676Y-89876370D01*
X107141307Y-89815687D01*
X107151156Y-89807152D01*
X107295570Y-89694751D01*
X107456694Y-89519724D01*
X107586812Y-89320564D01*
X107682374Y-89102704D01*
X107740775Y-88872085D01*
X107742358Y-88852984D01*
X107760420Y-88635006D01*
X107760420Y-88634993D01*
X107740776Y-88397922D01*
X107740774Y-88397911D01*
X107723856Y-88331104D01*
X107682374Y-88167296D01*
X107586812Y-87949436D01*
X107456694Y-87750276D01*
X107295570Y-87575249D01*
X107295569Y-87575248D01*
X107295567Y-87575246D01*
X107295563Y-87575243D01*
X107107843Y-87429134D01*
X107107837Y-87429130D01*
X106898611Y-87315902D01*
X106898602Y-87315899D01*
X106673604Y-87238656D01*
X106438949Y-87199500D01*
X106201051Y-87199500D01*
X105966395Y-87238656D01*
X105741397Y-87315899D01*
X105741388Y-87315902D01*
X105532162Y-87429130D01*
X105532156Y-87429134D01*
X105344436Y-87575243D01*
X105344432Y-87575246D01*
X105183307Y-87750274D01*
X105183304Y-87750278D01*
X105053188Y-87949434D01*
X104957625Y-88167297D01*
X104899225Y-88397911D01*
X104899223Y-88397922D01*
X104879580Y-88634993D01*
X104879580Y-88635006D01*
X104899223Y-88872077D01*
X104899225Y-88872088D01*
X104957625Y-89102702D01*
X105053188Y-89320565D01*
X105183304Y-89519721D01*
X105183306Y-89519724D01*
X105344430Y-89694751D01*
X105488837Y-89807147D01*
X105529649Y-89863857D01*
X105533324Y-89933630D01*
X105498693Y-89994313D01*
X105488843Y-90002847D01*
X105379571Y-90087897D01*
X105344431Y-90115248D01*
X105183307Y-90290274D01*
X105183304Y-90290278D01*
X105053188Y-90489434D01*
X104957625Y-90707297D01*
X104899225Y-90937911D01*
X104899223Y-90937922D01*
X104879580Y-91174993D01*
X104879580Y-91175006D01*
X104899223Y-91412077D01*
X104899225Y-91412088D01*
X104957625Y-91642702D01*
X105053188Y-91860565D01*
X105116716Y-91957801D01*
X105183306Y-92059724D01*
X105344430Y-92234751D01*
X105488837Y-92347147D01*
X105529649Y-92403857D01*
X105533324Y-92473630D01*
X105498693Y-92534313D01*
X105488843Y-92542847D01*
X105397008Y-92614326D01*
X105344431Y-92655248D01*
X105183307Y-92830274D01*
X105183304Y-92830278D01*
X105053188Y-93029434D01*
X104957625Y-93247297D01*
X104899225Y-93477911D01*
X104899223Y-93477922D01*
X104879580Y-93714993D01*
X104879580Y-93715006D01*
X104899223Y-93952077D01*
X104899225Y-93952088D01*
X104957625Y-94182702D01*
X105053188Y-94400565D01*
X105116716Y-94497801D01*
X105183306Y-94599724D01*
X105344430Y-94774751D01*
X105488837Y-94887147D01*
X105529649Y-94943857D01*
X105533324Y-95013630D01*
X105498693Y-95074313D01*
X105488843Y-95082847D01*
X105405480Y-95147732D01*
X105344431Y-95195248D01*
X105183307Y-95370274D01*
X105183304Y-95370278D01*
X105053188Y-95569434D01*
X104957625Y-95787297D01*
X104899225Y-96017911D01*
X104899223Y-96017922D01*
X104879580Y-96254993D01*
X104879580Y-96255006D01*
X104899223Y-96492077D01*
X104899225Y-96492088D01*
X104957625Y-96722702D01*
X105053188Y-96940565D01*
X105183304Y-97139721D01*
X105183306Y-97139724D01*
X105344430Y-97314751D01*
X105488837Y-97427147D01*
X105529649Y-97483857D01*
X105533324Y-97553630D01*
X105498693Y-97614313D01*
X105488843Y-97622847D01*
X105379571Y-97707897D01*
X105344431Y-97735248D01*
X105183307Y-97910274D01*
X105183304Y-97910278D01*
X105053188Y-98109434D01*
X104957625Y-98327297D01*
X104899225Y-98557911D01*
X104899223Y-98557922D01*
X104879580Y-98794993D01*
X104879580Y-98795006D01*
X104899223Y-99032077D01*
X104899225Y-99032088D01*
X104957625Y-99262702D01*
X105053188Y-99480565D01*
X105181158Y-99676436D01*
X105183306Y-99679724D01*
X105344430Y-99854751D01*
X105488837Y-99967147D01*
X105529649Y-100023857D01*
X105533324Y-100093630D01*
X105498693Y-100154313D01*
X105488843Y-100162847D01*
X105379571Y-100247897D01*
X105344431Y-100275248D01*
X105183303Y-100450278D01*
X105156751Y-100490921D01*
X105103604Y-100536278D01*
X105052942Y-100547100D01*
X104012721Y-100547100D01*
X103945682Y-100527415D01*
X103925040Y-100510781D01*
X102624219Y-99209960D01*
X102590734Y-99148637D01*
X102587900Y-99122279D01*
X102587900Y-95677366D01*
X102587899Y-95677363D01*
X102578766Y-95637346D01*
X102577600Y-95630484D01*
X102573006Y-95589706D01*
X102559448Y-95550963D01*
X102557526Y-95544287D01*
X102548392Y-95504268D01*
X102530582Y-95467284D01*
X102527919Y-95460855D01*
X102514364Y-95422118D01*
X102492531Y-95387371D01*
X102489166Y-95381282D01*
X102471358Y-95344304D01*
X102471357Y-95344303D01*
X102471356Y-95344300D01*
X102445763Y-95312208D01*
X102441736Y-95306533D01*
X102419901Y-95271783D01*
X102389977Y-95241859D01*
X102389949Y-95241829D01*
X100415968Y-93267848D01*
X100415929Y-93267811D01*
X100385716Y-93237598D01*
X100385715Y-93237597D01*
X100385714Y-93237596D01*
X100385712Y-93237594D01*
X100350961Y-93215760D01*
X100345291Y-93211736D01*
X100313200Y-93186145D01*
X100313198Y-93186144D01*
X100313197Y-93186143D01*
X100276224Y-93168337D01*
X100270134Y-93164972D01*
X100235378Y-93143133D01*
X100196631Y-93129575D01*
X100190204Y-93126912D01*
X100153234Y-93109109D01*
X100113229Y-93099978D01*
X100106545Y-93098052D01*
X100073991Y-93086662D01*
X100067794Y-93084494D01*
X100026994Y-93079896D01*
X100020147Y-93078732D01*
X99980136Y-93069601D01*
X99980134Y-93069601D01*
X99937332Y-93069601D01*
X99937296Y-93069600D01*
X99935604Y-93069600D01*
X96934208Y-93069600D01*
X96867169Y-93049915D01*
X96832634Y-93016724D01*
X96796965Y-92965785D01*
X96796958Y-92965776D01*
X96631726Y-92800544D01*
X96631722Y-92800540D01*
X96440301Y-92666505D01*
X96440299Y-92666504D01*
X96437503Y-92664890D01*
X96436516Y-92663855D01*
X96435866Y-92663400D01*
X96435957Y-92663269D01*
X96389285Y-92614326D01*
X96376059Y-92545719D01*
X96402024Y-92480853D01*
X96437503Y-92450110D01*
X96440290Y-92448499D01*
X96440301Y-92448495D01*
X96631722Y-92314460D01*
X96796960Y-92149222D01*
X96930995Y-91957801D01*
X97029753Y-91746013D01*
X97090234Y-91520293D01*
X97110601Y-91287500D01*
X97090234Y-91054707D01*
X97029753Y-90828987D01*
X96930995Y-90617200D01*
X96930993Y-90617197D01*
X96930992Y-90617195D01*
X96796963Y-90425782D01*
X96796958Y-90425776D01*
X96631725Y-90260543D01*
X96631722Y-90260540D01*
X96628127Y-90258023D01*
X96610774Y-90245871D01*
X96567150Y-90191293D01*
X96557900Y-90144298D01*
X96557900Y-89531231D01*
X96557900Y-89531226D01*
X96548764Y-89491204D01*
X96547601Y-89484356D01*
X96543006Y-89443566D01*
X96529443Y-89404808D01*
X96527522Y-89398134D01*
X96518391Y-89358127D01*
X96500579Y-89321139D01*
X96497921Y-89314721D01*
X96484365Y-89275980D01*
X96484362Y-89275975D01*
X96462528Y-89241227D01*
X96459168Y-89235148D01*
X96441356Y-89198160D01*
X96415763Y-89166068D01*
X96411736Y-89160393D01*
X96389901Y-89125643D01*
X96359977Y-89095719D01*
X96359949Y-89095689D01*
X93064608Y-85800348D01*
X93064569Y-85800311D01*
X93034356Y-85770098D01*
X93034355Y-85770097D01*
X93034354Y-85770096D01*
X93034352Y-85770094D01*
X92999601Y-85748260D01*
X92993931Y-85744236D01*
X92961840Y-85718645D01*
X92961838Y-85718644D01*
X92961837Y-85718643D01*
X92924864Y-85700837D01*
X92918774Y-85697472D01*
X92884018Y-85675633D01*
X92845271Y-85662075D01*
X92838844Y-85659412D01*
X92801874Y-85641609D01*
X92761869Y-85632478D01*
X92755185Y-85630552D01*
X92722631Y-85619162D01*
X92716434Y-85616994D01*
X92675634Y-85612396D01*
X92668787Y-85611232D01*
X92628776Y-85602101D01*
X92628774Y-85602101D01*
X92585972Y-85602101D01*
X92585936Y-85602100D01*
X92584244Y-85602100D01*
X88064499Y-85602100D01*
X87997460Y-85582415D01*
X87951705Y-85529611D01*
X87940499Y-85478100D01*
X87940499Y-85373320D01*
X87940499Y-85373317D01*
X87937665Y-85337296D01*
X87892869Y-85183107D01*
X87811135Y-85044902D01*
X87811133Y-85044900D01*
X87811130Y-85044896D01*
X87697603Y-84931369D01*
X87691435Y-84926585D01*
X87692565Y-84925126D01*
X87651683Y-84881347D01*
X87639175Y-84812606D01*
X87656757Y-84760887D01*
X87695839Y-84697111D01*
X87771793Y-84573166D01*
X87775439Y-84564365D01*
X87867445Y-84342240D01*
X87867447Y-84342236D01*
X87925799Y-84099186D01*
X87945410Y-83850000D01*
X87925799Y-83600814D01*
X87867447Y-83357764D01*
X87867445Y-83357759D01*
X87771795Y-83126837D01*
X87771793Y-83126834D01*
X87641194Y-82913716D01*
X87641193Y-82913714D01*
X87641192Y-82913713D01*
X87641191Y-82913711D01*
X87478857Y-82723643D01*
X87316802Y-82585235D01*
X87278611Y-82526730D01*
X87278112Y-82456862D01*
X87313353Y-82399717D01*
X87424803Y-82297119D01*
X87424806Y-82297116D01*
X87572649Y-82107168D01*
X87572655Y-82107159D01*
X87687215Y-81895468D01*
X87687221Y-81895454D01*
X87765380Y-81667791D01*
X87783367Y-81560000D01*
X86799852Y-81560000D01*
X86848559Y-81422953D01*
X86858877Y-81272114D01*
X86828116Y-81124085D01*
X86794910Y-81060000D01*
X87783366Y-81060000D01*
X87783366Y-81059999D01*
X87765380Y-80952208D01*
X87687221Y-80724545D01*
X87687215Y-80724531D01*
X87572655Y-80512840D01*
X87572649Y-80512831D01*
X87424806Y-80322883D01*
X87424797Y-80322873D01*
X87247710Y-80159851D01*
X87247699Y-80159843D01*
X87046184Y-80028186D01*
X86825739Y-79931491D01*
X86825740Y-79931491D01*
X86592391Y-79872399D01*
X86555000Y-79869300D01*
X86555000Y-80818316D01*
X86526181Y-80800791D01*
X86380596Y-80760000D01*
X86267378Y-80760000D01*
X86155217Y-80775416D01*
X86055000Y-80818946D01*
X86055000Y-79869300D01*
X86054999Y-79869300D01*
X86017608Y-79872399D01*
X85784259Y-79931491D01*
X85563815Y-80028186D01*
X85362300Y-80159843D01*
X85362289Y-80159851D01*
X85185202Y-80322873D01*
X85185193Y-80322883D01*
X85037350Y-80512831D01*
X85037344Y-80512840D01*
X84922784Y-80724531D01*
X84922778Y-80724545D01*
X84844619Y-80952208D01*
X84826633Y-81059999D01*
X84826634Y-81060000D01*
X85810148Y-81060000D01*
X85761441Y-81197047D01*
X85751123Y-81347886D01*
X85781884Y-81495915D01*
X85815090Y-81560000D01*
X84826633Y-81560000D01*
X84844619Y-81667791D01*
X84922778Y-81895454D01*
X84922784Y-81895468D01*
X85037344Y-82107159D01*
X85037350Y-82107168D01*
X85185193Y-82297116D01*
X85185196Y-82297120D01*
X85296646Y-82399717D01*
X85332637Y-82459605D01*
X85330536Y-82529443D01*
X85293195Y-82585237D01*
X85131143Y-82723643D01*
X84968807Y-82913712D01*
X84940486Y-82959929D01*
X84888674Y-83006804D01*
X84819744Y-83018226D01*
X84755581Y-82990568D01*
X84747078Y-82982819D01*
X78274219Y-76509960D01*
X78240734Y-76448637D01*
X78237900Y-76422279D01*
X78237900Y-67777721D01*
X78257585Y-67710682D01*
X78274219Y-67690040D01*
X79940040Y-66024219D01*
X80001363Y-65990734D01*
X80027721Y-65987900D01*
X93572279Y-65987900D01*
X93639318Y-66007585D01*
X93659960Y-66024219D01*
X95955781Y-68320039D01*
X95989266Y-68381362D01*
X95992100Y-68407720D01*
X95992100Y-69971145D01*
X95972415Y-70038184D01*
X95932890Y-70076872D01*
X95874670Y-70112549D01*
X95874667Y-70112550D01*
X95690880Y-70269520D01*
X95600306Y-70375567D01*
X95541798Y-70413760D01*
X95471930Y-70414258D01*
X95418335Y-70382716D01*
X93995968Y-68960348D01*
X93995929Y-68960311D01*
X93965716Y-68930098D01*
X93965715Y-68930097D01*
X93965714Y-68930096D01*
X93965712Y-68930094D01*
X93930961Y-68908260D01*
X93925291Y-68904236D01*
X93893200Y-68878645D01*
X93893198Y-68878644D01*
X93893197Y-68878643D01*
X93856224Y-68860837D01*
X93850134Y-68857472D01*
X93815378Y-68835633D01*
X93776631Y-68822075D01*
X93770204Y-68819412D01*
X93733234Y-68801609D01*
X93693229Y-68792478D01*
X93686545Y-68790552D01*
X93653991Y-68779162D01*
X93647794Y-68776994D01*
X93606994Y-68772396D01*
X93600147Y-68771232D01*
X93560136Y-68762101D01*
X93560134Y-68762101D01*
X93517332Y-68762101D01*
X93517296Y-68762100D01*
X93515604Y-68762100D01*
X88633048Y-68762100D01*
X88566009Y-68742415D01*
X88527320Y-68702889D01*
X88459124Y-68591602D01*
X88459120Y-68591597D01*
X88292958Y-68397046D01*
X88274594Y-68381362D01*
X88202795Y-68320039D01*
X88098401Y-68230878D01*
X88098396Y-68230875D01*
X87880242Y-68097190D01*
X87880239Y-68097188D01*
X87643864Y-67999279D01*
X87643860Y-67999278D01*
X87395070Y-67939548D01*
X87395068Y-67939547D01*
X87395065Y-67939547D01*
X87203865Y-67924500D01*
X87203863Y-67924500D01*
X85096137Y-67924500D01*
X85096135Y-67924500D01*
X84904934Y-67939547D01*
X84656135Y-67999279D01*
X84419760Y-68097188D01*
X84419757Y-68097190D01*
X84201603Y-68230875D01*
X84201598Y-68230878D01*
X84007044Y-68397044D01*
X83840878Y-68591598D01*
X83840875Y-68591603D01*
X83707190Y-68809757D01*
X83707188Y-68809760D01*
X83609279Y-69046135D01*
X83549547Y-69294935D01*
X83529474Y-69550000D01*
X83549547Y-69805064D01*
X83549547Y-69805067D01*
X83549548Y-69805070D01*
X83606092Y-70040588D01*
X83609279Y-70053864D01*
X83707188Y-70290239D01*
X83707190Y-70290242D01*
X83840875Y-70508396D01*
X83840878Y-70508401D01*
X83875413Y-70548836D01*
X84007044Y-70702956D01*
X84130267Y-70808198D01*
X84201598Y-70869121D01*
X84201603Y-70869124D01*
X84419757Y-71002809D01*
X84419760Y-71002811D01*
X84656135Y-71100720D01*
X84656140Y-71100722D01*
X84904930Y-71160452D01*
X85032401Y-71170484D01*
X85096135Y-71175500D01*
X85096137Y-71175500D01*
X87203865Y-71175500D01*
X87258493Y-71171200D01*
X87395070Y-71160452D01*
X87643860Y-71100722D01*
X87762051Y-71051765D01*
X87880239Y-71002811D01*
X87880240Y-71002810D01*
X87880243Y-71002809D01*
X88098399Y-70869123D01*
X88292956Y-70702956D01*
X88459123Y-70508399D01*
X88527320Y-70397110D01*
X88579132Y-70350235D01*
X88633048Y-70337900D01*
X93093639Y-70337900D01*
X93160678Y-70357585D01*
X93181320Y-70374219D01*
X94755689Y-71948589D01*
X94755719Y-71948617D01*
X94785644Y-71978542D01*
X94820399Y-72000380D01*
X94826070Y-72004404D01*
X94858160Y-72029995D01*
X94895134Y-72047801D01*
X94901225Y-72051167D01*
X94935976Y-72073003D01*
X94935978Y-72073004D01*
X94935980Y-72073005D01*
X94974729Y-72086563D01*
X94981142Y-72089220D01*
X95018126Y-72107031D01*
X95058153Y-72116166D01*
X95064801Y-72118081D01*
X95103566Y-72131646D01*
X95144363Y-72136242D01*
X95151209Y-72137406D01*
X95191225Y-72146539D01*
X95234028Y-72146539D01*
X95234064Y-72146540D01*
X95235756Y-72146540D01*
X95392506Y-72146540D01*
X95459545Y-72166225D01*
X95498232Y-72205749D01*
X95515642Y-72234160D01*
X95533913Y-72263976D01*
X95552181Y-72285365D01*
X95580751Y-72349127D01*
X95570313Y-72418212D01*
X95524182Y-72470688D01*
X95521012Y-72472627D01*
X95487407Y-72492500D01*
X95487396Y-72492509D01*
X95373869Y-72606036D01*
X95373863Y-72606044D01*
X95292131Y-72744246D01*
X95292129Y-72744251D01*
X95247335Y-72898431D01*
X95247334Y-72898437D01*
X95244500Y-72934457D01*
X95244500Y-72986740D01*
X95224815Y-73053779D01*
X95172011Y-73099534D01*
X95120500Y-73110740D01*
X93894064Y-73110740D01*
X93894028Y-73110741D01*
X93851223Y-73110741D01*
X93811211Y-73119872D01*
X93804356Y-73121036D01*
X93763563Y-73125634D01*
X93724824Y-73139189D01*
X93718141Y-73141114D01*
X93678124Y-73150249D01*
X93641150Y-73168055D01*
X93634724Y-73170716D01*
X93595986Y-73184272D01*
X93595978Y-73184276D01*
X93561225Y-73206112D01*
X93555138Y-73209476D01*
X93518162Y-73227283D01*
X93486065Y-73252877D01*
X93480396Y-73256899D01*
X93445647Y-73278735D01*
X93445644Y-73278738D01*
X93416590Y-73307790D01*
X93416586Y-73307794D01*
X93414160Y-73310221D01*
X93414156Y-73310225D01*
X93203240Y-73521141D01*
X92998600Y-73725781D01*
X92937277Y-73759266D01*
X92910919Y-73762100D01*
X88889499Y-73762100D01*
X88822460Y-73742415D01*
X88776705Y-73689611D01*
X88765499Y-73638100D01*
X88765499Y-73495820D01*
X88765499Y-73495817D01*
X88762665Y-73459796D01*
X88717869Y-73305607D01*
X88636135Y-73167402D01*
X88636133Y-73167400D01*
X88636130Y-73167396D01*
X88522603Y-73053869D01*
X88522595Y-73053863D01*
X88384393Y-72972131D01*
X88384388Y-72972129D01*
X88230208Y-72927335D01*
X88230202Y-72927334D01*
X88194183Y-72924500D01*
X88194181Y-72924500D01*
X84105820Y-72924501D01*
X84069795Y-72927335D01*
X83915611Y-72972129D01*
X83915606Y-72972131D01*
X83777404Y-73053863D01*
X83777396Y-73053869D01*
X83663869Y-73167396D01*
X83663863Y-73167404D01*
X83582131Y-73305606D01*
X83582129Y-73305611D01*
X83537335Y-73459791D01*
X83537334Y-73459797D01*
X83534500Y-73495817D01*
X83534501Y-75604180D01*
X83537335Y-75640204D01*
X83582129Y-75794388D01*
X83582131Y-75794393D01*
X83663863Y-75932595D01*
X83663869Y-75932603D01*
X83777396Y-76046130D01*
X83777400Y-76046133D01*
X83777402Y-76046135D01*
X83915607Y-76127869D01*
X83956268Y-76139682D01*
X84069791Y-76172664D01*
X84069794Y-76172664D01*
X84069796Y-76172665D01*
X84081803Y-76173610D01*
X84105817Y-76175500D01*
X84105818Y-76175499D01*
X84105819Y-76175500D01*
X88194180Y-76175499D01*
X88230204Y-76172665D01*
X88384393Y-76127869D01*
X88522598Y-76046135D01*
X88636135Y-75932598D01*
X88717869Y-75794393D01*
X88762665Y-75640204D01*
X88764544Y-75616334D01*
X88765500Y-75604183D01*
X88765500Y-75461900D01*
X88785185Y-75394861D01*
X88837989Y-75349106D01*
X88889500Y-75337900D01*
X93334576Y-75337900D01*
X93334612Y-75337899D01*
X93377414Y-75337899D01*
X93417424Y-75328767D01*
X93424279Y-75327602D01*
X93465074Y-75323006D01*
X93501175Y-75310373D01*
X93503816Y-75309449D01*
X93510505Y-75307522D01*
X93522540Y-75304775D01*
X93550513Y-75298391D01*
X93587499Y-75280578D01*
X93593907Y-75277924D01*
X93632660Y-75264365D01*
X93667423Y-75242520D01*
X93673500Y-75239162D01*
X93710480Y-75221355D01*
X93742577Y-75195757D01*
X93748236Y-75191741D01*
X93782996Y-75169902D01*
X93809097Y-75143799D01*
X93809112Y-75143787D01*
X94230040Y-74722859D01*
X94291363Y-74689374D01*
X94317721Y-74686540D01*
X95120501Y-74686540D01*
X95187540Y-74706225D01*
X95233295Y-74759029D01*
X95244501Y-74810540D01*
X95244501Y-74862820D01*
X95247335Y-74898844D01*
X95292129Y-75053028D01*
X95292131Y-75053033D01*
X95373863Y-75191235D01*
X95373869Y-75191243D01*
X95487396Y-75304770D01*
X95487400Y-75304773D01*
X95487402Y-75304775D01*
X95625607Y-75386509D01*
X95654355Y-75394861D01*
X95779791Y-75431304D01*
X95779794Y-75431304D01*
X95779796Y-75431305D01*
X95791803Y-75432250D01*
X95815817Y-75434140D01*
X95815818Y-75434139D01*
X95815819Y-75434140D01*
X97744180Y-75434139D01*
X97780204Y-75431305D01*
X97934393Y-75386509D01*
X98072598Y-75304775D01*
X98186135Y-75191238D01*
X98267869Y-75053033D01*
X98312665Y-74898844D01*
X98315500Y-74862821D01*
X98315500Y-74810540D01*
X98335185Y-74743501D01*
X98387989Y-74697746D01*
X98439500Y-74686540D01*
X104170919Y-74686540D01*
X104237958Y-74706225D01*
X104258600Y-74722859D01*
X124923113Y-95387371D01*
X145585098Y-116049356D01*
X145710644Y-116174902D01*
X145710646Y-116174903D01*
X145745393Y-116196737D01*
X145751067Y-116200762D01*
X145783160Y-116226355D01*
X145820134Y-116244161D01*
X145826225Y-116247527D01*
X145860976Y-116269363D01*
X145860978Y-116269364D01*
X145860980Y-116269365D01*
X145899729Y-116282923D01*
X145906142Y-116285580D01*
X145943126Y-116303391D01*
X145983153Y-116312526D01*
X145989801Y-116314441D01*
X146028566Y-116328006D01*
X146069363Y-116332602D01*
X146076209Y-116333766D01*
X146116225Y-116342899D01*
X146159028Y-116342899D01*
X146159064Y-116342900D01*
X146160756Y-116342900D01*
X153312942Y-116342900D01*
X153379981Y-116362585D01*
X153416751Y-116399079D01*
X153443303Y-116439721D01*
X153604432Y-116614753D01*
X153604436Y-116614756D01*
X153792156Y-116760865D01*
X153792162Y-116760869D01*
X153792165Y-116760871D01*
X154001390Y-116874098D01*
X154226398Y-116951344D01*
X154461051Y-116990500D01*
X154698949Y-116990500D01*
X154933602Y-116951344D01*
X155158610Y-116874098D01*
X155367835Y-116760871D01*
X155400192Y-116735687D01*
X155478948Y-116674388D01*
X155555570Y-116614751D01*
X155716694Y-116439724D01*
X155846812Y-116240564D01*
X155942374Y-116022704D01*
X156000775Y-115792085D01*
X156020420Y-115555000D01*
X156020420Y-115554993D01*
X156000776Y-115317922D01*
X156000774Y-115317911D01*
X155942374Y-115087297D01*
X155846811Y-114869434D01*
X155772882Y-114756278D01*
X155716694Y-114670276D01*
X155555570Y-114495249D01*
X155411162Y-114382852D01*
X155370351Y-114326143D01*
X155366676Y-114256370D01*
X155401307Y-114195687D01*
X155411156Y-114187152D01*
X155555570Y-114074751D01*
X155716694Y-113899724D01*
X155846812Y-113700564D01*
X155942374Y-113482704D01*
X156000775Y-113252085D01*
X156020420Y-113015000D01*
X156020420Y-113014993D01*
X156000776Y-112777922D01*
X156000774Y-112777911D01*
X155942374Y-112547297D01*
X155846811Y-112329434D01*
X155781753Y-112229856D01*
X155716694Y-112130276D01*
X155555570Y-111955249D01*
X155411162Y-111842852D01*
X155370351Y-111786143D01*
X155366676Y-111716370D01*
X155401307Y-111655687D01*
X155411156Y-111647152D01*
X155555570Y-111534751D01*
X155716694Y-111359724D01*
X155846812Y-111160564D01*
X155942374Y-110942704D01*
X156000775Y-110712085D01*
X156009211Y-110610276D01*
X156020420Y-110475006D01*
X156020420Y-110474993D01*
X156000776Y-110237922D01*
X156000774Y-110237911D01*
X155981265Y-110160871D01*
X155942374Y-110007296D01*
X155846812Y-109789436D01*
X155828381Y-109761226D01*
X155771110Y-109673566D01*
X155716694Y-109590276D01*
X155555570Y-109415249D01*
X155411162Y-109302852D01*
X155370351Y-109246143D01*
X155366676Y-109176370D01*
X155401307Y-109115687D01*
X155411156Y-109107152D01*
X155555570Y-108994751D01*
X155716694Y-108819724D01*
X155743249Y-108779079D01*
X155796396Y-108733722D01*
X155847058Y-108722900D01*
X157107279Y-108722900D01*
X157174318Y-108742585D01*
X157194960Y-108759219D01*
X158575781Y-110140040D01*
X158609266Y-110201363D01*
X158612100Y-110227721D01*
X158612100Y-124596149D01*
X158612101Y-124596181D01*
X158612101Y-124638776D01*
X158621232Y-124678787D01*
X158622396Y-124685634D01*
X158626994Y-124726434D01*
X158626995Y-124726436D01*
X158640552Y-124765185D01*
X158642478Y-124771869D01*
X158651609Y-124811874D01*
X158669412Y-124848844D01*
X158672075Y-124855271D01*
X158685633Y-124894018D01*
X158707472Y-124928774D01*
X158710837Y-124934864D01*
X158728643Y-124971837D01*
X158728644Y-124971838D01*
X158728645Y-124971840D01*
X158751608Y-125000635D01*
X158754233Y-125003926D01*
X158758260Y-125009601D01*
X158780094Y-125044352D01*
X158780096Y-125044354D01*
X158780097Y-125044355D01*
X158780098Y-125044356D01*
X158810311Y-125074569D01*
X158810348Y-125074608D01*
X162615689Y-128879949D01*
X162615719Y-128879977D01*
X162645644Y-128909902D01*
X162680393Y-128931736D01*
X162686068Y-128935763D01*
X162718160Y-128961356D01*
X162755148Y-128979168D01*
X162761227Y-128982528D01*
X162795975Y-129004362D01*
X162795980Y-129004365D01*
X162834721Y-129017921D01*
X162841139Y-129020579D01*
X162878127Y-129038391D01*
X162918134Y-129047522D01*
X162924808Y-129049443D01*
X162963566Y-129063006D01*
X163004356Y-129067601D01*
X163011204Y-129068764D01*
X163051226Y-129077900D01*
X163095756Y-129077900D01*
X164173217Y-129077900D01*
X164240256Y-129097585D01*
X164277026Y-129134079D01*
X164323711Y-129205537D01*
X164323714Y-129205540D01*
X164472040Y-129366665D01*
X164490452Y-129386665D01*
X164490456Y-129386668D01*
X164587431Y-129462147D01*
X164628244Y-129518857D01*
X164631919Y-129588630D01*
X164597287Y-129649313D01*
X164587431Y-129657853D01*
X164490456Y-129733331D01*
X164490452Y-129733334D01*
X164323711Y-129914462D01*
X164277026Y-129985921D01*
X164223879Y-130031278D01*
X164173217Y-130042100D01*
X155869925Y-130042100D01*
X155802886Y-130022415D01*
X155766117Y-129985923D01*
X155758657Y-129974505D01*
X155716694Y-129910276D01*
X155555570Y-129735249D01*
X155411162Y-129622852D01*
X155370351Y-129566143D01*
X155366676Y-129496370D01*
X155401307Y-129435687D01*
X155411156Y-129427152D01*
X155555570Y-129314751D01*
X155716694Y-129139724D01*
X155846812Y-128940564D01*
X155942374Y-128722704D01*
X156000775Y-128492085D01*
X156019177Y-128270005D01*
X156020420Y-128255006D01*
X156020420Y-128254993D01*
X156000776Y-128017922D01*
X156000774Y-128017911D01*
X155942374Y-127787297D01*
X155941808Y-127786007D01*
X155846812Y-127569436D01*
X155716694Y-127370276D01*
X155555570Y-127195249D01*
X155411162Y-127082852D01*
X155370351Y-127026143D01*
X155366676Y-126956370D01*
X155401307Y-126895687D01*
X155411156Y-126887152D01*
X155555570Y-126774751D01*
X155716694Y-126599724D01*
X155846812Y-126400564D01*
X155942374Y-126182704D01*
X156000775Y-125952085D01*
X156000776Y-125952077D01*
X156020420Y-125715006D01*
X156020420Y-125714993D01*
X156000776Y-125477922D01*
X156000774Y-125477911D01*
X155980842Y-125399202D01*
X155942374Y-125247296D01*
X155846812Y-125029436D01*
X155830145Y-125003926D01*
X155730988Y-124852155D01*
X155716694Y-124830276D01*
X155555570Y-124655249D01*
X155411162Y-124542852D01*
X155370351Y-124486143D01*
X155366676Y-124416370D01*
X155401307Y-124355687D01*
X155411156Y-124347152D01*
X155555570Y-124234751D01*
X155716694Y-124059724D01*
X155846812Y-123860564D01*
X155942374Y-123642704D01*
X156000775Y-123412085D01*
X156019177Y-123190005D01*
X156020420Y-123175006D01*
X156020420Y-123174993D01*
X156000776Y-122937922D01*
X156000774Y-122937911D01*
X155942374Y-122707297D01*
X155941808Y-122706007D01*
X155846812Y-122489436D01*
X155716694Y-122290276D01*
X155555570Y-122115249D01*
X155411162Y-122002852D01*
X155370351Y-121946143D01*
X155366676Y-121876370D01*
X155401307Y-121815687D01*
X155411156Y-121807152D01*
X155555570Y-121694751D01*
X155716694Y-121519724D01*
X155846812Y-121320564D01*
X155942374Y-121102704D01*
X156000775Y-120872085D01*
X156019177Y-120650005D01*
X156020420Y-120635006D01*
X156020420Y-120634993D01*
X156000776Y-120397922D01*
X156000774Y-120397911D01*
X155942374Y-120167297D01*
X155941808Y-120166007D01*
X155846812Y-119949436D01*
X155837795Y-119935635D01*
X155716695Y-119750278D01*
X155716694Y-119750276D01*
X155555570Y-119575249D01*
X155555569Y-119575248D01*
X155555567Y-119575246D01*
X155555563Y-119575243D01*
X155367843Y-119429134D01*
X155367837Y-119429130D01*
X155158611Y-119315902D01*
X155158602Y-119315899D01*
X154933604Y-119238656D01*
X154698949Y-119199500D01*
X154461051Y-119199500D01*
X154226395Y-119238656D01*
X154001397Y-119315899D01*
X154001388Y-119315902D01*
X153792162Y-119429130D01*
X153792156Y-119429134D01*
X153604436Y-119575243D01*
X153604432Y-119575246D01*
X153443307Y-119750274D01*
X153443304Y-119750278D01*
X153313188Y-119949434D01*
X153217625Y-120167297D01*
X153159225Y-120397911D01*
X153159223Y-120397922D01*
X153139580Y-120634993D01*
X153139580Y-120635006D01*
X153159223Y-120872077D01*
X153159225Y-120872088D01*
X153217625Y-121102702D01*
X153313188Y-121320565D01*
X153405087Y-121461226D01*
X153443306Y-121519724D01*
X153604430Y-121694751D01*
X153748837Y-121807147D01*
X153789649Y-121863857D01*
X153793324Y-121933630D01*
X153758693Y-121994313D01*
X153748843Y-122002847D01*
X153639571Y-122087897D01*
X153604431Y-122115248D01*
X153443307Y-122290274D01*
X153443304Y-122290278D01*
X153313188Y-122489434D01*
X153217625Y-122707297D01*
X153159225Y-122937911D01*
X153159223Y-122937922D01*
X153139580Y-123174993D01*
X153139580Y-123175006D01*
X153159223Y-123412077D01*
X153159225Y-123412088D01*
X153217625Y-123642702D01*
X153313188Y-123860565D01*
X153443304Y-124059721D01*
X153443306Y-124059724D01*
X153604430Y-124234751D01*
X153748837Y-124347147D01*
X153789649Y-124403857D01*
X153793324Y-124473630D01*
X153758693Y-124534313D01*
X153748843Y-124542847D01*
X153682799Y-124594252D01*
X153604431Y-124655248D01*
X153443305Y-124830276D01*
X153386512Y-124917203D01*
X153333365Y-124962559D01*
X153323671Y-124966417D01*
X153323134Y-124966604D01*
X153286150Y-124984415D01*
X153279724Y-124987076D01*
X153240986Y-125000632D01*
X153240978Y-125000636D01*
X153206225Y-125022472D01*
X153200138Y-125025836D01*
X153163161Y-125043644D01*
X153131063Y-125069240D01*
X153125396Y-125073260D01*
X153121293Y-125075839D01*
X153090641Y-125095099D01*
X153090639Y-125095101D01*
X153061598Y-125124141D01*
X153061586Y-125124154D01*
X153059159Y-125126582D01*
X153059155Y-125126586D01*
X151411585Y-126774156D01*
X151411581Y-126774160D01*
X151409154Y-126776586D01*
X151409150Y-126776590D01*
X151380098Y-126805644D01*
X151380095Y-126805648D01*
X151358260Y-126840396D01*
X151354236Y-126846067D01*
X151328648Y-126878155D01*
X151328645Y-126878159D01*
X151310840Y-126915130D01*
X151307476Y-126921215D01*
X151285636Y-126955977D01*
X151272079Y-126994719D01*
X151269417Y-127001145D01*
X151251609Y-127038127D01*
X151242476Y-127078134D01*
X151240551Y-127084816D01*
X151226995Y-127123560D01*
X151226994Y-127123568D01*
X151222396Y-127164356D01*
X151221232Y-127171210D01*
X151212101Y-127211226D01*
X151212101Y-127253936D01*
X151212100Y-127253973D01*
X151212100Y-135396149D01*
X151212101Y-135396181D01*
X151212101Y-135438776D01*
X151221232Y-135478787D01*
X151222396Y-135485634D01*
X151226994Y-135526434D01*
X151226995Y-135526436D01*
X151240552Y-135565185D01*
X151242478Y-135571869D01*
X151251609Y-135611874D01*
X151269412Y-135648844D01*
X151272075Y-135655271D01*
X151285633Y-135694018D01*
X151307472Y-135728774D01*
X151310837Y-135734864D01*
X151328643Y-135771837D01*
X151354233Y-135803926D01*
X151358260Y-135809601D01*
X151380094Y-135844352D01*
X151380096Y-135844354D01*
X151380097Y-135844355D01*
X151380098Y-135844356D01*
X151410311Y-135874569D01*
X151410348Y-135874608D01*
X154025689Y-138489949D01*
X154025719Y-138489977D01*
X154055644Y-138519902D01*
X154090393Y-138541736D01*
X154096068Y-138545763D01*
X154128160Y-138571356D01*
X154128163Y-138571357D01*
X154128164Y-138571358D01*
X154165142Y-138589166D01*
X154171231Y-138592531D01*
X154205980Y-138614365D01*
X154244715Y-138627919D01*
X154251142Y-138630581D01*
X154288127Y-138648392D01*
X154303325Y-138651860D01*
X154328147Y-138657526D01*
X154334823Y-138659448D01*
X154373566Y-138673006D01*
X154414348Y-138677600D01*
X154421206Y-138678766D01*
X154441931Y-138683496D01*
X154461226Y-138687900D01*
X169745936Y-138687900D01*
X169745972Y-138687899D01*
X169788774Y-138687899D01*
X169828784Y-138678767D01*
X169835639Y-138677602D01*
X169876434Y-138673006D01*
X169905139Y-138662960D01*
X169915176Y-138659449D01*
X169921865Y-138657522D01*
X169933146Y-138654946D01*
X169961873Y-138648391D01*
X169998859Y-138630578D01*
X170005267Y-138627924D01*
X170044020Y-138614365D01*
X170078783Y-138592520D01*
X170084860Y-138589162D01*
X170121840Y-138571355D01*
X170153937Y-138545757D01*
X170159596Y-138541741D01*
X170194356Y-138519902D01*
X170220457Y-138493799D01*
X170220472Y-138493787D01*
X178843787Y-129870472D01*
X178843801Y-129870456D01*
X178869902Y-129844356D01*
X178891741Y-129809596D01*
X178895757Y-129803937D01*
X178921355Y-129771840D01*
X178939162Y-129734860D01*
X178942520Y-129728783D01*
X178964365Y-129694020D01*
X178977924Y-129655267D01*
X178980578Y-129648859D01*
X178998391Y-129611873D01*
X179007522Y-129571865D01*
X179009449Y-129565176D01*
X179013489Y-129553630D01*
X179023006Y-129526434D01*
X179027602Y-129485639D01*
X179028767Y-129478784D01*
X179032855Y-129460871D01*
X179037899Y-129438774D01*
X179037899Y-129396181D01*
X179037900Y-129396149D01*
X179037900Y-121503973D01*
X179037899Y-121503936D01*
X179037899Y-121461226D01*
X179037899Y-121461225D01*
X179028766Y-121421209D01*
X179027602Y-121414363D01*
X179023006Y-121373566D01*
X179009441Y-121334801D01*
X179007526Y-121328153D01*
X178998391Y-121288126D01*
X178980580Y-121251142D01*
X178977923Y-121244729D01*
X178964365Y-121205980D01*
X178964364Y-121205978D01*
X178964363Y-121205976D01*
X178942527Y-121171225D01*
X178939161Y-121165134D01*
X178921355Y-121128160D01*
X178895763Y-121096068D01*
X178891737Y-121090395D01*
X178869901Y-121055643D01*
X178839977Y-121025719D01*
X178839949Y-121025689D01*
X177874608Y-120060348D01*
X177874569Y-120060311D01*
X177844356Y-120030098D01*
X177844355Y-120030097D01*
X177844354Y-120030096D01*
X177844352Y-120030094D01*
X177809601Y-120008260D01*
X177803931Y-120004236D01*
X177771840Y-119978645D01*
X177771838Y-119978644D01*
X177771837Y-119978643D01*
X177734864Y-119960837D01*
X177728774Y-119957472D01*
X177694018Y-119935633D01*
X177655271Y-119922075D01*
X177648844Y-119919412D01*
X177611874Y-119901609D01*
X177571869Y-119892478D01*
X177565185Y-119890552D01*
X177532631Y-119879162D01*
X177526434Y-119876994D01*
X177485634Y-119872396D01*
X177478787Y-119871232D01*
X177438776Y-119862101D01*
X177438774Y-119862101D01*
X177395972Y-119862101D01*
X177395936Y-119862100D01*
X177394244Y-119862100D01*
X176376783Y-119862100D01*
X176309744Y-119842415D01*
X176272974Y-119805921D01*
X176226288Y-119734462D01*
X176079721Y-119575249D01*
X176059550Y-119553337D01*
X176059549Y-119553336D01*
X176059547Y-119553334D01*
X176059543Y-119553331D01*
X175962569Y-119477853D01*
X175921756Y-119421143D01*
X175918081Y-119351370D01*
X175952713Y-119290687D01*
X175962569Y-119282147D01*
X176009476Y-119245636D01*
X176059550Y-119206663D01*
X176226286Y-119025540D01*
X176360936Y-118819443D01*
X176459827Y-118593994D01*
X176520261Y-118355343D01*
X176540591Y-118110000D01*
X176539347Y-118094993D01*
X176520261Y-117864660D01*
X176520261Y-117864657D01*
X176459827Y-117626006D01*
X176360936Y-117400557D01*
X176226286Y-117194460D01*
X176226283Y-117194457D01*
X176226279Y-117194451D01*
X176193493Y-117158837D01*
X176162570Y-117096183D01*
X176170430Y-117026757D01*
X176214577Y-116972601D01*
X176221602Y-116968122D01*
X176292592Y-116926139D01*
X176292593Y-116926137D01*
X176292598Y-116926135D01*
X176406135Y-116812598D01*
X176487869Y-116674393D01*
X176532665Y-116520204D01*
X176535500Y-116484181D01*
X176535499Y-114655820D01*
X176532665Y-114619796D01*
X176487869Y-114465607D01*
X176406135Y-114327402D01*
X176406133Y-114327400D01*
X176406130Y-114327396D01*
X176292603Y-114213869D01*
X176292595Y-114213863D01*
X176154393Y-114132131D01*
X176154388Y-114132129D01*
X176000208Y-114087335D01*
X176000202Y-114087334D01*
X175964183Y-114084500D01*
X175964181Y-114084500D01*
X174135820Y-114084501D01*
X174099795Y-114087335D01*
X173945611Y-114132129D01*
X173945606Y-114132131D01*
X173807404Y-114213863D01*
X173807396Y-114213869D01*
X173693869Y-114327396D01*
X173693863Y-114327404D01*
X173612131Y-114465606D01*
X173612129Y-114465611D01*
X173567335Y-114619791D01*
X173567334Y-114619797D01*
X173564500Y-114655817D01*
X173564501Y-116484180D01*
X173567335Y-116520204D01*
X173612129Y-116674388D01*
X173612131Y-116674393D01*
X173693863Y-116812595D01*
X173693869Y-116812603D01*
X173807396Y-116926130D01*
X173807405Y-116926137D01*
X173878398Y-116968122D01*
X173926081Y-117019191D01*
X173938585Y-117087933D01*
X173911940Y-117152522D01*
X173906508Y-117158835D01*
X173873714Y-117194459D01*
X173739062Y-117400560D01*
X173640172Y-117626007D01*
X173579738Y-117864660D01*
X173559409Y-118109994D01*
X173559409Y-118110005D01*
X173579738Y-118355339D01*
X173640172Y-118593992D01*
X173739064Y-118819444D01*
X173873712Y-119025537D01*
X173873714Y-119025540D01*
X173992661Y-119154751D01*
X174040452Y-119206665D01*
X174040456Y-119206668D01*
X174137431Y-119282147D01*
X174178244Y-119338857D01*
X174181919Y-119408630D01*
X174147287Y-119469313D01*
X174137431Y-119477853D01*
X174040456Y-119553331D01*
X174040452Y-119553334D01*
X173873715Y-119734458D01*
X173873712Y-119734462D01*
X173739064Y-119940555D01*
X173640172Y-120166007D01*
X173579738Y-120404660D01*
X173559409Y-120649994D01*
X173559409Y-120650005D01*
X173579738Y-120895339D01*
X173640172Y-121133992D01*
X173739064Y-121359444D01*
X173873712Y-121565537D01*
X173873714Y-121565540D01*
X173992661Y-121694751D01*
X174040452Y-121746665D01*
X174040456Y-121746668D01*
X174137431Y-121822147D01*
X174178244Y-121878857D01*
X174181919Y-121948630D01*
X174147287Y-122009313D01*
X174137431Y-122017853D01*
X174040456Y-122093331D01*
X174040452Y-122093334D01*
X173873715Y-122274458D01*
X173873712Y-122274462D01*
X173739064Y-122480555D01*
X173640172Y-122706007D01*
X173579738Y-122944660D01*
X173559409Y-123189994D01*
X173559409Y-123190005D01*
X173579738Y-123435339D01*
X173640172Y-123673992D01*
X173739064Y-123899444D01*
X173873712Y-124105537D01*
X173873714Y-124105540D01*
X174040450Y-124286663D01*
X174129132Y-124355687D01*
X174234721Y-124437871D01*
X174239016Y-124440677D01*
X174237837Y-124442480D01*
X174280956Y-124485268D01*
X174296070Y-124553483D01*
X174271905Y-124619041D01*
X174243477Y-124646688D01*
X174178922Y-124691890D01*
X174178920Y-124691891D01*
X174011891Y-124858920D01*
X174011886Y-124858926D01*
X173876400Y-125052420D01*
X173876399Y-125052422D01*
X173776570Y-125266507D01*
X173776567Y-125266513D01*
X173719364Y-125479999D01*
X173719364Y-125480000D01*
X174616314Y-125480000D01*
X174590507Y-125520156D01*
X174550000Y-125658111D01*
X174550000Y-125801889D01*
X174590507Y-125939844D01*
X174616314Y-125980000D01*
X173719364Y-125980000D01*
X173776567Y-126193486D01*
X173776570Y-126193492D01*
X173876399Y-126407578D01*
X174011894Y-126601082D01*
X174178917Y-126768105D01*
X174243477Y-126813311D01*
X174287102Y-126867888D01*
X174294294Y-126937387D01*
X174262772Y-126999741D01*
X174238475Y-127018476D01*
X174239025Y-127019317D01*
X174234720Y-127022129D01*
X174040456Y-127173331D01*
X174040452Y-127173334D01*
X173873714Y-127354460D01*
X173813959Y-127445922D01*
X173760812Y-127491278D01*
X173710150Y-127502100D01*
X166826783Y-127502100D01*
X166759744Y-127482415D01*
X166722974Y-127445921D01*
X166676288Y-127374462D01*
X166567011Y-127255756D01*
X166552760Y-127240275D01*
X166521839Y-127177623D01*
X166529699Y-127108196D01*
X166573846Y-127054041D01*
X166584566Y-127047461D01*
X166592091Y-127043351D01*
X166707187Y-126957190D01*
X166707190Y-126957187D01*
X166793350Y-126842093D01*
X166793354Y-126842086D01*
X166843596Y-126707379D01*
X166843598Y-126707372D01*
X166849999Y-126647844D01*
X166850000Y-126647827D01*
X166850000Y-126000000D01*
X165933686Y-126000000D01*
X165959493Y-125959844D01*
X166000000Y-125821889D01*
X166000000Y-125678111D01*
X165959493Y-125540156D01*
X165933686Y-125500000D01*
X166850000Y-125500000D01*
X166850000Y-124852172D01*
X166849999Y-124852155D01*
X166843598Y-124792627D01*
X166843596Y-124792620D01*
X166793354Y-124657913D01*
X166793350Y-124657906D01*
X166707190Y-124542812D01*
X166707187Y-124542809D01*
X166592093Y-124456649D01*
X166592086Y-124456645D01*
X166457379Y-124406403D01*
X166457372Y-124406401D01*
X166397844Y-124400000D01*
X165750000Y-124400000D01*
X165750000Y-125314498D01*
X165642315Y-125265320D01*
X165535763Y-125250000D01*
X165464237Y-125250000D01*
X165357685Y-125265320D01*
X165250000Y-125314498D01*
X165250000Y-124400000D01*
X164602155Y-124400000D01*
X164542627Y-124406401D01*
X164542620Y-124406403D01*
X164407913Y-124456645D01*
X164407906Y-124456649D01*
X164292812Y-124542809D01*
X164292809Y-124542812D01*
X164206649Y-124657906D01*
X164206645Y-124657913D01*
X164156403Y-124792620D01*
X164156401Y-124792627D01*
X164150000Y-124852155D01*
X164150000Y-125500000D01*
X165066314Y-125500000D01*
X165040507Y-125540156D01*
X165000000Y-125678111D01*
X165000000Y-125821889D01*
X165040507Y-125959844D01*
X165066314Y-126000000D01*
X164150000Y-126000000D01*
X164150000Y-126647844D01*
X164156401Y-126707372D01*
X164156403Y-126707379D01*
X164206645Y-126842086D01*
X164206649Y-126842093D01*
X164292809Y-126957187D01*
X164292812Y-126957190D01*
X164407906Y-127043350D01*
X164415436Y-127047462D01*
X164464841Y-127096868D01*
X164479692Y-127165141D01*
X164455274Y-127230605D01*
X164447238Y-127240277D01*
X164323711Y-127374462D01*
X164277026Y-127445921D01*
X164223879Y-127491278D01*
X164173217Y-127502100D01*
X163517721Y-127502100D01*
X163450682Y-127482415D01*
X163430040Y-127465781D01*
X160224219Y-124259960D01*
X160190734Y-124198637D01*
X160187900Y-124172279D01*
X160187900Y-109803973D01*
X160187899Y-109803936D01*
X160187899Y-109761227D01*
X160187899Y-109761226D01*
X160178766Y-109721214D01*
X160177601Y-109714354D01*
X160173006Y-109673566D01*
X160159447Y-109634819D01*
X160157522Y-109628136D01*
X160148391Y-109588128D01*
X160148391Y-109588127D01*
X160130581Y-109551145D01*
X160127924Y-109544732D01*
X160114365Y-109505980D01*
X160092527Y-109471225D01*
X160089164Y-109465140D01*
X160081619Y-109449475D01*
X160071355Y-109428160D01*
X160045763Y-109396068D01*
X160041737Y-109390395D01*
X160019901Y-109355643D01*
X159989977Y-109325719D01*
X159989949Y-109325689D01*
X158690149Y-108025889D01*
X165899416Y-108025889D01*
X165899459Y-108050001D01*
X165899500Y-108050099D01*
X165899616Y-108050382D01*
X165899618Y-108050384D01*
X165899808Y-108050462D01*
X165900000Y-108050541D01*
X165900002Y-108050539D01*
X165924616Y-108050524D01*
X165924616Y-108050528D01*
X165924760Y-108050500D01*
X178275240Y-108050500D01*
X178275383Y-108050528D01*
X178275384Y-108050524D01*
X178299997Y-108050539D01*
X178300000Y-108050541D01*
X178300383Y-108050383D01*
X178300500Y-108050099D01*
X178300541Y-108050000D01*
X178300540Y-108049997D01*
X178300583Y-108025889D01*
X178300500Y-108025467D01*
X178300500Y-101674759D01*
X178300528Y-101674616D01*
X178300524Y-101674616D01*
X178300539Y-101650002D01*
X178300541Y-101650000D01*
X178300462Y-101649808D01*
X178300384Y-101649618D01*
X178300382Y-101649616D01*
X178300099Y-101649500D01*
X178300000Y-101649459D01*
X178275446Y-101649459D01*
X178275240Y-101649500D01*
X165924760Y-101649500D01*
X165924554Y-101649459D01*
X165900000Y-101649459D01*
X165899901Y-101649500D01*
X165899617Y-101649616D01*
X165899615Y-101649618D01*
X165899459Y-101649999D01*
X165899476Y-101674616D01*
X165899471Y-101674616D01*
X165899500Y-101674759D01*
X165899500Y-108025467D01*
X165899416Y-108025889D01*
X158690149Y-108025889D01*
X158009608Y-107345348D01*
X158009569Y-107345311D01*
X157979356Y-107315098D01*
X157979355Y-107315097D01*
X157979354Y-107315096D01*
X157979352Y-107315094D01*
X157944601Y-107293260D01*
X157938931Y-107289236D01*
X157906840Y-107263645D01*
X157906838Y-107263644D01*
X157906837Y-107263643D01*
X157869864Y-107245837D01*
X157863774Y-107242472D01*
X157829018Y-107220633D01*
X157790271Y-107207075D01*
X157783844Y-107204412D01*
X157746874Y-107186609D01*
X157706869Y-107177478D01*
X157700185Y-107175552D01*
X157667631Y-107164162D01*
X157661434Y-107161994D01*
X157620634Y-107157396D01*
X157613787Y-107156232D01*
X157573776Y-107147101D01*
X157573774Y-107147101D01*
X157530972Y-107147101D01*
X157530936Y-107147100D01*
X157529244Y-107147100D01*
X155847058Y-107147100D01*
X155780019Y-107127415D01*
X155743249Y-107090921D01*
X155716696Y-107050278D01*
X155670673Y-107000284D01*
X155555570Y-106875249D01*
X155411162Y-106762852D01*
X155370351Y-106706143D01*
X155366676Y-106636370D01*
X155401307Y-106575687D01*
X155411156Y-106567152D01*
X155555570Y-106454751D01*
X155716694Y-106279724D01*
X155846812Y-106080564D01*
X155942374Y-105862704D01*
X156000775Y-105632085D01*
X156009211Y-105530276D01*
X156020420Y-105395006D01*
X156020420Y-105394993D01*
X156000776Y-105157922D01*
X156000774Y-105157911D01*
X155942374Y-104927297D01*
X155846811Y-104709434D01*
X155768366Y-104589366D01*
X155716694Y-104510276D01*
X155555570Y-104335249D01*
X155411162Y-104222852D01*
X155370351Y-104166143D01*
X155366676Y-104096370D01*
X155401307Y-104035687D01*
X155411156Y-104027152D01*
X155555570Y-103914751D01*
X155716694Y-103739724D01*
X155846812Y-103540564D01*
X155942374Y-103322704D01*
X156000775Y-103092085D01*
X156002515Y-103071089D01*
X156020420Y-102855006D01*
X156020420Y-102854993D01*
X156000776Y-102617922D01*
X156000774Y-102617911D01*
X155942374Y-102387297D01*
X155846811Y-102169434D01*
X155777222Y-102062921D01*
X155716694Y-101970276D01*
X155555570Y-101795249D01*
X155411162Y-101682852D01*
X155370351Y-101626143D01*
X155366676Y-101556370D01*
X155401307Y-101495687D01*
X155411156Y-101487152D01*
X155555570Y-101374751D01*
X155716694Y-101199724D01*
X155846812Y-101000564D01*
X155942374Y-100782704D01*
X156000775Y-100552085D01*
X156002085Y-100536278D01*
X156020420Y-100315006D01*
X156020420Y-100314993D01*
X156000776Y-100077922D01*
X156000774Y-100077911D01*
X155970067Y-99956654D01*
X155942374Y-99847296D01*
X155928598Y-99815889D01*
X160189416Y-99815889D01*
X160189459Y-99840001D01*
X160189500Y-99840099D01*
X160189616Y-99840382D01*
X160189618Y-99840384D01*
X160189808Y-99840462D01*
X160190000Y-99840541D01*
X160190002Y-99840539D01*
X160214616Y-99840524D01*
X160214616Y-99840528D01*
X160214760Y-99840500D01*
X172565240Y-99840500D01*
X172565383Y-99840528D01*
X172565384Y-99840524D01*
X172589997Y-99840539D01*
X172590000Y-99840541D01*
X172590383Y-99840383D01*
X172590500Y-99840099D01*
X172590541Y-99840000D01*
X172590540Y-99839997D01*
X172590583Y-99815889D01*
X172590500Y-99815467D01*
X172590500Y-93464759D01*
X172590528Y-93464616D01*
X172590524Y-93464616D01*
X172590539Y-93440002D01*
X172590541Y-93440000D01*
X172590462Y-93439808D01*
X172590384Y-93439618D01*
X172590382Y-93439616D01*
X172590099Y-93439500D01*
X172590000Y-93439459D01*
X172565446Y-93439459D01*
X172565240Y-93439500D01*
X160214760Y-93439500D01*
X160214554Y-93439459D01*
X160190000Y-93439459D01*
X160189901Y-93439500D01*
X160189617Y-93439616D01*
X160189615Y-93439618D01*
X160189459Y-93439999D01*
X160189476Y-93464616D01*
X160189471Y-93464616D01*
X160189500Y-93464759D01*
X160189500Y-99815467D01*
X160189416Y-99815889D01*
X155928598Y-99815889D01*
X155846812Y-99629436D01*
X155820247Y-99588776D01*
X155781753Y-99529856D01*
X155716694Y-99430276D01*
X155649510Y-99357295D01*
X155632060Y-99338339D01*
X155601138Y-99275684D01*
X155608998Y-99206258D01*
X155653145Y-99152103D01*
X155660136Y-99147644D01*
X155772598Y-99081135D01*
X155886135Y-98967598D01*
X155967869Y-98829393D01*
X156012665Y-98675204D01*
X156015500Y-98639181D01*
X156015499Y-96910820D01*
X156012665Y-96874796D01*
X155967869Y-96720607D01*
X155886135Y-96582402D01*
X155886133Y-96582400D01*
X155886130Y-96582396D01*
X155772603Y-96468869D01*
X155772595Y-96468863D01*
X155634393Y-96387131D01*
X155634388Y-96387129D01*
X155480208Y-96342335D01*
X155480202Y-96342334D01*
X155444183Y-96339500D01*
X155444181Y-96339500D01*
X153715820Y-96339501D01*
X153679795Y-96342335D01*
X153525611Y-96387129D01*
X153525606Y-96387131D01*
X153387404Y-96468863D01*
X153387396Y-96468869D01*
X153273869Y-96582396D01*
X153273863Y-96582404D01*
X153192131Y-96720606D01*
X153192129Y-96720611D01*
X153147335Y-96874791D01*
X153147334Y-96874797D01*
X153144500Y-96910817D01*
X153144501Y-98639180D01*
X153147335Y-98675204D01*
X153192129Y-98829388D01*
X153192131Y-98829393D01*
X153273863Y-98967595D01*
X153273869Y-98967603D01*
X153387396Y-99081130D01*
X153387400Y-99081133D01*
X153387402Y-99081135D01*
X153387405Y-99081136D01*
X153387408Y-99081139D01*
X153499829Y-99147624D01*
X153547513Y-99198693D01*
X153560017Y-99267434D01*
X153533372Y-99332024D01*
X153527939Y-99338338D01*
X153443312Y-99430267D01*
X153443304Y-99430278D01*
X153313188Y-99629434D01*
X153217625Y-99847297D01*
X153159225Y-100077911D01*
X153159223Y-100077922D01*
X153139580Y-100314993D01*
X153139580Y-100315006D01*
X153159223Y-100552077D01*
X153159225Y-100552088D01*
X153217625Y-100782702D01*
X153313188Y-101000565D01*
X153376795Y-101097922D01*
X153443306Y-101199724D01*
X153604430Y-101374751D01*
X153748837Y-101487147D01*
X153789649Y-101543857D01*
X153793324Y-101613630D01*
X153758693Y-101674313D01*
X153748843Y-101682847D01*
X153654671Y-101756145D01*
X153604431Y-101795248D01*
X153443307Y-101970274D01*
X153443304Y-101970278D01*
X153313188Y-102169434D01*
X153217625Y-102387297D01*
X153159225Y-102617911D01*
X153159223Y-102617922D01*
X153139580Y-102854993D01*
X153139580Y-102855006D01*
X153159223Y-103092077D01*
X153159225Y-103092088D01*
X153217625Y-103322702D01*
X153313188Y-103540565D01*
X153376795Y-103637922D01*
X153443306Y-103739724D01*
X153604430Y-103914751D01*
X153748837Y-104027147D01*
X153789649Y-104083857D01*
X153793324Y-104153630D01*
X153758693Y-104214313D01*
X153748843Y-104222847D01*
X153639571Y-104307897D01*
X153604431Y-104335248D01*
X153443307Y-104510274D01*
X153443304Y-104510278D01*
X153313188Y-104709434D01*
X153217625Y-104927297D01*
X153159225Y-105157911D01*
X153159223Y-105157922D01*
X153139580Y-105394993D01*
X153139580Y-105395006D01*
X153159223Y-105632077D01*
X153159225Y-105632088D01*
X153217625Y-105862702D01*
X153313188Y-106080565D01*
X153376795Y-106177922D01*
X153443306Y-106279724D01*
X153604430Y-106454751D01*
X153748837Y-106567147D01*
X153789649Y-106623857D01*
X153793324Y-106693630D01*
X153758693Y-106754313D01*
X153748843Y-106762847D01*
X153639571Y-106847897D01*
X153604431Y-106875248D01*
X153443307Y-107050274D01*
X153443304Y-107050278D01*
X153313188Y-107249434D01*
X153217625Y-107467297D01*
X153159225Y-107697911D01*
X153159223Y-107697922D01*
X153139580Y-107934993D01*
X153139580Y-107935006D01*
X153159223Y-108172077D01*
X153159225Y-108172088D01*
X153217625Y-108402702D01*
X153313188Y-108620565D01*
X153387118Y-108733722D01*
X153443306Y-108819724D01*
X153604430Y-108994751D01*
X153748837Y-109107147D01*
X153789649Y-109163857D01*
X153793324Y-109233630D01*
X153758693Y-109294313D01*
X153748843Y-109302847D01*
X153681012Y-109355643D01*
X153604431Y-109415248D01*
X153443307Y-109590274D01*
X153443304Y-109590278D01*
X153313188Y-109789434D01*
X153217625Y-110007297D01*
X153159225Y-110237911D01*
X153159223Y-110237922D01*
X153139580Y-110474993D01*
X153139580Y-110475006D01*
X153159223Y-110712077D01*
X153159225Y-110712088D01*
X153217625Y-110942702D01*
X153313188Y-111160565D01*
X153376795Y-111257922D01*
X153443306Y-111359724D01*
X153604430Y-111534751D01*
X153748837Y-111647147D01*
X153789649Y-111703857D01*
X153793324Y-111773630D01*
X153758693Y-111834313D01*
X153748843Y-111842847D01*
X153639571Y-111927897D01*
X153604431Y-111955248D01*
X153443307Y-112130274D01*
X153443304Y-112130278D01*
X153313188Y-112329434D01*
X153217625Y-112547297D01*
X153159225Y-112777911D01*
X153159223Y-112777922D01*
X153139580Y-113014993D01*
X153139580Y-113015006D01*
X153159223Y-113252077D01*
X153159225Y-113252088D01*
X153217625Y-113482702D01*
X153313188Y-113700565D01*
X153443304Y-113899721D01*
X153443306Y-113899724D01*
X153604430Y-114074751D01*
X153748837Y-114187147D01*
X153789649Y-114243857D01*
X153793324Y-114313630D01*
X153758693Y-114374313D01*
X153748843Y-114382847D01*
X153642515Y-114465606D01*
X153604431Y-114495248D01*
X153443303Y-114670278D01*
X153416751Y-114710921D01*
X153363604Y-114756278D01*
X153312942Y-114767100D01*
X146582720Y-114767100D01*
X146515681Y-114747415D01*
X146495039Y-114730781D01*
X125791134Y-94026876D01*
X123240147Y-91475889D01*
X165899416Y-91475889D01*
X165899459Y-91500001D01*
X165899500Y-91500099D01*
X165899616Y-91500382D01*
X165899618Y-91500384D01*
X165899808Y-91500462D01*
X165900000Y-91500541D01*
X165900002Y-91500539D01*
X165924616Y-91500524D01*
X165924616Y-91500528D01*
X165924760Y-91500500D01*
X178275240Y-91500500D01*
X178275383Y-91500528D01*
X178275384Y-91500524D01*
X178299997Y-91500539D01*
X178300000Y-91500541D01*
X178300383Y-91500383D01*
X178300500Y-91500099D01*
X178300541Y-91500000D01*
X178300540Y-91499997D01*
X178300583Y-91475889D01*
X178300500Y-91475467D01*
X178300500Y-85124759D01*
X178300528Y-85124616D01*
X178300524Y-85124616D01*
X178300539Y-85100002D01*
X178300541Y-85100000D01*
X178300462Y-85099808D01*
X178300384Y-85099618D01*
X178300382Y-85099616D01*
X178300099Y-85099500D01*
X178300000Y-85099459D01*
X178275446Y-85099459D01*
X178275240Y-85099500D01*
X165924760Y-85099500D01*
X165924554Y-85099459D01*
X165900000Y-85099459D01*
X165899901Y-85099500D01*
X165899617Y-85099616D01*
X165899615Y-85099618D01*
X165899459Y-85099999D01*
X165899476Y-85124616D01*
X165899471Y-85124616D01*
X165899500Y-85124759D01*
X165899500Y-91475467D01*
X165899416Y-91475889D01*
X123240147Y-91475889D01*
X115030148Y-83265889D01*
X160189416Y-83265889D01*
X160189459Y-83290001D01*
X160189500Y-83290099D01*
X160189616Y-83290382D01*
X160189618Y-83290384D01*
X160189808Y-83290462D01*
X160190000Y-83290541D01*
X160190002Y-83290539D01*
X160214616Y-83290524D01*
X160214616Y-83290528D01*
X160214760Y-83290500D01*
X172565240Y-83290500D01*
X172565383Y-83290528D01*
X172565384Y-83290524D01*
X172589997Y-83290539D01*
X172590000Y-83290541D01*
X172590383Y-83290383D01*
X172590500Y-83290099D01*
X172590541Y-83290000D01*
X172590540Y-83289997D01*
X172590583Y-83265889D01*
X172590500Y-83265467D01*
X172590500Y-76914759D01*
X172590528Y-76914616D01*
X172590524Y-76914616D01*
X172590539Y-76890002D01*
X172590541Y-76890000D01*
X172590462Y-76889808D01*
X172590384Y-76889618D01*
X172590382Y-76889616D01*
X172590099Y-76889500D01*
X172590000Y-76889459D01*
X172565446Y-76889459D01*
X172565240Y-76889500D01*
X160214760Y-76889500D01*
X160214554Y-76889459D01*
X160190000Y-76889459D01*
X160189901Y-76889500D01*
X160189617Y-76889616D01*
X160189615Y-76889618D01*
X160189459Y-76889999D01*
X160189476Y-76914616D01*
X160189471Y-76914616D01*
X160189500Y-76914759D01*
X160189500Y-83265467D01*
X160189416Y-83265889D01*
X115030148Y-83265889D01*
X105074484Y-73310225D01*
X105074483Y-73310224D01*
X105073238Y-73308979D01*
X105073219Y-73308961D01*
X105042996Y-73278738D01*
X105042995Y-73278737D01*
X105042994Y-73278736D01*
X105042992Y-73278734D01*
X105008241Y-73256900D01*
X105002571Y-73252876D01*
X104970480Y-73227285D01*
X104970478Y-73227284D01*
X104970477Y-73227283D01*
X104933504Y-73209477D01*
X104927414Y-73206112D01*
X104892658Y-73184273D01*
X104853911Y-73170715D01*
X104847484Y-73168052D01*
X104810514Y-73150249D01*
X104770509Y-73141118D01*
X104763825Y-73139192D01*
X104731271Y-73127802D01*
X104725074Y-73125634D01*
X104684274Y-73121036D01*
X104677427Y-73119872D01*
X104637416Y-73110741D01*
X104637414Y-73110741D01*
X104594612Y-73110741D01*
X104594576Y-73110740D01*
X104592884Y-73110740D01*
X98439499Y-73110740D01*
X98372460Y-73091055D01*
X98326705Y-73038251D01*
X98315499Y-72986740D01*
X98315499Y-72934460D01*
X98314938Y-72927334D01*
X98312665Y-72898436D01*
X98267869Y-72744247D01*
X98186135Y-72606042D01*
X98186133Y-72606040D01*
X98186130Y-72606036D01*
X98072603Y-72492509D01*
X98072600Y-72492507D01*
X98072598Y-72492505D01*
X98038985Y-72472626D01*
X97991303Y-72421557D01*
X97978800Y-72352815D01*
X98005446Y-72288226D01*
X98007774Y-72285416D01*
X98026087Y-72263975D01*
X98152371Y-72057898D01*
X98244863Y-71834603D01*
X98301285Y-71599588D01*
X98320248Y-71358640D01*
X98301285Y-71117692D01*
X98244863Y-70882677D01*
X98161105Y-70680468D01*
X98152371Y-70659381D01*
X98026090Y-70453309D01*
X98026089Y-70453307D01*
X97967940Y-70385224D01*
X97869120Y-70269520D01*
X97747611Y-70165741D01*
X97685332Y-70112550D01*
X97685329Y-70112549D01*
X97627110Y-70076872D01*
X97580235Y-70025060D01*
X97567900Y-69971145D01*
X97567900Y-67983973D01*
X97567899Y-67983936D01*
X97567899Y-67941226D01*
X97567899Y-67941225D01*
X97558766Y-67901209D01*
X97557602Y-67894363D01*
X97553006Y-67853566D01*
X97539441Y-67814801D01*
X97537526Y-67808153D01*
X97528391Y-67768126D01*
X97510580Y-67731142D01*
X97507923Y-67724729D01*
X97494365Y-67685980D01*
X97494364Y-67685978D01*
X97494363Y-67685976D01*
X97472527Y-67651225D01*
X97469161Y-67645134D01*
X97451355Y-67608160D01*
X97425762Y-67576067D01*
X97421737Y-67570393D01*
X97399903Y-67535646D01*
X97399902Y-67535644D01*
X97274356Y-67410098D01*
X94475844Y-64611585D01*
X94475843Y-64611584D01*
X94474598Y-64610339D01*
X94474579Y-64610321D01*
X94444356Y-64580098D01*
X94444355Y-64580097D01*
X94444354Y-64580096D01*
X94444352Y-64580094D01*
X94409601Y-64558260D01*
X94403931Y-64554236D01*
X94371840Y-64528645D01*
X94371838Y-64528644D01*
X94371837Y-64528643D01*
X94334864Y-64510837D01*
X94328774Y-64507472D01*
X94294018Y-64485633D01*
X94255271Y-64472075D01*
X94248844Y-64469412D01*
X94211874Y-64451609D01*
X94171869Y-64442478D01*
X94165185Y-64440552D01*
X94132631Y-64429162D01*
X94126434Y-64426994D01*
X94085634Y-64422396D01*
X94078787Y-64421232D01*
X94038776Y-64412101D01*
X94038774Y-64412101D01*
X93995972Y-64412101D01*
X93995936Y-64412100D01*
X93994244Y-64412100D01*
X79738775Y-64412100D01*
X79561226Y-64412100D01*
X79561220Y-64412100D01*
X79521213Y-64421232D01*
X79514356Y-64422397D01*
X79511499Y-64422719D01*
X79473570Y-64426992D01*
X79473567Y-64426993D01*
X79452063Y-64434517D01*
X79434816Y-64440552D01*
X79428141Y-64442475D01*
X79388126Y-64451609D01*
X79351143Y-64469416D01*
X79344721Y-64472076D01*
X79305988Y-64485631D01*
X79305977Y-64485636D01*
X79271227Y-64507470D01*
X79265140Y-64510834D01*
X79228159Y-64528644D01*
X79196064Y-64554237D01*
X79190394Y-64558261D01*
X79155647Y-64580096D01*
X79155644Y-64580098D01*
X79126590Y-64609150D01*
X79126586Y-64609154D01*
X79124160Y-64611581D01*
X79124156Y-64611585D01*
X76861585Y-66874156D01*
X76861581Y-66874160D01*
X76859154Y-66876586D01*
X76859150Y-66876590D01*
X76830098Y-66905644D01*
X76830095Y-66905648D01*
X76808260Y-66940396D01*
X76804236Y-66946067D01*
X76778648Y-66978155D01*
X76778645Y-66978159D01*
X76760840Y-67015130D01*
X76757476Y-67021215D01*
X76735636Y-67055977D01*
X76722079Y-67094719D01*
X76719417Y-67101145D01*
X76701609Y-67138127D01*
X76692476Y-67178134D01*
X76690551Y-67184816D01*
X76676995Y-67223560D01*
X76676994Y-67223568D01*
X76672396Y-67264356D01*
X76671232Y-67271210D01*
X76662101Y-67311226D01*
X76662101Y-67353936D01*
X76662100Y-67353973D01*
X76662100Y-76846149D01*
X67200500Y-76846149D01*
X67200500Y-74249999D01*
X71194551Y-74249999D01*
X71202275Y-74348142D01*
X71202466Y-74353008D01*
X71202466Y-74375734D01*
X71206019Y-74398167D01*
X71206592Y-74403002D01*
X71210603Y-74453959D01*
X71214317Y-74501148D01*
X71214317Y-74501151D01*
X71214318Y-74501153D01*
X71237296Y-74596867D01*
X71238246Y-74601642D01*
X71241801Y-74624090D01*
X71248824Y-74645705D01*
X71250146Y-74650390D01*
X71273127Y-74746114D01*
X71310797Y-74837057D01*
X71312482Y-74841623D01*
X71318170Y-74859126D01*
X71319507Y-74863240D01*
X71319508Y-74863243D01*
X71319509Y-74863244D01*
X71329821Y-74883484D01*
X71331858Y-74887904D01*
X71369532Y-74978857D01*
X71420973Y-75062803D01*
X71423351Y-75067048D01*
X71430514Y-75081104D01*
X71433666Y-75087290D01*
X71433667Y-75087292D01*
X71447017Y-75105667D01*
X71449722Y-75109714D01*
X71499678Y-75191235D01*
X71501164Y-75193659D01*
X71542900Y-75242526D01*
X71565094Y-75268511D01*
X71568107Y-75272332D01*
X71581469Y-75290724D01*
X71597547Y-75306802D01*
X71600832Y-75310355D01*
X71664776Y-75385224D01*
X71739639Y-75449163D01*
X71743202Y-75452457D01*
X71759276Y-75468531D01*
X71777654Y-75481883D01*
X71777665Y-75481891D01*
X71781471Y-75484891D01*
X71856341Y-75548836D01*
X71856343Y-75548837D01*
X71856344Y-75548838D01*
X71856345Y-75548839D01*
X71940277Y-75600272D01*
X71944325Y-75602977D01*
X71951293Y-75608039D01*
X71962710Y-75616334D01*
X71982961Y-75626652D01*
X71987179Y-75629014D01*
X72071141Y-75680466D01*
X72071143Y-75680466D01*
X72071145Y-75680468D01*
X72112908Y-75697766D01*
X72162101Y-75718142D01*
X72166515Y-75720178D01*
X72174608Y-75724301D01*
X72186760Y-75730493D01*
X72208380Y-75737517D01*
X72212923Y-75739194D01*
X72303889Y-75776873D01*
X72399627Y-75799857D01*
X72404289Y-75801172D01*
X72425910Y-75808198D01*
X72425911Y-75808198D01*
X72425914Y-75808199D01*
X72434646Y-75809581D01*
X72448367Y-75811754D01*
X72453107Y-75812696D01*
X72548852Y-75835683D01*
X72647024Y-75843409D01*
X72651795Y-75843974D01*
X72674271Y-75847534D01*
X72674275Y-75847534D01*
X72696992Y-75847534D01*
X72701858Y-75847725D01*
X72800000Y-75855449D01*
X72898142Y-75847725D01*
X72903008Y-75847534D01*
X72925725Y-75847534D01*
X72925729Y-75847534D01*
X72948204Y-75843974D01*
X72952975Y-75843409D01*
X73051148Y-75835683D01*
X73146897Y-75812695D01*
X73151627Y-75811755D01*
X73174090Y-75808198D01*
X73195737Y-75801164D01*
X73200351Y-75799862D01*
X73296111Y-75776873D01*
X73387090Y-75739188D01*
X73391599Y-75737524D01*
X73413240Y-75730493D01*
X73433508Y-75720165D01*
X73437863Y-75718157D01*
X73528859Y-75680466D01*
X73612833Y-75629006D01*
X73617018Y-75626662D01*
X73637290Y-75616334D01*
X73655684Y-75602969D01*
X73659707Y-75600281D01*
X73743659Y-75548836D01*
X73818547Y-75484875D01*
X73822314Y-75481906D01*
X73840724Y-75468531D01*
X73856819Y-75452435D01*
X73860347Y-75449174D01*
X73935224Y-75385224D01*
X73999174Y-75310347D01*
X74002435Y-75306819D01*
X74018531Y-75290724D01*
X74031906Y-75272314D01*
X74034875Y-75268547D01*
X74098836Y-75193659D01*
X74150281Y-75109707D01*
X74152969Y-75105684D01*
X74166334Y-75087290D01*
X74176662Y-75067018D01*
X74179006Y-75062833D01*
X74230466Y-74978859D01*
X74268157Y-74887863D01*
X74270165Y-74883508D01*
X74280493Y-74863240D01*
X74287524Y-74841599D01*
X74289188Y-74837090D01*
X74326873Y-74746111D01*
X74349862Y-74650351D01*
X74351164Y-74645737D01*
X74358198Y-74624090D01*
X74361755Y-74601627D01*
X74362695Y-74596897D01*
X74385683Y-74501148D01*
X74393409Y-74402978D01*
X74393974Y-74398201D01*
X74397534Y-74375729D01*
X74398155Y-74344043D01*
X74398334Y-74340401D01*
X74405449Y-74250000D01*
X74398333Y-74159593D01*
X74398155Y-74155946D01*
X74397979Y-74146990D01*
X74397534Y-74124271D01*
X74393974Y-74101798D01*
X74393409Y-74097021D01*
X74385683Y-73998852D01*
X74362696Y-73903107D01*
X74361753Y-73898357D01*
X74358198Y-73875913D01*
X74358198Y-73875911D01*
X74358195Y-73875903D01*
X74351172Y-73854289D01*
X74349857Y-73849627D01*
X74326873Y-73753889D01*
X74289194Y-73662923D01*
X74287517Y-73658380D01*
X74280493Y-73636760D01*
X74270178Y-73616515D01*
X74268139Y-73612093D01*
X74230468Y-73521145D01*
X74230466Y-73521141D01*
X74179014Y-73437179D01*
X74176649Y-73432955D01*
X74166337Y-73412716D01*
X74166334Y-73412710D01*
X74158039Y-73401293D01*
X74152977Y-73394325D01*
X74150272Y-73390277D01*
X74098839Y-73306345D01*
X74098838Y-73306344D01*
X74098837Y-73306343D01*
X74098836Y-73306341D01*
X74034891Y-73231471D01*
X74031891Y-73227665D01*
X74018531Y-73209276D01*
X74002453Y-73193198D01*
X73999163Y-73189639D01*
X73935224Y-73114776D01*
X73930498Y-73110740D01*
X73907450Y-73091055D01*
X73860355Y-73050832D01*
X73856799Y-73047544D01*
X73840724Y-73031469D01*
X73822332Y-73018107D01*
X73818511Y-73015094D01*
X73743667Y-72951171D01*
X73743659Y-72951164D01*
X73743654Y-72951161D01*
X73743653Y-72951160D01*
X73659714Y-72899722D01*
X73655667Y-72897017D01*
X73637292Y-72883667D01*
X73637290Y-72883666D01*
X73631104Y-72880514D01*
X73617048Y-72873351D01*
X73612803Y-72870973D01*
X73528857Y-72819532D01*
X73437904Y-72781858D01*
X73433484Y-72779821D01*
X73413244Y-72769509D01*
X73413243Y-72769508D01*
X73413240Y-72769507D01*
X73409126Y-72768170D01*
X73391623Y-72762482D01*
X73387057Y-72760797D01*
X73296114Y-72723127D01*
X73200390Y-72700146D01*
X73195705Y-72698824D01*
X73174090Y-72691801D01*
X73151642Y-72688246D01*
X73146867Y-72687296D01*
X73051152Y-72664318D01*
X73051153Y-72664318D01*
X73051151Y-72664317D01*
X73051148Y-72664317D01*
X73003959Y-72660603D01*
X72953002Y-72656592D01*
X72948167Y-72656019D01*
X72925734Y-72652466D01*
X72925729Y-72652466D01*
X72903008Y-72652466D01*
X72898142Y-72652275D01*
X72800000Y-72644551D01*
X72701858Y-72652275D01*
X72696992Y-72652466D01*
X72674271Y-72652466D01*
X72651833Y-72656019D01*
X72646998Y-72656592D01*
X72548851Y-72664317D01*
X72548844Y-72664318D01*
X72453132Y-72687296D01*
X72448357Y-72688246D01*
X72425913Y-72691801D01*
X72425903Y-72691803D01*
X72404299Y-72698823D01*
X72399612Y-72700145D01*
X72303891Y-72723125D01*
X72212938Y-72760799D01*
X72208373Y-72762483D01*
X72186757Y-72769507D01*
X72166515Y-72779820D01*
X72162098Y-72781856D01*
X72071141Y-72819534D01*
X71987201Y-72870970D01*
X71982958Y-72873347D01*
X71962716Y-72883662D01*
X71962708Y-72883667D01*
X71944330Y-72897018D01*
X71940286Y-72899720D01*
X71856339Y-72951165D01*
X71781482Y-73015098D01*
X71777660Y-73018111D01*
X71759276Y-73031469D01*
X71743198Y-73047544D01*
X71739626Y-73050846D01*
X71664775Y-73114775D01*
X71600846Y-73189626D01*
X71597544Y-73193198D01*
X71581469Y-73209276D01*
X71568111Y-73227660D01*
X71565098Y-73231482D01*
X71501165Y-73306339D01*
X71449720Y-73390286D01*
X71447018Y-73394330D01*
X71433667Y-73412708D01*
X71433662Y-73412716D01*
X71423347Y-73432958D01*
X71420970Y-73437201D01*
X71369534Y-73521141D01*
X71331856Y-73612098D01*
X71329820Y-73616515D01*
X71319507Y-73636757D01*
X71312483Y-73658373D01*
X71310799Y-73662938D01*
X71273125Y-73753891D01*
X71250145Y-73849612D01*
X71248823Y-73854299D01*
X71241803Y-73875903D01*
X71241801Y-73875913D01*
X71238246Y-73898357D01*
X71237296Y-73903132D01*
X71214318Y-73998844D01*
X71214317Y-73998851D01*
X71206592Y-74096998D01*
X71206019Y-74101833D01*
X71202466Y-74124270D01*
X71202466Y-74146990D01*
X71202275Y-74151856D01*
X71194551Y-74249999D01*
X67200500Y-74249999D01*
X67200500Y-69249999D01*
X71194551Y-69249999D01*
X71202275Y-69348142D01*
X71202466Y-69353008D01*
X71202466Y-69375734D01*
X71206019Y-69398167D01*
X71206592Y-69403002D01*
X71210603Y-69453959D01*
X71214317Y-69501148D01*
X71214317Y-69501151D01*
X71214318Y-69501153D01*
X71237296Y-69596867D01*
X71238246Y-69601642D01*
X71241801Y-69624090D01*
X71248824Y-69645705D01*
X71250146Y-69650390D01*
X71273127Y-69746114D01*
X71310797Y-69837057D01*
X71312482Y-69841623D01*
X71318170Y-69859126D01*
X71319507Y-69863240D01*
X71319508Y-69863243D01*
X71319509Y-69863244D01*
X71329821Y-69883484D01*
X71331858Y-69887904D01*
X71369532Y-69978857D01*
X71420973Y-70062803D01*
X71423351Y-70067048D01*
X71430514Y-70081104D01*
X71433666Y-70087290D01*
X71433667Y-70087292D01*
X71447017Y-70105667D01*
X71449722Y-70109714D01*
X71499021Y-70190163D01*
X71501164Y-70193659D01*
X71501171Y-70193667D01*
X71565094Y-70268511D01*
X71568107Y-70272332D01*
X71581469Y-70290724D01*
X71597547Y-70306802D01*
X71600832Y-70310355D01*
X71664776Y-70385224D01*
X71739639Y-70449163D01*
X71743202Y-70452457D01*
X71759276Y-70468531D01*
X71777654Y-70481883D01*
X71777665Y-70481891D01*
X71781471Y-70484891D01*
X71856341Y-70548836D01*
X71856343Y-70548837D01*
X71856344Y-70548838D01*
X71856345Y-70548839D01*
X71940277Y-70600272D01*
X71944325Y-70602977D01*
X71944335Y-70602984D01*
X71962710Y-70616334D01*
X71982961Y-70626652D01*
X71987179Y-70629014D01*
X72071141Y-70680466D01*
X72071143Y-70680466D01*
X72071145Y-70680468D01*
X72112908Y-70697766D01*
X72162101Y-70718142D01*
X72166515Y-70720178D01*
X72174608Y-70724301D01*
X72186760Y-70730493D01*
X72208380Y-70737517D01*
X72212923Y-70739194D01*
X72303889Y-70776873D01*
X72399627Y-70799857D01*
X72404289Y-70801172D01*
X72425910Y-70808198D01*
X72425911Y-70808198D01*
X72425914Y-70808199D01*
X72434646Y-70809581D01*
X72448367Y-70811754D01*
X72453107Y-70812696D01*
X72548852Y-70835683D01*
X72647024Y-70843409D01*
X72651795Y-70843974D01*
X72674271Y-70847534D01*
X72674275Y-70847534D01*
X72696992Y-70847534D01*
X72701858Y-70847725D01*
X72800000Y-70855449D01*
X72898142Y-70847725D01*
X72903008Y-70847534D01*
X72925725Y-70847534D01*
X72925729Y-70847534D01*
X72948204Y-70843974D01*
X72952975Y-70843409D01*
X73051148Y-70835683D01*
X73146897Y-70812695D01*
X73151627Y-70811755D01*
X73174090Y-70808198D01*
X73195737Y-70801164D01*
X73200351Y-70799862D01*
X73296111Y-70776873D01*
X73387090Y-70739188D01*
X73391599Y-70737524D01*
X73413240Y-70730493D01*
X73433508Y-70720165D01*
X73437863Y-70718157D01*
X73528859Y-70680466D01*
X73612833Y-70629006D01*
X73617018Y-70626662D01*
X73637290Y-70616334D01*
X73655684Y-70602969D01*
X73659707Y-70600281D01*
X73743659Y-70548836D01*
X73818547Y-70484875D01*
X73822314Y-70481906D01*
X73840724Y-70468531D01*
X73856819Y-70452435D01*
X73860347Y-70449174D01*
X73935224Y-70385224D01*
X73999174Y-70310347D01*
X74002435Y-70306819D01*
X74018531Y-70290724D01*
X74031906Y-70272314D01*
X74034875Y-70268547D01*
X74098836Y-70193659D01*
X74150281Y-70109707D01*
X74152969Y-70105684D01*
X74166334Y-70087290D01*
X74176662Y-70067018D01*
X74179006Y-70062833D01*
X74230466Y-69978859D01*
X74268157Y-69887863D01*
X74270165Y-69883508D01*
X74280493Y-69863240D01*
X74287524Y-69841599D01*
X74289188Y-69837090D01*
X74326873Y-69746111D01*
X74349862Y-69650351D01*
X74351164Y-69645737D01*
X74358198Y-69624090D01*
X74361755Y-69601627D01*
X74362695Y-69596897D01*
X74385683Y-69501148D01*
X74393409Y-69402978D01*
X74393974Y-69398201D01*
X74397534Y-69375729D01*
X74398155Y-69344043D01*
X74398334Y-69340401D01*
X74401912Y-69294935D01*
X74405449Y-69250000D01*
X74398333Y-69159593D01*
X74398155Y-69155946D01*
X74397979Y-69146990D01*
X74397534Y-69124271D01*
X74393974Y-69101798D01*
X74393409Y-69097021D01*
X74385683Y-68998852D01*
X74362696Y-68903107D01*
X74361753Y-68898357D01*
X74358198Y-68875913D01*
X74358198Y-68875911D01*
X74358195Y-68875903D01*
X74351172Y-68854289D01*
X74349857Y-68849627D01*
X74326873Y-68753889D01*
X74289194Y-68662923D01*
X74287517Y-68658380D01*
X74280493Y-68636760D01*
X74270178Y-68616515D01*
X74268139Y-68612093D01*
X74259649Y-68591597D01*
X74230466Y-68521141D01*
X74179014Y-68437179D01*
X74176649Y-68432955D01*
X74166337Y-68412716D01*
X74166334Y-68412710D01*
X74158039Y-68401293D01*
X74152977Y-68394325D01*
X74150272Y-68390277D01*
X74098839Y-68306345D01*
X74098838Y-68306344D01*
X74098837Y-68306343D01*
X74098836Y-68306341D01*
X74034891Y-68231471D01*
X74031891Y-68227665D01*
X74018531Y-68209276D01*
X74002453Y-68193198D01*
X73999163Y-68189639D01*
X73935224Y-68114776D01*
X73860355Y-68050832D01*
X73856799Y-68047544D01*
X73840724Y-68031469D01*
X73822332Y-68018107D01*
X73818511Y-68015094D01*
X73743667Y-67951171D01*
X73743659Y-67951164D01*
X73743654Y-67951161D01*
X73743653Y-67951160D01*
X73659714Y-67899722D01*
X73655667Y-67897017D01*
X73637292Y-67883667D01*
X73637290Y-67883666D01*
X73631104Y-67880514D01*
X73617048Y-67873351D01*
X73612803Y-67870973D01*
X73528857Y-67819532D01*
X73437904Y-67781858D01*
X73433484Y-67779821D01*
X73413244Y-67769509D01*
X73413243Y-67769508D01*
X73413240Y-67769507D01*
X73408990Y-67768126D01*
X73391623Y-67762482D01*
X73387057Y-67760797D01*
X73296114Y-67723127D01*
X73200390Y-67700146D01*
X73195705Y-67698824D01*
X73174090Y-67691801D01*
X73151642Y-67688246D01*
X73146867Y-67687296D01*
X73051152Y-67664318D01*
X73051153Y-67664318D01*
X73051151Y-67664317D01*
X73051148Y-67664317D01*
X73003959Y-67660603D01*
X72953002Y-67656592D01*
X72948167Y-67656019D01*
X72925734Y-67652466D01*
X72925729Y-67652466D01*
X72903008Y-67652466D01*
X72898142Y-67652275D01*
X72800000Y-67644551D01*
X72701858Y-67652275D01*
X72696992Y-67652466D01*
X72674271Y-67652466D01*
X72651833Y-67656019D01*
X72646998Y-67656592D01*
X72548851Y-67664317D01*
X72548844Y-67664318D01*
X72453132Y-67687296D01*
X72448357Y-67688246D01*
X72425913Y-67691801D01*
X72425903Y-67691803D01*
X72404299Y-67698823D01*
X72399612Y-67700145D01*
X72303891Y-67723125D01*
X72212938Y-67760799D01*
X72208373Y-67762483D01*
X72186757Y-67769507D01*
X72166515Y-67779820D01*
X72162098Y-67781856D01*
X72071141Y-67819534D01*
X71987201Y-67870970D01*
X71982958Y-67873347D01*
X71962716Y-67883662D01*
X71962708Y-67883667D01*
X71944330Y-67897018D01*
X71940286Y-67899720D01*
X71856339Y-67951165D01*
X71781482Y-68015098D01*
X71777660Y-68018111D01*
X71759276Y-68031469D01*
X71743198Y-68047544D01*
X71739626Y-68050846D01*
X71664775Y-68114775D01*
X71600846Y-68189626D01*
X71597544Y-68193198D01*
X71581469Y-68209276D01*
X71568111Y-68227660D01*
X71565098Y-68231482D01*
X71501165Y-68306339D01*
X71449720Y-68390286D01*
X71447018Y-68394330D01*
X71433667Y-68412708D01*
X71433662Y-68412716D01*
X71423347Y-68432958D01*
X71420970Y-68437201D01*
X71369534Y-68521141D01*
X71331856Y-68612098D01*
X71329820Y-68616515D01*
X71319507Y-68636757D01*
X71312483Y-68658373D01*
X71310799Y-68662938D01*
X71273125Y-68753891D01*
X71250145Y-68849612D01*
X71248823Y-68854299D01*
X71241803Y-68875903D01*
X71241801Y-68875913D01*
X71238246Y-68898357D01*
X71237296Y-68903132D01*
X71214318Y-68998844D01*
X71214317Y-68998851D01*
X71206592Y-69096998D01*
X71206019Y-69101833D01*
X71202466Y-69124270D01*
X71202466Y-69146990D01*
X71202275Y-69151856D01*
X71194551Y-69249999D01*
X67200500Y-69249999D01*
X67200500Y-59224500D01*
X67220185Y-59157461D01*
X67272989Y-59111706D01*
X67324500Y-59100500D01*
X160398430Y-59100500D01*
X160465469Y-59120185D01*
G37*
%TD.AperFunction*%
%TD*%
M02*
