%TF.GenerationSoftware,KiCad,Pcbnew,7.0.9-7.0.9~ubuntu22.04.1*%
%TF.CreationDate,2023-12-08T18:50:30-07:00*%
%TF.ProjectId,ph_meter,70685f6d-6574-4657-922e-6b696361645f,1.3*%
%TF.SameCoordinates,Original*%
%TF.FileFunction,Copper,L1,Top*%
%TF.FilePolarity,Positive*%
%FSLAX46Y46*%
G04 Gerber Fmt 4.6, Leading zero omitted, Abs format (unit mm)*
G04 Created by KiCad (PCBNEW 7.0.9-7.0.9~ubuntu22.04.1) date 2023-12-08 18:50:30*
%MOMM*%
%LPD*%
G01*
G04 APERTURE LIST*
%TA.AperFunction,ComponentPad*%
%ADD10R,1.600000X1.600000*%
%TD*%
%TA.AperFunction,ComponentPad*%
%ADD11O,1.600000X1.600000*%
%TD*%
%TA.AperFunction,ComponentPad*%
%ADD12C,1.400000*%
%TD*%
%TA.AperFunction,ComponentPad*%
%ADD13O,1.400000X1.400000*%
%TD*%
%TA.AperFunction,ComponentPad*%
%ADD14R,1.700000X1.700000*%
%TD*%
%TA.AperFunction,ComponentPad*%
%ADD15O,1.700000X1.700000*%
%TD*%
%TA.AperFunction,ComponentPad*%
%ADD16R,1.800000X1.800000*%
%TD*%
%TA.AperFunction,ComponentPad*%
%ADD17O,1.800000X1.800000*%
%TD*%
%TA.AperFunction,ComponentPad*%
%ADD18R,2.000000X2.000000*%
%TD*%
%TA.AperFunction,ComponentPad*%
%ADD19C,2.000000*%
%TD*%
%TA.AperFunction,ComponentPad*%
%ADD20R,3.960000X1.980000*%
%TD*%
%TA.AperFunction,ComponentPad*%
%ADD21O,3.960000X1.980000*%
%TD*%
%TA.AperFunction,ComponentPad*%
%ADD22R,2.000000X1.905000*%
%TD*%
%TA.AperFunction,ComponentPad*%
%ADD23O,2.000000X1.905000*%
%TD*%
G04 APERTURE END LIST*
D10*
%TO.P,A2,1,NC*%
%TO.N,unconnected-(A2-NC-Pad1)*%
X154580000Y-97775000D03*
D11*
%TO.P,A2,2,IOREF*%
%TO.N,unconnected-(A2-IOREF-Pad2)*%
X154580000Y-100315000D03*
%TO.P,A2,3,~{RESET}*%
%TO.N,unconnected-(A2-~{RESET}-Pad3)*%
X154580000Y-102855000D03*
%TO.P,A2,4,3V3*%
%TO.N,unconnected-(A2-3V3-Pad4)*%
X154580000Y-105395000D03*
%TO.P,A2,5,+5V*%
%TO.N,+5V*%
X154580000Y-107935000D03*
%TO.P,A2,6,GND*%
%TO.N,unconnected-(A2-GND-Pad6)*%
X154580000Y-110475000D03*
%TO.P,A2,7,GND*%
%TO.N,unconnected-(A2-GND-Pad7)*%
X154580000Y-113015000D03*
%TO.P,A2,8,VIN*%
%TO.N,+12V*%
X154580000Y-115555000D03*
%TO.P,A2,9,A0*%
%TO.N,unconnected-(A2-A0-Pad9)*%
X154580000Y-120635000D03*
%TO.P,A2,10,A1*%
%TO.N,unconnected-(A2-A1-Pad10)*%
X154580000Y-123175000D03*
%TO.P,A2,11,A2*%
%TO.N,Net-(A2-A2)*%
X154580000Y-125715000D03*
%TO.P,A2,12,A3*%
%TO.N,unconnected-(A2-A3-Pad12)*%
X154580000Y-128255000D03*
%TO.P,A2,13,SDA/A4*%
%TO.N,Net-(J2-Pin_3)*%
X154580000Y-130795000D03*
%TO.P,A2,14,SCL/A5*%
%TO.N,Net-(J2-Pin_4)*%
X154580000Y-133335000D03*
%TO.P,A2,15,D0/RX*%
%TO.N,unconnected-(A2-D0{slash}RX-Pad15)*%
X106320000Y-133335000D03*
%TO.P,A2,16,D1/TX*%
%TO.N,unconnected-(A2-D1{slash}TX-Pad16)*%
X106320000Y-130795000D03*
%TO.P,A2,17,D2*%
%TO.N,unconnected-(A2-D2-Pad17)*%
X106320000Y-128255000D03*
%TO.P,A2,18,D3*%
%TO.N,unconnected-(A2-D3-Pad18)*%
X106320000Y-125715000D03*
%TO.P,A2,19,D4*%
%TO.N,unconnected-(A2-D4-Pad19)*%
X106320000Y-123175000D03*
%TO.P,A2,20,D5*%
%TO.N,unconnected-(A2-D5-Pad20)*%
X106320000Y-120635000D03*
%TO.P,A2,21,D6*%
%TO.N,unconnected-(A2-D6-Pad21)*%
X106320000Y-118095000D03*
%TO.P,A2,22,D7*%
%TO.N,unconnected-(A2-D7-Pad22)*%
X106320000Y-115555000D03*
%TO.P,A2,23,D8*%
%TO.N,unconnected-(A2-D8-Pad23)*%
X106320000Y-111495000D03*
%TO.P,A2,24,D9*%
%TO.N,unconnected-(A2-D9-Pad24)*%
X106320000Y-108955000D03*
%TO.P,A2,25,D10*%
%TO.N,unconnected-(A2-D10-Pad25)*%
X106320000Y-106415000D03*
%TO.P,A2,26,D11*%
%TO.N,Net-(A2-D11)*%
X106320000Y-103875000D03*
%TO.P,A2,27,D12*%
%TO.N,Net-(A2-D12)*%
X106320000Y-101335000D03*
%TO.P,A2,28,D13*%
%TO.N,unconnected-(A2-D13-Pad28)*%
X106320000Y-98795000D03*
%TO.P,A2,29,GND*%
%TO.N,unconnected-(A2-GND-Pad29)*%
X106320000Y-96255000D03*
%TO.P,A2,30,AREF*%
%TO.N,unconnected-(A2-AREF-Pad30)*%
X106320000Y-93715000D03*
%TO.P,A2,31,SDA/A4*%
%TO.N,unconnected-(A2-SDA{slash}A4-Pad31)*%
X106320000Y-91175000D03*
%TO.P,A2,32,SCL/A5*%
%TO.N,unconnected-(A2-SCL{slash}A5-Pad32)*%
X106320000Y-88635000D03*
%TD*%
D12*
%TO.P,R1,1*%
%TO.N,Net-(Q1-B)*%
X95770000Y-91287500D03*
D13*
%TO.P,R1,2*%
%TO.N,Net-(A2-D12)*%
X95770000Y-93827500D03*
%TD*%
D14*
%TO.P,J4,1,Pin_1*%
%TO.N,unconnected-(J4-Pin_1-Pad1)*%
X175050000Y-115570000D03*
D15*
%TO.P,J4,2,Pin_2*%
%TO.N,unconnected-(J4-Pin_2-Pad2)*%
X175050000Y-118110000D03*
%TO.P,J4,3,Pin_3*%
%TO.N,Net-(A2-A2)*%
X175050000Y-120650000D03*
%TO.P,J4,4,Pin_4*%
%TO.N,unconnected-(J4-Pin_4-Pad4)*%
X175050000Y-123190000D03*
%TO.P,J4,5,Pin_5*%
%TO.N,GND*%
X175050000Y-125730000D03*
%TO.P,J4,6,Pin_6*%
%TO.N,+5V*%
X175050000Y-128270000D03*
%TD*%
D16*
%TO.P,D1,1,K*%
%TO.N,+12V*%
X96780000Y-73898640D03*
D17*
%TO.P,D1,2,A*%
%TO.N,Net-(D1-A)*%
X96780000Y-71358640D03*
%TD*%
D14*
%TO.P,J2,1,Pin_1*%
%TO.N,GND*%
X165500000Y-125750000D03*
D15*
%TO.P,J2,2,Pin_2*%
%TO.N,+5V*%
X165500000Y-128290000D03*
%TO.P,J2,3,Pin_3*%
%TO.N,Net-(J2-Pin_3)*%
X165500000Y-130830000D03*
%TO.P,J2,4,Pin_4*%
%TO.N,Net-(J2-Pin_4)*%
X165500000Y-133370000D03*
%TD*%
D18*
%TO.P,BZ1,1,-*%
%TO.N,Net-(A2-D11)*%
X87241360Y-100457500D03*
D19*
%TO.P,BZ1,2,+*%
%TO.N,GND*%
X87241360Y-92857500D03*
%TD*%
D20*
%TO.P,J3,1,Pin_1*%
%TO.N,+12V*%
X86150000Y-74550000D03*
D21*
%TO.P,J3,2,Pin_2*%
%TO.N,Net-(D1-A)*%
X86150000Y-69550000D03*
%TD*%
D22*
%TO.P,Q1,1,B*%
%TO.N,Net-(Q1-B)*%
X86305000Y-86390000D03*
D23*
%TO.P,Q1,2,C*%
%TO.N,Net-(D1-A)*%
X86305000Y-83850000D03*
%TO.P,Q1,3,E*%
%TO.N,GND*%
X86305000Y-81310000D03*
%TD*%
M02*
