%TF.GenerationSoftware,KiCad,Pcbnew,7.0.9-7.0.9~ubuntu22.04.1*%
%TF.CreationDate,2023-12-08T18:50:30-07:00*%
%TF.ProjectId,ph_meter,70685f6d-6574-4657-922e-6b696361645f,1.3*%
%TF.SameCoordinates,Original*%
%TF.FileFunction,Profile,NP*%
%FSLAX46Y46*%
G04 Gerber Fmt 4.6, Leading zero omitted, Abs format (unit mm)*
G04 Created by KiCad (PCBNEW 7.0.9-7.0.9~ubuntu22.04.1) date 2023-12-08 18:50:30*
%MOMM*%
%LPD*%
G01*
G04 APERTURE LIST*
%TA.AperFunction,Profile*%
%ADD10C,0.100000*%
%TD*%
G04 APERTURE END LIST*
D10*
X67200000Y-107000000D02*
X67200000Y-59100000D01*
X102800000Y-142600000D02*
X182300000Y-142600000D01*
X102800000Y-142600000D02*
X67200000Y-107000000D01*
X182300000Y-80950000D02*
X160450000Y-59100000D01*
X160450000Y-59100000D02*
X67200000Y-59100000D01*
X182300000Y-142600000D02*
X182300000Y-80950000D01*
X160190000Y-76890000D02*
X172590000Y-76890000D01*
X172590000Y-83290000D01*
X160190000Y-83290000D01*
X160190000Y-76890000D01*
X160190000Y-93440000D02*
X172590000Y-93440000D01*
X172590000Y-99840000D01*
X160190000Y-99840000D01*
X160190000Y-93440000D01*
X74400000Y-87500000D02*
G75*
G03*
X74400000Y-87500000I-1600000J0D01*
G01*
X165900000Y-101650000D02*
X178300000Y-101650000D01*
X178300000Y-108050000D01*
X165900000Y-108050000D01*
X165900000Y-101650000D01*
X74400000Y-92500000D02*
G75*
G03*
X74400000Y-92500000I-1600000J0D01*
G01*
X74400000Y-69250000D02*
G75*
G03*
X74400000Y-69250000I-1600000J0D01*
G01*
X74400000Y-74250000D02*
G75*
G03*
X74400000Y-74250000I-1600000J0D01*
G01*
X165900000Y-85100000D02*
X178300000Y-85100000D01*
X178300000Y-91500000D01*
X165900000Y-91500000D01*
X165900000Y-85100000D01*
M02*
