M48
; DRILL file {KiCad 7.0.9-7.0.9~ubuntu22.04.1} date Fri 08 Dec 2023 06:39:17 PM MST
; FORMAT={-:-/ absolute / metric / decimal}
; #@! TF.CreationDate,2023-12-08T18:39:17-07:00
; #@! TF.GenerationSoftware,Kicad,Pcbnew,7.0.9-7.0.9~ubuntu22.04.1
; #@! TF.FileFunction,MixedPlating,1,2
FMAT,2
METRIC
; #@! TA.AperFunction,Plated,PTH,ComponentDrill
T1C0.700
; #@! TA.AperFunction,Plated,PTH,ComponentDrill
T2C0.900
; #@! TA.AperFunction,Plated,PTH,ComponentDrill
T3C1.000
; #@! TA.AperFunction,Plated,PTH,ComponentDrill
T4C1.100
; #@! TA.AperFunction,Plated,PTH,ComponentDrill
T5C1.320
%
G90
G05
T1
X95.77Y-91.287
X95.77Y-93.828
T2
X96.78Y-71.359
X96.78Y-73.899
T3
X87.241Y-92.858
X87.241Y-100.457
X106.32Y-88.635
X106.32Y-91.175
X106.32Y-93.715
X106.32Y-96.255
X106.32Y-98.795
X106.32Y-101.335
X106.32Y-103.875
X106.32Y-106.415
X106.32Y-108.955
X106.32Y-111.495
X106.32Y-115.555
X106.32Y-118.095
X106.32Y-120.635
X106.32Y-123.175
X106.32Y-125.715
X106.32Y-128.255
X106.32Y-130.795
X106.32Y-133.335
X154.58Y-97.775
X154.58Y-100.315
X154.58Y-102.855
X154.58Y-105.395
X154.58Y-107.935
X154.58Y-110.475
X154.58Y-113.015
X154.58Y-115.555
X154.58Y-120.635
X154.58Y-123.175
X154.58Y-125.715
X154.58Y-128.255
X154.58Y-130.795
X154.58Y-133.335
X165.5Y-125.75
X165.5Y-128.29
X165.5Y-130.83
X165.5Y-133.37
X175.05Y-115.57
X175.05Y-118.11
X175.05Y-120.65
X175.05Y-123.19
X175.05Y-125.73
X175.05Y-128.27
T4
X86.305Y-81.31
X86.305Y-83.85
X86.305Y-86.39
T5
X86.15Y-69.55
X86.15Y-74.55
T0
M30
