M48
; DRILL file {KiCad 7.0.7-7.0.7~ubuntu22.04.1} date Wed 27 Sep 2023 10:41:19 AM MDT
; FORMAT={-:-/ absolute / inch / decimal}
; #@! TF.CreationDate,2023-09-27T10:41:19-06:00
; #@! TF.GenerationSoftware,Kicad,Pcbnew,7.0.7-7.0.7~ubuntu22.04.1
; #@! TF.FileFunction,Plated,1,2,PTH
FMAT,2
INCH
; #@! TA.AperFunction,Plated,PTH,ComponentDrill
T1C0.0276
; #@! TA.AperFunction,Plated,PTH,ComponentDrill
T2C0.0354
; #@! TA.AperFunction,Plated,PTH,ComponentDrill
T3C0.0394
; #@! TA.AperFunction,Plated,PTH,ComponentDrill
T4C0.0433
; #@! TA.AperFunction,Plated,PTH,ComponentDrill
T5C0.0520
; #@! TA.AperFunction,Plated,PTH,ComponentDrill
T6C0.0984
%
G90
G05
T1
X7.1311Y-4.4272
X7.1311Y-4.5272
T2
X7.965Y-4.813
X8.065Y-4.813
T3
X5.997Y-3.4724
X5.997Y-3.5724
X5.997Y-3.6724
X5.997Y-3.7724
X6.002Y-2.7409
X6.002Y-2.8409
X6.002Y-2.9409
X6.002Y-3.0409
X6.002Y-3.1409
X6.002Y-3.2409
X6.3862Y-2.7886
X6.3862Y-2.8886
X6.3862Y-2.9886
X6.3862Y-3.0886
X6.3862Y-3.1886
X6.3862Y-3.2886
X6.3862Y-3.3886
X6.3862Y-3.4886
X6.3862Y-3.5886
X6.3862Y-3.6886
X6.3862Y-3.7886
X6.3862Y-3.8886
X6.3862Y-3.9886
X6.3862Y-4.0886
X6.3862Y-4.1886
X6.9862Y-2.7886
X6.9862Y-2.8886
X6.9862Y-2.9886
X6.9862Y-3.0886
X6.9862Y-3.1886
X6.9862Y-3.2886
X6.9862Y-3.3886
X6.9862Y-3.4886
X6.9862Y-3.5886
X6.9862Y-3.6886
X6.9862Y-3.7886
X6.9862Y-3.8886
X6.9862Y-3.9886
X6.9862Y-4.0886
X6.9862Y-4.1886
X7.4669Y-4.1661
X7.4669Y-4.4654
T4
X7.2839Y-4.8132
X7.3839Y-4.8132
X7.4839Y-4.8132
T5
X7.9393Y-4.3945
X8.1362Y-4.3945
T6
X2.5816Y-3.2145
X2.5816Y-4.435
X5.5343Y-3.2145
X5.5343Y-4.435
T0
M30
