%TF.GenerationSoftware,KiCad,Pcbnew,7.0.7-7.0.7~ubuntu22.04.1*%
%TF.CreationDate,2023-09-27T10:41:22-06:00*%
%TF.ProjectId,ph_meter,70685f6d-6574-4657-922e-6b696361645f,1.3*%
%TF.SameCoordinates,Original*%
%TF.FileFunction,Legend,Bot*%
%TF.FilePolarity,Positive*%
%FSLAX46Y46*%
G04 Gerber Fmt 4.6, Leading zero omitted, Abs format (unit mm)*
G04 Created by KiCad (PCBNEW 7.0.7-7.0.7~ubuntu22.04.1) date 2023-09-27 10:41:22*
%MOMM*%
%LPD*%
G01*
G04 APERTURE LIST*
%ADD10C,0.100000*%
%ADD11C,0.150000*%
%ADD12C,0.120000*%
G04 APERTURE END LIST*
D10*
X136408333Y-81657419D02*
X136741666Y-81181228D01*
X136979761Y-81657419D02*
X136979761Y-80657419D01*
X136979761Y-80657419D02*
X136598809Y-80657419D01*
X136598809Y-80657419D02*
X136503571Y-80705038D01*
X136503571Y-80705038D02*
X136455952Y-80752657D01*
X136455952Y-80752657D02*
X136408333Y-80847895D01*
X136408333Y-80847895D02*
X136408333Y-80990752D01*
X136408333Y-80990752D02*
X136455952Y-81085990D01*
X136455952Y-81085990D02*
X136503571Y-81133609D01*
X136503571Y-81133609D02*
X136598809Y-81181228D01*
X136598809Y-81181228D02*
X136979761Y-81181228D01*
X135979761Y-81133609D02*
X135646428Y-81133609D01*
X135503571Y-81657419D02*
X135979761Y-81657419D01*
X135979761Y-81657419D02*
X135979761Y-80657419D01*
X135979761Y-80657419D02*
X135503571Y-80657419D01*
X134741666Y-81133609D02*
X135074999Y-81133609D01*
X135074999Y-81657419D02*
X135074999Y-80657419D01*
X135074999Y-80657419D02*
X134598809Y-80657419D01*
X134074999Y-80657419D02*
X134074999Y-80895514D01*
X134313094Y-80800276D02*
X134074999Y-80895514D01*
X134074999Y-80895514D02*
X133836904Y-80800276D01*
X134217856Y-81085990D02*
X134074999Y-80895514D01*
X134074999Y-80895514D02*
X133932142Y-81085990D01*
X133313094Y-80657419D02*
X133313094Y-80895514D01*
X133551189Y-80800276D02*
X133313094Y-80895514D01*
X133313094Y-80895514D02*
X133074999Y-80800276D01*
X133455951Y-81085990D02*
X133313094Y-80895514D01*
X133313094Y-80895514D02*
X133170237Y-81085990D01*
X125804915Y-91986419D02*
X125804915Y-90986419D01*
X125376344Y-91081657D02*
X125328725Y-91034038D01*
X125328725Y-91034038D02*
X125233487Y-90986419D01*
X125233487Y-90986419D02*
X124995392Y-90986419D01*
X124995392Y-90986419D02*
X124900154Y-91034038D01*
X124900154Y-91034038D02*
X124852535Y-91081657D01*
X124852535Y-91081657D02*
X124804916Y-91176895D01*
X124804916Y-91176895D02*
X124804916Y-91272133D01*
X124804916Y-91272133D02*
X124852535Y-91414990D01*
X124852535Y-91414990D02*
X125423963Y-91986419D01*
X125423963Y-91986419D02*
X124804916Y-91986419D01*
X123804916Y-91891180D02*
X123852535Y-91938800D01*
X123852535Y-91938800D02*
X123995392Y-91986419D01*
X123995392Y-91986419D02*
X124090630Y-91986419D01*
X124090630Y-91986419D02*
X124233487Y-91938800D01*
X124233487Y-91938800D02*
X124328725Y-91843561D01*
X124328725Y-91843561D02*
X124376344Y-91748323D01*
X124376344Y-91748323D02*
X124423963Y-91557847D01*
X124423963Y-91557847D02*
X124423963Y-91414990D01*
X124423963Y-91414990D02*
X124376344Y-91224514D01*
X124376344Y-91224514D02*
X124328725Y-91129276D01*
X124328725Y-91129276D02*
X124233487Y-91034038D01*
X124233487Y-91034038D02*
X124090630Y-90986419D01*
X124090630Y-90986419D02*
X123995392Y-90986419D01*
X123995392Y-90986419D02*
X123852535Y-91034038D01*
X123852535Y-91034038D02*
X123804916Y-91081657D01*
X122043011Y-91891180D02*
X122090630Y-91938800D01*
X122090630Y-91938800D02*
X122233487Y-91986419D01*
X122233487Y-91986419D02*
X122328725Y-91986419D01*
X122328725Y-91986419D02*
X122471582Y-91938800D01*
X122471582Y-91938800D02*
X122566820Y-91843561D01*
X122566820Y-91843561D02*
X122614439Y-91748323D01*
X122614439Y-91748323D02*
X122662058Y-91557847D01*
X122662058Y-91557847D02*
X122662058Y-91414990D01*
X122662058Y-91414990D02*
X122614439Y-91224514D01*
X122614439Y-91224514D02*
X122566820Y-91129276D01*
X122566820Y-91129276D02*
X122471582Y-91034038D01*
X122471582Y-91034038D02*
X122328725Y-90986419D01*
X122328725Y-90986419D02*
X122233487Y-90986419D01*
X122233487Y-90986419D02*
X122090630Y-91034038D01*
X122090630Y-91034038D02*
X122043011Y-91081657D01*
X121423963Y-90986419D02*
X121233487Y-90986419D01*
X121233487Y-90986419D02*
X121138249Y-91034038D01*
X121138249Y-91034038D02*
X121043011Y-91129276D01*
X121043011Y-91129276D02*
X120995392Y-91319752D01*
X120995392Y-91319752D02*
X120995392Y-91653085D01*
X120995392Y-91653085D02*
X121043011Y-91843561D01*
X121043011Y-91843561D02*
X121138249Y-91938800D01*
X121138249Y-91938800D02*
X121233487Y-91986419D01*
X121233487Y-91986419D02*
X121423963Y-91986419D01*
X121423963Y-91986419D02*
X121519201Y-91938800D01*
X121519201Y-91938800D02*
X121614439Y-91843561D01*
X121614439Y-91843561D02*
X121662058Y-91653085D01*
X121662058Y-91653085D02*
X121662058Y-91319752D01*
X121662058Y-91319752D02*
X121614439Y-91129276D01*
X121614439Y-91129276D02*
X121519201Y-91034038D01*
X121519201Y-91034038D02*
X121423963Y-90986419D01*
X120566820Y-91986419D02*
X120566820Y-90986419D01*
X120566820Y-90986419D02*
X119995392Y-91986419D01*
X119995392Y-91986419D02*
X119995392Y-90986419D01*
X119519201Y-91986419D02*
X119519201Y-90986419D01*
X119519201Y-90986419D02*
X118947773Y-91986419D01*
X118947773Y-91986419D02*
X118947773Y-90986419D01*
X118471582Y-91462609D02*
X118138249Y-91462609D01*
X117995392Y-91986419D02*
X118471582Y-91986419D01*
X118471582Y-91986419D02*
X118471582Y-90986419D01*
X118471582Y-90986419D02*
X117995392Y-90986419D01*
X116995392Y-91891180D02*
X117043011Y-91938800D01*
X117043011Y-91938800D02*
X117185868Y-91986419D01*
X117185868Y-91986419D02*
X117281106Y-91986419D01*
X117281106Y-91986419D02*
X117423963Y-91938800D01*
X117423963Y-91938800D02*
X117519201Y-91843561D01*
X117519201Y-91843561D02*
X117566820Y-91748323D01*
X117566820Y-91748323D02*
X117614439Y-91557847D01*
X117614439Y-91557847D02*
X117614439Y-91414990D01*
X117614439Y-91414990D02*
X117566820Y-91224514D01*
X117566820Y-91224514D02*
X117519201Y-91129276D01*
X117519201Y-91129276D02*
X117423963Y-91034038D01*
X117423963Y-91034038D02*
X117281106Y-90986419D01*
X117281106Y-90986419D02*
X117185868Y-90986419D01*
X117185868Y-90986419D02*
X117043011Y-91034038D01*
X117043011Y-91034038D02*
X116995392Y-91081657D01*
X116709677Y-90986419D02*
X116138249Y-90986419D01*
X116423963Y-91986419D02*
X116423963Y-90986419D01*
X115614439Y-90986419D02*
X115423963Y-90986419D01*
X115423963Y-90986419D02*
X115328725Y-91034038D01*
X115328725Y-91034038D02*
X115233487Y-91129276D01*
X115233487Y-91129276D02*
X115185868Y-91319752D01*
X115185868Y-91319752D02*
X115185868Y-91653085D01*
X115185868Y-91653085D02*
X115233487Y-91843561D01*
X115233487Y-91843561D02*
X115328725Y-91938800D01*
X115328725Y-91938800D02*
X115423963Y-91986419D01*
X115423963Y-91986419D02*
X115614439Y-91986419D01*
X115614439Y-91986419D02*
X115709677Y-91938800D01*
X115709677Y-91938800D02*
X115804915Y-91843561D01*
X115804915Y-91843561D02*
X115852534Y-91653085D01*
X115852534Y-91653085D02*
X115852534Y-91319752D01*
X115852534Y-91319752D02*
X115804915Y-91129276D01*
X115804915Y-91129276D02*
X115709677Y-91034038D01*
X115709677Y-91034038D02*
X115614439Y-90986419D01*
X114185868Y-91986419D02*
X114519201Y-91510228D01*
X114757296Y-91986419D02*
X114757296Y-90986419D01*
X114757296Y-90986419D02*
X114376344Y-90986419D01*
X114376344Y-90986419D02*
X114281106Y-91034038D01*
X114281106Y-91034038D02*
X114233487Y-91081657D01*
X114233487Y-91081657D02*
X114185868Y-91176895D01*
X114185868Y-91176895D02*
X114185868Y-91319752D01*
X114185868Y-91319752D02*
X114233487Y-91414990D01*
X114233487Y-91414990D02*
X114281106Y-91462609D01*
X114281106Y-91462609D02*
X114376344Y-91510228D01*
X114376344Y-91510228D02*
X114757296Y-91510228D01*
X112709677Y-92367371D02*
X112757296Y-92319752D01*
X112757296Y-92319752D02*
X112852534Y-92176895D01*
X112852534Y-92176895D02*
X112900153Y-92081657D01*
X112900153Y-92081657D02*
X112947772Y-91938800D01*
X112947772Y-91938800D02*
X112995391Y-91700704D01*
X112995391Y-91700704D02*
X112995391Y-91510228D01*
X112995391Y-91510228D02*
X112947772Y-91272133D01*
X112947772Y-91272133D02*
X112900153Y-91129276D01*
X112900153Y-91129276D02*
X112852534Y-91034038D01*
X112852534Y-91034038D02*
X112757296Y-90891180D01*
X112757296Y-90891180D02*
X112709677Y-90843561D01*
X111995391Y-91462609D02*
X111852534Y-91510228D01*
X111852534Y-91510228D02*
X111804915Y-91557847D01*
X111804915Y-91557847D02*
X111757296Y-91653085D01*
X111757296Y-91653085D02*
X111757296Y-91795942D01*
X111757296Y-91795942D02*
X111804915Y-91891180D01*
X111804915Y-91891180D02*
X111852534Y-91938800D01*
X111852534Y-91938800D02*
X111947772Y-91986419D01*
X111947772Y-91986419D02*
X112328724Y-91986419D01*
X112328724Y-91986419D02*
X112328724Y-90986419D01*
X112328724Y-90986419D02*
X111995391Y-90986419D01*
X111995391Y-90986419D02*
X111900153Y-91034038D01*
X111900153Y-91034038D02*
X111852534Y-91081657D01*
X111852534Y-91081657D02*
X111804915Y-91176895D01*
X111804915Y-91176895D02*
X111804915Y-91272133D01*
X111804915Y-91272133D02*
X111852534Y-91367371D01*
X111852534Y-91367371D02*
X111900153Y-91414990D01*
X111900153Y-91414990D02*
X111995391Y-91462609D01*
X111995391Y-91462609D02*
X112328724Y-91462609D01*
X111328724Y-91462609D02*
X110995391Y-91462609D01*
X110852534Y-91986419D02*
X111328724Y-91986419D01*
X111328724Y-91986419D02*
X111328724Y-90986419D01*
X111328724Y-90986419D02*
X110852534Y-90986419D01*
X110423962Y-91986419D02*
X110423962Y-90986419D01*
X110423962Y-90986419D02*
X109852534Y-91986419D01*
X109852534Y-91986419D02*
X109852534Y-90986419D01*
X109376343Y-91462609D02*
X109043010Y-91462609D01*
X108900153Y-91986419D02*
X109376343Y-91986419D01*
X109376343Y-91986419D02*
X109376343Y-90986419D01*
X109376343Y-90986419D02*
X108900153Y-90986419D01*
X108519200Y-91700704D02*
X108043010Y-91700704D01*
X108614438Y-91986419D02*
X108281105Y-90986419D01*
X108281105Y-90986419D02*
X107947772Y-91986419D01*
X107757295Y-90986419D02*
X107185867Y-90986419D01*
X107471581Y-91986419D02*
X107471581Y-90986419D01*
X106852533Y-91986419D02*
X106852533Y-90986419D01*
X106852533Y-91462609D02*
X106281105Y-91462609D01*
X106281105Y-91986419D02*
X106281105Y-90986419D01*
X105900152Y-92367371D02*
X105852533Y-92319752D01*
X105852533Y-92319752D02*
X105757295Y-92176895D01*
X105757295Y-92176895D02*
X105709676Y-92081657D01*
X105709676Y-92081657D02*
X105662057Y-91938800D01*
X105662057Y-91938800D02*
X105614438Y-91700704D01*
X105614438Y-91700704D02*
X105614438Y-91510228D01*
X105614438Y-91510228D02*
X105662057Y-91272133D01*
X105662057Y-91272133D02*
X105709676Y-91129276D01*
X105709676Y-91129276D02*
X105757295Y-91034038D01*
X105757295Y-91034038D02*
X105852533Y-90891180D01*
X105852533Y-90891180D02*
X105900152Y-90843561D01*
X155770219Y-96420287D02*
X155722600Y-96467906D01*
X155722600Y-96467906D02*
X155674980Y-96610763D01*
X155674980Y-96610763D02*
X155674980Y-96706001D01*
X155674980Y-96706001D02*
X155722600Y-96848858D01*
X155722600Y-96848858D02*
X155817838Y-96944096D01*
X155817838Y-96944096D02*
X155913076Y-96991715D01*
X155913076Y-96991715D02*
X156103552Y-97039334D01*
X156103552Y-97039334D02*
X156246409Y-97039334D01*
X156246409Y-97039334D02*
X156436885Y-96991715D01*
X156436885Y-96991715D02*
X156532123Y-96944096D01*
X156532123Y-96944096D02*
X156627361Y-96848858D01*
X156627361Y-96848858D02*
X156674980Y-96706001D01*
X156674980Y-96706001D02*
X156674980Y-96610763D01*
X156674980Y-96610763D02*
X156627361Y-96467906D01*
X156627361Y-96467906D02*
X156579742Y-96420287D01*
X156674980Y-95801239D02*
X156674980Y-95610763D01*
X156674980Y-95610763D02*
X156627361Y-95515525D01*
X156627361Y-95515525D02*
X156532123Y-95420287D01*
X156532123Y-95420287D02*
X156341647Y-95372668D01*
X156341647Y-95372668D02*
X156008314Y-95372668D01*
X156008314Y-95372668D02*
X155817838Y-95420287D01*
X155817838Y-95420287D02*
X155722600Y-95515525D01*
X155722600Y-95515525D02*
X155674980Y-95610763D01*
X155674980Y-95610763D02*
X155674980Y-95801239D01*
X155674980Y-95801239D02*
X155722600Y-95896477D01*
X155722600Y-95896477D02*
X155817838Y-95991715D01*
X155817838Y-95991715D02*
X156008314Y-96039334D01*
X156008314Y-96039334D02*
X156341647Y-96039334D01*
X156341647Y-96039334D02*
X156532123Y-95991715D01*
X156532123Y-95991715D02*
X156627361Y-95896477D01*
X156627361Y-95896477D02*
X156674980Y-95801239D01*
X155674980Y-94944096D02*
X156674980Y-94944096D01*
X156674980Y-94944096D02*
X155674980Y-94372668D01*
X155674980Y-94372668D02*
X156674980Y-94372668D01*
X155674980Y-93896477D02*
X156674980Y-93896477D01*
X156674980Y-93896477D02*
X155674980Y-93325049D01*
X155674980Y-93325049D02*
X156674980Y-93325049D01*
X156198790Y-92848858D02*
X156198790Y-92515525D01*
X155674980Y-92372668D02*
X155674980Y-92848858D01*
X155674980Y-92848858D02*
X156674980Y-92848858D01*
X156674980Y-92848858D02*
X156674980Y-92372668D01*
X155770219Y-91372668D02*
X155722600Y-91420287D01*
X155722600Y-91420287D02*
X155674980Y-91563144D01*
X155674980Y-91563144D02*
X155674980Y-91658382D01*
X155674980Y-91658382D02*
X155722600Y-91801239D01*
X155722600Y-91801239D02*
X155817838Y-91896477D01*
X155817838Y-91896477D02*
X155913076Y-91944096D01*
X155913076Y-91944096D02*
X156103552Y-91991715D01*
X156103552Y-91991715D02*
X156246409Y-91991715D01*
X156246409Y-91991715D02*
X156436885Y-91944096D01*
X156436885Y-91944096D02*
X156532123Y-91896477D01*
X156532123Y-91896477D02*
X156627361Y-91801239D01*
X156627361Y-91801239D02*
X156674980Y-91658382D01*
X156674980Y-91658382D02*
X156674980Y-91563144D01*
X156674980Y-91563144D02*
X156627361Y-91420287D01*
X156627361Y-91420287D02*
X156579742Y-91372668D01*
X156674980Y-91086953D02*
X156674980Y-90515525D01*
X155674980Y-90801239D02*
X156674980Y-90801239D01*
X156674980Y-89991715D02*
X156674980Y-89801239D01*
X156674980Y-89801239D02*
X156627361Y-89706001D01*
X156627361Y-89706001D02*
X156532123Y-89610763D01*
X156532123Y-89610763D02*
X156341647Y-89563144D01*
X156341647Y-89563144D02*
X156008314Y-89563144D01*
X156008314Y-89563144D02*
X155817838Y-89610763D01*
X155817838Y-89610763D02*
X155722600Y-89706001D01*
X155722600Y-89706001D02*
X155674980Y-89801239D01*
X155674980Y-89801239D02*
X155674980Y-89991715D01*
X155674980Y-89991715D02*
X155722600Y-90086953D01*
X155722600Y-90086953D02*
X155817838Y-90182191D01*
X155817838Y-90182191D02*
X156008314Y-90229810D01*
X156008314Y-90229810D02*
X156341647Y-90229810D01*
X156341647Y-90229810D02*
X156532123Y-90182191D01*
X156532123Y-90182191D02*
X156627361Y-90086953D01*
X156627361Y-90086953D02*
X156674980Y-89991715D01*
X155674980Y-88563144D02*
X156151171Y-88896477D01*
X155674980Y-89134572D02*
X156674980Y-89134572D01*
X156674980Y-89134572D02*
X156674980Y-88753620D01*
X156674980Y-88753620D02*
X156627361Y-88658382D01*
X156627361Y-88658382D02*
X156579742Y-88610763D01*
X156579742Y-88610763D02*
X156484504Y-88563144D01*
X156484504Y-88563144D02*
X156341647Y-88563144D01*
X156341647Y-88563144D02*
X156246409Y-88610763D01*
X156246409Y-88610763D02*
X156198790Y-88658382D01*
X156198790Y-88658382D02*
X156151171Y-88753620D01*
X156151171Y-88753620D02*
X156151171Y-89134572D01*
X155722600Y-87420286D02*
X155674980Y-87277429D01*
X155674980Y-87277429D02*
X155674980Y-87039334D01*
X155674980Y-87039334D02*
X155722600Y-86944096D01*
X155722600Y-86944096D02*
X155770219Y-86896477D01*
X155770219Y-86896477D02*
X155865457Y-86848858D01*
X155865457Y-86848858D02*
X155960695Y-86848858D01*
X155960695Y-86848858D02*
X156055933Y-86896477D01*
X156055933Y-86896477D02*
X156103552Y-86944096D01*
X156103552Y-86944096D02*
X156151171Y-87039334D01*
X156151171Y-87039334D02*
X156198790Y-87229810D01*
X156198790Y-87229810D02*
X156246409Y-87325048D01*
X156246409Y-87325048D02*
X156294028Y-87372667D01*
X156294028Y-87372667D02*
X156389266Y-87420286D01*
X156389266Y-87420286D02*
X156484504Y-87420286D01*
X156484504Y-87420286D02*
X156579742Y-87372667D01*
X156579742Y-87372667D02*
X156627361Y-87325048D01*
X156627361Y-87325048D02*
X156674980Y-87229810D01*
X156674980Y-87229810D02*
X156674980Y-86991715D01*
X156674980Y-86991715D02*
X156627361Y-86848858D01*
X155674980Y-86420286D02*
X156674980Y-86420286D01*
X156674980Y-86420286D02*
X156674980Y-86039334D01*
X156674980Y-86039334D02*
X156627361Y-85944096D01*
X156627361Y-85944096D02*
X156579742Y-85896477D01*
X156579742Y-85896477D02*
X156484504Y-85848858D01*
X156484504Y-85848858D02*
X156341647Y-85848858D01*
X156341647Y-85848858D02*
X156246409Y-85896477D01*
X156246409Y-85896477D02*
X156198790Y-85944096D01*
X156198790Y-85944096D02*
X156151171Y-86039334D01*
X156151171Y-86039334D02*
X156151171Y-86420286D01*
X155960695Y-85467905D02*
X155960695Y-84991715D01*
X155674980Y-85563143D02*
X156674980Y-85229810D01*
X156674980Y-85229810D02*
X155674980Y-84896477D01*
X155770219Y-83991715D02*
X155722600Y-84039334D01*
X155722600Y-84039334D02*
X155674980Y-84182191D01*
X155674980Y-84182191D02*
X155674980Y-84277429D01*
X155674980Y-84277429D02*
X155722600Y-84420286D01*
X155722600Y-84420286D02*
X155817838Y-84515524D01*
X155817838Y-84515524D02*
X155913076Y-84563143D01*
X155913076Y-84563143D02*
X156103552Y-84610762D01*
X156103552Y-84610762D02*
X156246409Y-84610762D01*
X156246409Y-84610762D02*
X156436885Y-84563143D01*
X156436885Y-84563143D02*
X156532123Y-84515524D01*
X156532123Y-84515524D02*
X156627361Y-84420286D01*
X156627361Y-84420286D02*
X156674980Y-84277429D01*
X156674980Y-84277429D02*
X156674980Y-84182191D01*
X156674980Y-84182191D02*
X156627361Y-84039334D01*
X156627361Y-84039334D02*
X156579742Y-83991715D01*
X156198790Y-83563143D02*
X156198790Y-83229810D01*
X155674980Y-83086953D02*
X155674980Y-83563143D01*
X155674980Y-83563143D02*
X156674980Y-83563143D01*
X156674980Y-83563143D02*
X156674980Y-83086953D01*
D11*
X152658333Y-84884819D02*
X152658333Y-85599104D01*
X152658333Y-85599104D02*
X152705952Y-85741961D01*
X152705952Y-85741961D02*
X152801190Y-85837200D01*
X152801190Y-85837200D02*
X152944047Y-85884819D01*
X152944047Y-85884819D02*
X153039285Y-85884819D01*
X152229761Y-84980057D02*
X152182142Y-84932438D01*
X152182142Y-84932438D02*
X152086904Y-84884819D01*
X152086904Y-84884819D02*
X151848809Y-84884819D01*
X151848809Y-84884819D02*
X151753571Y-84932438D01*
X151753571Y-84932438D02*
X151705952Y-84980057D01*
X151705952Y-84980057D02*
X151658333Y-85075295D01*
X151658333Y-85075295D02*
X151658333Y-85170533D01*
X151658333Y-85170533D02*
X151705952Y-85313390D01*
X151705952Y-85313390D02*
X152277380Y-85884819D01*
X152277380Y-85884819D02*
X151658333Y-85884819D01*
X170544285Y-65919104D02*
X170068095Y-65919104D01*
X170639523Y-66204819D02*
X170306190Y-65204819D01*
X170306190Y-65204819D02*
X169972857Y-66204819D01*
X169115714Y-66204819D02*
X169687142Y-66204819D01*
X169401428Y-66204819D02*
X169401428Y-65204819D01*
X169401428Y-65204819D02*
X169496666Y-65347676D01*
X169496666Y-65347676D02*
X169591904Y-65442914D01*
X169591904Y-65442914D02*
X169687142Y-65490533D01*
X171091904Y-105844819D02*
X171091904Y-106654342D01*
X171091904Y-106654342D02*
X171044285Y-106749580D01*
X171044285Y-106749580D02*
X170996666Y-106797200D01*
X170996666Y-106797200D02*
X170901428Y-106844819D01*
X170901428Y-106844819D02*
X170710952Y-106844819D01*
X170710952Y-106844819D02*
X170615714Y-106797200D01*
X170615714Y-106797200D02*
X170568095Y-106749580D01*
X170568095Y-106749580D02*
X170520476Y-106654342D01*
X170520476Y-106654342D02*
X170520476Y-105844819D01*
X170091904Y-106797200D02*
X169949047Y-106844819D01*
X169949047Y-106844819D02*
X169710952Y-106844819D01*
X169710952Y-106844819D02*
X169615714Y-106797200D01*
X169615714Y-106797200D02*
X169568095Y-106749580D01*
X169568095Y-106749580D02*
X169520476Y-106654342D01*
X169520476Y-106654342D02*
X169520476Y-106559104D01*
X169520476Y-106559104D02*
X169568095Y-106463866D01*
X169568095Y-106463866D02*
X169615714Y-106416247D01*
X169615714Y-106416247D02*
X169710952Y-106368628D01*
X169710952Y-106368628D02*
X169901428Y-106321009D01*
X169901428Y-106321009D02*
X169996666Y-106273390D01*
X169996666Y-106273390D02*
X170044285Y-106225771D01*
X170044285Y-106225771D02*
X170091904Y-106130533D01*
X170091904Y-106130533D02*
X170091904Y-106035295D01*
X170091904Y-106035295D02*
X170044285Y-105940057D01*
X170044285Y-105940057D02*
X169996666Y-105892438D01*
X169996666Y-105892438D02*
X169901428Y-105844819D01*
X169901428Y-105844819D02*
X169663333Y-105844819D01*
X169663333Y-105844819D02*
X169520476Y-105892438D01*
X168758571Y-106321009D02*
X168615714Y-106368628D01*
X168615714Y-106368628D02*
X168568095Y-106416247D01*
X168568095Y-106416247D02*
X168520476Y-106511485D01*
X168520476Y-106511485D02*
X168520476Y-106654342D01*
X168520476Y-106654342D02*
X168568095Y-106749580D01*
X168568095Y-106749580D02*
X168615714Y-106797200D01*
X168615714Y-106797200D02*
X168710952Y-106844819D01*
X168710952Y-106844819D02*
X169091904Y-106844819D01*
X169091904Y-106844819D02*
X169091904Y-105844819D01*
X169091904Y-105844819D02*
X168758571Y-105844819D01*
X168758571Y-105844819D02*
X168663333Y-105892438D01*
X168663333Y-105892438D02*
X168615714Y-105940057D01*
X168615714Y-105940057D02*
X168568095Y-106035295D01*
X168568095Y-106035295D02*
X168568095Y-106130533D01*
X168568095Y-106130533D02*
X168615714Y-106225771D01*
X168615714Y-106225771D02*
X168663333Y-106273390D01*
X168663333Y-106273390D02*
X168758571Y-106321009D01*
X168758571Y-106321009D02*
X169091904Y-106321009D01*
X152783333Y-84544819D02*
X152783333Y-85259104D01*
X152783333Y-85259104D02*
X152830952Y-85401961D01*
X152830952Y-85401961D02*
X152926190Y-85497200D01*
X152926190Y-85497200D02*
X153069047Y-85544819D01*
X153069047Y-85544819D02*
X153164285Y-85544819D01*
X151878571Y-84878152D02*
X151878571Y-85544819D01*
X152116666Y-84497200D02*
X152354761Y-85211485D01*
X152354761Y-85211485D02*
X151735714Y-85211485D01*
X183504819Y-113553333D02*
X183028628Y-113220000D01*
X183504819Y-112981905D02*
X182504819Y-112981905D01*
X182504819Y-112981905D02*
X182504819Y-113362857D01*
X182504819Y-113362857D02*
X182552438Y-113458095D01*
X182552438Y-113458095D02*
X182600057Y-113505714D01*
X182600057Y-113505714D02*
X182695295Y-113553333D01*
X182695295Y-113553333D02*
X182838152Y-113553333D01*
X182838152Y-113553333D02*
X182933390Y-113505714D01*
X182933390Y-113505714D02*
X182981009Y-113458095D01*
X182981009Y-113458095D02*
X183028628Y-113362857D01*
X183028628Y-113362857D02*
X183028628Y-112981905D01*
X183504819Y-114505714D02*
X183504819Y-113934286D01*
X183504819Y-114220000D02*
X182504819Y-114220000D01*
X182504819Y-114220000D02*
X182647676Y-114124762D01*
X182647676Y-114124762D02*
X182742914Y-114029524D01*
X182742914Y-114029524D02*
X182790533Y-113934286D01*
X204318094Y-125174819D02*
X204318094Y-124174819D01*
X204318094Y-124174819D02*
X204079999Y-124174819D01*
X204079999Y-124174819D02*
X203937142Y-124222438D01*
X203937142Y-124222438D02*
X203841904Y-124317676D01*
X203841904Y-124317676D02*
X203794285Y-124412914D01*
X203794285Y-124412914D02*
X203746666Y-124603390D01*
X203746666Y-124603390D02*
X203746666Y-124746247D01*
X203746666Y-124746247D02*
X203794285Y-124936723D01*
X203794285Y-124936723D02*
X203841904Y-125031961D01*
X203841904Y-125031961D02*
X203937142Y-125127200D01*
X203937142Y-125127200D02*
X204079999Y-125174819D01*
X204079999Y-125174819D02*
X204318094Y-125174819D01*
X202794285Y-125174819D02*
X203365713Y-125174819D01*
X203079999Y-125174819D02*
X203079999Y-124174819D01*
X203079999Y-124174819D02*
X203175237Y-124317676D01*
X203175237Y-124317676D02*
X203270475Y-124412914D01*
X203270475Y-124412914D02*
X203365713Y-124460533D01*
X206988094Y-122419104D02*
X206511904Y-122419104D01*
X207083332Y-122704819D02*
X206749999Y-121704819D01*
X206749999Y-121704819D02*
X206416666Y-122704819D01*
X182389649Y-108739047D02*
X182437268Y-108881904D01*
X182437268Y-108881904D02*
X182484887Y-108929523D01*
X182484887Y-108929523D02*
X182580125Y-108977142D01*
X182580125Y-108977142D02*
X182722982Y-108977142D01*
X182722982Y-108977142D02*
X182818220Y-108929523D01*
X182818220Y-108929523D02*
X182865840Y-108881904D01*
X182865840Y-108881904D02*
X182913459Y-108786666D01*
X182913459Y-108786666D02*
X182913459Y-108405714D01*
X182913459Y-108405714D02*
X181913459Y-108405714D01*
X181913459Y-108405714D02*
X181913459Y-108739047D01*
X181913459Y-108739047D02*
X181961078Y-108834285D01*
X181961078Y-108834285D02*
X182008697Y-108881904D01*
X182008697Y-108881904D02*
X182103935Y-108929523D01*
X182103935Y-108929523D02*
X182199173Y-108929523D01*
X182199173Y-108929523D02*
X182294411Y-108881904D01*
X182294411Y-108881904D02*
X182342030Y-108834285D01*
X182342030Y-108834285D02*
X182389649Y-108739047D01*
X182389649Y-108739047D02*
X182389649Y-108405714D01*
X181913459Y-109310476D02*
X181913459Y-109977142D01*
X181913459Y-109977142D02*
X182913459Y-109310476D01*
X182913459Y-109310476D02*
X182913459Y-109977142D01*
X182913459Y-110881904D02*
X182913459Y-110310476D01*
X182913459Y-110596190D02*
X181913459Y-110596190D01*
X181913459Y-110596190D02*
X182056316Y-110500952D01*
X182056316Y-110500952D02*
X182151554Y-110405714D01*
X182151554Y-110405714D02*
X182199173Y-110310476D01*
X187192506Y-105429048D02*
X187192506Y-106190953D01*
X187573459Y-105810000D02*
X186811554Y-105810000D01*
X200071973Y-118064819D02*
X200071973Y-118779104D01*
X200071973Y-118779104D02*
X200119592Y-118921961D01*
X200119592Y-118921961D02*
X200214830Y-119017200D01*
X200214830Y-119017200D02*
X200357687Y-119064819D01*
X200357687Y-119064819D02*
X200452925Y-119064819D01*
X199691020Y-118064819D02*
X199071973Y-118064819D01*
X199071973Y-118064819D02*
X199405306Y-118445771D01*
X199405306Y-118445771D02*
X199262449Y-118445771D01*
X199262449Y-118445771D02*
X199167211Y-118493390D01*
X199167211Y-118493390D02*
X199119592Y-118541009D01*
X199119592Y-118541009D02*
X199071973Y-118636247D01*
X199071973Y-118636247D02*
X199071973Y-118874342D01*
X199071973Y-118874342D02*
X199119592Y-118969580D01*
X199119592Y-118969580D02*
X199167211Y-119017200D01*
X199167211Y-119017200D02*
X199262449Y-119064819D01*
X199262449Y-119064819D02*
X199548163Y-119064819D01*
X199548163Y-119064819D02*
X199643401Y-119017200D01*
X199643401Y-119017200D02*
X199691020Y-118969580D01*
X187645238Y-127075057D02*
X187740476Y-127027438D01*
X187740476Y-127027438D02*
X187835714Y-126932200D01*
X187835714Y-126932200D02*
X187978571Y-126789342D01*
X187978571Y-126789342D02*
X188073809Y-126741723D01*
X188073809Y-126741723D02*
X188169047Y-126741723D01*
X188121428Y-126979819D02*
X188216666Y-126932200D01*
X188216666Y-126932200D02*
X188311904Y-126836961D01*
X188311904Y-126836961D02*
X188359523Y-126646485D01*
X188359523Y-126646485D02*
X188359523Y-126313152D01*
X188359523Y-126313152D02*
X188311904Y-126122676D01*
X188311904Y-126122676D02*
X188216666Y-126027438D01*
X188216666Y-126027438D02*
X188121428Y-125979819D01*
X188121428Y-125979819D02*
X187930952Y-125979819D01*
X187930952Y-125979819D02*
X187835714Y-126027438D01*
X187835714Y-126027438D02*
X187740476Y-126122676D01*
X187740476Y-126122676D02*
X187692857Y-126313152D01*
X187692857Y-126313152D02*
X187692857Y-126646485D01*
X187692857Y-126646485D02*
X187740476Y-126836961D01*
X187740476Y-126836961D02*
X187835714Y-126932200D01*
X187835714Y-126932200D02*
X187930952Y-126979819D01*
X187930952Y-126979819D02*
X188121428Y-126979819D01*
X186740476Y-126979819D02*
X187311904Y-126979819D01*
X187026190Y-126979819D02*
X187026190Y-125979819D01*
X187026190Y-125979819D02*
X187121428Y-126122676D01*
X187121428Y-126122676D02*
X187216666Y-126217914D01*
X187216666Y-126217914D02*
X187311904Y-126265533D01*
D12*
%TO.C,REF\u002A\u002A*%
X71371600Y-89649200D02*
G75*
G03*
X70871600Y-90149200I0J-500000D01*
G01*
X70870500Y-104148520D02*
G75*
G03*
X71370940Y-104648900I500500J120D01*
G01*
X134870940Y-104648900D02*
G75*
G03*
X135371320Y-104148520I0J500380D01*
G01*
X62931600Y-79009200D02*
X142411600Y-79009200D01*
X62931600Y-115289200D02*
X62931600Y-79009200D01*
X67071600Y-84649200D02*
X67071600Y-109649200D01*
D10*
X67071600Y-84649200D02*
X89202600Y-84646400D01*
D12*
X67071600Y-109649200D02*
X140071600Y-109649200D01*
X70871600Y-90149200D02*
X70871600Y-104149200D01*
X71370940Y-104649200D02*
X134871600Y-104649200D01*
D10*
X89202600Y-84646400D02*
X89202600Y-79058400D01*
X89202600Y-89675600D02*
X71371600Y-89649200D01*
X89202600Y-89675600D02*
X89202600Y-84646400D01*
X89202600Y-100013400D02*
X89202600Y-89675600D01*
X135371320Y-104148520D02*
X135379800Y-100013400D01*
D12*
X136571600Y-78649200D02*
X133571600Y-78649200D01*
D10*
X140071600Y-109649200D02*
X140078800Y-100038800D01*
D12*
X143201600Y-79009200D02*
X142411600Y-79009200D01*
D10*
X143201600Y-79009200D02*
X143203000Y-85027400D01*
X143203000Y-100013400D02*
X89202600Y-100013400D01*
X143211600Y-79009200D02*
X143203000Y-87008600D01*
X143211600Y-79009200D02*
X143203000Y-100013400D01*
D12*
X143211600Y-79009200D02*
X143211600Y-115289200D01*
X143211600Y-115289200D02*
X62931600Y-115289200D01*
D10*
X150188000Y-87008600D02*
X154201200Y-87008600D01*
X150188000Y-95339800D02*
X150188000Y-87008600D01*
X154201200Y-87008600D02*
X154201200Y-95339800D01*
X154201200Y-95339800D02*
X150188000Y-95339800D01*
D12*
%TO.C,J2*%
X150995000Y-86870000D02*
X150995000Y-88200000D01*
X150995000Y-89470000D02*
X150995000Y-97150000D01*
X152325000Y-86870000D02*
X150995000Y-86870000D01*
X153655000Y-89470000D02*
X150995000Y-89470000D01*
X153655000Y-89470000D02*
X153655000Y-97150000D01*
X153655000Y-97150000D02*
X150995000Y-97150000D01*
%TO.C,A1*%
X178850000Y-110330000D02*
X173770000Y-110330000D01*
X178850000Y-72100000D02*
X178850000Y-110330000D01*
X178850000Y-66890000D02*
X178850000Y-69560000D01*
X176180000Y-107660000D02*
X178850000Y-107660000D01*
X176180000Y-72100000D02*
X178850000Y-72100000D01*
X176180000Y-72100000D02*
X176180000Y-107660000D01*
X176180000Y-72100000D02*
X176180000Y-69560000D01*
X176180000Y-69560000D02*
X178850000Y-69560000D01*
X173770000Y-112870000D02*
X173770000Y-102450000D01*
X173770000Y-102450000D02*
X165890000Y-102450000D01*
X165890000Y-112870000D02*
X173770000Y-112870000D01*
X165890000Y-102450000D02*
X165890000Y-112870000D01*
X163480000Y-107660000D02*
X160810000Y-107660000D01*
X163480000Y-69560000D02*
X163480000Y-107660000D01*
X163480000Y-69560000D02*
X160810000Y-69560000D01*
X160810000Y-110330000D02*
X165890000Y-110330000D01*
X160810000Y-110330000D02*
X160810000Y-66890000D01*
X160810000Y-66890000D02*
X178850000Y-66890000D01*
%TO.C,J4*%
X151120000Y-68290000D02*
X153780000Y-68290000D01*
X151120000Y-81050000D02*
X151120000Y-68290000D01*
X151120000Y-81050000D02*
X153780000Y-81050000D01*
X152450000Y-83650000D02*
X153780000Y-83650000D01*
X153780000Y-81050000D02*
X153780000Y-68290000D01*
X153780000Y-83650000D02*
X153780000Y-82320000D01*
%TO.C,R1*%
X181130000Y-114070000D02*
X181130000Y-113450000D01*
X182050000Y-114990000D02*
G75*
G03*
X182050000Y-114990000I-920000J0D01*
G01*
%TO.C,D1*%
X203363850Y-121281134D02*
G75*
G03*
X203423239Y-123150000I-1053850J-968866D01*
G01*
%TO.C,BZ1*%
X195758640Y-109620000D02*
G75*
G03*
X195758640Y-109620000I-6100000J0D01*
G01*
%TO.C,J3*%
X199008640Y-105320000D02*
X209358640Y-105320000D01*
X199008640Y-117920000D02*
X199008640Y-105320000D01*
X209358640Y-105320000D02*
X209358640Y-106270000D01*
X209358640Y-106270000D02*
X209858640Y-106020000D01*
X209358640Y-107720000D02*
X209358640Y-113120000D01*
X209358640Y-113120000D02*
X209858640Y-112820000D01*
X209858640Y-106020000D02*
X209858640Y-107920000D01*
X209858640Y-107920000D02*
X209858640Y-107970000D01*
X209858640Y-107970000D02*
X209358640Y-107720000D01*
X209858640Y-112820000D02*
X209858640Y-117920000D01*
X209858640Y-117920000D02*
X199008640Y-117920000D01*
%TO.C,Q1*%
X182430000Y-120884000D02*
X192670000Y-120884000D01*
X182430000Y-124015000D02*
X192670000Y-124015000D01*
X182430000Y-125525000D02*
X182430000Y-120884000D01*
X182430000Y-125525000D02*
X192670000Y-125525000D01*
X185700000Y-125525000D02*
X185700000Y-124015000D01*
X189401000Y-125525000D02*
X189401000Y-124015000D01*
X192670000Y-125525000D02*
X192670000Y-120884000D01*
%TD*%
M02*
