%TF.GenerationSoftware,KiCad,Pcbnew,7.0.7-7.0.7~ubuntu22.04.1*%
%TF.CreationDate,2023-09-27T10:41:22-06:00*%
%TF.ProjectId,ph_meter,70685f6d-6574-4657-922e-6b696361645f,1.3*%
%TF.SameCoordinates,Original*%
%TF.FileFunction,Copper,L2,Bot*%
%TF.FilePolarity,Positive*%
%FSLAX46Y46*%
G04 Gerber Fmt 4.6, Leading zero omitted, Abs format (unit mm)*
G04 Created by KiCad (PCBNEW 7.0.7-7.0.7~ubuntu22.04.1) date 2023-09-27 10:41:22*
%MOMM*%
%LPD*%
G01*
G04 APERTURE LIST*
%TA.AperFunction,ComponentPad*%
%ADD10C,3.000000*%
%TD*%
%TA.AperFunction,ComponentPad*%
%ADD11O,1.700000X1.700000*%
%TD*%
%TA.AperFunction,ComponentPad*%
%ADD12R,1.700000X1.700000*%
%TD*%
%TA.AperFunction,ComponentPad*%
%ADD13R,1.600000X1.600000*%
%TD*%
%TA.AperFunction,ComponentPad*%
%ADD14O,1.600000X1.600000*%
%TD*%
%TA.AperFunction,ComponentPad*%
%ADD15C,1.400000*%
%TD*%
%TA.AperFunction,ComponentPad*%
%ADD16O,1.400000X1.400000*%
%TD*%
%TA.AperFunction,ComponentPad*%
%ADD17R,1.800000X1.800000*%
%TD*%
%TA.AperFunction,ComponentPad*%
%ADD18O,1.800000X1.800000*%
%TD*%
%TA.AperFunction,ComponentPad*%
%ADD19R,2.000000X2.000000*%
%TD*%
%TA.AperFunction,ComponentPad*%
%ADD20C,2.000000*%
%TD*%
%TA.AperFunction,ComponentPad*%
%ADD21R,1.980000X3.960000*%
%TD*%
%TA.AperFunction,ComponentPad*%
%ADD22O,1.980000X3.960000*%
%TD*%
%TA.AperFunction,ComponentPad*%
%ADD23R,1.905000X2.000000*%
%TD*%
%TA.AperFunction,ComponentPad*%
%ADD24O,1.905000X2.000000*%
%TD*%
%TA.AperFunction,Conductor*%
%ADD25C,0.304800*%
%TD*%
G04 APERTURE END LIST*
D10*
%TO.P,REF\u002A\u002A,*%
%TO.N,*%
X65571600Y-81649200D03*
X65572120Y-112649900D03*
X140570700Y-81649200D03*
X140570700Y-112649900D03*
%TD*%
D11*
%TO.P,J2,4,Pin_4*%
%TO.N,Net-(A1-A5)*%
X152325000Y-95820000D03*
%TO.P,J2,3,Pin_3*%
%TO.N,Net-(A1-A4)*%
X152325000Y-93280000D03*
%TO.P,J2,2,Pin_2*%
%TO.N,+5V*%
X152325000Y-90740000D03*
D12*
%TO.P,J2,1,Pin_1*%
%TO.N,GND*%
X152325000Y-88200000D03*
%TD*%
D13*
%TO.P,A1,1,D1/TX*%
%TO.N,unconnected-(A1-D1{slash}TX-Pad1)*%
X177450000Y-70830000D03*
D14*
%TO.P,A1,2,D0/RX*%
%TO.N,unconnected-(A1-D0{slash}RX-Pad2)*%
X177450000Y-73370000D03*
%TO.P,A1,3,~{RESET}*%
%TO.N,unconnected-(A1-~{RESET}-Pad3)*%
X177450000Y-75910000D03*
%TO.P,A1,4,GND*%
%TO.N,GND*%
X177450000Y-78450000D03*
%TO.P,A1,5,D2*%
%TO.N,unconnected-(A1-D2-Pad5)*%
X177450000Y-80990000D03*
%TO.P,A1,6,D3*%
%TO.N,unconnected-(A1-D3-Pad6)*%
X177450000Y-83530000D03*
%TO.P,A1,7,D4*%
%TO.N,unconnected-(A1-D4-Pad7)*%
X177450000Y-86070000D03*
%TO.P,A1,8,D5*%
%TO.N,unconnected-(A1-D5-Pad8)*%
X177450000Y-88610000D03*
%TO.P,A1,9,D6*%
%TO.N,unconnected-(A1-D6-Pad9)*%
X177450000Y-91150000D03*
%TO.P,A1,10,D7*%
%TO.N,unconnected-(A1-D7-Pad10)*%
X177450000Y-93690000D03*
%TO.P,A1,11,D8*%
%TO.N,unconnected-(A1-D8-Pad11)*%
X177450000Y-96230000D03*
%TO.P,A1,12,D9*%
%TO.N,unconnected-(A1-D9-Pad12)*%
X177450000Y-98770000D03*
%TO.P,A1,13,D10*%
%TO.N,unconnected-(A1-D10-Pad13)*%
X177450000Y-101310000D03*
%TO.P,A1,14,D11*%
%TO.N,Net-(A1-D11)*%
X177450000Y-103850000D03*
%TO.P,A1,15,D12*%
%TO.N,Net-(A1-D12)*%
X177450000Y-106390000D03*
%TO.P,A1,16,D13*%
%TO.N,unconnected-(A1-D13-Pad16)*%
X162210000Y-106390000D03*
%TO.P,A1,17,3V3*%
%TO.N,unconnected-(A1-3V3-Pad17)*%
X162210000Y-103850000D03*
%TO.P,A1,18,AREF*%
%TO.N,unconnected-(A1-AREF-Pad18)*%
X162210000Y-101310000D03*
%TO.P,A1,19,A0*%
%TO.N,unconnected-(A1-A0-Pad19)*%
X162210000Y-98770000D03*
%TO.P,A1,20,A1*%
%TO.N,unconnected-(A1-A1-Pad20)*%
X162210000Y-96230000D03*
%TO.P,A1,21,A2*%
%TO.N,unconnected-(A1-A2-Pad21)*%
X162210000Y-93690000D03*
%TO.P,A1,22,A3*%
%TO.N,unconnected-(A1-A3-Pad22)*%
X162210000Y-91150000D03*
%TO.P,A1,23,A4*%
%TO.N,Net-(A1-A4)*%
X162210000Y-88610000D03*
%TO.P,A1,24,A5*%
%TO.N,Net-(A1-A5)*%
X162210000Y-86070000D03*
%TO.P,A1,25,A6*%
%TO.N,unconnected-(A1-A6-Pad25)*%
X162210000Y-83530000D03*
%TO.P,A1,26,A7*%
%TO.N,Net-(A1-A7)*%
X162210000Y-80990000D03*
%TO.P,A1,27,+5V*%
%TO.N,+5V*%
X162210000Y-78450000D03*
%TO.P,A1,28,~{RESET}*%
%TO.N,unconnected-(A1-~{RESET}-Pad28)*%
X162210000Y-75910000D03*
%TO.P,A1,29,GND*%
%TO.N,GND*%
X162210000Y-73370000D03*
%TO.P,A1,30,VIN*%
%TO.N,+12V*%
X162210000Y-70830000D03*
%TD*%
D12*
%TO.P,J4,1,Pin_1*%
%TO.N,unconnected-(J4-Pin_1-Pad1)*%
X152450000Y-82320000D03*
D11*
%TO.P,J4,2,Pin_2*%
%TO.N,unconnected-(J4-Pin_2-Pad2)*%
X152450000Y-79780000D03*
%TO.P,J4,3,Pin_3*%
%TO.N,Net-(A1-A7)*%
X152450000Y-77240000D03*
%TO.P,J4,4,Pin_4*%
%TO.N,unconnected-(J4-Pin_4-Pad4)*%
X152450000Y-74700000D03*
%TO.P,J4,5,Pin_5*%
%TO.N,GND*%
X152450000Y-72160000D03*
%TO.P,J4,6,Pin_6*%
%TO.N,+5V*%
X152450000Y-69620000D03*
%TD*%
D15*
%TO.P,R1,1*%
%TO.N,Net-(Q1-B)*%
X181130000Y-114990000D03*
D16*
%TO.P,R1,2*%
%TO.N,Net-(A1-D12)*%
X181130000Y-112450000D03*
%TD*%
D17*
%TO.P,D1,1,K*%
%TO.N,+12V*%
X202310000Y-122250000D03*
D18*
%TO.P,D1,2,A*%
%TO.N,Net-(D1-A)*%
X204850000Y-122250000D03*
%TD*%
D19*
%TO.P,BZ1,1,-*%
%TO.N,Net-(A1-D11)*%
X189658640Y-105820000D03*
D20*
%TO.P,BZ1,2,+*%
%TO.N,GND*%
X189658640Y-113420000D03*
%TD*%
D21*
%TO.P,J3,1,Pin_1*%
%TO.N,+12V*%
X201658640Y-111620000D03*
D22*
%TO.P,J3,2,Pin_2*%
%TO.N,Net-(D1-A)*%
X206658640Y-111620000D03*
%TD*%
D23*
%TO.P,Q1,1,B*%
%TO.N,Net-(Q1-B)*%
X185010000Y-122255000D03*
D24*
%TO.P,Q1,2,C*%
%TO.N,Net-(D1-A)*%
X187550000Y-122255000D03*
%TO.P,Q1,3,E*%
%TO.N,GND*%
X190090000Y-122255000D03*
%TD*%
D25*
%TO.N,GND*%
X152450000Y-72160000D02*
X150860000Y-72160000D01*
X150860000Y-72160000D02*
X149150000Y-70450000D01*
X149150000Y-70450000D02*
X149150000Y-67500000D01*
X149150000Y-67500000D02*
X149650000Y-67000000D01*
X160320000Y-73370000D02*
X162210000Y-73370000D01*
X149650000Y-67000000D02*
X153950000Y-67000000D01*
X153950000Y-67000000D02*
X160320000Y-73370000D01*
%TO.N,+5V*%
X152450000Y-69620000D02*
X154170000Y-69620000D01*
X160500000Y-78450000D02*
X162210000Y-78450000D01*
X154170000Y-69620000D02*
X157100000Y-72550000D01*
X157100000Y-75050000D02*
X160500000Y-78450000D01*
X157100000Y-72550000D02*
X157100000Y-75050000D01*
%TO.N,Net-(Q1-B)*%
X181130000Y-114990000D02*
X185010000Y-118870000D01*
X185010000Y-118870000D02*
X185010000Y-122255000D01*
%TO.N,Net-(A1-D12)*%
X181130000Y-112450000D02*
X181130000Y-108430000D01*
X181130000Y-108430000D02*
X179090000Y-106390000D01*
X179090000Y-106390000D02*
X177450000Y-106390000D01*
%TO.N,Net-(D1-A)*%
X187550000Y-122255000D02*
X187550000Y-126300000D01*
X187550000Y-126300000D02*
X188950000Y-127700000D01*
X202300000Y-127700000D02*
X204850000Y-125150000D01*
X188950000Y-127700000D02*
X202300000Y-127700000D01*
X204850000Y-125150000D02*
X204850000Y-122250000D01*
X204850000Y-122250000D02*
X204850000Y-120750000D01*
X204850000Y-120750000D02*
X206658640Y-118941360D01*
X206658640Y-118941360D02*
X206658640Y-111620000D01*
%TO.N,+12V*%
X201658640Y-111620000D02*
X201658640Y-118758640D01*
X201658640Y-118758640D02*
X202310000Y-119410000D01*
X202310000Y-119410000D02*
X202310000Y-122250000D01*
%TO.N,+5V*%
X152325000Y-90740000D02*
X150010000Y-90740000D01*
X150010000Y-90740000D02*
X149150000Y-91600000D01*
X149150000Y-91600000D02*
X149150000Y-106150000D01*
X149150000Y-106150000D02*
X153400000Y-110400000D01*
X153400000Y-110400000D02*
X164450000Y-110400000D01*
X164450000Y-110400000D02*
X168200000Y-106650000D01*
X168200000Y-106650000D02*
X168200000Y-82950000D01*
X168200000Y-82950000D02*
X163700000Y-78450000D01*
X163700000Y-78450000D02*
X162210000Y-78450000D01*
%TO.N,Net-(A1-A7)*%
X152450000Y-77240000D02*
X155740000Y-77240000D01*
X155740000Y-77240000D02*
X159490000Y-80990000D01*
X159490000Y-80990000D02*
X162210000Y-80990000D01*
%TO.N,Net-(A1-A5)*%
X152325000Y-95820000D02*
X152325000Y-106425000D01*
X152325000Y-106425000D02*
X154400000Y-108500000D01*
X154400000Y-108500000D02*
X164150000Y-108500000D01*
X165650000Y-88150000D02*
X163570000Y-86070000D01*
X164150000Y-108500000D02*
X165650000Y-107000000D01*
X163570000Y-86070000D02*
X162210000Y-86070000D01*
X165650000Y-107000000D02*
X165650000Y-88150000D01*
%TO.N,Net-(A1-A4)*%
X152325000Y-93280000D02*
X155420000Y-93280000D01*
X155420000Y-93280000D02*
X160090000Y-88610000D01*
X160090000Y-88610000D02*
X162210000Y-88610000D01*
%TO.N,+12V*%
X201658640Y-88558640D02*
X180050000Y-66950000D01*
X201658640Y-111620000D02*
X201658640Y-88558640D01*
X180050000Y-66950000D02*
X166090000Y-66950000D01*
X166090000Y-66950000D02*
X162210000Y-70830000D01*
%TO.N,Net-(A1-D11)*%
X186388640Y-103850000D02*
X188358640Y-105820000D01*
X177450000Y-103850000D02*
X186388640Y-103850000D01*
X188358640Y-105820000D02*
X189658640Y-105820000D01*
%TD*%
%TA.AperFunction,Conductor*%
%TO.N,GND*%
G36*
X153859318Y-70427585D02*
G01*
X153879960Y-70444219D01*
X156275781Y-72840040D01*
X156309266Y-72901363D01*
X156312100Y-72927721D01*
X156312100Y-75096149D01*
X156312101Y-75096181D01*
X156312101Y-75138776D01*
X156321232Y-75178787D01*
X156322396Y-75185634D01*
X156326994Y-75226434D01*
X156326995Y-75226436D01*
X156340552Y-75265185D01*
X156342478Y-75271869D01*
X156351609Y-75311874D01*
X156369412Y-75348844D01*
X156372075Y-75355271D01*
X156385633Y-75394018D01*
X156407472Y-75428774D01*
X156410837Y-75434864D01*
X156428643Y-75471837D01*
X156454233Y-75503926D01*
X156458260Y-75509601D01*
X156480094Y-75544352D01*
X156480096Y-75544354D01*
X156480097Y-75544355D01*
X156480098Y-75544356D01*
X156510311Y-75574569D01*
X156510348Y-75574608D01*
X159975689Y-79039949D01*
X159975719Y-79039977D01*
X160005644Y-79069902D01*
X160040399Y-79091740D01*
X160046070Y-79095764D01*
X160078160Y-79121355D01*
X160115134Y-79139161D01*
X160121225Y-79142527D01*
X160155976Y-79164363D01*
X160155978Y-79164364D01*
X160155980Y-79164365D01*
X160194729Y-79177923D01*
X160201142Y-79180580D01*
X160238126Y-79198391D01*
X160278153Y-79207526D01*
X160284801Y-79209441D01*
X160323566Y-79223006D01*
X160364363Y-79227602D01*
X160371209Y-79228766D01*
X160411225Y-79237899D01*
X160454028Y-79237899D01*
X160454064Y-79237900D01*
X160455756Y-79237900D01*
X160942942Y-79237900D01*
X161009981Y-79257585D01*
X161046751Y-79294079D01*
X161073303Y-79334721D01*
X161073306Y-79334724D01*
X161234430Y-79509751D01*
X161378837Y-79622147D01*
X161419649Y-79678857D01*
X161423324Y-79748630D01*
X161388693Y-79809313D01*
X161378843Y-79817847D01*
X161272676Y-79900481D01*
X161234431Y-79930248D01*
X161073303Y-80105278D01*
X161046751Y-80145921D01*
X160993604Y-80191278D01*
X160942942Y-80202100D01*
X159867721Y-80202100D01*
X159800682Y-80182415D01*
X159780040Y-80165781D01*
X156264608Y-76650348D01*
X156264569Y-76650311D01*
X156234356Y-76620098D01*
X156234355Y-76620097D01*
X156234354Y-76620096D01*
X156234352Y-76620094D01*
X156199601Y-76598260D01*
X156193931Y-76594236D01*
X156161840Y-76568645D01*
X156161838Y-76568644D01*
X156161837Y-76568643D01*
X156124864Y-76550837D01*
X156118774Y-76547472D01*
X156084018Y-76525633D01*
X156045271Y-76512075D01*
X156038844Y-76509412D01*
X156001874Y-76491609D01*
X155961869Y-76482478D01*
X155955185Y-76480552D01*
X155922631Y-76469162D01*
X155916434Y-76466994D01*
X155875634Y-76462396D01*
X155868787Y-76461232D01*
X155828776Y-76452101D01*
X155828774Y-76452101D01*
X155785972Y-76452101D01*
X155785936Y-76452100D01*
X155784244Y-76452100D01*
X153776783Y-76452100D01*
X153709744Y-76432415D01*
X153672974Y-76395921D01*
X153626288Y-76324462D01*
X153459547Y-76143334D01*
X153459543Y-76143331D01*
X153362569Y-76067853D01*
X153321756Y-76011143D01*
X153318081Y-75941370D01*
X153352713Y-75880687D01*
X153362569Y-75872147D01*
X153409476Y-75835636D01*
X153459550Y-75796663D01*
X153626286Y-75615540D01*
X153760936Y-75409443D01*
X153859827Y-75183994D01*
X153920261Y-74945343D01*
X153935623Y-74759959D01*
X153940591Y-74700005D01*
X153940591Y-74699994D01*
X153920261Y-74454660D01*
X153920261Y-74454657D01*
X153859827Y-74216006D01*
X153760936Y-73990557D01*
X153626286Y-73784460D01*
X153459550Y-73603337D01*
X153459549Y-73603336D01*
X153459547Y-73603334D01*
X153459543Y-73603331D01*
X153265279Y-73452129D01*
X153260975Y-73449317D01*
X153262150Y-73447518D01*
X153219025Y-73404698D01*
X153203931Y-73336478D01*
X153228116Y-73270928D01*
X153256523Y-73243311D01*
X153321080Y-73198107D01*
X153488105Y-73031082D01*
X153623600Y-72837578D01*
X153723429Y-72623492D01*
X153723432Y-72623486D01*
X153780636Y-72410000D01*
X153063347Y-72410000D01*
X152996308Y-72390315D01*
X152950553Y-72337511D01*
X152940609Y-72268353D01*
X152944369Y-72251067D01*
X152950000Y-72231888D01*
X152950000Y-72088111D01*
X152944369Y-72068933D01*
X152944370Y-71999064D01*
X152982145Y-71940286D01*
X153045701Y-71911262D01*
X153063347Y-71910000D01*
X153780636Y-71910000D01*
X153780635Y-71909999D01*
X153723432Y-71696513D01*
X153723429Y-71696507D01*
X153623600Y-71482422D01*
X153623599Y-71482420D01*
X153488113Y-71288926D01*
X153488108Y-71288920D01*
X153321078Y-71121890D01*
X153256522Y-71076687D01*
X153212897Y-71022110D01*
X153205705Y-70952612D01*
X153237228Y-70890257D01*
X153261540Y-70871529D01*
X153260984Y-70870677D01*
X153265269Y-70867876D01*
X153265276Y-70867873D01*
X153459550Y-70716663D01*
X153626286Y-70535540D01*
X153672973Y-70464079D01*
X153726121Y-70418722D01*
X153776783Y-70407900D01*
X153792279Y-70407900D01*
X153859318Y-70427585D01*
G37*
%TD.AperFunction*%
%TA.AperFunction,Conductor*%
G36*
X179115469Y-63170185D02*
G01*
X179136111Y-63186819D01*
X214763181Y-98813888D01*
X214796666Y-98875211D01*
X214799500Y-98901569D01*
X214799500Y-118098429D01*
X214779815Y-118165468D01*
X214763181Y-118186110D01*
X203286111Y-129663181D01*
X203224788Y-129696666D01*
X203198430Y-129699500D01*
X183768290Y-129699500D01*
X183732632Y-129694263D01*
X179714658Y-128487898D01*
X174074064Y-126794354D01*
X142453023Y-117300385D01*
X142450120Y-117299358D01*
X142450038Y-117299346D01*
X142446925Y-117299500D01*
X61024500Y-117299500D01*
X60957461Y-117279815D01*
X60911706Y-117227011D01*
X60900500Y-117175500D01*
X60900500Y-112649899D01*
X63431630Y-112649899D01*
X63451566Y-112941357D01*
X63511004Y-113227396D01*
X63511006Y-113227401D01*
X63608834Y-113502665D01*
X63608835Y-113502667D01*
X63608836Y-113502670D01*
X63608838Y-113502674D01*
X63743244Y-113762064D01*
X63911718Y-114000737D01*
X64111122Y-114214247D01*
X64111127Y-114214251D01*
X64111129Y-114214253D01*
X64137244Y-114235499D01*
X64337742Y-114398616D01*
X64337744Y-114398617D01*
X64337745Y-114398618D01*
X64587356Y-114550410D01*
X64770362Y-114629900D01*
X64855314Y-114666800D01*
X65136624Y-114745620D01*
X65391074Y-114780592D01*
X65426047Y-114785400D01*
X65426048Y-114785400D01*
X65718193Y-114785400D01*
X65749395Y-114781111D01*
X66007616Y-114745620D01*
X66288926Y-114666800D01*
X66556885Y-114550409D01*
X66806498Y-114398616D01*
X67033118Y-114214247D01*
X67232522Y-114000737D01*
X67400996Y-113762064D01*
X67535402Y-113502674D01*
X67633235Y-113227397D01*
X67692673Y-112941363D01*
X67712610Y-112649900D01*
X67712610Y-112649899D01*
X138430210Y-112649899D01*
X138450146Y-112941357D01*
X138509584Y-113227396D01*
X138509586Y-113227401D01*
X138607414Y-113502665D01*
X138607415Y-113502667D01*
X138607416Y-113502670D01*
X138607418Y-113502674D01*
X138741824Y-113762064D01*
X138910298Y-114000737D01*
X139109702Y-114214247D01*
X139109707Y-114214251D01*
X139109709Y-114214253D01*
X139135824Y-114235499D01*
X139336322Y-114398616D01*
X139336324Y-114398617D01*
X139336325Y-114398618D01*
X139585936Y-114550410D01*
X139768942Y-114629900D01*
X139853894Y-114666800D01*
X140135204Y-114745620D01*
X140389654Y-114780592D01*
X140424627Y-114785400D01*
X140424628Y-114785400D01*
X140716773Y-114785400D01*
X140747975Y-114781111D01*
X141006196Y-114745620D01*
X141287506Y-114666800D01*
X141555465Y-114550409D01*
X141805078Y-114398616D01*
X142031698Y-114214247D01*
X142231102Y-114000737D01*
X142399576Y-113762064D01*
X142533982Y-113502674D01*
X142631815Y-113227397D01*
X142691253Y-112941363D01*
X142711190Y-112649900D01*
X142691253Y-112358437D01*
X142631815Y-112072403D01*
X142533982Y-111797126D01*
X142399576Y-111537736D01*
X142231102Y-111299063D01*
X142031698Y-111085553D01*
X142031691Y-111085548D01*
X142031690Y-111085546D01*
X141805074Y-110901181D01*
X141555463Y-110749389D01*
X141287509Y-110633001D01*
X141287507Y-110633000D01*
X141287506Y-110633000D01*
X141207474Y-110610576D01*
X141006201Y-110554181D01*
X141006197Y-110554180D01*
X141006196Y-110554180D01*
X140861483Y-110534290D01*
X140716773Y-110514400D01*
X140716772Y-110514400D01*
X140424628Y-110514400D01*
X140424627Y-110514400D01*
X140135204Y-110554180D01*
X140135198Y-110554181D01*
X139853890Y-110633001D01*
X139585936Y-110749389D01*
X139336325Y-110901181D01*
X139109709Y-111085546D01*
X139109703Y-111085551D01*
X139109702Y-111085553D01*
X139014119Y-111187898D01*
X138910299Y-111299062D01*
X138741824Y-111537735D01*
X138715636Y-111588276D01*
X138616448Y-111779700D01*
X138607415Y-111797132D01*
X138607414Y-111797134D01*
X138509586Y-112072398D01*
X138509584Y-112072403D01*
X138450146Y-112358442D01*
X138430210Y-112649899D01*
X67712610Y-112649899D01*
X67692673Y-112358437D01*
X67633235Y-112072403D01*
X67535402Y-111797126D01*
X67400996Y-111537736D01*
X67232522Y-111299063D01*
X67033118Y-111085553D01*
X67033111Y-111085548D01*
X67033110Y-111085546D01*
X66806494Y-110901181D01*
X66556883Y-110749389D01*
X66288929Y-110633001D01*
X66288927Y-110633000D01*
X66288926Y-110633000D01*
X66208894Y-110610576D01*
X66007621Y-110554181D01*
X66007617Y-110554180D01*
X66007616Y-110554180D01*
X65862903Y-110534289D01*
X65718193Y-110514400D01*
X65718192Y-110514400D01*
X65426048Y-110514400D01*
X65426047Y-110514400D01*
X65136624Y-110554180D01*
X65136618Y-110554181D01*
X64855310Y-110633001D01*
X64587356Y-110749389D01*
X64337745Y-110901181D01*
X64111129Y-111085546D01*
X64111123Y-111085551D01*
X64111122Y-111085553D01*
X64015539Y-111187898D01*
X63911719Y-111299062D01*
X63743244Y-111537735D01*
X63717056Y-111588276D01*
X63617868Y-111779700D01*
X63608835Y-111797132D01*
X63608834Y-111797134D01*
X63511006Y-112072398D01*
X63511004Y-112072403D01*
X63451566Y-112358442D01*
X63431630Y-112649899D01*
X60900500Y-112649899D01*
X60900500Y-106196149D01*
X148362100Y-106196149D01*
X148362101Y-106196181D01*
X148362101Y-106238776D01*
X148371232Y-106278787D01*
X148372396Y-106285634D01*
X148376994Y-106326434D01*
X148376995Y-106326436D01*
X148390552Y-106365185D01*
X148392478Y-106371869D01*
X148401609Y-106411874D01*
X148419412Y-106448844D01*
X148422075Y-106455271D01*
X148435633Y-106494018D01*
X148457472Y-106528774D01*
X148460837Y-106534864D01*
X148478643Y-106571837D01*
X148478644Y-106571838D01*
X148478645Y-106571840D01*
X148502245Y-106601434D01*
X148504233Y-106603926D01*
X148508260Y-106609601D01*
X148530094Y-106644352D01*
X148530096Y-106644354D01*
X148530097Y-106644355D01*
X148530098Y-106644356D01*
X148560311Y-106674569D01*
X148560348Y-106674608D01*
X152875689Y-110989949D01*
X152875719Y-110989977D01*
X152905644Y-111019902D01*
X152940393Y-111041736D01*
X152946068Y-111045763D01*
X152978160Y-111071356D01*
X153015148Y-111089168D01*
X153021227Y-111092528D01*
X153055975Y-111114362D01*
X153055980Y-111114365D01*
X153094721Y-111127921D01*
X153101139Y-111130579D01*
X153138127Y-111148391D01*
X153178134Y-111157522D01*
X153184808Y-111159443D01*
X153223566Y-111173006D01*
X153264356Y-111177601D01*
X153271204Y-111178764D01*
X153311226Y-111187900D01*
X153311231Y-111187900D01*
X164495936Y-111187900D01*
X164495972Y-111187899D01*
X164538774Y-111187899D01*
X164578782Y-111178767D01*
X164585639Y-111177602D01*
X164626434Y-111173006D01*
X164655139Y-111162960D01*
X164665176Y-111159449D01*
X164671865Y-111157522D01*
X164683146Y-111154946D01*
X164711873Y-111148391D01*
X164748859Y-111130578D01*
X164755267Y-111127924D01*
X164794020Y-111114365D01*
X164828783Y-111092520D01*
X164834860Y-111089162D01*
X164871840Y-111071355D01*
X164903937Y-111045757D01*
X164909596Y-111041741D01*
X164944356Y-111019902D01*
X164970457Y-110993799D01*
X164970472Y-110993787D01*
X168793787Y-107170472D01*
X168793801Y-107170456D01*
X168819902Y-107144356D01*
X168841735Y-107109606D01*
X168845750Y-107103947D01*
X168871356Y-107071840D01*
X168889166Y-107034854D01*
X168892530Y-107028769D01*
X168906005Y-107007324D01*
X168914365Y-106994020D01*
X168927924Y-106955269D01*
X168930585Y-106948847D01*
X168948390Y-106911876D01*
X168957522Y-106871865D01*
X168959449Y-106865176D01*
X168965866Y-106846837D01*
X168973006Y-106826434D01*
X168977602Y-106785639D01*
X168978767Y-106778784D01*
X168980996Y-106769018D01*
X168987899Y-106738774D01*
X168987899Y-106696181D01*
X168987900Y-106696149D01*
X168987900Y-82903973D01*
X168987899Y-82903936D01*
X168987899Y-82861227D01*
X168987899Y-82861226D01*
X168978766Y-82821214D01*
X168977601Y-82814354D01*
X168973006Y-82773566D01*
X168959447Y-82734819D01*
X168957522Y-82728136D01*
X168948391Y-82688128D01*
X168948391Y-82688127D01*
X168930581Y-82651145D01*
X168927924Y-82644732D01*
X168914365Y-82605980D01*
X168892527Y-82571225D01*
X168889164Y-82565140D01*
X168881619Y-82549475D01*
X168871355Y-82528160D01*
X168845763Y-82496068D01*
X168841737Y-82490395D01*
X168819901Y-82455643D01*
X168789977Y-82425719D01*
X168789949Y-82425689D01*
X164224608Y-77860348D01*
X164224569Y-77860311D01*
X164194356Y-77830098D01*
X164194355Y-77830097D01*
X164194354Y-77830096D01*
X164194352Y-77830094D01*
X164159601Y-77808260D01*
X164153931Y-77804236D01*
X164121840Y-77778645D01*
X164121838Y-77778644D01*
X164121837Y-77778643D01*
X164084864Y-77760837D01*
X164078774Y-77757472D01*
X164044018Y-77735633D01*
X164005271Y-77722075D01*
X163998844Y-77719412D01*
X163961874Y-77701609D01*
X163921869Y-77692478D01*
X163915185Y-77690552D01*
X163882631Y-77679162D01*
X163876434Y-77676994D01*
X163835634Y-77672396D01*
X163828787Y-77671232D01*
X163788776Y-77662101D01*
X163788774Y-77662101D01*
X163745972Y-77662101D01*
X163745936Y-77662100D01*
X163744244Y-77662100D01*
X163477058Y-77662100D01*
X163410019Y-77642415D01*
X163373249Y-77605921D01*
X163346696Y-77565278D01*
X163273110Y-77485343D01*
X163185570Y-77390249D01*
X163041162Y-77277852D01*
X163000351Y-77221143D01*
X162996676Y-77151370D01*
X163031307Y-77090687D01*
X163041156Y-77082152D01*
X163185570Y-76969751D01*
X163346694Y-76794724D01*
X163476812Y-76595564D01*
X163572374Y-76377704D01*
X163630775Y-76147085D01*
X163631086Y-76143331D01*
X163650420Y-75910006D01*
X163650420Y-75909993D01*
X163630776Y-75672922D01*
X163630774Y-75672911D01*
X163587981Y-75503926D01*
X163572374Y-75442296D01*
X163476812Y-75224436D01*
X163346694Y-75025276D01*
X163185570Y-74850249D01*
X163185569Y-74850248D01*
X163185567Y-74850246D01*
X163185563Y-74850243D01*
X162997843Y-74704134D01*
X162997837Y-74704130D01*
X162982416Y-74695784D01*
X162933660Y-74669399D01*
X162884071Y-74620180D01*
X162868963Y-74551964D01*
X162893133Y-74486408D01*
X162921555Y-74458770D01*
X163048820Y-74369657D01*
X163209657Y-74208820D01*
X163340134Y-74022482D01*
X163436265Y-73816326D01*
X163436269Y-73816317D01*
X163488872Y-73620000D01*
X162823347Y-73620000D01*
X162756308Y-73600315D01*
X162710553Y-73547511D01*
X162700609Y-73478353D01*
X162704369Y-73461067D01*
X162710000Y-73441888D01*
X162710000Y-73298111D01*
X162704369Y-73278933D01*
X162704370Y-73209064D01*
X162742145Y-73150286D01*
X162805701Y-73121262D01*
X162823347Y-73120000D01*
X163488872Y-73120000D01*
X163488872Y-73119999D01*
X163436269Y-72923682D01*
X163436265Y-72923673D01*
X163340134Y-72717517D01*
X163209657Y-72531179D01*
X163048816Y-72370338D01*
X162921555Y-72281228D01*
X162877930Y-72226651D01*
X162870738Y-72157153D01*
X162902260Y-72094798D01*
X162933663Y-72070599D01*
X162997828Y-72035875D01*
X162997829Y-72035873D01*
X162997835Y-72035871D01*
X163010879Y-72025719D01*
X163066420Y-71982489D01*
X163185570Y-71889751D01*
X163346694Y-71714724D01*
X163476812Y-71515564D01*
X163572374Y-71297704D01*
X163630775Y-71067085D01*
X163637573Y-70985043D01*
X163650420Y-70830006D01*
X163650420Y-70829993D01*
X163630352Y-70587804D01*
X163632409Y-70587633D01*
X163639728Y-70527016D01*
X163665976Y-70488281D01*
X166380039Y-67774219D01*
X166441363Y-67740734D01*
X166467721Y-67737900D01*
X179672279Y-67737900D01*
X179739318Y-67757585D01*
X179759960Y-67774219D01*
X200834421Y-88848680D01*
X200867906Y-88910003D01*
X200870740Y-88936361D01*
X200870740Y-108880500D01*
X200851055Y-108947539D01*
X200798251Y-108993294D01*
X200746741Y-109004500D01*
X200604460Y-109004501D01*
X200604459Y-109004501D01*
X200568434Y-109007335D01*
X200414251Y-109052129D01*
X200414246Y-109052131D01*
X200276044Y-109133863D01*
X200276036Y-109133869D01*
X200162509Y-109247396D01*
X200162503Y-109247404D01*
X200080771Y-109385606D01*
X200080769Y-109385611D01*
X200035975Y-109539791D01*
X200035974Y-109539797D01*
X200033140Y-109575817D01*
X200033141Y-113664180D01*
X200035975Y-113700204D01*
X200080769Y-113854388D01*
X200080771Y-113854393D01*
X200162503Y-113992595D01*
X200162509Y-113992603D01*
X200276036Y-114106130D01*
X200276040Y-114106133D01*
X200276042Y-114106135D01*
X200414247Y-114187869D01*
X200454908Y-114199682D01*
X200568431Y-114232664D01*
X200568434Y-114232664D01*
X200568436Y-114232665D01*
X200604459Y-114235500D01*
X200746739Y-114235499D01*
X200813778Y-114255183D01*
X200859533Y-114307987D01*
X200870739Y-114359499D01*
X200870739Y-118804789D01*
X200870741Y-118804821D01*
X200870741Y-118847416D01*
X200879872Y-118887427D01*
X200881036Y-118894274D01*
X200885634Y-118935074D01*
X200885635Y-118935076D01*
X200899192Y-118973825D01*
X200901118Y-118980509D01*
X200910249Y-119020514D01*
X200928052Y-119057484D01*
X200930715Y-119063911D01*
X200944273Y-119102658D01*
X200966112Y-119137414D01*
X200969477Y-119143504D01*
X200987283Y-119180477D01*
X200987284Y-119180478D01*
X200987285Y-119180480D01*
X201005431Y-119203235D01*
X201012873Y-119212566D01*
X201016900Y-119218241D01*
X201038734Y-119252992D01*
X201038736Y-119252994D01*
X201038737Y-119252995D01*
X201038738Y-119252996D01*
X201068951Y-119283209D01*
X201068988Y-119283248D01*
X201485781Y-119700040D01*
X201519266Y-119761363D01*
X201522100Y-119787721D01*
X201522100Y-120590500D01*
X201502415Y-120657539D01*
X201449611Y-120703294D01*
X201398102Y-120714500D01*
X201345820Y-120714501D01*
X201345819Y-120714501D01*
X201309794Y-120717335D01*
X201155611Y-120762129D01*
X201155606Y-120762131D01*
X201017404Y-120843863D01*
X201017396Y-120843869D01*
X200903869Y-120957396D01*
X200903863Y-120957404D01*
X200822131Y-121095606D01*
X200822129Y-121095611D01*
X200777335Y-121249791D01*
X200777334Y-121249797D01*
X200774916Y-121280536D01*
X200774500Y-121285819D01*
X200774501Y-122250000D01*
X200774501Y-123214180D01*
X200777335Y-123250204D01*
X200822129Y-123404388D01*
X200822131Y-123404393D01*
X200903863Y-123542595D01*
X200903869Y-123542603D01*
X201017396Y-123656130D01*
X201017400Y-123656133D01*
X201017402Y-123656135D01*
X201155607Y-123737869D01*
X201196268Y-123749682D01*
X201309791Y-123782664D01*
X201309794Y-123782664D01*
X201309796Y-123782665D01*
X201321803Y-123783609D01*
X201345817Y-123785500D01*
X201345818Y-123785499D01*
X201345819Y-123785500D01*
X203274180Y-123785499D01*
X203310204Y-123782665D01*
X203464393Y-123737869D01*
X203602598Y-123656135D01*
X203716135Y-123542598D01*
X203736011Y-123508988D01*
X203787078Y-123461306D01*
X203855819Y-123448800D01*
X203920409Y-123475445D01*
X203923274Y-123477818D01*
X203944663Y-123496086D01*
X203944665Y-123496087D01*
X204002890Y-123531767D01*
X204049765Y-123583577D01*
X204062100Y-123637494D01*
X204062100Y-124772278D01*
X204042415Y-124839317D01*
X204025781Y-124859959D01*
X202009960Y-126875781D01*
X201948637Y-126909266D01*
X201922279Y-126912100D01*
X189327721Y-126912100D01*
X189260682Y-126892415D01*
X189240040Y-126875781D01*
X188374219Y-126009960D01*
X188340734Y-125948637D01*
X188337900Y-125922279D01*
X188337900Y-123751566D01*
X188357585Y-123684527D01*
X188397108Y-123645840D01*
X188486289Y-123591191D01*
X188676357Y-123428857D01*
X188814762Y-123266805D01*
X188873270Y-123228612D01*
X188943138Y-123228114D01*
X189000283Y-123263354D01*
X189102879Y-123374803D01*
X189102883Y-123374806D01*
X189292831Y-123522649D01*
X189292840Y-123522655D01*
X189504531Y-123637215D01*
X189504545Y-123637221D01*
X189732207Y-123715379D01*
X189840000Y-123733366D01*
X189840000Y-122919652D01*
X189859685Y-122852613D01*
X189912489Y-122806858D01*
X189981647Y-122796914D01*
X189997447Y-122800248D01*
X190014404Y-122805000D01*
X190014406Y-122805000D01*
X190127622Y-122805000D01*
X190199116Y-122795173D01*
X190268210Y-122805545D01*
X190320729Y-122851627D01*
X190340000Y-122918018D01*
X190340000Y-123733365D01*
X190447792Y-123715379D01*
X190675454Y-123637221D01*
X190675468Y-123637215D01*
X190887159Y-123522655D01*
X190887168Y-123522649D01*
X191077116Y-123374806D01*
X191077126Y-123374797D01*
X191240148Y-123197710D01*
X191240156Y-123197699D01*
X191371813Y-122996184D01*
X191468508Y-122775740D01*
X191527599Y-122542395D01*
X191527599Y-122542394D01*
X191530697Y-122505000D01*
X190756956Y-122505000D01*
X190689917Y-122485315D01*
X190644162Y-122432511D01*
X190633245Y-122372537D01*
X190633559Y-122367953D01*
X190643877Y-122217114D01*
X190630809Y-122154227D01*
X190636443Y-122084586D01*
X190678834Y-122029045D01*
X190744523Y-122005239D01*
X190752216Y-122005000D01*
X191530697Y-122005000D01*
X191527599Y-121967605D01*
X191527599Y-121967604D01*
X191468508Y-121734259D01*
X191371813Y-121513815D01*
X191240156Y-121312300D01*
X191240148Y-121312289D01*
X191077126Y-121135202D01*
X191077116Y-121135193D01*
X190887168Y-120987350D01*
X190887159Y-120987344D01*
X190675468Y-120872784D01*
X190675454Y-120872778D01*
X190447791Y-120794619D01*
X190340000Y-120776633D01*
X190340000Y-121590347D01*
X190320315Y-121657386D01*
X190267511Y-121703141D01*
X190198353Y-121713085D01*
X190182547Y-121709749D01*
X190165598Y-121705000D01*
X190165596Y-121705000D01*
X190052378Y-121705000D01*
X190052376Y-121705000D01*
X189980884Y-121714826D01*
X189911789Y-121704453D01*
X189859270Y-121658371D01*
X189840000Y-121591981D01*
X189840000Y-120776633D01*
X189839999Y-120776633D01*
X189732208Y-120794619D01*
X189504545Y-120872778D01*
X189504531Y-120872784D01*
X189292840Y-120987344D01*
X189292831Y-120987350D01*
X189102883Y-121135193D01*
X189102879Y-121135197D01*
X189000281Y-121246647D01*
X188940394Y-121282637D01*
X188870556Y-121280536D01*
X188814764Y-121243196D01*
X188676357Y-121081143D01*
X188486289Y-120918809D01*
X188486287Y-120918807D01*
X188486285Y-120918806D01*
X188486283Y-120918805D01*
X188273165Y-120788206D01*
X188273162Y-120788204D01*
X188042240Y-120692554D01*
X187936339Y-120667129D01*
X187799186Y-120634201D01*
X187799184Y-120634200D01*
X187799181Y-120634200D01*
X187550000Y-120614590D01*
X187300818Y-120634200D01*
X187057759Y-120692554D01*
X186826840Y-120788203D01*
X186639112Y-120903243D01*
X186571666Y-120921487D01*
X186505063Y-120900370D01*
X186474371Y-120867823D01*
X186473415Y-120868565D01*
X186468630Y-120862396D01*
X186355103Y-120748869D01*
X186355095Y-120748863D01*
X186216893Y-120667131D01*
X186216888Y-120667129D01*
X186062708Y-120622335D01*
X186062702Y-120622334D01*
X186026683Y-120619500D01*
X186026681Y-120619500D01*
X185921900Y-120619500D01*
X185854861Y-120599815D01*
X185809106Y-120547011D01*
X185797900Y-120495500D01*
X185797900Y-118781230D01*
X185797900Y-118781226D01*
X185788764Y-118741204D01*
X185787601Y-118734356D01*
X185783006Y-118693566D01*
X185769443Y-118654808D01*
X185767522Y-118648134D01*
X185763538Y-118630678D01*
X185758391Y-118608127D01*
X185740579Y-118571139D01*
X185737921Y-118564721D01*
X185737542Y-118563639D01*
X185724365Y-118525980D01*
X185702527Y-118491225D01*
X185699168Y-118485148D01*
X185681356Y-118448160D01*
X185655763Y-118416068D01*
X185651736Y-118410393D01*
X185629902Y-118375644D01*
X185599977Y-118345719D01*
X185599949Y-118345689D01*
X182493277Y-115239018D01*
X182459792Y-115177695D01*
X182457430Y-115140534D01*
X182470601Y-114990000D01*
X182450234Y-114757207D01*
X182389753Y-114531487D01*
X182290995Y-114319700D01*
X182290993Y-114319697D01*
X182290992Y-114319695D01*
X182156963Y-114128282D01*
X182156958Y-114128276D01*
X181991726Y-113963044D01*
X181991722Y-113963040D01*
X181800301Y-113829005D01*
X181800299Y-113829004D01*
X181797503Y-113827390D01*
X181796516Y-113826355D01*
X181795866Y-113825900D01*
X181795957Y-113825769D01*
X181749285Y-113776826D01*
X181736059Y-113708219D01*
X181762024Y-113643353D01*
X181797503Y-113612610D01*
X181800290Y-113610999D01*
X181800301Y-113610995D01*
X181991722Y-113476960D01*
X182048677Y-113420005D01*
X188153499Y-113420005D01*
X188174025Y-113667729D01*
X188174027Y-113667738D01*
X188235052Y-113908717D01*
X188334906Y-114136364D01*
X188435204Y-114289882D01*
X189049690Y-113675395D01*
X189111013Y-113641910D01*
X189180704Y-113646894D01*
X189236638Y-113688765D01*
X189241679Y-113696025D01*
X189276879Y-113750798D01*
X189367139Y-113829008D01*
X189392242Y-113850759D01*
X189389933Y-113853422D01*
X189424646Y-113893499D01*
X189434575Y-113962660D01*
X189405538Y-114026210D01*
X189399522Y-114032669D01*
X188788582Y-114643609D01*
X188835408Y-114680055D01*
X188835410Y-114680056D01*
X189054025Y-114798364D01*
X189054036Y-114798369D01*
X189289146Y-114879083D01*
X189534347Y-114920000D01*
X189782933Y-114920000D01*
X190028133Y-114879083D01*
X190263243Y-114798369D01*
X190263254Y-114798364D01*
X190481868Y-114680057D01*
X190481871Y-114680055D01*
X190528696Y-114643609D01*
X189917756Y-114032669D01*
X189884271Y-113971346D01*
X189889255Y-113901654D01*
X189926281Y-113852193D01*
X189925038Y-113850759D01*
X189931740Y-113844952D01*
X190040401Y-113750798D01*
X190075594Y-113696037D01*
X190128395Y-113650283D01*
X190197554Y-113640339D01*
X190261110Y-113669363D01*
X190267589Y-113675396D01*
X190882074Y-114289882D01*
X190982371Y-114136369D01*
X191082227Y-113908717D01*
X191143252Y-113667738D01*
X191143254Y-113667729D01*
X191163781Y-113420005D01*
X191163781Y-113419994D01*
X191143254Y-113172270D01*
X191143252Y-113172261D01*
X191082227Y-112931282D01*
X190982371Y-112703630D01*
X190882074Y-112550116D01*
X190267589Y-113164602D01*
X190206266Y-113198087D01*
X190136574Y-113193103D01*
X190080641Y-113151231D01*
X190075593Y-113143961D01*
X190040401Y-113089202D01*
X189925038Y-112989241D01*
X189927338Y-112986585D01*
X189892600Y-112946428D01*
X189882714Y-112877261D01*
X189911792Y-112813729D01*
X189917756Y-112807329D01*
X190528696Y-112196389D01*
X190481869Y-112159943D01*
X190263254Y-112041635D01*
X190263243Y-112041630D01*
X190028133Y-111960916D01*
X189782933Y-111920000D01*
X189534347Y-111920000D01*
X189289146Y-111960916D01*
X189054036Y-112041630D01*
X189054030Y-112041632D01*
X188835401Y-112159949D01*
X188788582Y-112196388D01*
X188788582Y-112196390D01*
X189399523Y-112807330D01*
X189433008Y-112868653D01*
X189428024Y-112938344D01*
X189390998Y-112987805D01*
X189392242Y-112989241D01*
X189276878Y-113089202D01*
X189241686Y-113143962D01*
X189188882Y-113189717D01*
X189119723Y-113199660D01*
X189056168Y-113170634D01*
X189049690Y-113164603D01*
X188435204Y-112550116D01*
X188334907Y-112703632D01*
X188235052Y-112931282D01*
X188174027Y-113172261D01*
X188174025Y-113172270D01*
X188153499Y-113419994D01*
X188153499Y-113420005D01*
X182048677Y-113420005D01*
X182156960Y-113311722D01*
X182290995Y-113120301D01*
X182389753Y-112908513D01*
X182450234Y-112682793D01*
X182470601Y-112450000D01*
X182450234Y-112217207D01*
X182389753Y-111991487D01*
X182290995Y-111779700D01*
X182290993Y-111779697D01*
X182290992Y-111779695D01*
X182156963Y-111588282D01*
X182156958Y-111588276D01*
X181991725Y-111423043D01*
X181991722Y-111423040D01*
X181988127Y-111420523D01*
X181970774Y-111408371D01*
X181927150Y-111353793D01*
X181917900Y-111306798D01*
X181917900Y-108341230D01*
X181917900Y-108341226D01*
X181908764Y-108301204D01*
X181907601Y-108294356D01*
X181903006Y-108253566D01*
X181889443Y-108214808D01*
X181887522Y-108208134D01*
X181878391Y-108168127D01*
X181860579Y-108131139D01*
X181857921Y-108124721D01*
X181844365Y-108085980D01*
X181844362Y-108085975D01*
X181822528Y-108051227D01*
X181819168Y-108045148D01*
X181801356Y-108008160D01*
X181775763Y-107976068D01*
X181771736Y-107970393D01*
X181749901Y-107935643D01*
X181719977Y-107905719D01*
X181719949Y-107905689D01*
X179614608Y-105800348D01*
X179614569Y-105800311D01*
X179584356Y-105770098D01*
X179584355Y-105770097D01*
X179584354Y-105770096D01*
X179584352Y-105770094D01*
X179549601Y-105748260D01*
X179543931Y-105744236D01*
X179511840Y-105718645D01*
X179511838Y-105718644D01*
X179511837Y-105718643D01*
X179474864Y-105700837D01*
X179468774Y-105697472D01*
X179434018Y-105675633D01*
X179395271Y-105662075D01*
X179388844Y-105659412D01*
X179351874Y-105641609D01*
X179311869Y-105632478D01*
X179305185Y-105630552D01*
X179272631Y-105619162D01*
X179266434Y-105616994D01*
X179225634Y-105612396D01*
X179218787Y-105611232D01*
X179178776Y-105602101D01*
X179178774Y-105602101D01*
X179135972Y-105602101D01*
X179135936Y-105602100D01*
X179134244Y-105602100D01*
X178717058Y-105602100D01*
X178650019Y-105582415D01*
X178613249Y-105545921D01*
X178586696Y-105505278D01*
X178566024Y-105482822D01*
X178425570Y-105330249D01*
X178281162Y-105217852D01*
X178240351Y-105161143D01*
X178236676Y-105091370D01*
X178271307Y-105030687D01*
X178281156Y-105022152D01*
X178425570Y-104909751D01*
X178586694Y-104734724D01*
X178613248Y-104694079D01*
X178666396Y-104648722D01*
X178717058Y-104637900D01*
X186010919Y-104637900D01*
X186077958Y-104657585D01*
X186098600Y-104674219D01*
X187834329Y-106409949D01*
X187834359Y-106409977D01*
X187864284Y-106439902D01*
X187888744Y-106455271D01*
X187899033Y-106461736D01*
X187904708Y-106465763D01*
X187936800Y-106491356D01*
X187952939Y-106499128D01*
X188004799Y-106545948D01*
X188023140Y-106610849D01*
X188023141Y-106884181D01*
X188025975Y-106920205D01*
X188070769Y-107074388D01*
X188070771Y-107074393D01*
X188152503Y-107212595D01*
X188152509Y-107212603D01*
X188266036Y-107326130D01*
X188266040Y-107326133D01*
X188266042Y-107326135D01*
X188404247Y-107407869D01*
X188444908Y-107419682D01*
X188558431Y-107452664D01*
X188558434Y-107452664D01*
X188558436Y-107452665D01*
X188570443Y-107453609D01*
X188594457Y-107455500D01*
X188594458Y-107455499D01*
X188594459Y-107455500D01*
X190722820Y-107455499D01*
X190758844Y-107452665D01*
X190913033Y-107407869D01*
X191051238Y-107326135D01*
X191164775Y-107212598D01*
X191246509Y-107074393D01*
X191291305Y-106920204D01*
X191294140Y-106884181D01*
X191294139Y-104755820D01*
X191291305Y-104719796D01*
X191246509Y-104565607D01*
X191164775Y-104427402D01*
X191164773Y-104427400D01*
X191164770Y-104427396D01*
X191051243Y-104313869D01*
X191051235Y-104313863D01*
X190913033Y-104232131D01*
X190913028Y-104232129D01*
X190758848Y-104187335D01*
X190758842Y-104187334D01*
X190722823Y-104184500D01*
X190722821Y-104184500D01*
X188579840Y-104184501D01*
X188594460Y-104184501D01*
X188558435Y-104187335D01*
X188404251Y-104232129D01*
X188404246Y-104232131D01*
X188266044Y-104313863D01*
X188266040Y-104313866D01*
X188204083Y-104375823D01*
X188142759Y-104409307D01*
X188073068Y-104404322D01*
X188028721Y-104375822D01*
X186913248Y-103260348D01*
X186913209Y-103260311D01*
X186882996Y-103230098D01*
X186882995Y-103230097D01*
X186882994Y-103230096D01*
X186882992Y-103230094D01*
X186848241Y-103208260D01*
X186842571Y-103204236D01*
X186810480Y-103178645D01*
X186810478Y-103178644D01*
X186810477Y-103178643D01*
X186773504Y-103160837D01*
X186767414Y-103157472D01*
X186732658Y-103135633D01*
X186693911Y-103122075D01*
X186687484Y-103119412D01*
X186650514Y-103101609D01*
X186610509Y-103092478D01*
X186603825Y-103090552D01*
X186571271Y-103079162D01*
X186565074Y-103076994D01*
X186524274Y-103072396D01*
X186517427Y-103071232D01*
X186477416Y-103062101D01*
X186477414Y-103062101D01*
X186434612Y-103062101D01*
X186434576Y-103062100D01*
X186432884Y-103062100D01*
X178717058Y-103062100D01*
X178650019Y-103042415D01*
X178613249Y-103005921D01*
X178586696Y-102965278D01*
X178566024Y-102942822D01*
X178425570Y-102790249D01*
X178281162Y-102677852D01*
X178240351Y-102621143D01*
X178236676Y-102551370D01*
X178271307Y-102490687D01*
X178281156Y-102482152D01*
X178425570Y-102369751D01*
X178586694Y-102194724D01*
X178716812Y-101995564D01*
X178812374Y-101777704D01*
X178870775Y-101547085D01*
X178890420Y-101310000D01*
X178890420Y-101309993D01*
X178870776Y-101072922D01*
X178870774Y-101072911D01*
X178812374Y-100842297D01*
X178716811Y-100624434D01*
X178586695Y-100425278D01*
X178586694Y-100425276D01*
X178425570Y-100250249D01*
X178369798Y-100206840D01*
X178281163Y-100137852D01*
X178240350Y-100081142D01*
X178236676Y-100011369D01*
X178271308Y-99950686D01*
X178281144Y-99942161D01*
X178425570Y-99829751D01*
X178586694Y-99654724D01*
X178716812Y-99455564D01*
X178812374Y-99237704D01*
X178870775Y-99007085D01*
X178870776Y-99007077D01*
X178890420Y-98770006D01*
X178890420Y-98769993D01*
X178870776Y-98532922D01*
X178870774Y-98532911D01*
X178812374Y-98302297D01*
X178716811Y-98084434D01*
X178586695Y-97885278D01*
X178586694Y-97885276D01*
X178425570Y-97710249D01*
X178281162Y-97597852D01*
X178240351Y-97541143D01*
X178236676Y-97471370D01*
X178271307Y-97410687D01*
X178281156Y-97402152D01*
X178425570Y-97289751D01*
X178586694Y-97114724D01*
X178716812Y-96915564D01*
X178812374Y-96697704D01*
X178870775Y-96467085D01*
X178890420Y-96230000D01*
X178890420Y-96229993D01*
X178870776Y-95992922D01*
X178870774Y-95992911D01*
X178812374Y-95762297D01*
X178716811Y-95544434D01*
X178586695Y-95345278D01*
X178586694Y-95345276D01*
X178425570Y-95170249D01*
X178348875Y-95110555D01*
X178281163Y-95057852D01*
X178240350Y-95001142D01*
X178236676Y-94931369D01*
X178271308Y-94870686D01*
X178281144Y-94862161D01*
X178425570Y-94749751D01*
X178586694Y-94574724D01*
X178716812Y-94375564D01*
X178812374Y-94157704D01*
X178870775Y-93927085D01*
X178870776Y-93927077D01*
X178890420Y-93690006D01*
X178890420Y-93689993D01*
X178870776Y-93452922D01*
X178870774Y-93452911D01*
X178812374Y-93222297D01*
X178716811Y-93004434D01*
X178586695Y-92805278D01*
X178586694Y-92805276D01*
X178425570Y-92630249D01*
X178281162Y-92517852D01*
X178240351Y-92461143D01*
X178236676Y-92391370D01*
X178271307Y-92330687D01*
X178281156Y-92322152D01*
X178425570Y-92209751D01*
X178586694Y-92034724D01*
X178716812Y-91835564D01*
X178812374Y-91617704D01*
X178870775Y-91387085D01*
X178878429Y-91294719D01*
X178890420Y-91150006D01*
X178890420Y-91149993D01*
X178870776Y-90912922D01*
X178870774Y-90912911D01*
X178812374Y-90682297D01*
X178716811Y-90464434D01*
X178586695Y-90265278D01*
X178586694Y-90265276D01*
X178425570Y-90090249D01*
X178281162Y-89977852D01*
X178240351Y-89921143D01*
X178236676Y-89851370D01*
X178271307Y-89790687D01*
X178281156Y-89782152D01*
X178425570Y-89669751D01*
X178586694Y-89494724D01*
X178716812Y-89295564D01*
X178812374Y-89077704D01*
X178870775Y-88847085D01*
X178884232Y-88684680D01*
X178890420Y-88610006D01*
X178890420Y-88609993D01*
X178870776Y-88372922D01*
X178870774Y-88372911D01*
X178850048Y-88291067D01*
X178812374Y-88142296D01*
X178716812Y-87924436D01*
X178697995Y-87895635D01*
X178613249Y-87765921D01*
X178586694Y-87725276D01*
X178425570Y-87550249D01*
X178281162Y-87437852D01*
X178240351Y-87381143D01*
X178236676Y-87311370D01*
X178271307Y-87250687D01*
X178281156Y-87242152D01*
X178425570Y-87129751D01*
X178586694Y-86954724D01*
X178716812Y-86755564D01*
X178812374Y-86537704D01*
X178870775Y-86307085D01*
X178890420Y-86070000D01*
X178890420Y-86069993D01*
X178870776Y-85832922D01*
X178870774Y-85832911D01*
X178812374Y-85602297D01*
X178759423Y-85481581D01*
X178716812Y-85384436D01*
X178713473Y-85379326D01*
X178649952Y-85282100D01*
X178586694Y-85185276D01*
X178425570Y-85010249D01*
X178281162Y-84897852D01*
X178240351Y-84841143D01*
X178236676Y-84771370D01*
X178271307Y-84710687D01*
X178281156Y-84702152D01*
X178425570Y-84589751D01*
X178586694Y-84414724D01*
X178716812Y-84215564D01*
X178812374Y-83997704D01*
X178870775Y-83767085D01*
X178878311Y-83676136D01*
X178890420Y-83530006D01*
X178890420Y-83529993D01*
X178870776Y-83292922D01*
X178870774Y-83292911D01*
X178812374Y-83062297D01*
X178785064Y-83000037D01*
X178716812Y-82844436D01*
X178697158Y-82814354D01*
X178640829Y-82728136D01*
X178586694Y-82645276D01*
X178425570Y-82470249D01*
X178281162Y-82357852D01*
X178240351Y-82301143D01*
X178236676Y-82231370D01*
X178271307Y-82170687D01*
X178281156Y-82162152D01*
X178425570Y-82049751D01*
X178586694Y-81874724D01*
X178716812Y-81675564D01*
X178812374Y-81457704D01*
X178870775Y-81227085D01*
X178871726Y-81215607D01*
X178890420Y-80990006D01*
X178890420Y-80989993D01*
X178870776Y-80752922D01*
X178870774Y-80752911D01*
X178856245Y-80695537D01*
X178812374Y-80522296D01*
X178716812Y-80304436D01*
X178712844Y-80298363D01*
X178642882Y-80191278D01*
X178586694Y-80105276D01*
X178425570Y-79930249D01*
X178425569Y-79930248D01*
X178425567Y-79930246D01*
X178425563Y-79930243D01*
X178237843Y-79784134D01*
X178237837Y-79784130D01*
X178222416Y-79775784D01*
X178173660Y-79749399D01*
X178124071Y-79700180D01*
X178108963Y-79631964D01*
X178133133Y-79566408D01*
X178161555Y-79538770D01*
X178288820Y-79449657D01*
X178449657Y-79288820D01*
X178580134Y-79102482D01*
X178676265Y-78896326D01*
X178676269Y-78896317D01*
X178728872Y-78700000D01*
X178063347Y-78700000D01*
X177996308Y-78680315D01*
X177950553Y-78627511D01*
X177940609Y-78558353D01*
X177944369Y-78541067D01*
X177950000Y-78521888D01*
X177950000Y-78378111D01*
X177944369Y-78358933D01*
X177944370Y-78289064D01*
X177982145Y-78230286D01*
X178045701Y-78201262D01*
X178063347Y-78200000D01*
X178728872Y-78200000D01*
X178728872Y-78199999D01*
X178676269Y-78003682D01*
X178676265Y-78003673D01*
X178580134Y-77797517D01*
X178449657Y-77611179D01*
X178288816Y-77450338D01*
X178161555Y-77361228D01*
X178117930Y-77306651D01*
X178110738Y-77237153D01*
X178142260Y-77174798D01*
X178173663Y-77150599D01*
X178237828Y-77115875D01*
X178237829Y-77115873D01*
X178237835Y-77115871D01*
X178270192Y-77090687D01*
X178386012Y-77000540D01*
X178425570Y-76969751D01*
X178586694Y-76794724D01*
X178716812Y-76595564D01*
X178812374Y-76377704D01*
X178870775Y-76147085D01*
X178871086Y-76143331D01*
X178890420Y-75910006D01*
X178890420Y-75909993D01*
X178870776Y-75672922D01*
X178870774Y-75672911D01*
X178827981Y-75503926D01*
X178812374Y-75442296D01*
X178716812Y-75224436D01*
X178586694Y-75025276D01*
X178425570Y-74850249D01*
X178281162Y-74737852D01*
X178240351Y-74681143D01*
X178236676Y-74611370D01*
X178271307Y-74550687D01*
X178281156Y-74542152D01*
X178425570Y-74429751D01*
X178586694Y-74254724D01*
X178716812Y-74055564D01*
X178812374Y-73837704D01*
X178870775Y-73607085D01*
X178871336Y-73600315D01*
X178890420Y-73370006D01*
X178890420Y-73369993D01*
X178870776Y-73132922D01*
X178870774Y-73132911D01*
X178867504Y-73119999D01*
X178812374Y-72902296D01*
X178716812Y-72684436D01*
X178586694Y-72485276D01*
X178521395Y-72414342D01*
X178502060Y-72393339D01*
X178471138Y-72330684D01*
X178478998Y-72261258D01*
X178523145Y-72207103D01*
X178530136Y-72202644D01*
X178642598Y-72136135D01*
X178756135Y-72022598D01*
X178837869Y-71884393D01*
X178882665Y-71730204D01*
X178884082Y-71712192D01*
X178885500Y-71694183D01*
X178885499Y-69965820D01*
X178885499Y-69965817D01*
X178882665Y-69929796D01*
X178837869Y-69775607D01*
X178756135Y-69637402D01*
X178756133Y-69637400D01*
X178756130Y-69637396D01*
X178642603Y-69523869D01*
X178642595Y-69523863D01*
X178504393Y-69442131D01*
X178504388Y-69442129D01*
X178350208Y-69397335D01*
X178350202Y-69397334D01*
X178314183Y-69394500D01*
X178314181Y-69394500D01*
X176586752Y-69394501D01*
X176585820Y-69394501D01*
X176549795Y-69397335D01*
X176395611Y-69442129D01*
X176395606Y-69442131D01*
X176257404Y-69523863D01*
X176257396Y-69523869D01*
X176143869Y-69637396D01*
X176143863Y-69637404D01*
X176062131Y-69775606D01*
X176062129Y-69775611D01*
X176017335Y-69929791D01*
X176017334Y-69929797D01*
X176014500Y-69965817D01*
X176014501Y-71694180D01*
X176017335Y-71730204D01*
X176062129Y-71884388D01*
X176062131Y-71884393D01*
X176143863Y-72022595D01*
X176143869Y-72022603D01*
X176257396Y-72136130D01*
X176257400Y-72136133D01*
X176257402Y-72136135D01*
X176257405Y-72136136D01*
X176257408Y-72136139D01*
X176369829Y-72202624D01*
X176417513Y-72253693D01*
X176430017Y-72322434D01*
X176403372Y-72387024D01*
X176397939Y-72393338D01*
X176313312Y-72485267D01*
X176313304Y-72485278D01*
X176183188Y-72684434D01*
X176087625Y-72902297D01*
X176029225Y-73132911D01*
X176029223Y-73132922D01*
X176009580Y-73369993D01*
X176009580Y-73370006D01*
X176029223Y-73607077D01*
X176029225Y-73607088D01*
X176087625Y-73837702D01*
X176183188Y-74055565D01*
X176283315Y-74208820D01*
X176313306Y-74254724D01*
X176474430Y-74429751D01*
X176618837Y-74542147D01*
X176659649Y-74598857D01*
X176663324Y-74668630D01*
X176628693Y-74729313D01*
X176618843Y-74737847D01*
X176590435Y-74759959D01*
X176474431Y-74850248D01*
X176313307Y-75025274D01*
X176313304Y-75025278D01*
X176183188Y-75224434D01*
X176087625Y-75442297D01*
X176029225Y-75672911D01*
X176029223Y-75672922D01*
X176009580Y-75909993D01*
X176009580Y-75910006D01*
X176029223Y-76147077D01*
X176029225Y-76147088D01*
X176087625Y-76377702D01*
X176183188Y-76595565D01*
X176313304Y-76794721D01*
X176313307Y-76794725D01*
X176474432Y-76969753D01*
X176474436Y-76969756D01*
X176662156Y-77115865D01*
X176662163Y-77115869D01*
X176662165Y-77115871D01*
X176704639Y-77138857D01*
X176726337Y-77150599D01*
X176775928Y-77199818D01*
X176791036Y-77268035D01*
X176766866Y-77333590D01*
X176738444Y-77361228D01*
X176611183Y-77450338D01*
X176450342Y-77611179D01*
X176319865Y-77797517D01*
X176223734Y-78003673D01*
X176223730Y-78003682D01*
X176171127Y-78199999D01*
X176171128Y-78200000D01*
X176836653Y-78200000D01*
X176903692Y-78219685D01*
X176949447Y-78272489D01*
X176959391Y-78341647D01*
X176955631Y-78358933D01*
X176950000Y-78378111D01*
X176950000Y-78521888D01*
X176955631Y-78541067D01*
X176955630Y-78610936D01*
X176917855Y-78669714D01*
X176854299Y-78698738D01*
X176836653Y-78700000D01*
X176171128Y-78700000D01*
X176223730Y-78896317D01*
X176223734Y-78896326D01*
X176319865Y-79102482D01*
X176450342Y-79288820D01*
X176611179Y-79449657D01*
X176738444Y-79538770D01*
X176782069Y-79593348D01*
X176789261Y-79662846D01*
X176757739Y-79725201D01*
X176726338Y-79749399D01*
X176662171Y-79784124D01*
X176662156Y-79784134D01*
X176474436Y-79930243D01*
X176474432Y-79930246D01*
X176313307Y-80105274D01*
X176313304Y-80105278D01*
X176183188Y-80304434D01*
X176087625Y-80522297D01*
X176029225Y-80752911D01*
X176029223Y-80752922D01*
X176009580Y-80989993D01*
X176009580Y-80990006D01*
X176029223Y-81227077D01*
X176029225Y-81227088D01*
X176087625Y-81457702D01*
X176183188Y-81675565D01*
X176262908Y-81797585D01*
X176313306Y-81874724D01*
X176474430Y-82049751D01*
X176618837Y-82162147D01*
X176659649Y-82218857D01*
X176663324Y-82288630D01*
X176628693Y-82349313D01*
X176618843Y-82357847D01*
X176533650Y-82424156D01*
X176474431Y-82470248D01*
X176313307Y-82645274D01*
X176313304Y-82645278D01*
X176183188Y-82844434D01*
X176087625Y-83062297D01*
X176029225Y-83292911D01*
X176029223Y-83292922D01*
X176009580Y-83529993D01*
X176009580Y-83530006D01*
X176029223Y-83767077D01*
X176029225Y-83767088D01*
X176087625Y-83997702D01*
X176183188Y-84215565D01*
X176313304Y-84414721D01*
X176313306Y-84414724D01*
X176474430Y-84589751D01*
X176618837Y-84702147D01*
X176659649Y-84758857D01*
X176663324Y-84828630D01*
X176628693Y-84889313D01*
X176618843Y-84897847D01*
X176509571Y-84982897D01*
X176474431Y-85010248D01*
X176313307Y-85185274D01*
X176313304Y-85185278D01*
X176183188Y-85384434D01*
X176087625Y-85602297D01*
X176029225Y-85832911D01*
X176029223Y-85832922D01*
X176009580Y-86069993D01*
X176009580Y-86070006D01*
X176029223Y-86307077D01*
X176029225Y-86307088D01*
X176087625Y-86537702D01*
X176183188Y-86755565D01*
X176281894Y-86906645D01*
X176313306Y-86954724D01*
X176474430Y-87129751D01*
X176618838Y-87242148D01*
X176659649Y-87298855D01*
X176663324Y-87368628D01*
X176628693Y-87429312D01*
X176618837Y-87437852D01*
X176474432Y-87550247D01*
X176313307Y-87725274D01*
X176313304Y-87725278D01*
X176183188Y-87924434D01*
X176087625Y-88142297D01*
X176029225Y-88372911D01*
X176029223Y-88372922D01*
X176009580Y-88609993D01*
X176009580Y-88610006D01*
X176029223Y-88847077D01*
X176029225Y-88847088D01*
X176087625Y-89077702D01*
X176183188Y-89295565D01*
X176251899Y-89400734D01*
X176313306Y-89494724D01*
X176474430Y-89669751D01*
X176618837Y-89782147D01*
X176659649Y-89838857D01*
X176663324Y-89908630D01*
X176628693Y-89969313D01*
X176618843Y-89977847D01*
X176509571Y-90062897D01*
X176474431Y-90090248D01*
X176313307Y-90265274D01*
X176313304Y-90265278D01*
X176183188Y-90464434D01*
X176087625Y-90682297D01*
X176029225Y-90912911D01*
X176029223Y-90912922D01*
X176009580Y-91149993D01*
X176009580Y-91150006D01*
X176029223Y-91387077D01*
X176029225Y-91387088D01*
X176087625Y-91617702D01*
X176183188Y-91835565D01*
X176297153Y-92010000D01*
X176313306Y-92034724D01*
X176474430Y-92209751D01*
X176618837Y-92322147D01*
X176659649Y-92378857D01*
X176663324Y-92448630D01*
X176628693Y-92509313D01*
X176618843Y-92517847D01*
X176509571Y-92602897D01*
X176474431Y-92630248D01*
X176313307Y-92805274D01*
X176313304Y-92805278D01*
X176183188Y-93004434D01*
X176087625Y-93222297D01*
X176029225Y-93452911D01*
X176029223Y-93452922D01*
X176009580Y-93689993D01*
X176009580Y-93690006D01*
X176029223Y-93927077D01*
X176029225Y-93927088D01*
X176087625Y-94157702D01*
X176183188Y-94375565D01*
X176297153Y-94550000D01*
X176313306Y-94574724D01*
X176474430Y-94749751D01*
X176618837Y-94862147D01*
X176659649Y-94918857D01*
X176663324Y-94988630D01*
X176628693Y-95049313D01*
X176618843Y-95057847D01*
X176509571Y-95142897D01*
X176474431Y-95170248D01*
X176313307Y-95345274D01*
X176313304Y-95345278D01*
X176183188Y-95544434D01*
X176087625Y-95762297D01*
X176029225Y-95992911D01*
X176029223Y-95992922D01*
X176009580Y-96229993D01*
X176009580Y-96230006D01*
X176029223Y-96467077D01*
X176029225Y-96467088D01*
X176087625Y-96697702D01*
X176183188Y-96915565D01*
X176292376Y-97082688D01*
X176313306Y-97114724D01*
X176474430Y-97289751D01*
X176618838Y-97402148D01*
X176659649Y-97458855D01*
X176663324Y-97528628D01*
X176628693Y-97589312D01*
X176618837Y-97597852D01*
X176474432Y-97710247D01*
X176313307Y-97885274D01*
X176313304Y-97885278D01*
X176183188Y-98084434D01*
X176087625Y-98302297D01*
X176029225Y-98532911D01*
X176029223Y-98532922D01*
X176009580Y-98769993D01*
X176009580Y-98770006D01*
X176029223Y-99007077D01*
X176029225Y-99007088D01*
X176087625Y-99237702D01*
X176183188Y-99455565D01*
X176313304Y-99654721D01*
X176313306Y-99654724D01*
X176474430Y-99829751D01*
X176567102Y-99901880D01*
X176618836Y-99942147D01*
X176659648Y-99998857D01*
X176663323Y-100068630D01*
X176628691Y-100129313D01*
X176618836Y-100137853D01*
X176474432Y-100250247D01*
X176313307Y-100425274D01*
X176313304Y-100425278D01*
X176183188Y-100624434D01*
X176087625Y-100842297D01*
X176029225Y-101072911D01*
X176029223Y-101072922D01*
X176009580Y-101309993D01*
X176009580Y-101310006D01*
X176029223Y-101547077D01*
X176029225Y-101547088D01*
X176087625Y-101777702D01*
X176183188Y-101995565D01*
X176313304Y-102194721D01*
X176313306Y-102194724D01*
X176474430Y-102369751D01*
X176618837Y-102482147D01*
X176659649Y-102538857D01*
X176663324Y-102608630D01*
X176628693Y-102669313D01*
X176618843Y-102677847D01*
X176509571Y-102762897D01*
X176474431Y-102790248D01*
X176313307Y-102965274D01*
X176313304Y-102965278D01*
X176183188Y-103164434D01*
X176087625Y-103382297D01*
X176029225Y-103612911D01*
X176029223Y-103612922D01*
X176009580Y-103849993D01*
X176009580Y-103850006D01*
X176029223Y-104087077D01*
X176029225Y-104087088D01*
X176087625Y-104317702D01*
X176183188Y-104535565D01*
X176257118Y-104648722D01*
X176313306Y-104734724D01*
X176474430Y-104909751D01*
X176567102Y-104981880D01*
X176618836Y-105022147D01*
X176659648Y-105078857D01*
X176663323Y-105148630D01*
X176628691Y-105209313D01*
X176618836Y-105217853D01*
X176474432Y-105330247D01*
X176313307Y-105505274D01*
X176313304Y-105505278D01*
X176183188Y-105704434D01*
X176087625Y-105922297D01*
X176029225Y-106152911D01*
X176029223Y-106152922D01*
X176009580Y-106389993D01*
X176009580Y-106390006D01*
X176029223Y-106627077D01*
X176029225Y-106627088D01*
X176087625Y-106857702D01*
X176183188Y-107075565D01*
X176313304Y-107274721D01*
X176313307Y-107274725D01*
X176474432Y-107449753D01*
X176474436Y-107449756D01*
X176662156Y-107595865D01*
X176662162Y-107595869D01*
X176662165Y-107595871D01*
X176871390Y-107709098D01*
X177096398Y-107786344D01*
X177331051Y-107825500D01*
X177568949Y-107825500D01*
X177803602Y-107786344D01*
X178028610Y-107709098D01*
X178237835Y-107595871D01*
X178425570Y-107449751D01*
X178586694Y-107274724D01*
X178611360Y-107236968D01*
X178664505Y-107191613D01*
X178733736Y-107182188D01*
X178797072Y-107211689D01*
X178802849Y-107217109D01*
X180305782Y-108720041D01*
X180339266Y-108781362D01*
X180342100Y-108807720D01*
X180342100Y-111306798D01*
X180322415Y-111373837D01*
X180289226Y-111408371D01*
X180268283Y-111423036D01*
X180268274Y-111423043D01*
X180103041Y-111588276D01*
X180103036Y-111588282D01*
X179969007Y-111779695D01*
X179969005Y-111779699D01*
X179870248Y-111991485D01*
X179870244Y-111991494D01*
X179809767Y-112217201D01*
X179809765Y-112217211D01*
X179789399Y-112449999D01*
X179789399Y-112450000D01*
X179809765Y-112682788D01*
X179809767Y-112682798D01*
X179870244Y-112908505D01*
X179870246Y-112908509D01*
X179870247Y-112908513D01*
X179907221Y-112987805D01*
X179969004Y-113120300D01*
X179995811Y-113158585D01*
X180103040Y-113311722D01*
X180268278Y-113476960D01*
X180459699Y-113610995D01*
X180459704Y-113610997D01*
X180462497Y-113612610D01*
X180463483Y-113613644D01*
X180464134Y-113614100D01*
X180464042Y-113614230D01*
X180510715Y-113663174D01*
X180523941Y-113731781D01*
X180497976Y-113796647D01*
X180462503Y-113827387D01*
X180459694Y-113829008D01*
X180268282Y-113963036D01*
X180268276Y-113963041D01*
X180103041Y-114128276D01*
X180103036Y-114128282D01*
X179969007Y-114319695D01*
X179969005Y-114319699D01*
X179870248Y-114531485D01*
X179870244Y-114531494D01*
X179809767Y-114757201D01*
X179809765Y-114757211D01*
X179789399Y-114989999D01*
X179789399Y-114990000D01*
X179809765Y-115222788D01*
X179809767Y-115222798D01*
X179870244Y-115448505D01*
X179870246Y-115448509D01*
X179870247Y-115448513D01*
X179919625Y-115554407D01*
X179969004Y-115660300D01*
X179969005Y-115660301D01*
X180103040Y-115851722D01*
X180268278Y-116016960D01*
X180459699Y-116150995D01*
X180671487Y-116249753D01*
X180897207Y-116310234D01*
X181083441Y-116326527D01*
X181129999Y-116330601D01*
X181130000Y-116330601D01*
X181280531Y-116317430D01*
X181349029Y-116331196D01*
X181379018Y-116353277D01*
X184185781Y-119160039D01*
X184219266Y-119221362D01*
X184222100Y-119247720D01*
X184222100Y-120495500D01*
X184202415Y-120562539D01*
X184149611Y-120608294D01*
X184098101Y-120619500D01*
X183993320Y-120619501D01*
X183993319Y-120619501D01*
X183957294Y-120622335D01*
X183803111Y-120667129D01*
X183803106Y-120667131D01*
X183664904Y-120748863D01*
X183664896Y-120748869D01*
X183551369Y-120862396D01*
X183551363Y-120862404D01*
X183469631Y-121000606D01*
X183469629Y-121000611D01*
X183424835Y-121154791D01*
X183424834Y-121154797D01*
X183422000Y-121190817D01*
X183422001Y-123319180D01*
X183424835Y-123355204D01*
X183469629Y-123509388D01*
X183469631Y-123509393D01*
X183551363Y-123647595D01*
X183551369Y-123647603D01*
X183664896Y-123761130D01*
X183664900Y-123761133D01*
X183664902Y-123761135D01*
X183803107Y-123842869D01*
X183843768Y-123854682D01*
X183957291Y-123887664D01*
X183957294Y-123887664D01*
X183957296Y-123887665D01*
X183969303Y-123888609D01*
X183993317Y-123890500D01*
X183993318Y-123890499D01*
X183993319Y-123890500D01*
X186026680Y-123890499D01*
X186062704Y-123887665D01*
X186216893Y-123842869D01*
X186355098Y-123761135D01*
X186468635Y-123647598D01*
X186468638Y-123647591D01*
X186473415Y-123641435D01*
X186474875Y-123642568D01*
X186518636Y-123601691D01*
X186587375Y-123589173D01*
X186639110Y-123606756D01*
X186687605Y-123636473D01*
X186697551Y-123642568D01*
X186702888Y-123645838D01*
X186749764Y-123697649D01*
X186762100Y-123751566D01*
X186762100Y-126346149D01*
X186762101Y-126346181D01*
X186762101Y-126388776D01*
X186771232Y-126428787D01*
X186772396Y-126435634D01*
X186776994Y-126476434D01*
X186776995Y-126476436D01*
X186790552Y-126515185D01*
X186792478Y-126521869D01*
X186801609Y-126561874D01*
X186819412Y-126598844D01*
X186822075Y-126605271D01*
X186835633Y-126644018D01*
X186857472Y-126678774D01*
X186860837Y-126684864D01*
X186878643Y-126721837D01*
X186904233Y-126753926D01*
X186908260Y-126759601D01*
X186930094Y-126794352D01*
X186930096Y-126794354D01*
X186930097Y-126794355D01*
X186930098Y-126794356D01*
X186960311Y-126824569D01*
X186960348Y-126824608D01*
X188425689Y-128289949D01*
X188425719Y-128289977D01*
X188455644Y-128319902D01*
X188490398Y-128341739D01*
X188496068Y-128345763D01*
X188528160Y-128371355D01*
X188549475Y-128381619D01*
X188565140Y-128389164D01*
X188571224Y-128392526D01*
X188605980Y-128414365D01*
X188644732Y-128427924D01*
X188651145Y-128430581D01*
X188688127Y-128448391D01*
X188721694Y-128456051D01*
X188728136Y-128457522D01*
X188734819Y-128459447D01*
X188773566Y-128473006D01*
X188814362Y-128477602D01*
X188821214Y-128478766D01*
X188861226Y-128487899D01*
X188904028Y-128487899D01*
X188904064Y-128487900D01*
X188905756Y-128487900D01*
X202345936Y-128487900D01*
X202345972Y-128487899D01*
X202388774Y-128487899D01*
X202428782Y-128478767D01*
X202435639Y-128477602D01*
X202476434Y-128473006D01*
X202505139Y-128462960D01*
X202515176Y-128459449D01*
X202521865Y-128457522D01*
X202533146Y-128454946D01*
X202561873Y-128448391D01*
X202598859Y-128430578D01*
X202605267Y-128427924D01*
X202644020Y-128414365D01*
X202678783Y-128392520D01*
X202684860Y-128389162D01*
X202721840Y-128371355D01*
X202753937Y-128345757D01*
X202759596Y-128341741D01*
X202794356Y-128319902D01*
X202820457Y-128293799D01*
X202820472Y-128293787D01*
X205443787Y-125670472D01*
X205443801Y-125670456D01*
X205469902Y-125644356D01*
X205491735Y-125609606D01*
X205495750Y-125603947D01*
X205521356Y-125571840D01*
X205539171Y-125534846D01*
X205542526Y-125528775D01*
X205564365Y-125494020D01*
X205577922Y-125455275D01*
X205580583Y-125448853D01*
X205598392Y-125411873D01*
X205607525Y-125371857D01*
X205609452Y-125365169D01*
X205615103Y-125349016D01*
X205623006Y-125326434D01*
X205627602Y-125285635D01*
X205628761Y-125278810D01*
X205637900Y-125238774D01*
X205637900Y-125061225D01*
X205637900Y-125061224D01*
X205637900Y-123637494D01*
X205657585Y-123570455D01*
X205697109Y-123531767D01*
X205755335Y-123496087D01*
X205939120Y-123339120D01*
X206096087Y-123155335D01*
X206222371Y-122949258D01*
X206314863Y-122725963D01*
X206371285Y-122490948D01*
X206390248Y-122250000D01*
X206371285Y-122009052D01*
X206314863Y-121774037D01*
X206222371Y-121550742D01*
X206222371Y-121550741D01*
X206096090Y-121344669D01*
X206096089Y-121344667D01*
X206015057Y-121249791D01*
X205939120Y-121160880D01*
X205833070Y-121070305D01*
X205794878Y-121011799D01*
X205794379Y-120941931D01*
X205825920Y-120888337D01*
X207247055Y-119467204D01*
X207247055Y-119467203D01*
X207252427Y-119461832D01*
X207252441Y-119461816D01*
X207278541Y-119435717D01*
X207278542Y-119435716D01*
X207300389Y-119400944D01*
X207304397Y-119395297D01*
X207329995Y-119363200D01*
X207347807Y-119326212D01*
X207351168Y-119320132D01*
X207373002Y-119285384D01*
X207373005Y-119285380D01*
X207386560Y-119246636D01*
X207389222Y-119240213D01*
X207398300Y-119221362D01*
X207407031Y-119203234D01*
X207416162Y-119163221D01*
X207418085Y-119156546D01*
X207431646Y-119117794D01*
X207436242Y-119076995D01*
X207437407Y-119070144D01*
X207438357Y-119065983D01*
X207446539Y-119030135D01*
X207446539Y-118987541D01*
X207446540Y-118987509D01*
X207446540Y-114103047D01*
X207466225Y-114036008D01*
X207505748Y-113997321D01*
X207617039Y-113929123D01*
X207811596Y-113762956D01*
X207977763Y-113568399D01*
X208111449Y-113350243D01*
X208209362Y-113113860D01*
X208269092Y-112865070D01*
X208284140Y-112673863D01*
X208284140Y-110566137D01*
X208269092Y-110374930D01*
X208209362Y-110126140D01*
X208209360Y-110126135D01*
X208111451Y-109889760D01*
X208111449Y-109889757D01*
X207977764Y-109671603D01*
X207977761Y-109671598D01*
X207895958Y-109575820D01*
X207811596Y-109477044D01*
X207704536Y-109385606D01*
X207617041Y-109310878D01*
X207617036Y-109310875D01*
X207398882Y-109177190D01*
X207398879Y-109177188D01*
X207162504Y-109079279D01*
X207162500Y-109079278D01*
X206913710Y-109019548D01*
X206913707Y-109019547D01*
X206913704Y-109019547D01*
X206658640Y-108999474D01*
X206403575Y-109019547D01*
X206403571Y-109019547D01*
X206403570Y-109019548D01*
X206279175Y-109049413D01*
X206154775Y-109079279D01*
X205918400Y-109177188D01*
X205918397Y-109177190D01*
X205700243Y-109310875D01*
X205700238Y-109310878D01*
X205505684Y-109477044D01*
X205339518Y-109671598D01*
X205339515Y-109671603D01*
X205205830Y-109889757D01*
X205205828Y-109889760D01*
X205107919Y-110126135D01*
X205048187Y-110374934D01*
X205033140Y-110566135D01*
X205033140Y-112673865D01*
X205048187Y-112865065D01*
X205048187Y-112865068D01*
X205048188Y-112865070D01*
X205077999Y-112989241D01*
X205107919Y-113113864D01*
X205205828Y-113350239D01*
X205205830Y-113350242D01*
X205339515Y-113568396D01*
X205339518Y-113568401D01*
X205378549Y-113614100D01*
X205505684Y-113762956D01*
X205612743Y-113854393D01*
X205700238Y-113929121D01*
X205700239Y-113929122D01*
X205811528Y-113997319D01*
X205858404Y-114049131D01*
X205870739Y-114103047D01*
X205870740Y-118563639D01*
X205851055Y-118630678D01*
X205834421Y-118651319D01*
X204261585Y-120224156D01*
X204261581Y-120224160D01*
X204259154Y-120226586D01*
X204259150Y-120226590D01*
X204230098Y-120255644D01*
X204230095Y-120255648D01*
X204208260Y-120290396D01*
X204204236Y-120296067D01*
X204178648Y-120328155D01*
X204178645Y-120328159D01*
X204160840Y-120365130D01*
X204157476Y-120371215D01*
X204135636Y-120405977D01*
X204122079Y-120444719D01*
X204119417Y-120451145D01*
X204101609Y-120488127D01*
X204092476Y-120528134D01*
X204090551Y-120534816D01*
X204076995Y-120573560D01*
X204076994Y-120573568D01*
X204072396Y-120614356D01*
X204071232Y-120621210D01*
X204062101Y-120661226D01*
X204062101Y-120703936D01*
X204062100Y-120703973D01*
X204062100Y-120862505D01*
X204042415Y-120929544D01*
X204002890Y-120968232D01*
X203944667Y-121003910D01*
X203944656Y-121003918D01*
X203923272Y-121022182D01*
X203859510Y-121050751D01*
X203790425Y-121040312D01*
X203737950Y-120994180D01*
X203736029Y-120991042D01*
X203716135Y-120957402D01*
X203716132Y-120957399D01*
X203716130Y-120957396D01*
X203602603Y-120843869D01*
X203602595Y-120843863D01*
X203464393Y-120762131D01*
X203464388Y-120762129D01*
X203310208Y-120717335D01*
X203310202Y-120717334D01*
X203274183Y-120714500D01*
X203274181Y-120714500D01*
X203221900Y-120714500D01*
X203154861Y-120694815D01*
X203109106Y-120642011D01*
X203097900Y-120590500D01*
X203097900Y-119363973D01*
X203097899Y-119363936D01*
X203097899Y-119321226D01*
X203097899Y-119321225D01*
X203088766Y-119281209D01*
X203087602Y-119274363D01*
X203083006Y-119233566D01*
X203069441Y-119194801D01*
X203067526Y-119188153D01*
X203058391Y-119148126D01*
X203040580Y-119111142D01*
X203037923Y-119104729D01*
X203024365Y-119065980D01*
X203024364Y-119065978D01*
X203024363Y-119065976D01*
X203002527Y-119031225D01*
X202999161Y-119025134D01*
X202981355Y-118988160D01*
X202975254Y-118980509D01*
X202955763Y-118956068D01*
X202951737Y-118950395D01*
X202942111Y-118935076D01*
X202929902Y-118915644D01*
X202899977Y-118885719D01*
X202899949Y-118885689D01*
X202482859Y-118468599D01*
X202449374Y-118407276D01*
X202446540Y-118380918D01*
X202446540Y-114359499D01*
X202466225Y-114292460D01*
X202519029Y-114246705D01*
X202570540Y-114235499D01*
X202712820Y-114235499D01*
X202748844Y-114232665D01*
X202903033Y-114187869D01*
X203041238Y-114106135D01*
X203154775Y-113992598D01*
X203236509Y-113854393D01*
X203278531Y-113709753D01*
X203281304Y-113700208D01*
X203281305Y-113700202D01*
X203284140Y-113664183D01*
X203284139Y-109575820D01*
X203284136Y-109575781D01*
X203281305Y-109539796D01*
X203236509Y-109385607D01*
X203154775Y-109247402D01*
X203154773Y-109247400D01*
X203154770Y-109247396D01*
X203041243Y-109133869D01*
X203041235Y-109133863D01*
X202903033Y-109052131D01*
X202903028Y-109052129D01*
X202748848Y-109007335D01*
X202748842Y-109007334D01*
X202712823Y-109004500D01*
X202712821Y-109004500D01*
X202570540Y-109004500D01*
X202503501Y-108984815D01*
X202457746Y-108932011D01*
X202446540Y-108880500D01*
X202446540Y-88469870D01*
X202446540Y-88469866D01*
X202437404Y-88429844D01*
X202436241Y-88422996D01*
X202431646Y-88382206D01*
X202418083Y-88343448D01*
X202416162Y-88336774D01*
X202409675Y-88308353D01*
X202407031Y-88296767D01*
X202389219Y-88259779D01*
X202386561Y-88253361D01*
X202373005Y-88214620D01*
X202373002Y-88214615D01*
X202351168Y-88179867D01*
X202347808Y-88173788D01*
X202329996Y-88136800D01*
X202304403Y-88104708D01*
X202300376Y-88099033D01*
X202278541Y-88064283D01*
X202248617Y-88034359D01*
X202248589Y-88034329D01*
X180574608Y-66360348D01*
X180574569Y-66360311D01*
X180544356Y-66330098D01*
X180544355Y-66330097D01*
X180544354Y-66330096D01*
X180544352Y-66330094D01*
X180509601Y-66308260D01*
X180503931Y-66304236D01*
X180471840Y-66278645D01*
X180471838Y-66278644D01*
X180471837Y-66278643D01*
X180434864Y-66260837D01*
X180428774Y-66257472D01*
X180394018Y-66235633D01*
X180355271Y-66222075D01*
X180348844Y-66219412D01*
X180311874Y-66201609D01*
X180271869Y-66192478D01*
X180265185Y-66190552D01*
X180232631Y-66179162D01*
X180226434Y-66176994D01*
X180185634Y-66172396D01*
X180178787Y-66171232D01*
X180138776Y-66162101D01*
X180138774Y-66162101D01*
X180095972Y-66162101D01*
X180095936Y-66162100D01*
X180094244Y-66162100D01*
X166178775Y-66162100D01*
X166001226Y-66162100D01*
X166001220Y-66162100D01*
X165961213Y-66171232D01*
X165954356Y-66172397D01*
X165951499Y-66172719D01*
X165913570Y-66176992D01*
X165913567Y-66176993D01*
X165892063Y-66184517D01*
X165874816Y-66190552D01*
X165868141Y-66192475D01*
X165828126Y-66201609D01*
X165791143Y-66219416D01*
X165784721Y-66222076D01*
X165745988Y-66235631D01*
X165745977Y-66235636D01*
X165711227Y-66257470D01*
X165705140Y-66260834D01*
X165668159Y-66278644D01*
X165636064Y-66304237D01*
X165630394Y-66308261D01*
X165595647Y-66330096D01*
X165595644Y-66330098D01*
X165564158Y-66361583D01*
X162547445Y-69378294D01*
X162486122Y-69411779D01*
X162439356Y-69412922D01*
X162328949Y-69394500D01*
X162091051Y-69394500D01*
X161856395Y-69433656D01*
X161631397Y-69510899D01*
X161631388Y-69510902D01*
X161422162Y-69624130D01*
X161422156Y-69624134D01*
X161234436Y-69770243D01*
X161234432Y-69770246D01*
X161073307Y-69945274D01*
X161073304Y-69945278D01*
X160943188Y-70144434D01*
X160847625Y-70362297D01*
X160789225Y-70592911D01*
X160789223Y-70592922D01*
X160769580Y-70829993D01*
X160769580Y-70830006D01*
X160789223Y-71067077D01*
X160789225Y-71067088D01*
X160847625Y-71297702D01*
X160943188Y-71515565D01*
X161073304Y-71714721D01*
X161073307Y-71714725D01*
X161234432Y-71889753D01*
X161234436Y-71889756D01*
X161422156Y-72035865D01*
X161422163Y-72035869D01*
X161422165Y-72035871D01*
X161458702Y-72055644D01*
X161486337Y-72070599D01*
X161535928Y-72119818D01*
X161551036Y-72188035D01*
X161526866Y-72253590D01*
X161498444Y-72281228D01*
X161371183Y-72370338D01*
X161210342Y-72531179D01*
X161079865Y-72717517D01*
X160983734Y-72923673D01*
X160983730Y-72923682D01*
X160931127Y-73119999D01*
X160931128Y-73120000D01*
X161596653Y-73120000D01*
X161663692Y-73139685D01*
X161709447Y-73192489D01*
X161719391Y-73261647D01*
X161715631Y-73278933D01*
X161710000Y-73298111D01*
X161710000Y-73441888D01*
X161715631Y-73461067D01*
X161715630Y-73530936D01*
X161677855Y-73589714D01*
X161614299Y-73618738D01*
X161596653Y-73620000D01*
X160931128Y-73620000D01*
X160983730Y-73816317D01*
X160983734Y-73816326D01*
X161079865Y-74022482D01*
X161210342Y-74208820D01*
X161371179Y-74369657D01*
X161498444Y-74458770D01*
X161542069Y-74513348D01*
X161549261Y-74582846D01*
X161517739Y-74645201D01*
X161486338Y-74669399D01*
X161422171Y-74704124D01*
X161422156Y-74704134D01*
X161234436Y-74850243D01*
X161234432Y-74850246D01*
X161073307Y-75025274D01*
X161073304Y-75025278D01*
X160943188Y-75224434D01*
X160847625Y-75442297D01*
X160789225Y-75672911D01*
X160789223Y-75672922D01*
X160769580Y-75909993D01*
X160769580Y-75910006D01*
X160789223Y-76147077D01*
X160789225Y-76147088D01*
X160847625Y-76377702D01*
X160943188Y-76595565D01*
X160979788Y-76651585D01*
X161073306Y-76794724D01*
X161234430Y-76969751D01*
X161378837Y-77082147D01*
X161419649Y-77138857D01*
X161423324Y-77208630D01*
X161388693Y-77269313D01*
X161378843Y-77277847D01*
X161291924Y-77345500D01*
X161234431Y-77390248D01*
X161073303Y-77565278D01*
X161046751Y-77605921D01*
X160993604Y-77651278D01*
X160942942Y-77662100D01*
X160877721Y-77662100D01*
X160810682Y-77642415D01*
X160790040Y-77625781D01*
X157924219Y-74759959D01*
X157890734Y-74698636D01*
X157887900Y-74672278D01*
X157887900Y-72461230D01*
X157887900Y-72461226D01*
X157878764Y-72421204D01*
X157877601Y-72414356D01*
X157873006Y-72373566D01*
X157859443Y-72334808D01*
X157857522Y-72328134D01*
X157853440Y-72310249D01*
X157848391Y-72288127D01*
X157830579Y-72251139D01*
X157827921Y-72244721D01*
X157814365Y-72205980D01*
X157814362Y-72205975D01*
X157792528Y-72171227D01*
X157789168Y-72165148D01*
X157771356Y-72128160D01*
X157745763Y-72096068D01*
X157741736Y-72090393D01*
X157719901Y-72055643D01*
X157689977Y-72025719D01*
X157689949Y-72025689D01*
X154694608Y-69030348D01*
X154694569Y-69030311D01*
X154664356Y-69000098D01*
X154664355Y-69000097D01*
X154664354Y-69000096D01*
X154664352Y-69000094D01*
X154629601Y-68978260D01*
X154623931Y-68974236D01*
X154591840Y-68948645D01*
X154591838Y-68948644D01*
X154591837Y-68948643D01*
X154554864Y-68930837D01*
X154548774Y-68927472D01*
X154514018Y-68905633D01*
X154475271Y-68892075D01*
X154468844Y-68889412D01*
X154431874Y-68871609D01*
X154391869Y-68862478D01*
X154385185Y-68860552D01*
X154352631Y-68849162D01*
X154346434Y-68846994D01*
X154305634Y-68842396D01*
X154298787Y-68841232D01*
X154258776Y-68832101D01*
X154258774Y-68832101D01*
X154215972Y-68832101D01*
X154215936Y-68832100D01*
X154214244Y-68832100D01*
X153776783Y-68832100D01*
X153709744Y-68812415D01*
X153672974Y-68775921D01*
X153626288Y-68704462D01*
X153459547Y-68523334D01*
X153459543Y-68523331D01*
X153265279Y-68372129D01*
X153265270Y-68372123D01*
X153048770Y-68254960D01*
X153048767Y-68254958D01*
X153048764Y-68254957D01*
X153048761Y-68254956D01*
X153048759Y-68254955D01*
X152815920Y-68175021D01*
X152654034Y-68148007D01*
X152573092Y-68134500D01*
X152326908Y-68134500D01*
X152266201Y-68144630D01*
X152084079Y-68175021D01*
X151851240Y-68254955D01*
X151851229Y-68254960D01*
X151634729Y-68372123D01*
X151634720Y-68372129D01*
X151440456Y-68523331D01*
X151440452Y-68523334D01*
X151273715Y-68704458D01*
X151273712Y-68704462D01*
X151139064Y-68910555D01*
X151040172Y-69136007D01*
X150979738Y-69374660D01*
X150959409Y-69619994D01*
X150959409Y-69620005D01*
X150979738Y-69865339D01*
X151040172Y-70103992D01*
X151139064Y-70329444D01*
X151197393Y-70418722D01*
X151273714Y-70535540D01*
X151440450Y-70716663D01*
X151561733Y-70811062D01*
X151634721Y-70867871D01*
X151639016Y-70870677D01*
X151637837Y-70872480D01*
X151680956Y-70915268D01*
X151696070Y-70983483D01*
X151671905Y-71049041D01*
X151643477Y-71076688D01*
X151578922Y-71121890D01*
X151578920Y-71121891D01*
X151411891Y-71288920D01*
X151411886Y-71288926D01*
X151276400Y-71482420D01*
X151276399Y-71482422D01*
X151176570Y-71696507D01*
X151176567Y-71696513D01*
X151119364Y-71909999D01*
X151119364Y-71910000D01*
X151836653Y-71910000D01*
X151903692Y-71929685D01*
X151949447Y-71982489D01*
X151959391Y-72051647D01*
X151955631Y-72068933D01*
X151950000Y-72088111D01*
X151950000Y-72231888D01*
X151955631Y-72251067D01*
X151955630Y-72320936D01*
X151917855Y-72379714D01*
X151854299Y-72408738D01*
X151836653Y-72410000D01*
X151119364Y-72410000D01*
X151176567Y-72623486D01*
X151176570Y-72623492D01*
X151276399Y-72837578D01*
X151411894Y-73031082D01*
X151578917Y-73198105D01*
X151643477Y-73243311D01*
X151687102Y-73297888D01*
X151694294Y-73367387D01*
X151662772Y-73429741D01*
X151638475Y-73448476D01*
X151639025Y-73449317D01*
X151634720Y-73452129D01*
X151440456Y-73603331D01*
X151440452Y-73603334D01*
X151273715Y-73784458D01*
X151273712Y-73784462D01*
X151139064Y-73990555D01*
X151040172Y-74216007D01*
X150979738Y-74454660D01*
X150959409Y-74699994D01*
X150959409Y-74700005D01*
X150979738Y-74945339D01*
X151040172Y-75183992D01*
X151139064Y-75409444D01*
X151273712Y-75615537D01*
X151273715Y-75615541D01*
X151440452Y-75796665D01*
X151440456Y-75796668D01*
X151537431Y-75872147D01*
X151578244Y-75928857D01*
X151581919Y-75998630D01*
X151547287Y-76059313D01*
X151537431Y-76067853D01*
X151440456Y-76143331D01*
X151440452Y-76143334D01*
X151273715Y-76324458D01*
X151273712Y-76324462D01*
X151139064Y-76530555D01*
X151040172Y-76756007D01*
X150979738Y-76994660D01*
X150959409Y-77239994D01*
X150959409Y-77240005D01*
X150979738Y-77485339D01*
X151040172Y-77723992D01*
X151139064Y-77949444D01*
X151197393Y-78038722D01*
X151273714Y-78155540D01*
X151381373Y-78272489D01*
X151440452Y-78336665D01*
X151440456Y-78336668D01*
X151537431Y-78412147D01*
X151578244Y-78468857D01*
X151581919Y-78538630D01*
X151547287Y-78599313D01*
X151537431Y-78607853D01*
X151440456Y-78683331D01*
X151440452Y-78683334D01*
X151273715Y-78864458D01*
X151273712Y-78864462D01*
X151139064Y-79070555D01*
X151040172Y-79296007D01*
X150979738Y-79534660D01*
X150959409Y-79779994D01*
X150959409Y-79780005D01*
X150979738Y-80025339D01*
X151040172Y-80263992D01*
X151139064Y-80489444D01*
X151273712Y-80695537D01*
X151273720Y-80695548D01*
X151306506Y-80731162D01*
X151337429Y-80793816D01*
X151329569Y-80863242D01*
X151285422Y-80917398D01*
X151278399Y-80921877D01*
X151207402Y-80963865D01*
X151207396Y-80963869D01*
X151093869Y-81077396D01*
X151093863Y-81077404D01*
X151012131Y-81215606D01*
X151012129Y-81215611D01*
X150967335Y-81369791D01*
X150967334Y-81369797D01*
X150964500Y-81405817D01*
X150964501Y-83234180D01*
X150967335Y-83270204D01*
X151012129Y-83424388D01*
X151012131Y-83424393D01*
X151093863Y-83562595D01*
X151093869Y-83562603D01*
X151207396Y-83676130D01*
X151207400Y-83676133D01*
X151207402Y-83676135D01*
X151345607Y-83757869D01*
X151377301Y-83767077D01*
X151499791Y-83802664D01*
X151499794Y-83802664D01*
X151499796Y-83802665D01*
X151511803Y-83803610D01*
X151535817Y-83805500D01*
X151535818Y-83805499D01*
X151535819Y-83805500D01*
X153364180Y-83805499D01*
X153400204Y-83802665D01*
X153554393Y-83757869D01*
X153692598Y-83676135D01*
X153806135Y-83562598D01*
X153887869Y-83424393D01*
X153920851Y-83310865D01*
X153932664Y-83270208D01*
X153932665Y-83270202D01*
X153935500Y-83234183D01*
X153935499Y-81405820D01*
X153935499Y-81405817D01*
X153932665Y-81369796D01*
X153887869Y-81215607D01*
X153806135Y-81077402D01*
X153806133Y-81077400D01*
X153806130Y-81077396D01*
X153692603Y-80963869D01*
X153692594Y-80963862D01*
X153621601Y-80921877D01*
X153573917Y-80870808D01*
X153561414Y-80802066D01*
X153588060Y-80737477D01*
X153593476Y-80731179D01*
X153626286Y-80695540D01*
X153760936Y-80489443D01*
X153859827Y-80263994D01*
X153920261Y-80025343D01*
X153930608Y-79900481D01*
X153940591Y-79780005D01*
X153940591Y-79779994D01*
X153920261Y-79534660D01*
X153920261Y-79534657D01*
X153859827Y-79296006D01*
X153760936Y-79070557D01*
X153760507Y-79069901D01*
X153647099Y-78896317D01*
X153626286Y-78864460D01*
X153459550Y-78683337D01*
X153387825Y-78627511D01*
X153362568Y-78607852D01*
X153321755Y-78551141D01*
X153318082Y-78481368D01*
X153352713Y-78420685D01*
X153362551Y-78412160D01*
X153459550Y-78336663D01*
X153626286Y-78155540D01*
X153672973Y-78084079D01*
X153726121Y-78038722D01*
X153776783Y-78027900D01*
X155362279Y-78027900D01*
X155429318Y-78047585D01*
X155449960Y-78064219D01*
X158965689Y-81579949D01*
X158965719Y-81579977D01*
X158995644Y-81609902D01*
X159030393Y-81631736D01*
X159036068Y-81635763D01*
X159068160Y-81661356D01*
X159105148Y-81679168D01*
X159111225Y-81682527D01*
X159145980Y-81704365D01*
X159169516Y-81712600D01*
X159184720Y-81717921D01*
X159191139Y-81720579D01*
X159228127Y-81738391D01*
X159265152Y-81746841D01*
X159268136Y-81747522D01*
X159274819Y-81749447D01*
X159313566Y-81763006D01*
X159354362Y-81767602D01*
X159361214Y-81768766D01*
X159401226Y-81777899D01*
X159444028Y-81777899D01*
X159444064Y-81777900D01*
X159445756Y-81777900D01*
X160942942Y-81777900D01*
X161009981Y-81797585D01*
X161046751Y-81834079D01*
X161073303Y-81874721D01*
X161073306Y-81874724D01*
X161234430Y-82049751D01*
X161378837Y-82162147D01*
X161419649Y-82218857D01*
X161423324Y-82288630D01*
X161388693Y-82349313D01*
X161378843Y-82357847D01*
X161293650Y-82424156D01*
X161234431Y-82470248D01*
X161073307Y-82645274D01*
X161073304Y-82645278D01*
X160943188Y-82844434D01*
X160847625Y-83062297D01*
X160789225Y-83292911D01*
X160789223Y-83292922D01*
X160769580Y-83529993D01*
X160769580Y-83530006D01*
X160789223Y-83767077D01*
X160789225Y-83767088D01*
X160847625Y-83997702D01*
X160943188Y-84215565D01*
X161073304Y-84414721D01*
X161073306Y-84414724D01*
X161234430Y-84589751D01*
X161378837Y-84702147D01*
X161419649Y-84758857D01*
X161423324Y-84828630D01*
X161388693Y-84889313D01*
X161378843Y-84897847D01*
X161269571Y-84982897D01*
X161234431Y-85010248D01*
X161073307Y-85185274D01*
X161073304Y-85185278D01*
X160943188Y-85384434D01*
X160847625Y-85602297D01*
X160789225Y-85832911D01*
X160789223Y-85832922D01*
X160769580Y-86069993D01*
X160769580Y-86070006D01*
X160789223Y-86307077D01*
X160789225Y-86307088D01*
X160847625Y-86537702D01*
X160943188Y-86755565D01*
X161041894Y-86906645D01*
X161073306Y-86954724D01*
X161234430Y-87129751D01*
X161378838Y-87242148D01*
X161419649Y-87298855D01*
X161423324Y-87368628D01*
X161388693Y-87429312D01*
X161378837Y-87437852D01*
X161234432Y-87550247D01*
X161073303Y-87725278D01*
X161046751Y-87765921D01*
X160993604Y-87811278D01*
X160942942Y-87822100D01*
X160044064Y-87822100D01*
X160044028Y-87822101D01*
X160001223Y-87822101D01*
X159961211Y-87831232D01*
X159954356Y-87832396D01*
X159913563Y-87836994D01*
X159874824Y-87850549D01*
X159868141Y-87852474D01*
X159828124Y-87861609D01*
X159791150Y-87879415D01*
X159784724Y-87882076D01*
X159745986Y-87895632D01*
X159745978Y-87895636D01*
X159711225Y-87917472D01*
X159705138Y-87920836D01*
X159668158Y-87938645D01*
X159636070Y-87964233D01*
X159630401Y-87968256D01*
X159595640Y-87990100D01*
X159595637Y-87990103D01*
X159546718Y-88039021D01*
X159546714Y-88039027D01*
X155129960Y-92455781D01*
X155068637Y-92489266D01*
X155042279Y-92492100D01*
X153651783Y-92492100D01*
X153584744Y-92472415D01*
X153547974Y-92435921D01*
X153501288Y-92364462D01*
X153334547Y-92183334D01*
X153334543Y-92183331D01*
X153237569Y-92107853D01*
X153196756Y-92051143D01*
X153193081Y-91981370D01*
X153227713Y-91920687D01*
X153237569Y-91912147D01*
X153284476Y-91875636D01*
X153334550Y-91836663D01*
X153501286Y-91655540D01*
X153635936Y-91449443D01*
X153734827Y-91223994D01*
X153795261Y-90985343D01*
X153815591Y-90740000D01*
X153810809Y-90682296D01*
X153795261Y-90494660D01*
X153795261Y-90494657D01*
X153734827Y-90256006D01*
X153635936Y-90030557D01*
X153632720Y-90025635D01*
X153501287Y-89824462D01*
X153501286Y-89824460D01*
X153377760Y-89690275D01*
X153346839Y-89627623D01*
X153354699Y-89558196D01*
X153398846Y-89504041D01*
X153409566Y-89497461D01*
X153417091Y-89493351D01*
X153532187Y-89407190D01*
X153532190Y-89407187D01*
X153618350Y-89292093D01*
X153618354Y-89292086D01*
X153668596Y-89157379D01*
X153668598Y-89157372D01*
X153674999Y-89097844D01*
X153675000Y-89097827D01*
X153675000Y-88450000D01*
X152938347Y-88450000D01*
X152871308Y-88430315D01*
X152825553Y-88377511D01*
X152815609Y-88308353D01*
X152819369Y-88291067D01*
X152825000Y-88271888D01*
X152825000Y-88128111D01*
X152819369Y-88108933D01*
X152819370Y-88039064D01*
X152857145Y-87980286D01*
X152920701Y-87951262D01*
X152938347Y-87950000D01*
X153675000Y-87950000D01*
X153675000Y-87302172D01*
X153674999Y-87302155D01*
X153668598Y-87242627D01*
X153668596Y-87242620D01*
X153618354Y-87107913D01*
X153618350Y-87107906D01*
X153532190Y-86992812D01*
X153532187Y-86992809D01*
X153417093Y-86906649D01*
X153417086Y-86906645D01*
X153282379Y-86856403D01*
X153282372Y-86856401D01*
X153222844Y-86850000D01*
X152575000Y-86850000D01*
X152575000Y-87587698D01*
X152555315Y-87654737D01*
X152502511Y-87700492D01*
X152433355Y-87710436D01*
X152360766Y-87700000D01*
X152360763Y-87700000D01*
X152289237Y-87700000D01*
X152289233Y-87700000D01*
X152216645Y-87710436D01*
X152147487Y-87700492D01*
X152094684Y-87654736D01*
X152075000Y-87587698D01*
X152075000Y-86850000D01*
X151427155Y-86850000D01*
X151367627Y-86856401D01*
X151367620Y-86856403D01*
X151232913Y-86906645D01*
X151232906Y-86906649D01*
X151117812Y-86992809D01*
X151117809Y-86992812D01*
X151031649Y-87107906D01*
X151031645Y-87107913D01*
X150981403Y-87242620D01*
X150981401Y-87242627D01*
X150975000Y-87302155D01*
X150975000Y-87950000D01*
X151711653Y-87950000D01*
X151778692Y-87969685D01*
X151824447Y-88022489D01*
X151834391Y-88091647D01*
X151830631Y-88108933D01*
X151825000Y-88128111D01*
X151825000Y-88271888D01*
X151830631Y-88291067D01*
X151830630Y-88360936D01*
X151792855Y-88419714D01*
X151729299Y-88448738D01*
X151711653Y-88450000D01*
X150975000Y-88450000D01*
X150975000Y-89097844D01*
X150981401Y-89157372D01*
X150981403Y-89157379D01*
X151031645Y-89292086D01*
X151031649Y-89292093D01*
X151117809Y-89407187D01*
X151117812Y-89407190D01*
X151232906Y-89493350D01*
X151240436Y-89497462D01*
X151289841Y-89546868D01*
X151304692Y-89615141D01*
X151280274Y-89680605D01*
X151272238Y-89690277D01*
X151148711Y-89824462D01*
X151102026Y-89895921D01*
X151048879Y-89941278D01*
X150998217Y-89952100D01*
X149921220Y-89952100D01*
X149881213Y-89961232D01*
X149874356Y-89962397D01*
X149871499Y-89962719D01*
X149833570Y-89966992D01*
X149833567Y-89966993D01*
X149812063Y-89974517D01*
X149794816Y-89980552D01*
X149788141Y-89982475D01*
X149748126Y-89991609D01*
X149711143Y-90009416D01*
X149704721Y-90012076D01*
X149665988Y-90025631D01*
X149665977Y-90025636D01*
X149631227Y-90047470D01*
X149625140Y-90050834D01*
X149588159Y-90068644D01*
X149556064Y-90094237D01*
X149550394Y-90098261D01*
X149515647Y-90120096D01*
X149515644Y-90120098D01*
X149486590Y-90149150D01*
X149486586Y-90149154D01*
X149484160Y-90151581D01*
X149484156Y-90151585D01*
X148561585Y-91074156D01*
X148561581Y-91074160D01*
X148559154Y-91076586D01*
X148559150Y-91076590D01*
X148530098Y-91105644D01*
X148530095Y-91105648D01*
X148508260Y-91140396D01*
X148504236Y-91146067D01*
X148478648Y-91178155D01*
X148478645Y-91178159D01*
X148460840Y-91215130D01*
X148457476Y-91221215D01*
X148435636Y-91255977D01*
X148422079Y-91294719D01*
X148419417Y-91301145D01*
X148401609Y-91338127D01*
X148392476Y-91378134D01*
X148390551Y-91384816D01*
X148376995Y-91423560D01*
X148376994Y-91423568D01*
X148372396Y-91464356D01*
X148371232Y-91471210D01*
X148362101Y-91511226D01*
X148362101Y-91553936D01*
X148362100Y-91553973D01*
X148362100Y-106196149D01*
X60900500Y-106196149D01*
X60900500Y-81649199D01*
X63431110Y-81649199D01*
X63451046Y-81940657D01*
X63510484Y-82226696D01*
X63510486Y-82226701D01*
X63608314Y-82501965D01*
X63608315Y-82501967D01*
X63608316Y-82501970D01*
X63608318Y-82501974D01*
X63742724Y-82761364D01*
X63911198Y-83000037D01*
X64110602Y-83213547D01*
X64110607Y-83213551D01*
X64110609Y-83213553D01*
X64135967Y-83234183D01*
X64337222Y-83397916D01*
X64337224Y-83397917D01*
X64337225Y-83397918D01*
X64586836Y-83549710D01*
X64769842Y-83629200D01*
X64854794Y-83666100D01*
X65136104Y-83744920D01*
X65390554Y-83779892D01*
X65425527Y-83784700D01*
X65425528Y-83784700D01*
X65717673Y-83784700D01*
X65748875Y-83780411D01*
X66007096Y-83744920D01*
X66288406Y-83666100D01*
X66526692Y-83562598D01*
X66556363Y-83549710D01*
X66588775Y-83530000D01*
X66805978Y-83397916D01*
X67032598Y-83213547D01*
X67232002Y-83000037D01*
X67400476Y-82761364D01*
X67534882Y-82501974D01*
X67632715Y-82226697D01*
X67692153Y-81940663D01*
X67712090Y-81649200D01*
X67712090Y-81649199D01*
X138430210Y-81649199D01*
X138450146Y-81940657D01*
X138509584Y-82226696D01*
X138509586Y-82226701D01*
X138607414Y-82501965D01*
X138607415Y-82501967D01*
X138607416Y-82501970D01*
X138607418Y-82501974D01*
X138741824Y-82761364D01*
X138910298Y-83000037D01*
X139109702Y-83213547D01*
X139109707Y-83213551D01*
X139109709Y-83213553D01*
X139135067Y-83234183D01*
X139336322Y-83397916D01*
X139336324Y-83397917D01*
X139336325Y-83397918D01*
X139585936Y-83549710D01*
X139768942Y-83629200D01*
X139853894Y-83666100D01*
X140135204Y-83744920D01*
X140389654Y-83779892D01*
X140424627Y-83784700D01*
X140424628Y-83784700D01*
X140716773Y-83784700D01*
X140747975Y-83780411D01*
X141006196Y-83744920D01*
X141287506Y-83666100D01*
X141525792Y-83562598D01*
X141555463Y-83549710D01*
X141587875Y-83530000D01*
X141805078Y-83397916D01*
X142031698Y-83213547D01*
X142231102Y-83000037D01*
X142399576Y-82761364D01*
X142533982Y-82501974D01*
X142631815Y-82226697D01*
X142691253Y-81940663D01*
X142711190Y-81649200D01*
X142691253Y-81357737D01*
X142631815Y-81071703D01*
X142556305Y-80859237D01*
X142533985Y-80796434D01*
X142533984Y-80796432D01*
X142533982Y-80796426D01*
X142399576Y-80537036D01*
X142231102Y-80298363D01*
X142031698Y-80084853D01*
X142031691Y-80084848D01*
X142031690Y-80084846D01*
X141805074Y-79900481D01*
X141555463Y-79748689D01*
X141287509Y-79632301D01*
X141287507Y-79632300D01*
X141287506Y-79632300D01*
X141148486Y-79593348D01*
X141006201Y-79553481D01*
X141006197Y-79553480D01*
X141006196Y-79553480D01*
X140861483Y-79533590D01*
X140716773Y-79513700D01*
X140716772Y-79513700D01*
X140424628Y-79513700D01*
X140424627Y-79513700D01*
X140135204Y-79553480D01*
X140135198Y-79553481D01*
X139853890Y-79632301D01*
X139585936Y-79748689D01*
X139336325Y-79900481D01*
X139109709Y-80084846D01*
X139109703Y-80084851D01*
X139109702Y-80084853D01*
X139052669Y-80145921D01*
X138910299Y-80298362D01*
X138741824Y-80537035D01*
X138659695Y-80695537D01*
X138608771Y-80793816D01*
X138607415Y-80796432D01*
X138607414Y-80796434D01*
X138509586Y-81071698D01*
X138509584Y-81071703D01*
X138450146Y-81357742D01*
X138430210Y-81649199D01*
X67712090Y-81649199D01*
X67692153Y-81357737D01*
X67632715Y-81071703D01*
X67557205Y-80859237D01*
X67534885Y-80796434D01*
X67534884Y-80796432D01*
X67534882Y-80796426D01*
X67400476Y-80537036D01*
X67232002Y-80298363D01*
X67032598Y-80084853D01*
X67032591Y-80084848D01*
X67032590Y-80084846D01*
X66805974Y-79900481D01*
X66556363Y-79748689D01*
X66288409Y-79632301D01*
X66288407Y-79632300D01*
X66288406Y-79632300D01*
X66149386Y-79593348D01*
X66007101Y-79553481D01*
X66007097Y-79553480D01*
X66007096Y-79553480D01*
X65862384Y-79533589D01*
X65717673Y-79513700D01*
X65717672Y-79513700D01*
X65425528Y-79513700D01*
X65425527Y-79513700D01*
X65136104Y-79553480D01*
X65136098Y-79553481D01*
X64854790Y-79632301D01*
X64586836Y-79748689D01*
X64337225Y-79900481D01*
X64110609Y-80084846D01*
X64110603Y-80084851D01*
X64110602Y-80084853D01*
X64053569Y-80145921D01*
X63911199Y-80298362D01*
X63742724Y-80537035D01*
X63660595Y-80695537D01*
X63609671Y-80793816D01*
X63608315Y-80796432D01*
X63608314Y-80796434D01*
X63510486Y-81071698D01*
X63510484Y-81071703D01*
X63451046Y-81357742D01*
X63431110Y-81649199D01*
X60900500Y-81649199D01*
X60900500Y-77124500D01*
X60920185Y-77057461D01*
X60972989Y-77011706D01*
X61024500Y-77000500D01*
X143075240Y-77000500D01*
X143075383Y-77000528D01*
X143075384Y-77000524D01*
X143099997Y-77000539D01*
X143100000Y-77000541D01*
X143100383Y-77000383D01*
X143100500Y-77000099D01*
X143100541Y-77000000D01*
X143100540Y-76999997D01*
X143100583Y-76975889D01*
X143100500Y-76975467D01*
X143100500Y-63274500D01*
X143120185Y-63207461D01*
X143172989Y-63161706D01*
X143224500Y-63150500D01*
X179048430Y-63150500D01*
X179115469Y-63170185D01*
G37*
%TD.AperFunction*%
%TD*%
M02*
