M48
; DRILL file {KiCad 7.0.7-7.0.7~ubuntu22.04.1} date Fri 29 Sep 2023 12:11:08 PM MDT
; FORMAT={-:-/ absolute / metric / decimal}
; #@! TF.CreationDate,2023-09-29T12:11:08-06:00
; #@! TF.GenerationSoftware,Kicad,Pcbnew,7.0.7-7.0.7~ubuntu22.04.1
; #@! TF.FileFunction,MixedPlating,1,2
FMAT,2
METRIC
; #@! TA.AperFunction,Plated,PTH,ComponentDrill
T1C0.700
; #@! TA.AperFunction,Plated,PTH,ComponentDrill
T2C0.900
; #@! TA.AperFunction,Plated,PTH,ComponentDrill
T3C1.000
; #@! TA.AperFunction,Plated,PTH,ComponentDrill
T4C1.100
; #@! TA.AperFunction,Plated,PTH,ComponentDrill
T5C1.320
; #@! TA.AperFunction,Plated,PTH,ComponentDrill
T6C2.500
%
G90
G05
T1
X181.13Y-112.45
X181.13Y-114.99
T2
X202.31Y-122.25
X204.85Y-122.25
T3
X152.325Y-88.2
X152.325Y-90.74
X152.325Y-93.28
X152.325Y-95.82
X152.45Y-69.62
X152.45Y-72.16
X152.45Y-74.7
X152.45Y-77.24
X152.45Y-79.78
X152.45Y-82.32
X162.21Y-70.83
X162.21Y-73.37
X162.21Y-75.91
X162.21Y-78.45
X162.21Y-80.99
X162.21Y-83.53
X162.21Y-86.07
X162.21Y-88.61
X162.21Y-91.15
X162.21Y-93.69
X162.21Y-96.23
X162.21Y-98.77
X162.21Y-101.31
X162.21Y-103.85
X162.21Y-106.39
X177.45Y-70.83
X177.45Y-73.37
X177.45Y-75.91
X177.45Y-78.45
X177.45Y-80.99
X177.45Y-83.53
X177.45Y-86.07
X177.45Y-88.61
X177.45Y-91.15
X177.45Y-93.69
X177.45Y-96.23
X177.45Y-98.77
X177.45Y-101.31
X177.45Y-103.85
X177.45Y-106.39
X189.659Y-105.82
X189.659Y-113.42
T4
X185.01Y-122.255
X187.55Y-122.255
X190.09Y-122.255
T5
X201.659Y-111.62
X206.659Y-111.62
T6
X65.572Y-81.649
X65.572Y-112.65
X140.571Y-81.649
X140.571Y-112.65
T0
M30
