%TF.GenerationSoftware,KiCad,Pcbnew,7.0.7-7.0.7~ubuntu22.04.1*%
%TF.CreationDate,2023-09-29T12:11:11-06:00*%
%TF.ProjectId,ph_meter,70685f6d-6574-4657-922e-6b696361645f,1.3*%
%TF.SameCoordinates,Original*%
%TF.FileFunction,Soldermask,Top*%
%TF.FilePolarity,Negative*%
%FSLAX46Y46*%
G04 Gerber Fmt 4.6, Leading zero omitted, Abs format (unit mm)*
G04 Created by KiCad (PCBNEW 7.0.7-7.0.7~ubuntu22.04.1) date 2023-09-29 12:11:11*
%MOMM*%
%LPD*%
G01*
G04 APERTURE LIST*
%ADD10C,1.400000*%
%ADD11O,1.400000X1.400000*%
%ADD12R,1.700000X1.700000*%
%ADD13O,1.700000X1.700000*%
%ADD14R,1.600000X1.600000*%
%ADD15O,1.600000X1.600000*%
%ADD16R,1.800000X1.800000*%
%ADD17O,1.800000X1.800000*%
%ADD18R,2.000000X2.000000*%
%ADD19C,2.000000*%
%ADD20R,1.980000X3.960000*%
%ADD21O,1.980000X3.960000*%
%ADD22C,3.000000*%
%ADD23R,1.905000X2.000000*%
%ADD24O,1.905000X2.000000*%
G04 APERTURE END LIST*
D10*
%TO.C,R1*%
X181130000Y-114990000D03*
D11*
X181130000Y-112450000D03*
%TD*%
D12*
%TO.C,J4*%
X152450000Y-82320000D03*
D13*
X152450000Y-79780000D03*
X152450000Y-77240000D03*
X152450000Y-74700000D03*
X152450000Y-72160000D03*
X152450000Y-69620000D03*
%TD*%
D14*
%TO.C,A1*%
X177450000Y-70830000D03*
D15*
X177450000Y-73370000D03*
X177450000Y-75910000D03*
X177450000Y-78450000D03*
X177450000Y-80990000D03*
X177450000Y-83530000D03*
X177450000Y-86070000D03*
X177450000Y-88610000D03*
X177450000Y-91150000D03*
X177450000Y-93690000D03*
X177450000Y-96230000D03*
X177450000Y-98770000D03*
X177450000Y-101310000D03*
X177450000Y-103850000D03*
X177450000Y-106390000D03*
X162210000Y-106390000D03*
X162210000Y-103850000D03*
X162210000Y-101310000D03*
X162210000Y-98770000D03*
X162210000Y-96230000D03*
X162210000Y-93690000D03*
X162210000Y-91150000D03*
X162210000Y-88610000D03*
X162210000Y-86070000D03*
X162210000Y-83530000D03*
X162210000Y-80990000D03*
X162210000Y-78450000D03*
X162210000Y-75910000D03*
X162210000Y-73370000D03*
X162210000Y-70830000D03*
%TD*%
D16*
%TO.C,D1*%
X202310000Y-122250000D03*
D17*
X204850000Y-122250000D03*
%TD*%
D12*
%TO.C,J2*%
X152325000Y-88200000D03*
D13*
X152325000Y-90740000D03*
X152325000Y-93280000D03*
X152325000Y-95820000D03*
%TD*%
D18*
%TO.C,BZ1*%
X189658640Y-105820000D03*
D19*
X189658640Y-113420000D03*
%TD*%
D20*
%TO.C,J3*%
X201658640Y-111620000D03*
D21*
X206658640Y-111620000D03*
%TD*%
D22*
%TO.C,REF\u002A\u002A*%
X140570700Y-112649900D03*
X140570700Y-81649200D03*
X65572120Y-112649900D03*
X65571600Y-81649200D03*
%TD*%
D23*
%TO.C,Q1*%
X185010000Y-122255000D03*
D24*
X187550000Y-122255000D03*
X190090000Y-122255000D03*
%TD*%
M02*
